<?xml version="1.0" encoding="UTF-8" standalone="no"?>
<svg
   xmlns:dc="http://purl.org/dc/elements/1.1/"
   xmlns:cc="http://creativecommons.org/ns#"
   xmlns:rdf="http://www.w3.org/1999/02/22-rdf-syntax-ns#"
   xmlns:svg="http://www.w3.org/2000/svg"
   xmlns="http://www.w3.org/2000/svg"
   version="1.1"
   width="24.100801mm"
   height="8.5351486mm"
   viewBox="0 0 24.100802 8.5351485"
   id="svg112152">
  <metadata
     id="metadata112158">
    <rdf:RDF>
      <cc:Work
         rdf:about="">
        <dc:format>image/svg+xml</dc:format>
        <dc:type
           rdf:resource="http://purl.org/dc/dcmitype/StillImage" />
      </cc:Work>
    </rdf:RDF>
  </metadata>
  <defs
     id="defs112156" />
  <title
     id="title111530">SVG Image created as trinamic_wiring.svg date 2023/08/01 16:42:02 </title>
  <desc
     id="desc111532">Image generated by Eeschema-SVG </desc>
  <g
     style="fill:#000000;fill-opacity:1;stroke:#000000;stroke-linecap:round;stroke-linejoin:round;stroke-opacity:1"
     id="g111534"
     transform="translate(-120.4595,-31.97755)" />
  <g
     style="fill:#000000;fill-opacity:0;stroke:#000000;stroke-width:0.1524;stroke-linecap:round;stroke-linejoin:round;stroke-opacity:1"
     id="g111536"
     transform="translate(-120.4595,-31.97755)" />
  <g
     style="fill:#ffffff;fill-opacity:0;stroke:#ffffff;stroke-width:0.1524;stroke-linecap:round;stroke-linejoin:round;stroke-opacity:1"
     id="g111538"
     transform="translate(-120.4595,-31.97755)" />
  <g
     style="fill:#ffffff;fill-opacity:0;stroke:#ffffff;stroke-width:0.0001;stroke-linecap:round;stroke-linejoin:round;stroke-opacity:1"
     id="g111542"
     transform="translate(-120.4595,-31.97755)">
    <rect
       x="120.65"
       y="34.290001"
       width="12.7"
       height="3.8099999"
       rx="0.000000"
       id="rect111540" />
  </g>
  <g
     style="fill:#ffffff;fill-opacity:0;stroke:#ffffff;stroke-width:0.1524;stroke-linecap:round;stroke-linejoin:round;stroke-opacity:1"
     id="g111544"
     transform="translate(-120.4595,-31.97755)" />
  <g
     style="fill:#840000;fill-opacity:1;stroke:#840000;stroke-width:0.1524;stroke-linecap:round;stroke-linejoin:round;stroke-opacity:1"
     id="g111546"
     transform="translate(-120.4595,-31.97755)" />
  <g
     style="fill:#840000;fill-opacity:0;stroke:#840000;stroke-width:0.381;stroke-linecap:round;stroke-linejoin:round;stroke-opacity:1"
     id="g111550"
     transform="translate(-120.4595,-31.97755)">
    <rect
       x="120.65"
       y="34.290001"
       width="12.7"
       height="3.8099999"
       rx="0.000000"
       id="rect111548" />
  </g>
  <g
     style="fill:#006464;fill-opacity:0;stroke:#006464;stroke-width:0.381;stroke-linecap:round;stroke-linejoin:round;stroke-opacity:1"
     id="g111552"
     transform="translate(-120.4595,-31.97755)" />
  <g
     style="fill:#006464;fill-opacity:0;stroke:#006464;stroke-width:0.3175;stroke-linecap:round;stroke-linejoin:round;stroke-opacity:1"
     id="g111724"
     transform="translate(-120.4595,-31.97755)">
    <text
       x="120.65"
       y="33.5784"
       textLength="9.2256002"
       font-size="1.6933px"
       lengthAdjust="spacingAndGlyphs"
       text-anchor="start"
       opacity="0"
       id="text111554">TMC2209</text>
    <g
       class="stroked-text"
       id="g111722">
      <desc
         id="desc111556">TMC2209</desc>
      <path
         d="m 120.9797,32.1363 h 0.7257"
         id="path111558" />
      <path
         d="m 121.3426,33.4063 v -1.27"
         id="path111560" />
      <path
         d="m 122.1287,33.4063 v -1.27"
         id="path111562" />
      <path
         d="m 122.1287,32.1363 0.4234,0.9072"
         id="path111564" />
      <path
         d="m 122.5521,33.0435 0.4233,-0.9072"
         id="path111566" />
      <path
         d="m 122.9754,32.1363 v 1.27"
         id="path111568" />
      <path
         d="m 124.3058,33.2854 -0.0604,0.0605"
         id="path111570" />
      <path
         d="m 124.2454,33.3459 -0.1815,0.0604"
         id="path111572" />
      <path
         d="M 124.0639,33.4063 H 123.943"
         id="path111574" />
      <path
         d="m 123.943,33.4063 -0.1814,-0.0604"
         id="path111576" />
      <path
         d="m 123.7616,33.3459 -0.121,-0.121"
         id="path111578" />
      <path
         d="m 123.6406,33.2249 -0.0605,-0.121"
         id="path111580" />
      <path
         d="M 123.5801,33.1039 123.5197,32.862"
         id="path111582" />
      <path
         d="M 123.5197,32.862 V 32.6806"
         id="path111584" />
      <path
         d="m 123.5197,32.6806 0.0604,-0.2419"
         id="path111586" />
      <path
         d="m 123.5801,32.4387 0.0605,-0.1209"
         id="path111588" />
      <path
         d="m 123.6406,32.3178 0.121,-0.121"
         id="path111590" />
      <path
         d="m 123.7616,32.1968 0.1814,-0.0605"
         id="path111592" />
      <path
         d="m 123.943,32.1363 h 0.1209"
         id="path111594" />
      <path
         d="m 124.0639,32.1363 0.1815,0.0605"
         id="path111596" />
      <path
         d="m 124.2454,32.1968 0.0604,0.0605"
         id="path111598" />
      <path
         d="m 124.7897,32.2573 0.0604,-0.0605"
         id="path111600" />
      <path
         d="m 124.8501,32.1968 0.121,-0.0605"
         id="path111602" />
      <path
         d="m 124.9711,32.1363 h 0.3024"
         id="path111604" />
      <path
         d="m 125.2735,32.1363 0.1209,0.0605"
         id="path111606" />
      <path
         d="m 125.3944,32.1968 0.0605,0.0605"
         id="path111608" />
      <path
         d="m 125.4549,32.2573 0.0605,0.1209"
         id="path111610" />
      <path
         d="m 125.5154,32.3782 v 0.121"
         id="path111612" />
      <path
         d="m 125.5154,32.4992 -0.0605,0.1814"
         id="path111614" />
      <path
         d="m 125.4549,32.6806 -0.7257,0.7257"
         id="path111616" />
      <path
         d="m 124.7292,33.4063 h 0.7862"
         id="path111618" />
      <path
         d="m 125.9992,32.2573 0.0604,-0.0605"
         id="path111620" />
      <path
         d="m 126.0596,32.1968 0.121,-0.0605"
         id="path111622" />
      <path
         d="m 126.1806,32.1363 h 0.3024"
         id="path111624" />
      <path
         d="m 126.483,32.1363 0.1209,0.0605"
         id="path111626" />
      <path
         d="m 126.6039,32.1968 0.0605,0.0605"
         id="path111628" />
      <path
         d="m 126.6644,32.2573 0.0605,0.1209"
         id="path111630" />
      <path
         d="m 126.7249,32.3782 v 0.121"
         id="path111632" />
      <path
         d="m 126.7249,32.4992 -0.0605,0.1814"
         id="path111634" />
      <path
         d="m 126.6644,32.6806 -0.7257,0.7257"
         id="path111636" />
      <path
         d="m 125.9387,33.4063 h 0.7862"
         id="path111638" />
      <path
         d="m 127.511,32.1363 h 0.121"
         id="path111640" />
      <path
         d="m 127.632,32.1363 0.1209,0.0605"
         id="path111642" />
      <path
         d="m 127.7529,32.1968 0.0605,0.0605"
         id="path111644" />
      <path
         d="m 127.8134,32.2573 0.0605,0.1209"
         id="path111646" />
      <path
         d="m 127.8739,32.3782 0.0605,0.2419"
         id="path111648" />
      <path
         d="m 127.9344,32.6201 v 0.3024"
         id="path111650" />
      <path
         d="m 127.9344,32.9225 -0.0605,0.2419"
         id="path111652" />
      <path
         d="m 127.8739,33.1644 -0.0605,0.121"
         id="path111654" />
      <path
         d="m 127.8134,33.2854 -0.0605,0.0605"
         id="path111656" />
      <path
         d="m 127.7529,33.3459 -0.1209,0.0604"
         id="path111658" />
      <path
         d="m 127.632,33.4063 h -0.121"
         id="path111660" />
      <path
         d="m 127.511,33.4063 -0.1209,-0.0604"
         id="path111662" />
      <path
         d="m 127.3901,33.3459 -0.0605,-0.0605"
         id="path111664" />
      <path
         d="m 127.3296,33.2854 -0.0605,-0.121"
         id="path111666" />
      <path
         d="m 127.2691,33.1644 -0.0604,-0.2419"
         id="path111668" />
      <path
         d="M 127.2087,32.9225 V 32.6201"
         id="path111670" />
      <path
         d="m 127.2087,32.6201 0.0604,-0.2419"
         id="path111672" />
      <path
         d="m 127.2691,32.3782 0.0605,-0.1209"
         id="path111674" />
      <path
         d="m 127.3296,32.2573 0.0605,-0.0605"
         id="path111676" />
      <path
         d="m 127.3901,32.1968 0.1209,-0.0605"
         id="path111678" />
      <path
         d="m 128.5391,33.4063 h 0.2419"
         id="path111680" />
      <path
         d="m 128.781,33.4063 0.121,-0.0604"
         id="path111682" />
      <path
         d="m 128.902,33.3459 0.0604,-0.0605"
         id="path111684" />
      <path
         d="m 128.9624,33.2854 0.121,-0.1815"
         id="path111686" />
      <path
         d="m 129.0834,33.1039 0.0605,-0.2419"
         id="path111688" />
      <path
         d="M 129.1439,32.862 V 32.3782"
         id="path111690" />
      <path
         d="m 129.1439,32.3782 -0.0605,-0.1209"
         id="path111692" />
      <path
         d="m 129.0834,32.2573 -0.0605,-0.0605"
         id="path111694" />
      <path
         d="M 129.0229,32.1968 128.902,32.1363"
         id="path111696" />
      <path
         d="m 128.902,32.1363 h -0.2419"
         id="path111698" />
      <path
         d="m 128.6601,32.1363 -0.121,0.0605"
         id="path111700" />
      <path
         d="m 128.5391,32.1968 -0.0605,0.0605"
         id="path111702" />
      <path
         d="m 128.4786,32.2573 -0.0604,0.1209"
         id="path111704" />
      <path
         d="m 128.4182,32.3782 v 0.3024"
         id="path111706" />
      <path
         d="m 128.4182,32.6806 0.0604,0.121"
         id="path111708" />
      <path
         d="m 128.4786,32.8016 0.0605,0.0604"
         id="path111710" />
      <path
         d="m 128.5391,32.862 0.121,0.0605"
         id="path111712" />
      <path
         d="m 128.6601,32.9225 h 0.2419"
         id="path111714" />
      <path
         d="m 128.902,32.9225 0.1209,-0.0605"
         id="path111716" />
      <path
         d="m 129.0229,32.862 0.0605,-0.0604"
         id="path111718" />
      <path
         d="m 129.0834,32.8016 0.0605,-0.121"
         id="path111720" />
    </g>
  </g>
  <g
     style="fill:#725600;fill-opacity:0;stroke:#725600;stroke-width:0.3175;stroke-linecap:round;stroke-linejoin:round;stroke-opacity:1"
     id="g112150"
     transform="translate(-120.4595,-31.97755)">
    <text
       x="120.65"
       y="39.954601"
       textLength="23.9214"
       font-size="1.6933px"
       lengthAdjust="spacingAndGlyphs"
       text-anchor="start"
       opacity="0"
       id="text111726">File: tmc2209.kicad_sch</text>
    <g
       class="stroked-text"
       id="g112148">
      <desc
         id="desc111728">File: tmc2209.kicad_sch</desc>
      <path
         d="m 121.5845,39.3332 h -0.4234"
         id="path111730" />
      <path
         d="m 121.1611,39.9984 v -1.27"
         id="path111732" />
      <path
         d="m 121.1611,38.7284 h 0.6048"
         id="path111734" />
      <path
         d="M 122.2497,39.9984 V 39.1518"
         id="path111736" />
      <path
         d="m 122.2497,38.7284 -0.0604,0.0605"
         id="path111738" />
      <path
         d="m 122.1893,38.7889 0.0604,0.0605"
         id="path111740" />
      <path
         d="m 122.2497,38.8494 0.0605,-0.0605"
         id="path111742" />
      <path
         d="m 122.3102,38.7889 -0.0605,-0.0605"
         id="path111744" />
      <path
         d="m 122.2497,38.7284 v 0.121"
         id="path111746" />
      <path
         d="M 123.036,39.9984 122.915,39.938"
         id="path111748" />
      <path
         d="m 122.915,39.938 -0.0605,-0.121"
         id="path111750" />
      <path
         d="M 122.8545,39.817 V 38.7284"
         id="path111752" />
      <path
         d="m 124.0035,39.938 -0.1209,0.0604"
         id="path111754" />
      <path
         d="m 123.8826,39.9984 h -0.2419"
         id="path111756" />
      <path
         d="m 123.6407,39.9984 -0.121,-0.0604"
         id="path111758" />
      <path
         d="m 123.5197,39.938 -0.0604,-0.121"
         id="path111760" />
      <path
         d="M 123.4593,39.817 V 39.3332"
         id="path111762" />
      <path
         d="m 123.4593,39.3332 0.0604,-0.121"
         id="path111764" />
      <path
         d="m 123.5197,39.2122 0.121,-0.0604"
         id="path111766" />
      <path
         d="m 123.6407,39.1518 h 0.2419"
         id="path111768" />
      <path
         d="m 123.8826,39.1518 0.1209,0.0604"
         id="path111770" />
      <path
         d="m 124.0035,39.2122 0.0605,0.121"
         id="path111772" />
      <path
         d="m 124.064,39.3332 v 0.1209"
         id="path111774" />
      <path
         d="m 124.064,39.4541 -0.6047,0.121"
         id="path111776" />
      <path
         d="m 124.6083,39.8775 0.0605,0.0605"
         id="path111778" />
      <path
         d="m 124.6688,39.938 -0.0605,0.0604"
         id="path111780" />
      <path
         d="M 124.6083,39.9984 124.5479,39.938"
         id="path111782" />
      <path
         d="m 124.5479,39.938 0.0604,-0.0605"
         id="path111784" />
      <path
         d="m 124.6083,39.8775 v 0.1209"
         id="path111786" />
      <path
         d="m 124.6083,39.2122 0.0605,0.0605"
         id="path111788" />
      <path
         d="m 124.6688,39.2727 -0.0605,0.0605"
         id="path111790" />
      <path
         d="m 124.6083,39.3332 -0.0604,-0.0605"
         id="path111792" />
      <path
         d="m 124.5479,39.2727 0.0604,-0.0605"
         id="path111794" />
      <path
         d="m 124.6083,39.2122 v 0.121"
         id="path111796" />
      <path
         d="m 125.9993,39.1518 h 0.4838"
         id="path111798" />
      <path
         d="M 126.1807,38.7284 V 39.817"
         id="path111800" />
      <path
         d="m 126.1807,39.817 0.0605,0.121"
         id="path111802" />
      <path
         d="m 126.2412,39.938 0.121,0.0604"
         id="path111804" />
      <path
         d="m 126.3622,39.9984 h 0.1209"
         id="path111806" />
      <path
         d="M 126.9064,39.9984 V 39.1518"
         id="path111808" />
      <path
         d="m 126.9064,39.2727 0.0605,-0.0605"
         id="path111810" />
      <path
         d="m 126.9669,39.2122 0.121,-0.0604"
         id="path111812" />
      <path
         d="m 127.0879,39.1518 h 0.1814"
         id="path111814" />
      <path
         d="m 127.2693,39.1518 0.1209,0.0604"
         id="path111816" />
      <path
         d="m 127.3902,39.2122 0.0605,0.121"
         id="path111818" />
      <path
         d="m 127.4507,39.3332 v 0.6652"
         id="path111820" />
      <path
         d="m 127.4507,39.3332 0.0605,-0.121"
         id="path111822" />
      <path
         d="m 127.5112,39.2122 0.1209,-0.0604"
         id="path111824" />
      <path
         d="m 127.6321,39.1518 h 0.1815"
         id="path111826" />
      <path
         d="m 127.8136,39.1518 0.1209,0.0604"
         id="path111828" />
      <path
         d="m 127.9345,39.2122 0.0605,0.121"
         id="path111830" />
      <path
         d="m 127.995,39.3332 v 0.6652"
         id="path111832" />
      <path
         d="m 129.144,39.938 -0.1209,0.0604"
         id="path111834" />
      <path
         d="m 129.0231,39.9984 h -0.2419"
         id="path111836" />
      <path
         d="m 128.7812,39.9984 -0.121,-0.0604"
         id="path111838" />
      <path
         d="m 128.6602,39.938 -0.0605,-0.0605"
         id="path111840" />
      <path
         d="m 128.5997,39.8775 -0.0604,-0.121"
         id="path111842" />
      <path
         d="M 128.5393,39.7565 V 39.3937"
         id="path111844" />
      <path
         d="m 128.5393,39.3937 0.0604,-0.121"
         id="path111846" />
      <path
         d="m 128.5997,39.2727 0.0605,-0.0605"
         id="path111848" />
      <path
         d="m 128.6602,39.2122 0.121,-0.0604"
         id="path111850" />
      <path
         d="m 128.7812,39.1518 h 0.2419"
         id="path111852" />
      <path
         d="m 129.0231,39.1518 0.1209,0.0604"
         id="path111854" />
      <path
         d="m 129.6279,38.8494 0.0604,-0.0605"
         id="path111856" />
      <path
         d="m 129.6883,38.7889 0.121,-0.0605"
         id="path111858" />
      <path
         d="m 129.8093,38.7284 h 0.3024"
         id="path111860" />
      <path
         d="m 130.1117,38.7284 0.1209,0.0605"
         id="path111862" />
      <path
         d="m 130.2326,38.7889 0.0605,0.0605"
         id="path111864" />
      <path
         d="m 130.2931,38.8494 0.0605,0.1209"
         id="path111866" />
      <path
         d="m 130.3536,38.9703 v 0.121"
         id="path111868" />
      <path
         d="m 130.3536,39.0913 -0.0605,0.1814"
         id="path111870" />
      <path
         d="m 130.2931,39.2727 -0.7257,0.7257"
         id="path111872" />
      <path
         d="m 129.5674,39.9984 h 0.7862"
         id="path111874" />
      <path
         d="m 130.8374,38.8494 0.0604,-0.0605"
         id="path111876" />
      <path
         d="m 130.8978,38.7889 0.121,-0.0605"
         id="path111878" />
      <path
         d="m 131.0188,38.7284 h 0.3024"
         id="path111880" />
      <path
         d="m 131.3212,38.7284 0.1209,0.0605"
         id="path111882" />
      <path
         d="m 131.4421,38.7889 0.0605,0.0605"
         id="path111884" />
      <path
         d="m 131.5026,38.8494 0.0605,0.1209"
         id="path111886" />
      <path
         d="m 131.5631,38.9703 v 0.121"
         id="path111888" />
      <path
         d="m 131.5631,39.0913 -0.0605,0.1814"
         id="path111890" />
      <path
         d="m 131.5026,39.2727 -0.7257,0.7257"
         id="path111892" />
      <path
         d="m 130.7769,39.9984 h 0.7862"
         id="path111894" />
      <path
         d="m 132.3492,38.7284 h 0.121"
         id="path111896" />
      <path
         d="m 132.4702,38.7284 0.1209,0.0605"
         id="path111898" />
      <path
         d="m 132.5911,38.7889 0.0605,0.0605"
         id="path111900" />
      <path
         d="m 132.6516,38.8494 0.0605,0.1209"
         id="path111902" />
      <path
         d="m 132.7121,38.9703 0.0605,0.2419"
         id="path111904" />
      <path
         d="m 132.7726,39.2122 v 0.3024"
         id="path111906" />
      <path
         d="m 132.7726,39.5146 -0.0605,0.2419"
         id="path111908" />
      <path
         d="m 132.7121,39.7565 -0.0605,0.121"
         id="path111910" />
      <path
         d="m 132.6516,39.8775 -0.0605,0.0605"
         id="path111912" />
      <path
         d="m 132.5911,39.938 -0.1209,0.0604"
         id="path111914" />
      <path
         d="m 132.4702,39.9984 h -0.121"
         id="path111916" />
      <path
         d="M 132.3492,39.9984 132.2283,39.938"
         id="path111918" />
      <path
         d="m 132.2283,39.938 -0.0605,-0.0605"
         id="path111920" />
      <path
         d="m 132.1678,39.8775 -0.0605,-0.121"
         id="path111922" />
      <path
         d="m 132.1073,39.7565 -0.0604,-0.2419"
         id="path111924" />
      <path
         d="M 132.0469,39.5146 V 39.2122"
         id="path111926" />
      <path
         d="m 132.0469,39.2122 0.0604,-0.2419"
         id="path111928" />
      <path
         d="m 132.1073,38.9703 0.0605,-0.1209"
         id="path111930" />
      <path
         d="m 132.1678,38.8494 0.0605,-0.0605"
         id="path111932" />
      <path
         d="m 132.2283,38.7889 0.1209,-0.0605"
         id="path111934" />
      <path
         d="m 133.3773,39.9984 h 0.2419"
         id="path111936" />
      <path
         d="m 133.6192,39.9984 0.121,-0.0604"
         id="path111938" />
      <path
         d="m 133.7402,39.938 0.0604,-0.0605"
         id="path111940" />
      <path
         d="m 133.8006,39.8775 0.121,-0.1815"
         id="path111942" />
      <path
         d="m 133.9216,39.696 0.0605,-0.2419"
         id="path111944" />
      <path
         d="M 133.9821,39.4541 V 38.9703"
         id="path111946" />
      <path
         d="m 133.9821,38.9703 -0.0605,-0.1209"
         id="path111948" />
      <path
         d="m 133.9216,38.8494 -0.0605,-0.0605"
         id="path111950" />
      <path
         d="m 133.8611,38.7889 -0.1209,-0.0605"
         id="path111952" />
      <path
         d="m 133.7402,38.7284 h -0.2419"
         id="path111954" />
      <path
         d="m 133.4983,38.7284 -0.121,0.0605"
         id="path111956" />
      <path
         d="m 133.3773,38.7889 -0.0605,0.0605"
         id="path111958" />
      <path
         d="m 133.3168,38.8494 -0.0604,0.1209"
         id="path111960" />
      <path
         d="m 133.2564,38.9703 v 0.3024"
         id="path111962" />
      <path
         d="m 133.2564,39.2727 0.0604,0.121"
         id="path111964" />
      <path
         d="m 133.3168,39.3937 0.0605,0.0604"
         id="path111966" />
      <path
         d="m 133.3773,39.4541 0.121,0.0605"
         id="path111968" />
      <path
         d="m 133.4983,39.5146 h 0.2419"
         id="path111970" />
      <path
         d="m 133.7402,39.5146 0.1209,-0.0605"
         id="path111972" />
      <path
         d="m 133.8611,39.4541 0.0605,-0.0604"
         id="path111974" />
      <path
         d="m 133.9216,39.3937 0.0605,-0.121"
         id="path111976" />
      <path
         d="m 134.5263,39.8775 0.0605,0.0605"
         id="path111978" />
      <path
         d="m 134.5868,39.938 -0.0605,0.0604"
         id="path111980" />
      <path
         d="M 134.5263,39.9984 134.4659,39.938"
         id="path111982" />
      <path
         d="m 134.4659,39.938 0.0604,-0.0605"
         id="path111984" />
      <path
         d="m 134.5263,39.8775 v 0.1209"
         id="path111986" />
      <path
         d="m 135.1311,39.9984 v -1.27"
         id="path111988" />
      <path
         d="m 135.2521,39.5146 0.3628,0.4838"
         id="path111990" />
      <path
         d="m 135.6149,39.1518 -0.4838,0.4838"
         id="path111992" />
      <path
         d="M 136.1592,39.9984 V 39.1518"
         id="path111994" />
      <path
         d="m 136.1592,38.7284 -0.0604,0.0605"
         id="path111996" />
      <path
         d="m 136.0988,38.7889 0.0604,0.0605"
         id="path111998" />
      <path
         d="m 136.1592,38.8494 0.0605,-0.0605"
         id="path112000" />
      <path
         d="m 136.2197,38.7889 -0.0605,-0.0605"
         id="path112002" />
      <path
         d="m 136.1592,38.7284 v 0.121"
         id="path112004" />
      <path
         d="m 137.3083,39.938 -0.1209,0.0604"
         id="path112006" />
      <path
         d="m 137.1874,39.9984 h -0.2419"
         id="path112008" />
      <path
         d="m 136.9455,39.9984 -0.121,-0.0604"
         id="path112010" />
      <path
         d="M 136.8245,39.938 136.764,39.8775"
         id="path112012" />
      <path
         d="m 136.764,39.8775 -0.0604,-0.121"
         id="path112014" />
      <path
         d="M 136.7036,39.7565 V 39.3937"
         id="path112016" />
      <path
         d="m 136.7036,39.3937 0.0604,-0.121"
         id="path112018" />
      <path
         d="m 136.764,39.2727 0.0605,-0.0605"
         id="path112020" />
      <path
         d="m 136.8245,39.2122 0.121,-0.0604"
         id="path112022" />
      <path
         d="m 136.9455,39.1518 h 0.2419"
         id="path112024" />
      <path
         d="m 137.1874,39.1518 0.1209,0.0604"
         id="path112026" />
      <path
         d="M 138.3969,39.9984 V 39.3332"
         id="path112028" />
      <path
         d="m 138.3969,39.3332 -0.0605,-0.121"
         id="path112030" />
      <path
         d="m 138.3364,39.2122 -0.1209,-0.0604"
         id="path112032" />
      <path
         d="m 138.2155,39.1518 h -0.2419"
         id="path112034" />
      <path
         d="m 137.9736,39.1518 -0.121,0.0604"
         id="path112036" />
      <path
         d="m 138.3969,39.938 -0.1209,0.0604"
         id="path112038" />
      <path
         d="m 138.276,39.9984 h -0.3024"
         id="path112040" />
      <path
         d="m 137.9736,39.9984 -0.121,-0.0604"
         id="path112042" />
      <path
         d="m 137.8526,39.938 -0.0604,-0.121"
         id="path112044" />
      <path
         d="M 137.7922,39.817 V 39.696"
         id="path112046" />
      <path
         d="m 137.7922,39.696 0.0604,-0.1209"
         id="path112048" />
      <path
         d="m 137.8526,39.5751 0.121,-0.0605"
         id="path112050" />
      <path
         d="m 137.9736,39.5146 h 0.3024"
         id="path112052" />
      <path
         d="m 138.276,39.5146 0.1209,-0.0605"
         id="path112054" />
      <path
         d="m 139.5459,39.9984 v -1.27"
         id="path112056" />
      <path
         d="m 139.5459,39.938 -0.1209,0.0604"
         id="path112058" />
      <path
         d="m 139.425,39.9984 h -0.2419"
         id="path112060" />
      <path
         d="m 139.1831,39.9984 -0.121,-0.0604"
         id="path112062" />
      <path
         d="m 139.0621,39.938 -0.0605,-0.0605"
         id="path112064" />
      <path
         d="m 139.0016,39.8775 -0.0604,-0.121"
         id="path112066" />
      <path
         d="M 138.9412,39.7565 V 39.3937"
         id="path112068" />
      <path
         d="m 138.9412,39.3937 0.0604,-0.121"
         id="path112070" />
      <path
         d="m 139.0016,39.2727 0.0605,-0.0605"
         id="path112072" />
      <path
         d="m 139.0621,39.2122 0.121,-0.0604"
         id="path112074" />
      <path
         d="m 139.1831,39.1518 h 0.2419"
         id="path112076" />
      <path
         d="m 139.425,39.1518 0.1209,0.0604"
         id="path112078" />
      <path
         d="m 139.8483,40.1194 h 0.9676"
         id="path112080" />
      <path
         d="m 141.0578,39.938 0.1209,0.0604"
         id="path112082" />
      <path
         d="m 141.1787,39.9984 h 0.2419"
         id="path112084" />
      <path
         d="m 141.4206,39.9984 0.121,-0.0604"
         id="path112086" />
      <path
         d="m 141.5416,39.938 0.0604,-0.121"
         id="path112088" />
      <path
         d="M 141.602,39.817 V 39.7565"
         id="path112090" />
      <path
         d="m 141.602,39.7565 -0.0604,-0.1209"
         id="path112092" />
      <path
         d="m 141.5416,39.6356 -0.121,-0.0605"
         id="path112094" />
      <path
         d="m 141.4206,39.5751 h -0.1814"
         id="path112096" />
      <path
         d="m 141.2392,39.5751 -0.121,-0.0605"
         id="path112098" />
      <path
         d="m 141.1182,39.5146 -0.0604,-0.1209"
         id="path112100" />
      <path
         d="M 141.0578,39.3937 V 39.3332"
         id="path112102" />
      <path
         d="m 141.0578,39.3332 0.0604,-0.121"
         id="path112104" />
      <path
         d="m 141.1182,39.2122 0.121,-0.0604"
         id="path112106" />
      <path
         d="m 141.2392,39.1518 h 0.1814"
         id="path112108" />
      <path
         d="m 141.4206,39.1518 0.121,0.0604"
         id="path112110" />
      <path
         d="m 142.6906,39.938 -0.1209,0.0604"
         id="path112112" />
      <path
         d="m 142.5697,39.9984 h -0.2419"
         id="path112114" />
      <path
         d="m 142.3278,39.9984 -0.121,-0.0604"
         id="path112116" />
      <path
         d="m 142.2068,39.938 -0.0605,-0.0605"
         id="path112118" />
      <path
         d="m 142.1463,39.8775 -0.0604,-0.121"
         id="path112120" />
      <path
         d="M 142.0859,39.7565 V 39.3937"
         id="path112122" />
      <path
         d="m 142.0859,39.3937 0.0604,-0.121"
         id="path112124" />
      <path
         d="m 142.1463,39.2727 0.0605,-0.0605"
         id="path112126" />
      <path
         d="m 142.2068,39.2122 0.121,-0.0604"
         id="path112128" />
      <path
         d="m 142.3278,39.1518 h 0.2419"
         id="path112130" />
      <path
         d="m 142.5697,39.1518 0.1209,0.0604"
         id="path112132" />
      <path
         d="m 143.2349,39.9984 v -1.27"
         id="path112134" />
      <path
         d="M 143.7792,39.9984 V 39.3332"
         id="path112136" />
      <path
         d="m 143.7792,39.3332 -0.0605,-0.121"
         id="path112138" />
      <path
         d="m 143.7187,39.2122 -0.1209,-0.0604"
         id="path112140" />
      <path
         d="m 143.5978,39.1518 h -0.1814"
         id="path112142" />
      <path
         d="m 143.4164,39.1518 -0.121,0.0604"
         id="path112144" />
      <path
         d="m 143.2954,39.2122 -0.0605,0.0605"
         id="path112146" />
    </g>
  </g>
</svg>
