<?xml version="1.0" encoding="UTF-8" standalone="no"?>
<svg
   version="1.1"
   width="60.26181mm"
   height="25.9mm"
   viewBox="0 0 60.261811 25.899999"
   id="svg5550"
   xmlns="http://www.w3.org/2000/svg"
   xmlns:svg="http://www.w3.org/2000/svg">
  <defs
     id="defs5554" />
  <title
     id="title4718">SVG Image created as trinamic-wiring-TMC2209-description.svg date 2024/08/01 11:44:07 </title>
  <desc
     id="desc4720">Image generated by Eeschema-SVG </desc>
  <g
     style="fill:#000000;fill-opacity:1;stroke:#000000;stroke-linecap:round;stroke-linejoin:round;stroke-opacity:1"
     id="g4722"
     transform="translate(-113.41938,-78.489998)" />
  <g
     style="fill:#000000;fill-opacity:0;stroke:#000000;stroke-width:0.1524;stroke-linecap:round;stroke-linejoin:round;stroke-opacity:1"
     id="g4724"
     transform="translate(-113.41938,-78.489998)" />
  <g
     style="fill:#000000;fill-opacity:0;stroke:#000000;stroke-width:0.1588;stroke-linecap:round;stroke-linejoin:round;stroke-opacity:1"
     id="g4726"
     transform="translate(-113.41938,-78.489998)" />
  <g
     style="fill:#000000;fill-opacity:0;stroke:#000000;stroke-width:0.5;stroke-linecap:round;stroke-linejoin:round;stroke-opacity:1"
     id="g4728"
     transform="translate(-113.41938,-78.489998)" />
  <g
     style="fill:#000000;fill-opacity:0;stroke:#000000;stroke-width:0.1588;stroke-linecap:round;stroke-linejoin:round;stroke-opacity:1"
     id="g4730"
     transform="translate(-113.41938,-78.489998)" />
  <g
     style="fill:#000000;fill-opacity:0;stroke:#000000;stroke-width:0.5;stroke-linecap:round;stroke-linejoin:round;stroke-opacity:1"
     id="g4732"
     transform="translate(-113.41938,-78.489998)" />
  <g
     style="fill:#000000;fill-opacity:0;stroke:#000000;stroke-width:0.1588;stroke-linecap:round;stroke-linejoin:round;stroke-opacity:1"
     id="g4734"
     transform="translate(-113.41938,-78.489998)" />
  <g
     style="fill:#000000;fill-opacity:0;stroke:#000000;stroke-width:0.5;stroke-linecap:round;stroke-linejoin:round;stroke-opacity:1"
     id="g4736"
     transform="translate(-113.41938,-78.489998)" />
  <g
     style="fill:#000000;fill-opacity:0;stroke:#000000;stroke-width:0.1588;stroke-linecap:round;stroke-linejoin:round;stroke-opacity:1"
     id="g4738"
     transform="translate(-113.41938,-78.489998)" />
  <g
     style="fill:#000000;fill-opacity:0;stroke:#000000;stroke-width:0.5;stroke-linecap:round;stroke-linejoin:round;stroke-opacity:1"
     id="g4740"
     transform="translate(-113.41938,-78.489998)" />
  <g
     style="fill:#000000;fill-opacity:0;stroke:#000000;stroke-width:0.1588;stroke-linecap:round;stroke-linejoin:round;stroke-opacity:1"
     id="g4742"
     transform="translate(-113.41938,-78.489998)" />
  <g
     style="fill:#000000;fill-opacity:0;stroke:#000000;stroke-width:0.5;stroke-linecap:round;stroke-linejoin:round;stroke-opacity:1"
     id="g4744"
     transform="translate(-113.41938,-78.489998)" />
  <g
     style="fill:#000000;fill-opacity:0;stroke:#000000;stroke-width:0.1588;stroke-linecap:round;stroke-linejoin:round;stroke-opacity:1"
     id="g4746"
     transform="translate(-113.41938,-78.489998)" />
  <g
     style="fill:#000000;fill-opacity:0;stroke:#000000;stroke-width:0.5;stroke-linecap:round;stroke-linejoin:round;stroke-opacity:1"
     id="g4748"
     transform="translate(-113.41938,-78.489998)" />
  <g
     style="fill:#000000;fill-opacity:0;stroke:#000000;stroke-width:0.1588;stroke-linecap:round;stroke-linejoin:round;stroke-opacity:1"
     id="g4750"
     transform="translate(-113.41938,-78.489998)" />
  <g
     style="fill:#000000;fill-opacity:0;stroke:#000000;stroke-width:0.5;stroke-linecap:round;stroke-linejoin:round;stroke-opacity:1"
     id="g4752"
     transform="translate(-113.41938,-78.489998)" />
  <g
     style="fill:#000000;fill-opacity:0;stroke:#000000;stroke-width:0.1588;stroke-linecap:round;stroke-linejoin:round;stroke-opacity:1"
     id="g4754"
     transform="translate(-113.41938,-78.489998)" />
  <g
     style="fill:#000000;fill-opacity:0;stroke:#000000;stroke-width:0.5;stroke-linecap:round;stroke-linejoin:round;stroke-opacity:1"
     id="g4756"
     transform="translate(-113.41938,-78.489998)" />
  <g
     style="fill:#000000;fill-opacity:0;stroke:#000000;stroke-width:0.1588;stroke-linecap:round;stroke-linejoin:round;stroke-opacity:1"
     id="g4758"
     transform="translate(-113.41938,-78.489998)" />
  <g
     style="fill:#000000;fill-opacity:0;stroke:#000000;stroke-width:0.5;stroke-linecap:round;stroke-linejoin:round;stroke-opacity:1"
     id="g4760"
     transform="translate(-113.41938,-78.489998)" />
  <g
     style="fill:#000000;fill-opacity:0;stroke:#000000;stroke-width:0.1588;stroke-linecap:round;stroke-linejoin:round;stroke-opacity:1"
     id="g4762"
     transform="translate(-113.41938,-78.489998)" />
  <g
     style="fill:#000000;fill-opacity:0;stroke:#000000;stroke-width:0.5;stroke-linecap:round;stroke-linejoin:round;stroke-opacity:1"
     id="g4764"
     transform="translate(-113.41938,-78.489998)" />
  <g
     style="fill:#000000;fill-opacity:0;stroke:#000000;stroke-width:0.1588;stroke-linecap:round;stroke-linejoin:round;stroke-opacity:1"
     id="g4766"
     transform="translate(-113.41938,-78.489998)" />
  <g
     style="fill:#000000;fill-opacity:0;stroke:#000000;stroke-width:0.5;stroke-linecap:round;stroke-linejoin:round;stroke-opacity:1"
     id="g4768"
     transform="translate(-113.41938,-78.489998)" />
  <g
     style="fill:#000000;fill-opacity:0;stroke:#000000;stroke-width:0.1524;stroke-linecap:round;stroke-linejoin:round;stroke-opacity:1"
     id="g4962"
     transform="translate(-113.41938,-78.489998)">
    <g
       id="g4770" />
    <g
       style="fill:#586e75;fill-opacity:0;stroke:#586e75;stroke-width:0.1524;stroke-linecap:round;stroke-linejoin:round;stroke-opacity:1"
       id="g4772" />
    <g
       style="fill:#586e75;fill-opacity:0;stroke:#586e75;stroke-width:0.5;stroke-linecap:round;stroke-linejoin:round;stroke-opacity:1"
       id="g4960">
      <rect
         x="124.46"
         y="78.739998"
         width="20.32"
         height="25.4"
         rx="0.000000"
         id="rect4774" />
      <text
         x="134.62"
         y="92.074997"
         textLength="9.7729998"
         font-size="1.6933px"
         lengthAdjust="spacingAndGlyphs"
         text-anchor="middle"
         opacity="0"
         id="text4776">TMC2209</text>
      <g
         class="stroked-text"
         id="g4944">
        <desc
           id="desc4778">TMC2209</desc>
        <path
           d="m 130.4774,90.7315 h 0.7257"
           id="path4780" />
        <path
           d="m 130.8403,92.0015 v -1.27"
           id="path4782" />
        <path
           d="m 131.6264,92.0015 v -1.27"
           id="path4784" />
        <path
           d="m 131.6264,90.7315 0.4234,0.9072"
           id="path4786" />
        <path
           d="m 132.0498,91.6387 0.4233,-0.9072"
           id="path4788" />
        <path
           d="m 132.4731,90.7315 v 1.27"
           id="path4790" />
        <path
           d="m 133.8035,91.8806 -0.0604,0.0605"
           id="path4792" />
        <path
           d="m 133.7431,91.9411 -0.1815,0.0604"
           id="path4794" />
        <path
           d="m 133.5616,92.0015 h -0.1209"
           id="path4796" />
        <path
           d="m 133.4407,92.0015 -0.1814,-0.0604"
           id="path4798" />
        <path
           d="m 133.2593,91.9411 -0.121,-0.121"
           id="path4800" />
        <path
           d="m 133.1383,91.8201 -0.0605,-0.121"
           id="path4802" />
        <path
           d="m 133.0778,91.6991 -0.0604,-0.2419"
           id="path4804" />
        <path
           d="M 133.0174,91.4572 V 91.2758"
           id="path4806" />
        <path
           d="m 133.0174,91.2758 0.0604,-0.2419"
           id="path4808" />
        <path
           d="m 133.0778,91.0339 0.0605,-0.1209"
           id="path4810" />
        <path
           d="m 133.1383,90.913 0.121,-0.121"
           id="path4812" />
        <path
           d="m 133.2593,90.792 0.1814,-0.0605"
           id="path4814" />
        <path
           d="m 133.4407,90.7315 h 0.1209"
           id="path4816" />
        <path
           d="m 133.5616,90.7315 0.1815,0.0605"
           id="path4818" />
        <path
           d="m 133.7431,90.792 0.0604,0.0605"
           id="path4820" />
        <path
           d="m 134.2874,90.8525 0.0604,-0.0605"
           id="path4822" />
        <path
           d="m 134.3478,90.792 0.121,-0.0605"
           id="path4824" />
        <path
           d="m 134.4688,90.7315 h 0.3024"
           id="path4826" />
        <path
           d="m 134.7712,90.7315 0.1209,0.0605"
           id="path4828" />
        <path
           d="m 134.8921,90.792 0.0605,0.0605"
           id="path4830" />
        <path
           d="m 134.9526,90.8525 0.0605,0.1209"
           id="path4832" />
        <path
           d="m 135.0131,90.9734 v 0.121"
           id="path4834" />
        <path
           d="m 135.0131,91.0944 -0.0605,0.1814"
           id="path4836" />
        <path
           d="m 134.9526,91.2758 -0.7257,0.7257"
           id="path4838" />
        <path
           d="m 134.2269,92.0015 h 0.7862"
           id="path4840" />
        <path
           d="m 135.4969,90.8525 0.0604,-0.0605"
           id="path4842" />
        <path
           d="m 135.5573,90.792 0.121,-0.0605"
           id="path4844" />
        <path
           d="m 135.6783,90.7315 h 0.3024"
           id="path4846" />
        <path
           d="m 135.9807,90.7315 0.1209,0.0605"
           id="path4848" />
        <path
           d="m 136.1016,90.792 0.0605,0.0605"
           id="path4850" />
        <path
           d="m 136.1621,90.8525 0.0605,0.1209"
           id="path4852" />
        <path
           d="m 136.2226,90.9734 v 0.121"
           id="path4854" />
        <path
           d="m 136.2226,91.0944 -0.0605,0.1814"
           id="path4856" />
        <path
           d="m 136.1621,91.2758 -0.7257,0.7257"
           id="path4858" />
        <path
           d="m 135.4364,92.0015 h 0.7862"
           id="path4860" />
        <path
           d="m 137.0087,90.7315 h 0.121"
           id="path4862" />
        <path
           d="m 137.1297,90.7315 0.1209,0.0605"
           id="path4864" />
        <path
           d="m 137.2506,90.792 0.0605,0.0605"
           id="path4866" />
        <path
           d="m 137.3111,90.8525 0.0605,0.1209"
           id="path4868" />
        <path
           d="m 137.3716,90.9734 0.0605,0.2419"
           id="path4870" />
        <path
           d="m 137.4321,91.2153 v 0.3024"
           id="path4872" />
        <path
           d="m 137.4321,91.5177 -0.0605,0.2419"
           id="path4874" />
        <path
           d="m 137.3716,91.7596 -0.0605,0.121"
           id="path4876" />
        <path
           d="m 137.3111,91.8806 -0.0605,0.0605"
           id="path4878" />
        <path
           d="m 137.2506,91.9411 -0.1209,0.0604"
           id="path4880" />
        <path
           d="m 137.1297,92.0015 h -0.121"
           id="path4882" />
        <path
           d="m 137.0087,92.0015 -0.1209,-0.0604"
           id="path4884" />
        <path
           d="m 136.8878,91.9411 -0.0605,-0.0605"
           id="path4886" />
        <path
           d="m 136.8273,91.8806 -0.0605,-0.121"
           id="path4888" />
        <path
           d="m 136.7668,91.7596 -0.0604,-0.2419"
           id="path4890" />
        <path
           d="M 136.7064,91.5177 V 91.2153"
           id="path4892" />
        <path
           d="m 136.7064,91.2153 0.0604,-0.2419"
           id="path4894" />
        <path
           d="m 136.7668,90.9734 0.0605,-0.1209"
           id="path4896" />
        <path
           d="m 136.8273,90.8525 0.0605,-0.0605"
           id="path4898" />
        <path
           d="m 136.8878,90.792 0.1209,-0.0605"
           id="path4900" />
        <path
           d="m 138.0368,92.0015 h 0.2419"
           id="path4902" />
        <path
           d="m 138.2787,92.0015 0.121,-0.0604"
           id="path4904" />
        <path
           d="m 138.3997,91.9411 0.0604,-0.0605"
           id="path4906" />
        <path
           d="m 138.4601,91.8806 0.121,-0.1815"
           id="path4908" />
        <path
           d="m 138.5811,91.6991 0.0605,-0.2419"
           id="path4910" />
        <path
           d="M 138.6416,91.4572 V 90.9734"
           id="path4912" />
        <path
           d="m 138.6416,90.9734 -0.0605,-0.1209"
           id="path4914" />
        <path
           d="M 138.5811,90.8525 138.5206,90.792"
           id="path4916" />
        <path
           d="m 138.5206,90.792 -0.1209,-0.0605"
           id="path4918" />
        <path
           d="m 138.3997,90.7315 h -0.2419"
           id="path4920" />
        <path
           d="m 138.1578,90.7315 -0.121,0.0605"
           id="path4922" />
        <path
           d="m 138.0368,90.792 -0.0605,0.0605"
           id="path4924" />
        <path
           d="m 137.9763,90.8525 -0.0604,0.1209"
           id="path4926" />
        <path
           d="m 137.9159,90.9734 v 0.3024"
           id="path4928" />
        <path
           d="m 137.9159,91.2758 0.0604,0.121"
           id="path4930" />
        <path
           d="m 137.9763,91.3968 0.0605,0.0604"
           id="path4932" />
        <path
           d="m 138.0368,91.4572 0.121,0.0605"
           id="path4934" />
        <path
           d="m 138.1578,91.5177 h 0.2419"
           id="path4936" />
        <path
           d="m 138.3997,91.5177 0.1209,-0.0605"
           id="path4938" />
        <path
           d="m 138.5206,91.4572 0.0605,-0.0604"
           id="path4940" />
        <path
           d="m 138.5811,91.3968 0.0605,-0.121"
           id="path4942" />
      </g>
      <path
         d="m 124.46,81.28 h -2.54"
         id="path4946" />
      <path
         d="m 124.46,86.36 h -2.54"
         id="path4948" />
      <path
         d="m 124.46,88.9 h -2.54"
         id="path4950" />
      <path
         d="m 144.78,86.36 h 2.54"
         id="path4952" />
      <path
         d="m 144.78,88.9 h 2.54"
         id="path4954" />
      <path
         d="m 144.78,93.98 h 2.54"
         id="path4956" />
      <path
         d="m 144.78,96.52 h 2.54"
         id="path4958" />
    </g>
  </g>
  <g
     style="fill:#586e75;fill-opacity:0;stroke:#586e75;stroke-width:0.1524;stroke-linecap:round;stroke-linejoin:round;stroke-opacity:1"
     id="g5004"
     transform="translate(-113.41938,-78.489998)">
    <g
       id="g4964" />
    <g
       style="fill:#586e75;fill-opacity:0;stroke:#586e75;stroke-width:0.5;stroke-linecap:round;stroke-linejoin:round;stroke-opacity:1"
       id="g5002">
      <path
         style="fill:none;fill-opacity:0;stroke:#586e75;stroke-width:0.5;stroke-linecap:round;stroke-linejoin:round;stroke-opacity:1"
         d="m 168.91,89.408 v -3.81 l 1.27,2.54 1.27,-2.54 v 3.81"
         id="path4966" />
      <path
         d="m 165.735,90.17 a 0.635,0.635 0 0 0 0,-1.27"
         id="path4968" />
      <path
         d="m 165.735,88.9 a 0.635,0.635 0 0 0 0,-1.27"
         id="path4970" />
      <path
         d="m 165.735,87.63 a 0.635,0.635 0 0 0 0,-1.27"
         id="path4972" />
      <path
         d="m 165.735,86.36 a 0.635,0.635 0 0 0 0,-1.27"
         id="path4974" />
      <path
         d="m 168.91,92.075 a 0.635,0.635 0 0 0 -1.27,0"
         id="path4976" />
      <path
         d="m 170.18,92.075 a 0.635,0.635 0 0 0 -1.27,0"
         id="path4978" />
      <path
         style="fill:none;fill-opacity:0;stroke:#586e75;stroke-width:0.5;stroke-linecap:round;stroke-linejoin:round;stroke-opacity:1"
         d="m 165.1,90.17 h 0.635"
         id="path4980" />
      <path
         style="fill:none;fill-opacity:0;stroke:#586e75;stroke-width:0.5;stroke-linecap:round;stroke-linejoin:round;stroke-opacity:1"
         d="m 165.1,85.09 h 0.635"
         id="path4982" />
      <path
         style="fill:none;fill-opacity:0;stroke:#586e75;stroke-width:0.5;stroke-linecap:round;stroke-linejoin:round;stroke-opacity:1"
         d="M 167.64,92.71 V 92.075"
         id="path4984" />
      <path
         style="fill:none;fill-opacity:0;stroke:#586e75;stroke-width:0.5;stroke-linecap:round;stroke-linejoin:round;stroke-opacity:1"
         d="M 172.72,92.71 V 92.075"
         id="path4986" />
      <circle
         cx="170.17999"
         cy="87.629997"
         r="3.2512"
         id="circle4988" />
      <path
         d="m 171.45,92.075 a 0.635,0.635 0 0 0 -1.27,0"
         id="path4990" />
      <path
         d="m 172.72,92.075 a 0.635,0.635 0 0 0 -1.27,0"
         id="path4992" />
      <path
         d="m 165.1,85.09 h -3.81"
         id="path4994" />
      <path
         d="m 165.1,90.17 h -3.81"
         id="path4996" />
      <path
         d="m 167.64,92.71 v 3.81"
         id="path4998" />
      <path
         d="m 172.72,92.71 v 3.81"
         id="path5000" />
    </g>
  </g>
  <g
     style="fill:#586e75;fill-opacity:0;stroke:#586e75;stroke-width:0.1588;stroke-linecap:round;stroke-linejoin:round;stroke-opacity:1"
     id="g5006"
     transform="translate(-113.41938,-78.489998)" />
  <g
     style="fill:#586e75;fill-opacity:0;stroke:#586e75;stroke-width:0.5;stroke-linecap:round;stroke-linejoin:round;stroke-opacity:1"
     id="g5008"
     transform="translate(-113.41938,-78.489998)" />
  <g
     style="fill:#2aa198;fill-opacity:0;stroke:#2aa198;stroke-width:0.5;stroke-linecap:round;stroke-linejoin:round;stroke-opacity:1"
     id="g5056"
     transform="translate(-113.41938,-78.489998)">
    <g
       transform="rotate(-90,172.3707,99.06)"
       id="g5012">
      <text
         x="172.3707"
         y="99.059998"
         textLength="4.0883999"
         font-size="1.6933px"
         lengthAdjust="spacingAndGlyphs"
         text-anchor="end"
         opacity="0"
         id="text5010">B-</text>
    </g>
    <g
       class="stroked-text"
       id="g5054">
      <desc
         id="desc5014">B-</desc>
      <path
         d="m 171.524,101.5055 0.0605,-0.1814"
         id="path5016" />
      <path
         d="m 171.5845,101.3241 0.0604,-0.0605"
         id="path5018" />
      <path
         d="m 171.6449,101.2636 0.121,-0.0604"
         id="path5020" />
      <path
         d="m 171.7659,101.2032 h 0.1814"
         id="path5022" />
      <path
         d="m 171.9473,101.2032 0.121,0.0604"
         id="path5024" />
      <path
         d="m 172.0683,101.2636 0.0605,0.0605"
         id="path5026" />
      <path
         d="m 172.1288,101.3241 0.0604,0.121"
         id="path5028" />
      <path
         d="m 172.1892,101.4451 v 0.4838"
         id="path5030" />
      <path
         d="m 172.1892,101.9289 h -1.27"
         id="path5032" />
      <path
         d="m 170.9192,101.9289 v -0.4234"
         id="path5034" />
      <path
         d="m 170.9192,101.5055 0.0605,-0.1209"
         id="path5036" />
      <path
         d="m 170.9797,101.3846 0.0605,-0.0605"
         id="path5038" />
      <path
         d="m 171.0402,101.3241 0.1209,-0.0605"
         id="path5040" />
      <path
         d="m 171.1611,101.2636 h 0.121"
         id="path5042" />
      <path
         d="m 171.2821,101.2636 0.1209,0.0605"
         id="path5044" />
      <path
         d="m 171.403,101.3241 0.0605,0.0605"
         id="path5046" />
      <path
         d="m 171.4635,101.3846 0.0605,0.1209"
         id="path5048" />
      <path
         d="m 171.524,101.5055 v 0.4234"
         id="path5050" />
      <path
         d="M 171.7054,100.6589 V 99.6913"
         id="path5052" />
    </g>
  </g>
  <g
     style="fill:#2aa198;fill-opacity:0;stroke:#2aa198;stroke-width:0.1588;stroke-linecap:round;stroke-linejoin:round;stroke-opacity:1"
     id="g5058"
     transform="translate(-113.41938,-78.489998)" />
  <g
     style="fill:#2aa198;fill-opacity:0;stroke:#2aa198;stroke-width:0.5;stroke-linecap:round;stroke-linejoin:round;stroke-opacity:1"
     id="g5106"
     transform="translate(-113.41938,-78.489998)">
    <text
       x="149.86"
       y="93.630699"
       textLength="4.0883999"
       font-size="1.6933px"
       lengthAdjust="spacingAndGlyphs"
       text-anchor="start"
       opacity="0"
       id="text5060">B+</text>
    <g
       class="stroked-text"
       id="g5104">
      <desc
         id="desc5062">B+</desc>
      <path
         d="m 150.9146,92.784 0.1814,0.0605"
         id="path5064" />
      <path
         d="m 151.096,92.8445 0.0605,0.0604"
         id="path5066" />
      <path
         d="m 151.1565,92.9049 0.0604,0.121"
         id="path5068" />
      <path
         d="m 151.2169,93.0259 v 0.1814"
         id="path5070" />
      <path
         d="m 151.2169,93.2073 -0.0604,0.121"
         id="path5072" />
      <path
         d="m 151.1565,93.3283 -0.0605,0.0605"
         id="path5074" />
      <path
         d="m 151.096,93.3888 -0.121,0.0604"
         id="path5076" />
      <path
         d="m 150.975,93.4492 h -0.4838"
         id="path5078" />
      <path
         d="m 150.4912,93.4492 v -1.27"
         id="path5080" />
      <path
         d="m 150.4912,92.1792 h 0.4234"
         id="path5082" />
      <path
         d="m 150.9146,92.1792 0.1209,0.0605"
         id="path5084" />
      <path
         d="m 151.0355,92.2397 0.0605,0.0605"
         id="path5086" />
      <path
         d="m 151.096,92.3002 0.0605,0.1209"
         id="path5088" />
      <path
         d="m 151.1565,92.4211 v 0.121"
         id="path5090" />
      <path
         d="M 151.1565,92.5421 151.096,92.663"
         id="path5092" />
      <path
         d="m 151.096,92.663 -0.0605,0.0605"
         id="path5094" />
      <path
         d="m 151.0355,92.7235 -0.1209,0.0605"
         id="path5096" />
      <path
         d="m 150.9146,92.784 h -0.4234"
         id="path5098" />
      <path
         d="m 151.7612,92.9654 h 0.9677"
         id="path5100" />
      <path
         d="M 152.245,93.4492 V 92.4816"
         id="path5102" />
    </g>
  </g>
  <g
     style="fill:#2aa198;fill-opacity:0;stroke:#2aa198;stroke-width:0.1588;stroke-linecap:round;stroke-linejoin:round;stroke-opacity:1"
     id="g5108"
     transform="translate(-113.41938,-78.489998)" />
  <g
     style="fill:#2aa198;fill-opacity:0;stroke:#2aa198;stroke-width:0.5;stroke-linecap:round;stroke-linejoin:round;stroke-opacity:1"
     id="g5154"
     transform="translate(-113.41938,-78.489998)">
    <text
       x="149.86"
       y="96.1707"
       textLength="4.0883999"
       font-size="1.6933px"
       lengthAdjust="spacingAndGlyphs"
       text-anchor="start"
       opacity="0"
       id="text5110">B-</text>
    <g
       class="stroked-text"
       id="g5152">
      <desc
         id="desc5112">B-</desc>
      <path
         d="m 150.9146,95.324 0.1814,0.0605"
         id="path5114" />
      <path
         d="m 151.096,95.3845 0.0605,0.0604"
         id="path5116" />
      <path
         d="m 151.1565,95.4449 0.0604,0.121"
         id="path5118" />
      <path
         d="m 151.2169,95.5659 v 0.1814"
         id="path5120" />
      <path
         d="m 151.2169,95.7473 -0.0604,0.121"
         id="path5122" />
      <path
         d="m 151.1565,95.8683 -0.0605,0.0605"
         id="path5124" />
      <path
         d="m 151.096,95.9288 -0.121,0.0604"
         id="path5126" />
      <path
         d="m 150.975,95.9892 h -0.4838"
         id="path5128" />
      <path
         d="m 150.4912,95.9892 v -1.27"
         id="path5130" />
      <path
         d="m 150.4912,94.7192 h 0.4234"
         id="path5132" />
      <path
         d="m 150.9146,94.7192 0.1209,0.0605"
         id="path5134" />
      <path
         d="m 151.0355,94.7797 0.0605,0.0605"
         id="path5136" />
      <path
         d="m 151.096,94.8402 0.0605,0.1209"
         id="path5138" />
      <path
         d="m 151.1565,94.9611 v 0.121"
         id="path5140" />
      <path
         d="M 151.1565,95.0821 151.096,95.203"
         id="path5142" />
      <path
         d="m 151.096,95.203 -0.0605,0.0605"
         id="path5144" />
      <path
         d="m 151.0355,95.2635 -0.1209,0.0605"
         id="path5146" />
      <path
         d="m 150.9146,95.324 h -0.4234"
         id="path5148" />
      <path
         d="m 151.7612,95.5054 h 0.9677"
         id="path5150" />
    </g>
  </g>
  <g
     style="fill:#2aa198;fill-opacity:0;stroke:#2aa198;stroke-width:0.1588;stroke-linecap:round;stroke-linejoin:round;stroke-opacity:1"
     id="g5156"
     transform="translate(-113.41938,-78.489998)" />
  <g
     style="fill:#2aa198;fill-opacity:0;stroke:#2aa198;stroke-width:0.5;stroke-linecap:round;stroke-linejoin:round;stroke-opacity:1"
     id="g5172"
     transform="translate(-113.41938,-78.489998)">
    <text
       x="149.86"
       y="88.550697"
       textLength="3.9070001"
       font-size="1.6933px"
       lengthAdjust="spacingAndGlyphs"
       text-anchor="start"
       opacity="0"
       id="text5158">A-</text>
    <g
       class="stroked-text"
       id="g5170">
      <desc
         id="desc5160">A-</desc>
      <path
         d="m 150.4308,88.0064 h 0.6047"
         id="path5162" />
      <path
         d="m 150.3098,88.3692 0.4233,-1.27"
         id="path5164" />
      <path
         d="m 150.7331,87.0992 0.4234,1.27"
         id="path5166" />
      <path
         d="m 151.5798,87.8854 h 0.9677"
         id="path5168" />
    </g>
  </g>
  <g
     style="fill:#2aa198;fill-opacity:0;stroke:#2aa198;stroke-width:0.1588;stroke-linecap:round;stroke-linejoin:round;stroke-opacity:1"
     id="g5174"
     transform="translate(-113.41938,-78.489998)" />
  <g
     style="fill:#2aa198;fill-opacity:0;stroke:#2aa198;stroke-width:0.5;stroke-linecap:round;stroke-linejoin:round;stroke-opacity:1"
     id="g5192"
     transform="translate(-113.41938,-78.489998)">
    <text
       x="149.86"
       y="86.010696"
       textLength="3.9070001"
       font-size="1.6933px"
       lengthAdjust="spacingAndGlyphs"
       text-anchor="start"
       opacity="0"
       id="text5176">A+</text>
    <g
       class="stroked-text"
       id="g5190">
      <desc
         id="desc5178">A+</desc>
      <path
         d="m 150.4308,85.4664 h 0.6047"
         id="path5180" />
      <path
         d="m 150.3098,85.8292 0.4233,-1.27"
         id="path5182" />
      <path
         d="m 150.7331,84.5592 0.4234,1.27"
         id="path5184" />
      <path
         d="m 151.5798,85.3454 h 0.9677"
         id="path5186" />
      <path
         d="M 152.0636,85.8292 V 84.8616"
         id="path5188" />
    </g>
  </g>
  <g
     style="fill:#2aa198;fill-opacity:0;stroke:#2aa198;stroke-width:0.1588;stroke-linecap:round;stroke-linejoin:round;stroke-opacity:1"
     id="g5194"
     transform="translate(-113.41938,-78.489998)" />
  <g
     style="fill:#2aa198;fill-opacity:0;stroke:#2aa198;stroke-width:0.5;stroke-linecap:round;stroke-linejoin:round;stroke-opacity:1"
     id="g5212"
     transform="translate(-113.41938,-78.489998)">
    <text
       x="158.75"
       y="84.7407"
       textLength="3.9070001"
       font-size="1.6933px"
       lengthAdjust="spacingAndGlyphs"
       text-anchor="end"
       opacity="0"
       id="text5196">A+</text>
    <g
       class="stroked-text"
       id="g5210">
      <desc
         id="desc5198">A+</desc>
      <path
         d="m 156.002,84.1964 h 0.6047"
         id="path5200" />
      <path
         d="m 155.881,84.5592 0.4233,-1.27"
         id="path5202" />
      <path
         d="m 156.3043,83.2892 0.4234,1.27"
         id="path5204" />
      <path
         d="m 157.151,84.0754 h 0.9677"
         id="path5206" />
      <path
         d="M 157.6348,84.5592 V 83.5916"
         id="path5208" />
    </g>
  </g>
  <g
     style="fill:#2aa198;fill-opacity:0;stroke:#2aa198;stroke-width:0.1588;stroke-linecap:round;stroke-linejoin:round;stroke-opacity:1"
     id="g5214"
     transform="translate(-113.41938,-78.489998)" />
  <g
     style="fill:#2aa198;fill-opacity:0;stroke:#2aa198;stroke-width:0.5;stroke-linecap:round;stroke-linejoin:round;stroke-opacity:1"
     id="g5230"
     transform="translate(-113.41938,-78.489998)">
    <text
       x="158.75"
       y="89.820702"
       textLength="3.9070001"
       font-size="1.6933px"
       lengthAdjust="spacingAndGlyphs"
       text-anchor="end"
       opacity="0"
       id="text5216">A-</text>
    <g
       class="stroked-text"
       id="g5228">
      <desc
         id="desc5218">A-</desc>
      <path
         d="m 156.002,89.2764 h 0.6047"
         id="path5220" />
      <path
         d="m 155.881,89.6392 0.4233,-1.27"
         id="path5222" />
      <path
         d="m 156.3043,88.3692 0.4234,1.27"
         id="path5224" />
      <path
         d="m 157.151,89.1554 h 0.9677"
         id="path5226" />
    </g>
  </g>
  <g
     style="fill:#2aa198;fill-opacity:0;stroke:#2aa198;stroke-width:0.1588;stroke-linecap:round;stroke-linejoin:round;stroke-opacity:1"
     id="g5232"
     transform="translate(-113.41938,-78.489998)" />
  <g
     style="fill:#2aa198;fill-opacity:0;stroke:#2aa198;stroke-width:0.5;stroke-linecap:round;stroke-linejoin:round;stroke-opacity:1"
     id="g5282"
     transform="translate(-113.41938,-78.489998)">
    <g
       transform="rotate(-90,167.2907,99.06)"
       id="g5236">
      <text
         x="167.2907"
         y="99.059998"
         textLength="4.0883999"
         font-size="1.6933px"
         lengthAdjust="spacingAndGlyphs"
         text-anchor="end"
         opacity="0"
         id="text5234">B+</text>
    </g>
    <g
       class="stroked-text"
       id="g5280">
      <desc
         id="desc5238">B+</desc>
      <path
         d="m 166.444,101.5055 0.0605,-0.1814"
         id="path5240" />
      <path
         d="m 166.5045,101.3241 0.0604,-0.0605"
         id="path5242" />
      <path
         d="m 166.5649,101.2636 0.121,-0.0604"
         id="path5244" />
      <path
         d="m 166.6859,101.2032 h 0.1814"
         id="path5246" />
      <path
         d="m 166.8673,101.2032 0.121,0.0604"
         id="path5248" />
      <path
         d="m 166.9883,101.2636 0.0605,0.0605"
         id="path5250" />
      <path
         d="m 167.0488,101.3241 0.0604,0.121"
         id="path5252" />
      <path
         d="m 167.1092,101.4451 v 0.4838"
         id="path5254" />
      <path
         d="m 167.1092,101.9289 h -1.27"
         id="path5256" />
      <path
         d="m 165.8392,101.9289 v -0.4234"
         id="path5258" />
      <path
         d="m 165.8392,101.5055 0.0605,-0.1209"
         id="path5260" />
      <path
         d="m 165.8997,101.3846 0.0605,-0.0605"
         id="path5262" />
      <path
         d="m 165.9602,101.3241 0.1209,-0.0605"
         id="path5264" />
      <path
         d="m 166.0811,101.2636 h 0.121"
         id="path5266" />
      <path
         d="m 166.2021,101.2636 0.1209,0.0605"
         id="path5268" />
      <path
         d="m 166.323,101.3241 0.0605,0.0605"
         id="path5270" />
      <path
         d="m 166.3835,101.3846 0.0605,0.1209"
         id="path5272" />
      <path
         d="m 166.444,101.5055 v 0.4234"
         id="path5274" />
      <path
         d="M 166.6254,100.6589 V 99.6913"
         id="path5276" />
      <path
         d="m 167.1092,100.1751 h -0.9676"
         id="path5278" />
    </g>
  </g>
  <g
     style="fill:#2aa198;fill-opacity:0;stroke:#2aa198;stroke-width:0.1588;stroke-linecap:round;stroke-linejoin:round;stroke-opacity:1"
     id="g5284"
     transform="translate(-113.41938,-78.489998)" />
  <g
     style="fill:#2aa198;fill-opacity:0;stroke:#2aa198;stroke-width:0.5;stroke-linecap:round;stroke-linejoin:round;stroke-opacity:1"
     id="g5340"
     transform="translate(-113.41938,-78.489998)">
    <text
       x="119.38"
       y="88.550697"
       textLength="4.3908"
       font-size="1.6933px"
       lengthAdjust="spacingAndGlyphs"
       text-anchor="end"
       opacity="0"
       id="text5286">DIR</text>
    <g
       class="stroked-text"
       id="g5338">
      <desc
         id="desc5288">DIR</desc>
      <path
         d="m 116.2086,88.3692 v -1.27"
         id="path5290" />
      <path
         d="m 116.2086,87.0992 h 0.3024"
         id="path5292" />
      <path
         d="m 116.511,87.0992 0.1814,0.0605"
         id="path5294" />
      <path
         d="m 116.6924,87.1597 0.121,0.121"
         id="path5296" />
      <path
         d="m 116.8134,87.2807 0.0605,0.1209"
         id="path5298" />
      <path
         d="m 116.8739,87.4016 0.0604,0.2419"
         id="path5300" />
      <path
         d="m 116.9343,87.6435 v 0.1814"
         id="path5302" />
      <path
         d="m 116.9343,87.8249 -0.0604,0.2419"
         id="path5304" />
      <path
         d="m 116.8739,88.0668 -0.0605,0.121"
         id="path5306" />
      <path
         d="m 116.8134,88.1878 -0.121,0.121"
         id="path5308" />
      <path
         d="m 116.6924,88.3088 -0.1814,0.0604"
         id="path5310" />
      <path
         d="m 116.511,88.3692 h -0.3024"
         id="path5312" />
      <path
         d="m 117.4786,88.3692 v -1.27"
         id="path5314" />
      <path
         d="m 118.8091,88.3692 -0.4233,-0.6047"
         id="path5316" />
      <path
         d="m 118.0834,88.3692 v -1.27"
         id="path5318" />
      <path
         d="m 118.0834,87.0992 h 0.4838"
         id="path5320" />
      <path
         d="m 118.5672,87.0992 0.121,0.0605"
         id="path5322" />
      <path
         d="m 118.6882,87.1597 0.0605,0.0605"
         id="path5324" />
      <path
         d="m 118.7487,87.2202 0.0604,0.1209"
         id="path5326" />
      <path
         d="m 118.8091,87.3411 v 0.1815"
         id="path5328" />
      <path
         d="m 118.8091,87.5226 -0.0604,0.1209"
         id="path5330" />
      <path
         d="m 118.7487,87.6435 -0.0605,0.0605"
         id="path5332" />
      <path
         d="m 118.6882,87.704 -0.121,0.0605"
         id="path5334" />
      <path
         d="m 118.5672,87.7645 h -0.4838"
         id="path5336" />
    </g>
  </g>
  <g
     style="fill:#2aa198;fill-opacity:0;stroke:#2aa198;stroke-width:0.1588;stroke-linecap:round;stroke-linejoin:round;stroke-opacity:1"
     id="g5342"
     transform="translate(-113.41938,-78.489998)" />
  <g
     style="fill:#2aa198;fill-opacity:0;stroke:#2aa198;stroke-width:0.5;stroke-linecap:round;stroke-linejoin:round;stroke-opacity:1"
     id="g5400"
     transform="translate(-113.41938,-78.489998)">
    <text
       x="119.38"
       y="80.930702"
       textLength="5.9026999"
       font-size="1.6933px"
       lengthAdjust="spacingAndGlyphs"
       text-anchor="end"
       opacity="0"
       id="text5344">UART</text>
    <g
       class="stroked-text"
       id="g5398">
      <desc
         id="desc5346">UART</desc>
      <path
         d="m 114.6967,79.4792 v 1.0281"
         id="path5348" />
      <path
         d="m 114.6967,80.5073 0.0605,0.121"
         id="path5350" />
      <path
         d="m 114.7572,80.6283 0.0605,0.0605"
         id="path5352" />
      <path
         d="m 114.8177,80.6888 0.1209,0.0604"
         id="path5354" />
      <path
         d="m 114.9386,80.7492 h 0.2419"
         id="path5356" />
      <path
         d="m 115.1805,80.7492 0.121,-0.0604"
         id="path5358" />
      <path
         d="m 115.3015,80.6888 0.0605,-0.0605"
         id="path5360" />
      <path
         d="m 115.362,80.6283 0.0604,-0.121"
         id="path5362" />
      <path
         d="M 115.4224,80.5073 V 79.4792"
         id="path5364" />
      <path
         d="m 115.9668,80.3864 h 0.6047"
         id="path5366" />
      <path
         d="m 115.8458,80.7492 0.4233,-1.27"
         id="path5368" />
      <path
         d="m 116.2691,79.4792 0.4234,1.27"
         id="path5370" />
      <path
         d="m 117.8415,80.7492 -0.4233,-0.6047"
         id="path5372" />
      <path
         d="m 117.1158,80.7492 v -1.27"
         id="path5374" />
      <path
         d="m 117.1158,79.4792 h 0.4838"
         id="path5376" />
      <path
         d="m 117.5996,79.4792 0.121,0.0605"
         id="path5378" />
      <path
         d="m 117.7206,79.5397 0.0605,0.0605"
         id="path5380" />
      <path
         d="m 117.7811,79.6002 0.0604,0.1209"
         id="path5382" />
      <path
         d="m 117.8415,79.7211 v 0.1815"
         id="path5384" />
      <path
         d="m 117.8415,79.9026 -0.0604,0.1209"
         id="path5386" />
      <path
         d="m 117.7811,80.0235 -0.0605,0.0605"
         id="path5388" />
      <path
         d="m 117.7206,80.084 -0.121,0.0605"
         id="path5390" />
      <path
         d="m 117.5996,80.1445 h -0.4838"
         id="path5392" />
      <path
         d="m 118.2044,79.4792 h 0.7257"
         id="path5394" />
      <path
         d="m 118.5673,80.7492 v -1.27"
         id="path5396" />
    </g>
  </g>
  <g
     style="fill:#2aa198;fill-opacity:0;stroke:#2aa198;stroke-width:0.1588;stroke-linecap:round;stroke-linejoin:round;stroke-opacity:1"
     id="g5402"
     transform="translate(-113.41938,-78.489998)" />
  <g
     style="fill:#2aa198;fill-opacity:0;stroke:#2aa198;stroke-width:0.5;stroke-linecap:round;stroke-linejoin:round;stroke-opacity:1"
     id="g5480"
     transform="translate(-113.41938,-78.489998)">
    <text
       x="119.38"
       y="86.010696"
       textLength="5.8421001"
       font-size="1.6933px"
       lengthAdjust="spacingAndGlyphs"
       text-anchor="end"
       opacity="0"
       id="text5404">STEP</text>
    <g
       class="stroked-text"
       id="g5478">
      <desc
         id="desc5406">STEP</desc>
      <path
         d="m 114.6969,85.7688 0.1814,0.0604"
         id="path5408" />
      <path
         d="m 114.8783,85.8292 h 0.3024"
         id="path5410" />
      <path
         d="m 115.1807,85.8292 0.1209,-0.0604"
         id="path5412" />
      <path
         d="m 115.3016,85.7688 0.0605,-0.0605"
         id="path5414" />
      <path
         d="m 115.3621,85.7083 0.0605,-0.121"
         id="path5416" />
      <path
         d="M 115.4226,85.5873 V 85.4664"
         id="path5418" />
      <path
         d="m 115.4226,85.4664 -0.0605,-0.121"
         id="path5420" />
      <path
         d="m 115.3621,85.3454 -0.0605,-0.0605"
         id="path5422" />
      <path
         d="m 115.3016,85.2849 -0.1209,-0.0604"
         id="path5424" />
      <path
         d="M 115.1807,85.2245 114.9388,85.164"
         id="path5426" />
      <path
         d="m 114.9388,85.164 -0.121,-0.0605"
         id="path5428" />
      <path
         d="M 114.8178,85.1035 114.7573,85.043"
         id="path5430" />
      <path
         d="m 114.7573,85.043 -0.0604,-0.1209"
         id="path5432" />
      <path
         d="m 114.6969,84.9221 v -0.121"
         id="path5434" />
      <path
         d="m 114.6969,84.8011 0.0604,-0.1209"
         id="path5436" />
      <path
         d="m 114.7573,84.6802 0.0605,-0.0605"
         id="path5438" />
      <path
         d="m 114.8178,84.6197 0.121,-0.0605"
         id="path5440" />
      <path
         d="m 114.9388,84.5592 h 0.3023"
         id="path5442" />
      <path
         d="m 115.2411,84.5592 0.1815,0.0605"
         id="path5444" />
      <path
         d="m 115.7854,84.5592 h 0.7257"
         id="path5446" />
      <path
         d="m 116.1483,85.8292 v -1.27"
         id="path5448" />
      <path
         d="m 116.9344,85.164 h 0.4234"
         id="path5450" />
      <path
         d="m 117.5392,85.8292 h -0.6048"
         id="path5452" />
      <path
         d="m 116.9344,85.8292 v -1.27"
         id="path5454" />
      <path
         d="m 116.9344,84.5592 h 0.6048"
         id="path5456" />
      <path
         d="m 118.0834,85.8292 v -1.27"
         id="path5458" />
      <path
         d="m 118.0834,84.5592 h 0.4838"
         id="path5460" />
      <path
         d="m 118.5672,84.5592 0.121,0.0605"
         id="path5462" />
      <path
         d="m 118.6882,84.6197 0.0605,0.0605"
         id="path5464" />
      <path
         d="m 118.7487,84.6802 0.0604,0.1209"
         id="path5466" />
      <path
         d="m 118.8091,84.8011 v 0.1815"
         id="path5468" />
      <path
         d="m 118.8091,84.9826 -0.0604,0.1209"
         id="path5470" />
      <path
         d="m 118.7487,85.1035 -0.0605,0.0605"
         id="path5472" />
      <path
         d="m 118.6882,85.164 -0.121,0.0605"
         id="path5474" />
      <path
         d="m 118.5672,85.2245 h -0.4838"
         id="path5476" />
    </g>
  </g>
  <g
     style="fill:#2aa198;fill-opacity:0;stroke:#2aa198;stroke-width:0.1524;stroke-linecap:round;stroke-linejoin:round;stroke-opacity:1"
     id="g5482"
     transform="translate(-113.41938,-78.489998)" />
  <g
     style="fill:#859900;fill-opacity:0;stroke:#859900;stroke-width:0.1524;stroke-linecap:round;stroke-linejoin:round;stroke-opacity:1"
     id="g5484"
     transform="translate(-113.41938,-78.489998)" />
  <g
     style="fill:#859900;fill-opacity:0;stroke:#859900;stroke-width:0.5;stroke-linecap:round;stroke-linejoin:round;stroke-opacity:1"
     id="g5488"
     transform="translate(-113.41938,-78.489998)">
    <path
       d="M 167.64,99.06 V 96.52"
       id="path5486" />
  </g>
  <g
     style="fill:#859900;fill-opacity:0;stroke:#859900;stroke-width:0.1524;stroke-linecap:round;stroke-linejoin:round;stroke-opacity:1"
     id="g5490"
     transform="translate(-113.41938,-78.489998)" />
  <g
     style="fill:#859900;fill-opacity:0;stroke:#859900;stroke-width:0.5;stroke-linecap:round;stroke-linejoin:round;stroke-opacity:1"
     id="g5494"
     transform="translate(-113.41938,-78.489998)">
    <path
       d="M 172.72,99.06 V 96.52"
       id="path5492" />
  </g>
  <g
     style="fill:#859900;fill-opacity:0;stroke:#859900;stroke-width:0.1524;stroke-linecap:round;stroke-linejoin:round;stroke-opacity:1"
     id="g5496"
     transform="translate(-113.41938,-78.489998)" />
  <g
     style="fill:#859900;fill-opacity:0;stroke:#859900;stroke-width:0.5;stroke-linecap:round;stroke-linejoin:round;stroke-opacity:1"
     id="g5500"
     transform="translate(-113.41938,-78.489998)">
    <path
       d="m 119.38,81.28 h 2.54"
       id="path5498" />
  </g>
  <g
     style="fill:#859900;fill-opacity:0;stroke:#859900;stroke-width:0.1524;stroke-linecap:round;stroke-linejoin:round;stroke-opacity:1"
     id="g5502"
     transform="translate(-113.41938,-78.489998)" />
  <g
     style="fill:#859900;fill-opacity:0;stroke:#859900;stroke-width:0.5;stroke-linecap:round;stroke-linejoin:round;stroke-opacity:1"
     id="g5506"
     transform="translate(-113.41938,-78.489998)">
    <path
       d="m 158.75,90.17 h 2.54"
       id="path5504" />
  </g>
  <g
     style="fill:#859900;fill-opacity:0;stroke:#859900;stroke-width:0.1524;stroke-linecap:round;stroke-linejoin:round;stroke-opacity:1"
     id="g5508"
     transform="translate(-113.41938,-78.489998)" />
  <g
     style="fill:#859900;fill-opacity:0;stroke:#859900;stroke-width:0.5;stroke-linecap:round;stroke-linejoin:round;stroke-opacity:1"
     id="g5512"
     transform="translate(-113.41938,-78.489998)">
    <path
       d="m 158.75,85.09 h 2.54"
       id="path5510" />
  </g>
  <g
     style="fill:#859900;fill-opacity:0;stroke:#859900;stroke-width:0.1524;stroke-linecap:round;stroke-linejoin:round;stroke-opacity:1"
     id="g5514"
     transform="translate(-113.41938,-78.489998)" />
  <g
     style="fill:#859900;fill-opacity:0;stroke:#859900;stroke-width:0.5;stroke-linecap:round;stroke-linejoin:round;stroke-opacity:1"
     id="g5518"
     transform="translate(-113.41938,-78.489998)">
    <path
       d="m 119.38,86.36 h 2.54"
       id="path5516" />
  </g>
  <g
     style="fill:#859900;fill-opacity:0;stroke:#859900;stroke-width:0.1524;stroke-linecap:round;stroke-linejoin:round;stroke-opacity:1"
     id="g5520"
     transform="translate(-113.41938,-78.489998)" />
  <g
     style="fill:#859900;fill-opacity:0;stroke:#859900;stroke-width:0.5;stroke-linecap:round;stroke-linejoin:round;stroke-opacity:1"
     id="g5524"
     transform="translate(-113.41938,-78.489998)">
    <path
       d="m 149.86,93.98 h -2.54"
       id="path5522" />
  </g>
  <g
     style="fill:#859900;fill-opacity:0;stroke:#859900;stroke-width:0.1524;stroke-linecap:round;stroke-linejoin:round;stroke-opacity:1"
     id="g5526"
     transform="translate(-113.41938,-78.489998)" />
  <g
     style="fill:#859900;fill-opacity:0;stroke:#859900;stroke-width:0.5;stroke-linecap:round;stroke-linejoin:round;stroke-opacity:1"
     id="g5530"
     transform="translate(-113.41938,-78.489998)">
    <path
       d="m 149.86,96.52 h -2.54"
       id="path5528" />
  </g>
  <g
     style="fill:#859900;fill-opacity:0;stroke:#859900;stroke-width:0.1524;stroke-linecap:round;stroke-linejoin:round;stroke-opacity:1"
     id="g5532"
     transform="translate(-113.41938,-78.489998)" />
  <g
     style="fill:#859900;fill-opacity:0;stroke:#859900;stroke-width:0.5;stroke-linecap:round;stroke-linejoin:round;stroke-opacity:1"
     id="g5536"
     transform="translate(-113.41938,-78.489998)">
    <path
       d="m 149.86,88.9 h -2.54"
       id="path5534" />
  </g>
  <g
     style="fill:#859900;fill-opacity:0;stroke:#859900;stroke-width:0.1524;stroke-linecap:round;stroke-linejoin:round;stroke-opacity:1"
     id="g5538"
     transform="translate(-113.41938,-78.489998)" />
  <g
     style="fill:#859900;fill-opacity:0;stroke:#859900;stroke-width:0.5;stroke-linecap:round;stroke-linejoin:round;stroke-opacity:1"
     id="g5542"
     transform="translate(-113.41938,-78.489998)">
    <path
       d="m 149.86,86.36 h -2.54"
       id="path5540" />
  </g>
  <g
     style="fill:#859900;fill-opacity:0;stroke:#859900;stroke-width:0.1524;stroke-linecap:round;stroke-linejoin:round;stroke-opacity:1"
     id="g5544"
     transform="translate(-113.41938,-78.489998)" />
  <g
     style="fill:#859900;fill-opacity:0;stroke:#859900;stroke-width:0.5;stroke-linecap:round;stroke-linejoin:round;stroke-opacity:1"
     id="g5548"
     transform="translate(-113.41938,-78.489998)">
    <path
       d="m 119.38,88.9 h 2.54"
       id="path5546" />
  </g>
</svg>
