<?xml version="1.0" encoding="UTF-8" standalone="no"?>
<svg
   version="1.1"
   width="71.519997mm"
   height="53.740002mm"
   viewBox="0 0 71.519997 53.740001"
   id="svg119791"
   xmlns="http://www.w3.org/2000/svg"
   xmlns:svg="http://www.w3.org/2000/svg">
  <defs
     id="defs119795" />
  <title
     id="title118925">SVG Image created as trinamic-wiring-TMC2209-unidirectional-multiple.svg date 2024/08/01 14:17:40 </title>
  <desc
     id="desc118927">Image generated by Eeschema-SVG </desc>
  <g
     style="fill:#000000;fill-opacity:1;stroke:#000000;stroke-linecap:round;stroke-linejoin:round;stroke-opacity:1"
     id="g118929"
     transform="translate(-102.67,-74.73)" />
  <g
     style="fill:#000000;fill-opacity:0;stroke:#000000;stroke-width:0.1524;stroke-linecap:round;stroke-linejoin:round;stroke-opacity:1"
     id="g119171"
     transform="translate(-102.67,-74.73)">
    <g
       id="g118931" />
    <g
       style="fill:#586e75;fill-opacity:0;stroke:#586e75;stroke-width:0.1524;stroke-linecap:round;stroke-linejoin:round;stroke-opacity:1"
       id="g118933" />
    <g
       style="fill:#586e75;fill-opacity:0;stroke:#586e75;stroke-width:0.4;stroke-linecap:round;stroke-linejoin:round;stroke-opacity:1"
       id="g119109">
      <rect
         x="153.67"
         y="102.87"
         width="20.32"
         height="25.4"
         rx="0.000000"
         id="rect118935" />
      <text
         x="163.83"
         y="116.205"
         textLength="9.4729996"
         font-size="1.6933px"
         lengthAdjust="spacingAndGlyphs"
         text-anchor="middle"
         opacity="0"
         id="text118937">TMC2209</text>
      <g
         class="stroked-text"
         id="g119105">
        <desc
           id="desc118939">TMC2209</desc>
        <path
           d="m 159.6874,114.8667 h 0.7257"
           id="path118941" />
        <path
           d="m 160.0503,116.1367 v -1.27"
           id="path118943" />
        <path
           d="m 160.8364,116.1367 v -1.27"
           id="path118945" />
        <path
           d="m 160.8364,114.8667 0.4234,0.9072"
           id="path118947" />
        <path
           d="m 161.2598,115.7739 0.4233,-0.9072"
           id="path118949" />
        <path
           d="m 161.6831,114.8667 v 1.27"
           id="path118951" />
        <path
           d="m 163.0135,116.0158 -0.0604,0.0605"
           id="path118953" />
        <path
           d="m 162.9531,116.0763 -0.1815,0.0604"
           id="path118955" />
        <path
           d="m 162.7716,116.1367 h -0.1209"
           id="path118957" />
        <path
           d="m 162.6507,116.1367 -0.1814,-0.0604"
           id="path118959" />
        <path
           d="m 162.4693,116.0763 -0.121,-0.121"
           id="path118961" />
        <path
           d="m 162.3483,115.9553 -0.0605,-0.121"
           id="path118963" />
        <path
           d="m 162.2878,115.8343 -0.0604,-0.2419"
           id="path118965" />
        <path
           d="M 162.2274,115.5924 V 115.411"
           id="path118967" />
        <path
           d="m 162.2274,115.411 0.0604,-0.2419"
           id="path118969" />
        <path
           d="m 162.2878,115.1691 0.0605,-0.1209"
           id="path118971" />
        <path
           d="m 162.3483,115.0482 0.121,-0.121"
           id="path118973" />
        <path
           d="m 162.4693,114.9272 0.1814,-0.0605"
           id="path118975" />
        <path
           d="m 162.6507,114.8667 h 0.1209"
           id="path118977" />
        <path
           d="m 162.7716,114.8667 0.1815,0.0605"
           id="path118979" />
        <path
           d="m 162.9531,114.9272 0.0604,0.0605"
           id="path118981" />
        <path
           d="m 163.4974,114.9877 0.0604,-0.0605"
           id="path118983" />
        <path
           d="m 163.5578,114.9272 0.121,-0.0605"
           id="path118985" />
        <path
           d="m 163.6788,114.8667 h 0.3024"
           id="path118987" />
        <path
           d="m 163.9812,114.8667 0.1209,0.0605"
           id="path118989" />
        <path
           d="m 164.1021,114.9272 0.0605,0.0605"
           id="path118991" />
        <path
           d="m 164.1626,114.9877 0.0605,0.1209"
           id="path118993" />
        <path
           d="m 164.2231,115.1086 v 0.121"
           id="path118995" />
        <path
           d="m 164.2231,115.2296 -0.0605,0.1814"
           id="path118997" />
        <path
           d="m 164.1626,115.411 -0.7257,0.7257"
           id="path118999" />
        <path
           d="m 163.4369,116.1367 h 0.7862"
           id="path119001" />
        <path
           d="m 164.7069,114.9877 0.0604,-0.0605"
           id="path119003" />
        <path
           d="m 164.7673,114.9272 0.121,-0.0605"
           id="path119005" />
        <path
           d="m 164.8883,114.8667 h 0.3024"
           id="path119007" />
        <path
           d="m 165.1907,114.8667 0.1209,0.0605"
           id="path119009" />
        <path
           d="m 165.3116,114.9272 0.0605,0.0605"
           id="path119011" />
        <path
           d="m 165.3721,114.9877 0.0605,0.1209"
           id="path119013" />
        <path
           d="m 165.4326,115.1086 v 0.121"
           id="path119015" />
        <path
           d="m 165.4326,115.2296 -0.0605,0.1814"
           id="path119017" />
        <path
           d="m 165.3721,115.411 -0.7257,0.7257"
           id="path119019" />
        <path
           d="m 164.6464,116.1367 h 0.7862"
           id="path119021" />
        <path
           d="m 166.2187,114.8667 h 0.121"
           id="path119023" />
        <path
           d="m 166.3397,114.8667 0.1209,0.0605"
           id="path119025" />
        <path
           d="m 166.4606,114.9272 0.0605,0.0605"
           id="path119027" />
        <path
           d="m 166.5211,114.9877 0.0605,0.1209"
           id="path119029" />
        <path
           d="m 166.5816,115.1086 0.0605,0.2419"
           id="path119031" />
        <path
           d="m 166.6421,115.3505 v 0.3024"
           id="path119033" />
        <path
           d="m 166.6421,115.6529 -0.0605,0.2419"
           id="path119035" />
        <path
           d="m 166.5816,115.8948 -0.0605,0.121"
           id="path119037" />
        <path
           d="m 166.5211,116.0158 -0.0605,0.0605"
           id="path119039" />
        <path
           d="m 166.4606,116.0763 -0.1209,0.0604"
           id="path119041" />
        <path
           d="m 166.3397,116.1367 h -0.121"
           id="path119043" />
        <path
           d="m 166.2187,116.1367 -0.1209,-0.0604"
           id="path119045" />
        <path
           d="m 166.0978,116.0763 -0.0605,-0.0605"
           id="path119047" />
        <path
           d="m 166.0373,116.0158 -0.0605,-0.121"
           id="path119049" />
        <path
           d="m 165.9768,115.8948 -0.0604,-0.2419"
           id="path119051" />
        <path
           d="m 165.9164,115.6529 v -0.3024"
           id="path119053" />
        <path
           d="m 165.9164,115.3505 0.0604,-0.2419"
           id="path119055" />
        <path
           d="m 165.9768,115.1086 0.0605,-0.1209"
           id="path119057" />
        <path
           d="m 166.0373,114.9877 0.0605,-0.0605"
           id="path119059" />
        <path
           d="m 166.0978,114.9272 0.1209,-0.0605"
           id="path119061" />
        <path
           d="m 167.2468,116.1367 h 0.2419"
           id="path119063" />
        <path
           d="m 167.4887,116.1367 0.121,-0.0604"
           id="path119065" />
        <path
           d="m 167.6097,116.0763 0.0604,-0.0605"
           id="path119067" />
        <path
           d="m 167.6701,116.0158 0.121,-0.1815"
           id="path119069" />
        <path
           d="m 167.7911,115.8343 0.0605,-0.2419"
           id="path119071" />
        <path
           d="m 167.8516,115.5924 v -0.4838"
           id="path119073" />
        <path
           d="m 167.8516,115.1086 -0.0605,-0.1209"
           id="path119075" />
        <path
           d="m 167.7911,114.9877 -0.0605,-0.0605"
           id="path119077" />
        <path
           d="m 167.7306,114.9272 -0.1209,-0.0605"
           id="path119079" />
        <path
           d="m 167.6097,114.8667 h -0.2419"
           id="path119081" />
        <path
           d="m 167.3678,114.8667 -0.121,0.0605"
           id="path119083" />
        <path
           d="m 167.2468,114.9272 -0.0605,0.0605"
           id="path119085" />
        <path
           d="m 167.1863,114.9877 -0.0604,0.1209"
           id="path119087" />
        <path
           d="m 167.1259,115.1086 v 0.3024"
           id="path119089" />
        <path
           d="m 167.1259,115.411 0.0604,0.121"
           id="path119091" />
        <path
           d="m 167.1863,115.532 0.0605,0.0604"
           id="path119093" />
        <path
           d="m 167.2468,115.5924 0.121,0.0605"
           id="path119095" />
        <path
           d="m 167.3678,115.6529 h 0.2419"
           id="path119097" />
        <path
           d="m 167.6097,115.6529 0.1209,-0.0605"
           id="path119099" />
        <path
           d="m 167.7306,115.5924 0.0605,-0.0604"
           id="path119101" />
        <path
           d="m 167.7911,115.532 0.0605,-0.121"
           id="path119103" />
      </g>
      <path
         d="m 153.67,105.41 h -2.54"
         id="path119107" />
    </g>
    <g
       style="fill:#cb4b16;fill-opacity:0;stroke:#cb4b16;stroke-width:0.4;stroke-linecap:round;stroke-linejoin:round;stroke-opacity:1"
       id="g119111" />
    <g
       style="fill:#cb4b16;fill-opacity:0;stroke:#cb4b16;stroke-width:0.1524;stroke-linecap:round;stroke-linejoin:round;stroke-opacity:1"
       id="g119169">
      <text
         x="154.686"
         y="106.045"
         textLength="4.8599"
         font-size="1.6933px"
         lengthAdjust="spacingAndGlyphs"
         text-anchor="start"
         opacity="0"
         id="text119113">UART</text>
      <g
         class="stroked-text"
         id="g119167">
        <desc
           id="desc119115">UART</desc>
        <path
           d="m 155.0885,104.7195 v 1.0281"
           id="path119117" />
        <path
           d="m 155.0885,105.7476 0.0605,0.121"
           id="path119119" />
        <path
           d="m 155.149,105.8686 0.0605,0.0605"
           id="path119121" />
        <path
           d="m 155.2095,105.9291 0.1209,0.0604"
           id="path119123" />
        <path
           d="m 155.3304,105.9895 h 0.2419"
           id="path119125" />
        <path
           d="m 155.5723,105.9895 0.121,-0.0604"
           id="path119127" />
        <path
           d="m 155.6933,105.9291 0.0605,-0.0605"
           id="path119129" />
        <path
           d="m 155.7538,105.8686 0.0604,-0.121"
           id="path119131" />
        <path
           d="m 155.8142,105.7476 v -1.0281"
           id="path119133" />
        <path
           d="m 156.3586,105.6267 h 0.6047"
           id="path119135" />
        <path
           d="m 156.2376,105.9895 0.4233,-1.27"
           id="path119137" />
        <path
           d="m 156.6609,104.7195 0.4234,1.27"
           id="path119139" />
        <path
           d="M 158.2333,105.9895 157.81,105.3848"
           id="path119141" />
        <path
           d="m 157.5076,105.9895 v -1.27"
           id="path119143" />
        <path
           d="m 157.5076,104.7195 h 0.4838"
           id="path119145" />
        <path
           d="m 157.9914,104.7195 0.121,0.0605"
           id="path119147" />
        <path
           d="m 158.1124,104.78 0.0605,0.0605"
           id="path119149" />
        <path
           d="m 158.1729,104.8405 0.0604,0.1209"
           id="path119151" />
        <path
           d="m 158.2333,104.9614 v 0.1815"
           id="path119153" />
        <path
           d="m 158.2333,105.1429 -0.0604,0.1209"
           id="path119155" />
        <path
           d="m 158.1729,105.2638 -0.0605,0.0605"
           id="path119157" />
        <path
           d="m 158.1124,105.3243 -0.121,0.0605"
           id="path119159" />
        <path
           d="m 157.9914,105.3848 h -0.4838"
           id="path119161" />
        <path
           d="m 158.5962,104.7195 h 0.7257"
           id="path119163" />
        <path
           d="m 158.9591,105.9895 v -1.27"
           id="path119165" />
      </g>
    </g>
  </g>
  <g
     style="fill:#cb4b16;fill-opacity:0;stroke:#cb4b16;stroke-width:0.1524;stroke-linecap:round;stroke-linejoin:round;stroke-opacity:1"
     id="g119413"
     transform="translate(-102.67,-74.73)">
    <g
       id="g119173" />
    <g
       style="fill:#586e75;fill-opacity:0;stroke:#586e75;stroke-width:0.1524;stroke-linecap:round;stroke-linejoin:round;stroke-opacity:1"
       id="g119175" />
    <g
       style="fill:#586e75;fill-opacity:0;stroke:#586e75;stroke-width:0.4;stroke-linecap:round;stroke-linejoin:round;stroke-opacity:1"
       id="g119351">
      <rect
         x="153.67"
         y="74.93"
         width="20.32"
         height="25.4"
         rx="0.000000"
         id="rect119177" />
      <text
         x="163.83"
         y="88.264999"
         textLength="9.4729996"
         font-size="1.6933px"
         lengthAdjust="spacingAndGlyphs"
         text-anchor="middle"
         opacity="0"
         id="text119179">TMC2209</text>
      <g
         class="stroked-text"
         id="g119347">
        <desc
           id="desc119181">TMC2209</desc>
        <path
           d="m 159.6874,86.9267 h 0.7257"
           id="path119183" />
        <path
           d="m 160.0503,88.1967 v -1.27"
           id="path119185" />
        <path
           d="m 160.8364,88.1967 v -1.27"
           id="path119187" />
        <path
           d="m 160.8364,86.9267 0.4234,0.9072"
           id="path119189" />
        <path
           d="m 161.2598,87.8339 0.4233,-0.9072"
           id="path119191" />
        <path
           d="m 161.6831,86.9267 v 1.27"
           id="path119193" />
        <path
           d="m 163.0135,88.0758 -0.0604,0.0605"
           id="path119195" />
        <path
           d="m 162.9531,88.1363 -0.1815,0.0604"
           id="path119197" />
        <path
           d="m 162.7716,88.1967 h -0.1209"
           id="path119199" />
        <path
           d="m 162.6507,88.1967 -0.1814,-0.0604"
           id="path119201" />
        <path
           d="m 162.4693,88.1363 -0.121,-0.121"
           id="path119203" />
        <path
           d="m 162.3483,88.0153 -0.0605,-0.121"
           id="path119205" />
        <path
           d="m 162.2878,87.8943 -0.0604,-0.2419"
           id="path119207" />
        <path
           d="M 162.2274,87.6524 V 87.471"
           id="path119209" />
        <path
           d="m 162.2274,87.471 0.0604,-0.2419"
           id="path119211" />
        <path
           d="m 162.2878,87.2291 0.0605,-0.1209"
           id="path119213" />
        <path
           d="m 162.3483,87.1082 0.121,-0.121"
           id="path119215" />
        <path
           d="m 162.4693,86.9872 0.1814,-0.0605"
           id="path119217" />
        <path
           d="m 162.6507,86.9267 h 0.1209"
           id="path119219" />
        <path
           d="m 162.7716,86.9267 0.1815,0.0605"
           id="path119221" />
        <path
           d="m 162.9531,86.9872 0.0604,0.0605"
           id="path119223" />
        <path
           d="m 163.4974,87.0477 0.0604,-0.0605"
           id="path119225" />
        <path
           d="m 163.5578,86.9872 0.121,-0.0605"
           id="path119227" />
        <path
           d="m 163.6788,86.9267 h 0.3024"
           id="path119229" />
        <path
           d="m 163.9812,86.9267 0.1209,0.0605"
           id="path119231" />
        <path
           d="m 164.1021,86.9872 0.0605,0.0605"
           id="path119233" />
        <path
           d="m 164.1626,87.0477 0.0605,0.1209"
           id="path119235" />
        <path
           d="m 164.2231,87.1686 v 0.121"
           id="path119237" />
        <path
           d="m 164.2231,87.2896 -0.0605,0.1814"
           id="path119239" />
        <path
           d="m 164.1626,87.471 -0.7257,0.7257"
           id="path119241" />
        <path
           d="m 163.4369,88.1967 h 0.7862"
           id="path119243" />
        <path
           d="m 164.7069,87.0477 0.0604,-0.0605"
           id="path119245" />
        <path
           d="m 164.7673,86.9872 0.121,-0.0605"
           id="path119247" />
        <path
           d="m 164.8883,86.9267 h 0.3024"
           id="path119249" />
        <path
           d="m 165.1907,86.9267 0.1209,0.0605"
           id="path119251" />
        <path
           d="m 165.3116,86.9872 0.0605,0.0605"
           id="path119253" />
        <path
           d="m 165.3721,87.0477 0.0605,0.1209"
           id="path119255" />
        <path
           d="m 165.4326,87.1686 v 0.121"
           id="path119257" />
        <path
           d="m 165.4326,87.2896 -0.0605,0.1814"
           id="path119259" />
        <path
           d="m 165.3721,87.471 -0.7257,0.7257"
           id="path119261" />
        <path
           d="m 164.6464,88.1967 h 0.7862"
           id="path119263" />
        <path
           d="m 166.2187,86.9267 h 0.121"
           id="path119265" />
        <path
           d="m 166.3397,86.9267 0.1209,0.0605"
           id="path119267" />
        <path
           d="m 166.4606,86.9872 0.0605,0.0605"
           id="path119269" />
        <path
           d="m 166.5211,87.0477 0.0605,0.1209"
           id="path119271" />
        <path
           d="m 166.5816,87.1686 0.0605,0.2419"
           id="path119273" />
        <path
           d="m 166.6421,87.4105 v 0.3024"
           id="path119275" />
        <path
           d="m 166.6421,87.7129 -0.0605,0.2419"
           id="path119277" />
        <path
           d="m 166.5816,87.9548 -0.0605,0.121"
           id="path119279" />
        <path
           d="m 166.5211,88.0758 -0.0605,0.0605"
           id="path119281" />
        <path
           d="m 166.4606,88.1363 -0.1209,0.0604"
           id="path119283" />
        <path
           d="m 166.3397,88.1967 h -0.121"
           id="path119285" />
        <path
           d="m 166.2187,88.1967 -0.1209,-0.0604"
           id="path119287" />
        <path
           d="m 166.0978,88.1363 -0.0605,-0.0605"
           id="path119289" />
        <path
           d="m 166.0373,88.0758 -0.0605,-0.121"
           id="path119291" />
        <path
           d="m 165.9768,87.9548 -0.0604,-0.2419"
           id="path119293" />
        <path
           d="M 165.9164,87.7129 V 87.4105"
           id="path119295" />
        <path
           d="m 165.9164,87.4105 0.0604,-0.2419"
           id="path119297" />
        <path
           d="m 165.9768,87.1686 0.0605,-0.1209"
           id="path119299" />
        <path
           d="m 166.0373,87.0477 0.0605,-0.0605"
           id="path119301" />
        <path
           d="m 166.0978,86.9872 0.1209,-0.0605"
           id="path119303" />
        <path
           d="m 167.2468,88.1967 h 0.2419"
           id="path119305" />
        <path
           d="m 167.4887,88.1967 0.121,-0.0604"
           id="path119307" />
        <path
           d="m 167.6097,88.1363 0.0604,-0.0605"
           id="path119309" />
        <path
           d="m 167.6701,88.0758 0.121,-0.1815"
           id="path119311" />
        <path
           d="m 167.7911,87.8943 0.0605,-0.2419"
           id="path119313" />
        <path
           d="M 167.8516,87.6524 V 87.1686"
           id="path119315" />
        <path
           d="m 167.8516,87.1686 -0.0605,-0.1209"
           id="path119317" />
        <path
           d="m 167.7911,87.0477 -0.0605,-0.0605"
           id="path119319" />
        <path
           d="m 167.7306,86.9872 -0.1209,-0.0605"
           id="path119321" />
        <path
           d="m 167.6097,86.9267 h -0.2419"
           id="path119323" />
        <path
           d="m 167.3678,86.9267 -0.121,0.0605"
           id="path119325" />
        <path
           d="m 167.2468,86.9872 -0.0605,0.0605"
           id="path119327" />
        <path
           d="m 167.1863,87.0477 -0.0604,0.1209"
           id="path119329" />
        <path
           d="M 167.1259,87.1686 V 87.471"
           id="path119331" />
        <path
           d="m 167.1259,87.471 0.0604,0.121"
           id="path119333" />
        <path
           d="m 167.1863,87.592 0.0605,0.0604"
           id="path119335" />
        <path
           d="m 167.2468,87.6524 0.121,0.0605"
           id="path119337" />
        <path
           d="m 167.3678,87.7129 h 0.2419"
           id="path119339" />
        <path
           d="m 167.6097,87.7129 0.1209,-0.0605"
           id="path119341" />
        <path
           d="m 167.7306,87.6524 0.0605,-0.0604"
           id="path119343" />
        <path
           d="m 167.7911,87.592 0.0605,-0.121"
           id="path119345" />
      </g>
      <path
         d="m 153.67,77.47 h -2.54"
         id="path119349" />
    </g>
    <g
       style="fill:#cb4b16;fill-opacity:0;stroke:#cb4b16;stroke-width:0.4;stroke-linecap:round;stroke-linejoin:round;stroke-opacity:1"
       id="g119353" />
    <g
       style="fill:#cb4b16;fill-opacity:0;stroke:#cb4b16;stroke-width:0.1524;stroke-linecap:round;stroke-linejoin:round;stroke-opacity:1"
       id="g119411">
      <text
         x="154.686"
         y="78.105003"
         textLength="4.8599"
         font-size="1.6933px"
         lengthAdjust="spacingAndGlyphs"
         text-anchor="start"
         opacity="0"
         id="text119355">UART</text>
      <g
         class="stroked-text"
         id="g119409">
        <desc
           id="desc119357">UART</desc>
        <path
           d="m 155.0885,76.7795 v 1.0281"
           id="path119359" />
        <path
           d="m 155.0885,77.8076 0.0605,0.121"
           id="path119361" />
        <path
           d="m 155.149,77.9286 0.0605,0.0605"
           id="path119363" />
        <path
           d="m 155.2095,77.9891 0.1209,0.0604"
           id="path119365" />
        <path
           d="m 155.3304,78.0495 h 0.2419"
           id="path119367" />
        <path
           d="m 155.5723,78.0495 0.121,-0.0604"
           id="path119369" />
        <path
           d="m 155.6933,77.9891 0.0605,-0.0605"
           id="path119371" />
        <path
           d="m 155.7538,77.9286 0.0604,-0.121"
           id="path119373" />
        <path
           d="M 155.8142,77.8076 V 76.7795"
           id="path119375" />
        <path
           d="m 156.3586,77.6867 h 0.6047"
           id="path119377" />
        <path
           d="m 156.2376,78.0495 0.4233,-1.27"
           id="path119379" />
        <path
           d="m 156.6609,76.7795 0.4234,1.27"
           id="path119381" />
        <path
           d="M 158.2333,78.0495 157.81,77.4448"
           id="path119383" />
        <path
           d="m 157.5076,78.0495 v -1.27"
           id="path119385" />
        <path
           d="m 157.5076,76.7795 h 0.4838"
           id="path119387" />
        <path
           d="m 157.9914,76.7795 0.121,0.0605"
           id="path119389" />
        <path
           d="m 158.1124,76.84 0.0605,0.0605"
           id="path119391" />
        <path
           d="m 158.1729,76.9005 0.0604,0.1209"
           id="path119393" />
        <path
           d="m 158.2333,77.0214 v 0.1815"
           id="path119395" />
        <path
           d="m 158.2333,77.2029 -0.0604,0.1209"
           id="path119397" />
        <path
           d="m 158.1729,77.3238 -0.0605,0.0605"
           id="path119399" />
        <path
           d="m 158.1124,77.3843 -0.121,0.0605"
           id="path119401" />
        <path
           d="m 157.9914,77.4448 h -0.4838"
           id="path119403" />
        <path
           d="m 158.5962,76.7795 h 0.7257"
           id="path119405" />
        <path
           d="m 158.9591,78.0495 v -1.27"
           id="path119407" />
      </g>
    </g>
  </g>
  <g
     style="fill:#cb4b16;fill-opacity:0;stroke:#cb4b16;stroke-width:0.1524;stroke-linecap:round;stroke-linejoin:round;stroke-opacity:1"
     id="g119749"
     transform="translate(-102.67,-74.73)">
    <g
       id="g119415" />
    <g
       style="fill:#586e75;fill-opacity:0;stroke:#586e75;stroke-width:0.1524;stroke-linecap:round;stroke-linejoin:round;stroke-opacity:1"
       id="g119417" />
    <g
       style="fill:#586e75;fill-opacity:0;stroke:#586e75;stroke-width:0.4;stroke-linecap:round;stroke-linejoin:round;stroke-opacity:1"
       id="g119687">
      <rect
         x="102.87"
         y="74.93"
         width="20.32"
         height="25.4"
         rx="0.000000"
         id="rect119419" />
      <text
         x="113.03"
         y="88.264999"
         textLength="18.847"
         font-size="1.6933px"
         lengthAdjust="spacingAndGlyphs"
         text-anchor="middle"
         opacity="0"
         id="text119421">MICROCONTROLLER</text>
      <g
         class="stroked-text"
         id="g119683">
        <desc
           id="desc119423">MICROCONTROLLER</desc>
        <path
           d="m 104.3818,88.1967 v -1.27"
           id="path119425" />
        <path
           d="m 104.3818,86.9267 0.4234,0.9072"
           id="path119427" />
        <path
           d="m 104.8052,87.8339 0.4233,-0.9072"
           id="path119429" />
        <path
           d="m 105.2285,86.9267 v 1.27"
           id="path119431" />
        <path
           d="m 105.8332,88.1967 v -1.27"
           id="path119433" />
        <path
           d="m 107.1637,88.0758 -0.0604,0.0605"
           id="path119435" />
        <path
           d="m 107.1033,88.1363 -0.1815,0.0604"
           id="path119437" />
        <path
           d="m 106.9218,88.1967 h -0.1209"
           id="path119439" />
        <path
           d="m 106.8009,88.1967 -0.1814,-0.0604"
           id="path119441" />
        <path
           d="m 106.6195,88.1363 -0.121,-0.121"
           id="path119443" />
        <path
           d="m 106.4985,88.0153 -0.0605,-0.121"
           id="path119445" />
        <path
           d="m 106.438,87.8943 -0.0604,-0.2419"
           id="path119447" />
        <path
           d="M 106.3776,87.6524 V 87.471"
           id="path119449" />
        <path
           d="m 106.3776,87.471 0.0604,-0.2419"
           id="path119451" />
        <path
           d="m 106.438,87.2291 0.0605,-0.1209"
           id="path119453" />
        <path
           d="m 106.4985,87.1082 0.121,-0.121"
           id="path119455" />
        <path
           d="m 106.6195,86.9872 0.1814,-0.0605"
           id="path119457" />
        <path
           d="m 106.8009,86.9267 h 0.1209"
           id="path119459" />
        <path
           d="m 106.9218,86.9267 0.1815,0.0605"
           id="path119461" />
        <path
           d="m 107.1033,86.9872 0.0604,0.0605"
           id="path119463" />
        <path
           d="M 108.4337,88.1967 108.0104,87.592"
           id="path119465" />
        <path
           d="m 107.708,88.1967 v -1.27"
           id="path119467" />
        <path
           d="m 107.708,86.9267 h 0.4838"
           id="path119469" />
        <path
           d="m 108.1918,86.9267 0.121,0.0605"
           id="path119471" />
        <path
           d="m 108.3128,86.9872 0.0605,0.0605"
           id="path119473" />
        <path
           d="m 108.3733,87.0477 0.0604,0.1209"
           id="path119475" />
        <path
           d="m 108.4337,87.1686 v 0.1815"
           id="path119477" />
        <path
           d="m 108.4337,87.3501 -0.0604,0.1209"
           id="path119479" />
        <path
           d="m 108.3733,87.471 -0.0605,0.0605"
           id="path119481" />
        <path
           d="m 108.3128,87.5315 -0.121,0.0605"
           id="path119483" />
        <path
           d="M 108.1918,87.592 H 107.708"
           id="path119485" />
        <path
           d="m 109.2199,86.9267 h 0.2419"
           id="path119487" />
        <path
           d="m 109.4618,86.9267 0.121,0.0605"
           id="path119489" />
        <path
           d="m 109.5828,86.9872 0.1209,0.121"
           id="path119491" />
        <path
           d="m 109.7037,87.1082 0.0605,0.2419"
           id="path119493" />
        <path
           d="m 109.7642,87.3501 v 0.4233"
           id="path119495" />
        <path
           d="m 109.7642,87.7734 -0.0605,0.2419"
           id="path119497" />
        <path
           d="m 109.7037,88.0153 -0.1209,0.121"
           id="path119499" />
        <path
           d="m 109.5828,88.1363 -0.121,0.0604"
           id="path119501" />
        <path
           d="m 109.4618,88.1967 h -0.2419"
           id="path119503" />
        <path
           d="M 109.2199,88.1967 109.099,88.1363"
           id="path119505" />
        <path
           d="m 109.099,88.1363 -0.121,-0.121"
           id="path119507" />
        <path
           d="m 108.978,88.0153 -0.0604,-0.2419"
           id="path119509" />
        <path
           d="M 108.9176,87.7734 V 87.3501"
           id="path119511" />
        <path
           d="m 108.9176,87.3501 0.0604,-0.2419"
           id="path119513" />
        <path
           d="m 108.978,87.1082 0.121,-0.121"
           id="path119515" />
        <path
           d="m 109.099,86.9872 0.1209,-0.0605"
           id="path119517" />
        <path
           d="m 111.0342,88.0758 -0.0604,0.0605"
           id="path119519" />
        <path
           d="m 110.9738,88.1363 -0.1815,0.0604"
           id="path119521" />
        <path
           d="m 110.7923,88.1967 h -0.1209"
           id="path119523" />
        <path
           d="M 110.6714,88.1967 110.49,88.1363"
           id="path119525" />
        <path
           d="m 110.49,88.1363 -0.121,-0.121"
           id="path119527" />
        <path
           d="m 110.369,88.0153 -0.0605,-0.121"
           id="path119529" />
        <path
           d="m 110.3085,87.8943 -0.0604,-0.2419"
           id="path119531" />
        <path
           d="M 110.2481,87.6524 V 87.471"
           id="path119533" />
        <path
           d="m 110.2481,87.471 0.0604,-0.2419"
           id="path119535" />
        <path
           d="m 110.3085,87.2291 0.0605,-0.1209"
           id="path119537" />
        <path
           d="m 110.369,87.1082 0.121,-0.121"
           id="path119539" />
        <path
           d="m 110.49,86.9872 0.1814,-0.0605"
           id="path119541" />
        <path
           d="m 110.6714,86.9267 h 0.1209"
           id="path119543" />
        <path
           d="m 110.7923,86.9267 0.1815,0.0605"
           id="path119545" />
        <path
           d="m 110.9738,86.9872 0.0604,0.0605"
           id="path119547" />
        <path
           d="m 111.8204,86.9267 h 0.2419"
           id="path119549" />
        <path
           d="m 112.0623,86.9267 0.121,0.0605"
           id="path119551" />
        <path
           d="m 112.1833,86.9872 0.1209,0.121"
           id="path119553" />
        <path
           d="m 112.3042,87.1082 0.0605,0.2419"
           id="path119555" />
        <path
           d="m 112.3647,87.3501 v 0.4233"
           id="path119557" />
        <path
           d="m 112.3647,87.7734 -0.0605,0.2419"
           id="path119559" />
        <path
           d="m 112.3042,88.0153 -0.1209,0.121"
           id="path119561" />
        <path
           d="m 112.1833,88.1363 -0.121,0.0604"
           id="path119563" />
        <path
           d="m 112.0623,88.1967 h -0.2419"
           id="path119565" />
        <path
           d="m 111.8204,88.1967 -0.1209,-0.0604"
           id="path119567" />
        <path
           d="m 111.6995,88.1363 -0.121,-0.121"
           id="path119569" />
        <path
           d="m 111.5785,88.0153 -0.0604,-0.2419"
           id="path119571" />
        <path
           d="M 111.5181,87.7734 V 87.3501"
           id="path119573" />
        <path
           d="m 111.5181,87.3501 0.0604,-0.2419"
           id="path119575" />
        <path
           d="m 111.5785,87.1082 0.121,-0.121"
           id="path119577" />
        <path
           d="m 111.6995,86.9872 0.1209,-0.0605"
           id="path119579" />
        <path
           d="m 112.909,88.1967 v -1.27"
           id="path119581" />
        <path
           d="m 112.909,86.9267 0.7257,1.27"
           id="path119583" />
        <path
           d="m 113.6347,88.1967 v -1.27"
           id="path119585" />
        <path
           d="m 114.0581,86.9267 h 0.7257"
           id="path119587" />
        <path
           d="m 114.421,88.1967 v -1.27"
           id="path119589" />
        <path
           d="M 115.9328,88.1967 115.5095,87.592"
           id="path119591" />
        <path
           d="m 115.2071,88.1967 v -1.27"
           id="path119593" />
        <path
           d="m 115.2071,86.9267 h 0.4838"
           id="path119595" />
        <path
           d="m 115.6909,86.9267 0.121,0.0605"
           id="path119597" />
        <path
           d="m 115.8119,86.9872 0.0605,0.0605"
           id="path119599" />
        <path
           d="m 115.8724,87.0477 0.0604,0.1209"
           id="path119601" />
        <path
           d="m 115.9328,87.1686 v 0.1815"
           id="path119603" />
        <path
           d="m 115.9328,87.3501 -0.0604,0.1209"
           id="path119605" />
        <path
           d="m 115.8724,87.471 -0.0605,0.0605"
           id="path119607" />
        <path
           d="m 115.8119,87.5315 -0.121,0.0605"
           id="path119609" />
        <path
           d="m 115.6909,87.592 h -0.4838"
           id="path119611" />
        <path
           d="m 116.719,86.9267 h 0.2419"
           id="path119613" />
        <path
           d="m 116.9609,86.9267 0.121,0.0605"
           id="path119615" />
        <path
           d="m 117.0819,86.9872 0.1209,0.121"
           id="path119617" />
        <path
           d="m 117.2028,87.1082 0.0605,0.2419"
           id="path119619" />
        <path
           d="m 117.2633,87.3501 v 0.4233"
           id="path119621" />
        <path
           d="m 117.2633,87.7734 -0.0605,0.2419"
           id="path119623" />
        <path
           d="m 117.2028,88.0153 -0.1209,0.121"
           id="path119625" />
        <path
           d="m 117.0819,88.1363 -0.121,0.0604"
           id="path119627" />
        <path
           d="M 116.9609,88.1967 H 116.719"
           id="path119629" />
        <path
           d="m 116.719,88.1967 -0.1209,-0.0604"
           id="path119631" />
        <path
           d="m 116.5981,88.1363 -0.121,-0.121"
           id="path119633" />
        <path
           d="m 116.4771,88.0153 -0.0604,-0.2419"
           id="path119635" />
        <path
           d="M 116.4167,87.7734 V 87.3501"
           id="path119637" />
        <path
           d="m 116.4167,87.3501 0.0604,-0.2419"
           id="path119639" />
        <path
           d="m 116.4771,87.1082 0.121,-0.121"
           id="path119641" />
        <path
           d="m 116.5981,86.9872 0.1209,-0.0605"
           id="path119643" />
        <path
           d="m 118.4124,88.1967 h -0.6048"
           id="path119645" />
        <path
           d="m 117.8076,88.1967 v -1.27"
           id="path119647" />
        <path
           d="m 119.4405,88.1967 h -0.6048"
           id="path119649" />
        <path
           d="m 118.8357,88.1967 v -1.27"
           id="path119651" />
        <path
           d="m 119.8638,87.5315 h 0.4234"
           id="path119653" />
        <path
           d="m 120.4686,88.1967 h -0.6048"
           id="path119655" />
        <path
           d="m 119.8638,88.1967 v -1.27"
           id="path119657" />
        <path
           d="m 119.8638,86.9267 h 0.6048"
           id="path119659" />
        <path
           d="M 121.7385,88.1967 121.3152,87.592"
           id="path119661" />
        <path
           d="m 121.0128,88.1967 v -1.27"
           id="path119663" />
        <path
           d="m 121.0128,86.9267 h 0.4838"
           id="path119665" />
        <path
           d="m 121.4966,86.9267 0.121,0.0605"
           id="path119667" />
        <path
           d="m 121.6176,86.9872 0.0605,0.0605"
           id="path119669" />
        <path
           d="m 121.6781,87.0477 0.0604,0.1209"
           id="path119671" />
        <path
           d="m 121.7385,87.1686 v 0.1815"
           id="path119673" />
        <path
           d="m 121.7385,87.3501 -0.0604,0.1209"
           id="path119675" />
        <path
           d="m 121.6781,87.471 -0.0605,0.0605"
           id="path119677" />
        <path
           d="m 121.6176,87.5315 -0.121,0.0605"
           id="path119679" />
        <path
           d="m 121.4966,87.592 h -0.4838"
           id="path119681" />
      </g>
      <path
         d="m 123.19,80.01 h 2.54"
         id="path119685" />
    </g>
    <g
       style="fill:#cb4b16;fill-opacity:0;stroke:#cb4b16;stroke-width:0.4;stroke-linecap:round;stroke-linejoin:round;stroke-opacity:1"
       id="g119689" />
    <g
       style="fill:#cb4b16;fill-opacity:0;stroke:#cb4b16;stroke-width:0.1524;stroke-linecap:round;stroke-linejoin:round;stroke-opacity:1"
       id="g119723">
      <text
         x="122.174"
         y="80.644997"
         textLength="2.6826999"
         font-size="1.6933px"
         lengthAdjust="spacingAndGlyphs"
         text-anchor="end"
         opacity="0"
         id="text119691">RX</text>
      <g
         class="stroked-text"
         id="g119721">
        <desc
           id="desc119693">RX</desc>
        <path
           d="M 120.6223,80.5895 120.199,79.9848"
           id="path119695" />
        <path
           d="m 119.8966,80.5895 v -1.27"
           id="path119697" />
        <path
           d="m 119.8966,79.3195 h 0.4838"
           id="path119699" />
        <path
           d="m 120.3804,79.3195 0.121,0.0605"
           id="path119701" />
        <path
           d="m 120.5014,79.38 0.0605,0.0605"
           id="path119703" />
        <path
           d="m 120.5619,79.4405 0.0604,0.1209"
           id="path119705" />
        <path
           d="m 120.6223,79.5614 v 0.1815"
           id="path119707" />
        <path
           d="m 120.6223,79.7429 -0.0604,0.1209"
           id="path119709" />
        <path
           d="m 120.5619,79.8638 -0.0605,0.0605"
           id="path119711" />
        <path
           d="m 120.5014,79.9243 -0.121,0.0605"
           id="path119713" />
        <path
           d="m 120.3804,79.9848 h -0.4838"
           id="path119715" />
        <path
           d="m 121.0457,79.3195 0.8466,1.27"
           id="path119717" />
        <path
           d="m 121.8923,79.3195 -0.8466,1.27"
           id="path119719" />
      </g>
    </g>
    <g
       style="fill:#586e75;fill-opacity:0;stroke:#586e75;stroke-width:0.1524;stroke-linecap:round;stroke-linejoin:round;stroke-opacity:1"
       id="g119725" />
    <g
       style="fill:#586e75;fill-opacity:0;stroke:#586e75;stroke-width:0.4;stroke-linecap:round;stroke-linejoin:round;stroke-opacity:1"
       id="g119729">
      <path
         d="m 123.19,77.47 h 2.54"
         id="path119727" />
    </g>
    <g
       style="fill:#cb4b16;fill-opacity:0;stroke:#cb4b16;stroke-width:0.4;stroke-linecap:round;stroke-linejoin:round;stroke-opacity:1"
       id="g119731" />
    <g
       style="fill:#cb4b16;fill-opacity:0;stroke:#cb4b16;stroke-width:0.1524;stroke-linecap:round;stroke-linejoin:round;stroke-opacity:1"
       id="g119747">
      <text
         x="122.174"
         y="78.105003"
         textLength="2.3803"
         font-size="1.6933px"
         lengthAdjust="spacingAndGlyphs"
         text-anchor="end"
         opacity="0"
         id="text119733">TX</text>
      <g
         class="stroked-text"
         id="g119745">
        <desc
           id="desc119735">TX</desc>
        <path
           d="m 120.0176,76.7795 h 0.7257"
           id="path119737" />
        <path
           d="m 120.3805,78.0495 v -1.27"
           id="path119739" />
        <path
           d="m 121.0457,76.7795 0.8466,1.27"
           id="path119741" />
        <path
           d="m 121.8923,76.7795 -0.8466,1.27"
           id="path119743" />
      </g>
    </g>
  </g>
  <g
     style="fill:#cb4b16;fill-opacity:0;stroke:#cb4b16;stroke-width:0.1524;stroke-linecap:round;stroke-linejoin:round;stroke-opacity:1"
     id="g119751"
     transform="translate(-102.67,-74.73)" />
  <g
     style="fill:#859900;fill-opacity:0;stroke:#859900;stroke-width:0.1524;stroke-linecap:round;stroke-linejoin:round;stroke-opacity:1"
     id="g119753"
     transform="translate(-102.67,-74.73)" />
  <g
     style="fill:#859900;fill-opacity:0;stroke:#859900;stroke-width:0.4;stroke-linecap:round;stroke-linejoin:round;stroke-opacity:1"
     id="g119757"
     transform="translate(-102.67,-74.73)">
    <path
       d="m 148.59,77.47 h 2.54"
       id="path119755" />
  </g>
  <g
     style="fill:#859900;fill-opacity:0;stroke:#859900;stroke-width:0.1524;stroke-linecap:round;stroke-linejoin:round;stroke-opacity:1"
     id="g119759"
     transform="translate(-102.67,-74.73)" />
  <g
     style="fill:#859900;fill-opacity:0;stroke:#859900;stroke-width:0.4;stroke-linecap:round;stroke-linejoin:round;stroke-opacity:1"
     id="g119763"
     transform="translate(-102.67,-74.73)">
    <path
       d="m 148.59,77.47 v 27.94"
       id="path119761" />
  </g>
  <g
     style="fill:#859900;fill-opacity:0;stroke:#859900;stroke-width:0.1524;stroke-linecap:round;stroke-linejoin:round;stroke-opacity:1"
     id="g119765"
     transform="translate(-102.67,-74.73)" />
  <g
     style="fill:#859900;fill-opacity:0;stroke:#859900;stroke-width:0.4;stroke-linecap:round;stroke-linejoin:round;stroke-opacity:1"
     id="g119769"
     transform="translate(-102.67,-74.73)">
    <path
       d="m 148.59,105.41 h 2.54"
       id="path119767" />
  </g>
  <g
     style="fill:#859900;fill-opacity:0;stroke:#859900;stroke-width:0.1524;stroke-linecap:round;stroke-linejoin:round;stroke-opacity:1"
     id="g119771"
     transform="translate(-102.67,-74.73)" />
  <g
     style="fill:#859900;fill-opacity:0;stroke:#859900;stroke-width:0.4;stroke-linecap:round;stroke-linejoin:round;stroke-opacity:1"
     id="g119775"
     transform="translate(-102.67,-74.73)">
    <path
       d="m 125.73,77.47 h 22.86"
       id="path119773" />
  </g>
  <g
     style="fill:#859900;fill-opacity:0;stroke:#859900;stroke-width:0.1524;stroke-linecap:round;stroke-linejoin:round;stroke-opacity:1"
     id="g119777"
     transform="translate(-102.67,-74.73)" />
  <g
     style="fill:#6c71c4;fill-opacity:0;stroke:#6c71c4;stroke-width:0.1524;stroke-linecap:round;stroke-linejoin:round;stroke-opacity:1"
     id="g119783"
     transform="translate(-102.67,-74.73)">
    <path
       d="m 125.1204,79.4004 1.2192,1.2192"
       id="path119779" />
    <path
       d="m 126.3396,79.4004 -1.2192,1.2192"
       id="path119781" />
  </g>
  <g
     style="fill:#859900;fill-opacity:0;stroke:#859900;stroke-width:0.1524;stroke-linecap:round;stroke-linejoin:round;stroke-opacity:1"
     id="g119785"
     transform="translate(-102.67,-74.73)" />
  <g
     style="fill:#859900;fill-opacity:1;stroke:#859900;stroke-width:0.1524;stroke-linecap:round;stroke-linejoin:round;stroke-opacity:1"
     id="g119789"
     transform="translate(-102.67,-74.73)">
    <circle
       cx="148.59"
       cy="77.470001"
       r="0.45719999"
       id="circle119787" />
  </g>
</svg>
