<?xml version="1.0" standalone="no"?>
 <!DOCTYPE svg PUBLIC "-//W3C//DTD SVG 1.1//EN" 
 "http://www.w3.org/Graphics/SVG/1.1/DTD/svg11.dtd"> 
<svg
  xmlns:svg="http://www.w3.org/2000/svg"
  xmlns="http://www.w3.org/2000/svg"
  xmlns:xlink="http://www.w3.org/1999/xlink"
  version="1.1"
  width="297.0022mm" height="210.0072mm" viewBox="0.0000 0.0000 297.0022 210.0072">
<title>SVG Image created as trinamic_wiring.svg date 2023/04/27 15:21:57 </title>
  <desc>Image generated by Eeschema-SVG </desc>
<g style="fill:#000000; fill-opacity:1.0000;stroke:#000000; stroke-opacity:1.0000;
stroke-linecap:round; stroke-linejoin:round;"
 transform="translate(0 0) scale(1 1)">
</g>
<g style="fill:#000000; fill-opacity:0.0; 
stroke:#000000; stroke-width:0.1524; stroke-opacity:1; 
stroke-linecap:round; stroke-linejoin:round;">
</g>
<g style="fill:#FFFFFF; fill-opacity:0.0; 
stroke:#FFFFFF; stroke-width:0.1524; stroke-opacity:1; 
stroke-linecap:round; stroke-linejoin:round;">
</g>
<g style="fill:#FFFFFF; fill-opacity:0.0000; 
stroke:#FFFFFF; stroke-width:0.0001; stroke-opacity:1; 
stroke-linecap:round; stroke-linejoin:round;">
<rect x="120.650000" y="34.290000" width="12.700000" height="3.810000" rx="0.000000" />
</g>
<g style="fill:#FFFFFF; fill-opacity:0.0000; 
stroke:#FFFFFF; stroke-width:0.1524; stroke-opacity:1; 
stroke-linecap:round; stroke-linejoin:round;">
</g>
<g style="fill:#840000; fill-opacity:1.0000; 
stroke:#840000; stroke-width:0.1524; stroke-opacity:1; 
stroke-linecap:round; stroke-linejoin:round;">
</g>
<g style="fill:#840000; fill-opacity:0.0; 
stroke:#840000; stroke-width:0.1524; stroke-opacity:1; 
stroke-linecap:round; stroke-linejoin:round;">
<rect x="120.650000" y="34.290000" width="12.700000" height="3.810000" rx="0.000000" />
</g>
<g style="fill:#006464; fill-opacity:0.0; 
stroke:#006464; stroke-width:0.1524; stroke-opacity:1; 
stroke-linecap:round; stroke-linejoin:round;">
<text x="120.6500" y="33.5784"
textLength="8.6540" font-size="1.6933" lengthAdjust="spacingAndGlyphs"
text-anchor="start" opacity="0">TMC2209</text>
<g class="stroked-text"><desc>TMC2209</desc>
<path d="M120.7709 32.1529
L121.4966 32.1529
" />
<path d="M121.1338 33.4229
L121.1338 32.1529
" />
<path d="M121.9199 33.4229
L121.9199 32.1529
" />
<path d="M121.9199 32.1529
L122.3433 33.0601
" />
<path d="M122.3433 33.0601
L122.7666 32.1529
" />
<path d="M122.7666 32.1529
L122.7666 33.4229
" />
<path d="M124.0970 33.3020
L124.0366 33.3625
" />
<path d="M124.0366 33.3625
L123.8551 33.4229
" />
<path d="M123.8551 33.4229
L123.7342 33.4229
" />
<path d="M123.7342 33.4229
L123.5528 33.3625
" />
<path d="M123.5528 33.3625
L123.4318 33.2415
" />
<path d="M123.4318 33.2415
L123.3713 33.1205
" />
<path d="M123.3713 33.1205
L123.3109 32.8786
" />
<path d="M123.3109 32.8786
L123.3109 32.6972
" />
<path d="M123.3109 32.6972
L123.3713 32.4553
" />
<path d="M123.3713 32.4553
L123.4318 32.3344
" />
<path d="M123.4318 32.3344
L123.5528 32.2134
" />
<path d="M123.5528 32.2134
L123.7342 32.1529
" />
<path d="M123.7342 32.1529
L123.8551 32.1529
" />
<path d="M123.8551 32.1529
L124.0366 32.2134
" />
<path d="M124.0366 32.2134
L124.0970 32.2739
" />
<path d="M124.5809 32.2739
L124.6413 32.2134
" />
<path d="M124.6413 32.2134
L124.7623 32.1529
" />
<path d="M124.7623 32.1529
L125.0647 32.1529
" />
<path d="M125.0647 32.1529
L125.1856 32.2134
" />
<path d="M125.1856 32.2134
L125.2461 32.2739
" />
<path d="M125.2461 32.2739
L125.3066 32.3948
" />
<path d="M125.3066 32.3948
L125.3066 32.5158
" />
<path d="M125.3066 32.5158
L125.2461 32.6972
" />
<path d="M125.2461 32.6972
L124.5204 33.4229
" />
<path d="M124.5204 33.4229
L125.3066 33.4229
" />
<path d="M125.7904 32.2739
L125.8508 32.2134
" />
<path d="M125.8508 32.2134
L125.9718 32.1529
" />
<path d="M125.9718 32.1529
L126.2742 32.1529
" />
<path d="M126.2742 32.1529
L126.3951 32.2134
" />
<path d="M126.3951 32.2134
L126.4556 32.2739
" />
<path d="M126.4556 32.2739
L126.5161 32.3948
" />
<path d="M126.5161 32.3948
L126.5161 32.5158
" />
<path d="M126.5161 32.5158
L126.4556 32.6972
" />
<path d="M126.4556 32.6972
L125.7299 33.4229
" />
<path d="M125.7299 33.4229
L126.5161 33.4229
" />
<path d="M127.3022 32.1529
L127.4232 32.1529
" />
<path d="M127.4232 32.1529
L127.5441 32.2134
" />
<path d="M127.5441 32.2134
L127.6046 32.2739
" />
<path d="M127.6046 32.2739
L127.6651 32.3948
" />
<path d="M127.6651 32.3948
L127.7256 32.6367
" />
<path d="M127.7256 32.6367
L127.7256 32.9391
" />
<path d="M127.7256 32.9391
L127.6651 33.1810
" />
<path d="M127.6651 33.1810
L127.6046 33.3020
" />
<path d="M127.6046 33.3020
L127.5441 33.3625
" />
<path d="M127.5441 33.3625
L127.4232 33.4229
" />
<path d="M127.4232 33.4229
L127.3022 33.4229
" />
<path d="M127.3022 33.4229
L127.1813 33.3625
" />
<path d="M127.1813 33.3625
L127.1208 33.3020
" />
<path d="M127.1208 33.3020
L127.0603 33.1810
" />
<path d="M127.0603 33.1810
L126.9999 32.9391
" />
<path d="M126.9999 32.9391
L126.9999 32.6367
" />
<path d="M126.9999 32.6367
L127.0603 32.3948
" />
<path d="M127.0603 32.3948
L127.1208 32.2739
" />
<path d="M127.1208 32.2739
L127.1813 32.2134
" />
<path d="M127.1813 32.2134
L127.3022 32.1529
" />
<path d="M128.3303 33.4229
L128.5722 33.4229
" />
<path d="M128.5722 33.4229
L128.6932 33.3625
" />
<path d="M128.6932 33.3625
L128.7536 33.3020
" />
<path d="M128.7536 33.3020
L128.8746 33.1205
" />
<path d="M128.8746 33.1205
L128.9351 32.8786
" />
<path d="M128.9351 32.8786
L128.9351 32.3948
" />
<path d="M128.9351 32.3948
L128.8746 32.2739
" />
<path d="M128.8746 32.2739
L128.8141 32.2134
" />
<path d="M128.8141 32.2134
L128.6932 32.1529
" />
<path d="M128.6932 32.1529
L128.4513 32.1529
" />
<path d="M128.4513 32.1529
L128.3303 32.2134
" />
<path d="M128.3303 32.2134
L128.2698 32.2739
" />
<path d="M128.2698 32.2739
L128.2094 32.3948
" />
<path d="M128.2094 32.3948
L128.2094 32.6972
" />
<path d="M128.2094 32.6972
L128.2698 32.8182
" />
<path d="M128.2698 32.8182
L128.3303 32.8786
" />
<path d="M128.3303 32.8786
L128.4513 32.9391
" />
<path d="M128.4513 32.9391
L128.6932 32.9391
" />
<path d="M128.6932 32.9391
L128.8141 32.8786
" />
<path d="M128.8141 32.8786
L128.8746 32.8182
" />
<path d="M128.8746 32.8182
L128.9351 32.6972
" />
</g></g>
<g style="fill:#725600; fill-opacity:0.0; 
stroke:#725600; stroke-width:0.1524; stroke-opacity:1; 
stroke-linecap:round; stroke-linejoin:round;">
<text x="120.6500" y="39.9546"
textLength="23.3498" font-size="1.6933" lengthAdjust="spacingAndGlyphs"
text-anchor="start" opacity="0">File: tmc2209.kicad_sch</text>
<g class="stroked-text"><desc>File: tmc2209.kicad_sch</desc>
<path d="M121.3757 39.3498
L120.9523 39.3498
" />
<path d="M120.9523 40.0150
L120.9523 38.7450
" />
<path d="M120.9523 38.7450
L121.5571 38.7450
" />
<path d="M122.0409 40.0150
L122.0409 39.1684
" />
<path d="M122.0409 38.7450
L121.9805 38.8055
" />
<path d="M121.9805 38.8055
L122.0409 38.8660
" />
<path d="M122.0409 38.8660
L122.1014 38.8055
" />
<path d="M122.1014 38.8055
L122.0409 38.7450
" />
<path d="M122.0409 38.7450
L122.0409 38.8660
" />
<path d="M122.8272 40.0150
L122.7062 39.9546
" />
<path d="M122.7062 39.9546
L122.6457 39.8336
" />
<path d="M122.6457 39.8336
L122.6457 38.7450
" />
<path d="M123.7947 39.9546
L123.6738 40.0150
" />
<path d="M123.6738 40.0150
L123.4319 40.0150
" />
<path d="M123.4319 40.0150
L123.3109 39.9546
" />
<path d="M123.3109 39.9546
L123.2505 39.8336
" />
<path d="M123.2505 39.8336
L123.2505 39.3498
" />
<path d="M123.2505 39.3498
L123.3109 39.2288
" />
<path d="M123.3109 39.2288
L123.4319 39.1684
" />
<path d="M123.4319 39.1684
L123.6738 39.1684
" />
<path d="M123.6738 39.1684
L123.7947 39.2288
" />
<path d="M123.7947 39.2288
L123.8552 39.3498
" />
<path d="M123.8552 39.3498
L123.8552 39.4707
" />
<path d="M123.8552 39.4707
L123.2505 39.5917
" />
<path d="M124.3995 39.8941
L124.4600 39.9546
" />
<path d="M124.4600 39.9546
L124.3995 40.0150
" />
<path d="M124.3995 40.0150
L124.3391 39.9546
" />
<path d="M124.3391 39.9546
L124.3995 39.8941
" />
<path d="M124.3995 39.8941
L124.3995 40.0150
" />
<path d="M124.3995 39.2288
L124.4600 39.2893
" />
<path d="M124.4600 39.2893
L124.3995 39.3498
" />
<path d="M124.3995 39.3498
L124.3391 39.2893
" />
<path d="M124.3391 39.2893
L124.3995 39.2288
" />
<path d="M124.3995 39.2288
L124.3995 39.3498
" />
<path d="M125.7905 39.1684
L126.2743 39.1684
" />
<path d="M125.9719 38.7450
L125.9719 39.8336
" />
<path d="M125.9719 39.8336
L126.0324 39.9546
" />
<path d="M126.0324 39.9546
L126.1534 40.0150
" />
<path d="M126.1534 40.0150
L126.2743 40.0150
" />
<path d="M126.6976 40.0150
L126.6976 39.1684
" />
<path d="M126.6976 39.2893
L126.7581 39.2288
" />
<path d="M126.7581 39.2288
L126.8791 39.1684
" />
<path d="M126.8791 39.1684
L127.0605 39.1684
" />
<path d="M127.0605 39.1684
L127.1814 39.2288
" />
<path d="M127.1814 39.2288
L127.2419 39.3498
" />
<path d="M127.2419 39.3498
L127.2419 40.0150
" />
<path d="M127.2419 39.3498
L127.3024 39.2288
" />
<path d="M127.3024 39.2288
L127.4233 39.1684
" />
<path d="M127.4233 39.1684
L127.6048 39.1684
" />
<path d="M127.6048 39.1684
L127.7257 39.2288
" />
<path d="M127.7257 39.2288
L127.7862 39.3498
" />
<path d="M127.7862 39.3498
L127.7862 40.0150
" />
<path d="M128.9352 39.9546
L128.8143 40.0150
" />
<path d="M128.8143 40.0150
L128.5724 40.0150
" />
<path d="M128.5724 40.0150
L128.4514 39.9546
" />
<path d="M128.4514 39.9546
L128.3909 39.8941
" />
<path d="M128.3909 39.8941
L128.3305 39.7731
" />
<path d="M128.3305 39.7731
L128.3305 39.4103
" />
<path d="M128.3305 39.4103
L128.3909 39.2893
" />
<path d="M128.3909 39.2893
L128.4514 39.2288
" />
<path d="M128.4514 39.2288
L128.5724 39.1684
" />
<path d="M128.5724 39.1684
L128.8143 39.1684
" />
<path d="M128.8143 39.1684
L128.9352 39.2288
" />
<path d="M129.4191 38.8660
L129.4795 38.8055
" />
<path d="M129.4795 38.8055
L129.6005 38.7450
" />
<path d="M129.6005 38.7450
L129.9029 38.7450
" />
<path d="M129.9029 38.7450
L130.0238 38.8055
" />
<path d="M130.0238 38.8055
L130.0843 38.8660
" />
<path d="M130.0843 38.8660
L130.1448 38.9869
" />
<path d="M130.1448 38.9869
L130.1448 39.1079
" />
<path d="M130.1448 39.1079
L130.0843 39.2893
" />
<path d="M130.0843 39.2893
L129.3586 40.0150
" />
<path d="M129.3586 40.0150
L130.1448 40.0150
" />
<path d="M130.6286 38.8660
L130.6890 38.8055
" />
<path d="M130.6890 38.8055
L130.8100 38.7450
" />
<path d="M130.8100 38.7450
L131.1124 38.7450
" />
<path d="M131.1124 38.7450
L131.2333 38.8055
" />
<path d="M131.2333 38.8055
L131.2938 38.8660
" />
<path d="M131.2938 38.8660
L131.3543 38.9869
" />
<path d="M131.3543 38.9869
L131.3543 39.1079
" />
<path d="M131.3543 39.1079
L131.2938 39.2893
" />
<path d="M131.2938 39.2893
L130.5681 40.0150
" />
<path d="M130.5681 40.0150
L131.3543 40.0150
" />
<path d="M132.1404 38.7450
L132.2614 38.7450
" />
<path d="M132.2614 38.7450
L132.3823 38.8055
" />
<path d="M132.3823 38.8055
L132.4428 38.8660
" />
<path d="M132.4428 38.8660
L132.5033 38.9869
" />
<path d="M132.5033 38.9869
L132.5638 39.2288
" />
<path d="M132.5638 39.2288
L132.5638 39.5312
" />
<path d="M132.5638 39.5312
L132.5033 39.7731
" />
<path d="M132.5033 39.7731
L132.4428 39.8941
" />
<path d="M132.4428 39.8941
L132.3823 39.9546
" />
<path d="M132.3823 39.9546
L132.2614 40.0150
" />
<path d="M132.2614 40.0150
L132.1404 40.0150
" />
<path d="M132.1404 40.0150
L132.0195 39.9546
" />
<path d="M132.0195 39.9546
L131.9590 39.8941
" />
<path d="M131.9590 39.8941
L131.8985 39.7731
" />
<path d="M131.8985 39.7731
L131.8381 39.5312
" />
<path d="M131.8381 39.5312
L131.8381 39.2288
" />
<path d="M131.8381 39.2288
L131.8985 38.9869
" />
<path d="M131.8985 38.9869
L131.9590 38.8660
" />
<path d="M131.9590 38.8660
L132.0195 38.8055
" />
<path d="M132.0195 38.8055
L132.1404 38.7450
" />
<path d="M133.1685 40.0150
L133.4104 40.0150
" />
<path d="M133.4104 40.0150
L133.5314 39.9546
" />
<path d="M133.5314 39.9546
L133.5918 39.8941
" />
<path d="M133.5918 39.8941
L133.7128 39.7126
" />
<path d="M133.7128 39.7126
L133.7733 39.4707
" />
<path d="M133.7733 39.4707
L133.7733 38.9869
" />
<path d="M133.7733 38.9869
L133.7128 38.8660
" />
<path d="M133.7128 38.8660
L133.6523 38.8055
" />
<path d="M133.6523 38.8055
L133.5314 38.7450
" />
<path d="M133.5314 38.7450
L133.2895 38.7450
" />
<path d="M133.2895 38.7450
L133.1685 38.8055
" />
<path d="M133.1685 38.8055
L133.1080 38.8660
" />
<path d="M133.1080 38.8660
L133.0476 38.9869
" />
<path d="M133.0476 38.9869
L133.0476 39.2893
" />
<path d="M133.0476 39.2893
L133.1080 39.4103
" />
<path d="M133.1080 39.4103
L133.1685 39.4707
" />
<path d="M133.1685 39.4707
L133.2895 39.5312
" />
<path d="M133.2895 39.5312
L133.5314 39.5312
" />
<path d="M133.5314 39.5312
L133.6523 39.4707
" />
<path d="M133.6523 39.4707
L133.7128 39.4103
" />
<path d="M133.7128 39.4103
L133.7733 39.2893
" />
<path d="M134.3175 39.8941
L134.3780 39.9546
" />
<path d="M134.3780 39.9546
L134.3175 40.0150
" />
<path d="M134.3175 40.0150
L134.2571 39.9546
" />
<path d="M134.2571 39.9546
L134.3175 39.8941
" />
<path d="M134.3175 39.8941
L134.3175 40.0150
" />
<path d="M134.9223 40.0150
L134.9223 38.7450
" />
<path d="M135.0433 39.5312
L135.4061 40.0150
" />
<path d="M135.4061 39.1684
L134.9223 39.6522
" />
<path d="M135.9504 40.0150
L135.9504 39.1684
" />
<path d="M135.9504 38.7450
L135.8900 38.8055
" />
<path d="M135.8900 38.8055
L135.9504 38.8660
" />
<path d="M135.9504 38.8660
L136.0109 38.8055
" />
<path d="M136.0109 38.8055
L135.9504 38.7450
" />
<path d="M135.9504 38.7450
L135.9504 38.8660
" />
<path d="M137.0995 39.9546
L136.9786 40.0150
" />
<path d="M136.9786 40.0150
L136.7367 40.0150
" />
<path d="M136.7367 40.0150
L136.6157 39.9546
" />
<path d="M136.6157 39.9546
L136.5552 39.8941
" />
<path d="M136.5552 39.8941
L136.4948 39.7731
" />
<path d="M136.4948 39.7731
L136.4948 39.4103
" />
<path d="M136.4948 39.4103
L136.5552 39.2893
" />
<path d="M136.5552 39.2893
L136.6157 39.2288
" />
<path d="M136.6157 39.2288
L136.7367 39.1684
" />
<path d="M136.7367 39.1684
L136.9786 39.1684
" />
<path d="M136.9786 39.1684
L137.0995 39.2288
" />
<path d="M138.1881 40.0150
L138.1881 39.3498
" />
<path d="M138.1881 39.3498
L138.1276 39.2288
" />
<path d="M138.1276 39.2288
L138.0067 39.1684
" />
<path d="M138.0067 39.1684
L137.7648 39.1684
" />
<path d="M137.7648 39.1684
L137.6438 39.2288
" />
<path d="M138.1881 39.9546
L138.0672 40.0150
" />
<path d="M138.0672 40.0150
L137.7648 40.0150
" />
<path d="M137.7648 40.0150
L137.6438 39.9546
" />
<path d="M137.6438 39.9546
L137.5834 39.8336
" />
<path d="M137.5834 39.8336
L137.5834 39.7126
" />
<path d="M137.5834 39.7126
L137.6438 39.5917
" />
<path d="M137.6438 39.5917
L137.7648 39.5312
" />
<path d="M137.7648 39.5312
L138.0672 39.5312
" />
<path d="M138.0672 39.5312
L138.1881 39.4707
" />
<path d="M139.3371 40.0150
L139.3371 38.7450
" />
<path d="M139.3371 39.9546
L139.2162 40.0150
" />
<path d="M139.2162 40.0150
L138.9743 40.0150
" />
<path d="M138.9743 40.0150
L138.8533 39.9546
" />
<path d="M138.8533 39.9546
L138.7928 39.8941
" />
<path d="M138.7928 39.8941
L138.7324 39.7731
" />
<path d="M138.7324 39.7731
L138.7324 39.4103
" />
<path d="M138.7324 39.4103
L138.7928 39.2893
" />
<path d="M138.7928 39.2893
L138.8533 39.2288
" />
<path d="M138.8533 39.2288
L138.9743 39.1684
" />
<path d="M138.9743 39.1684
L139.2162 39.1684
" />
<path d="M139.2162 39.1684
L139.3371 39.2288
" />
<path d="M139.6395 40.1360
L140.6071 40.1360
" />
<path d="M140.8490 39.9546
L140.9699 40.0150
" />
<path d="M140.9699 40.0150
L141.2118 40.0150
" />
<path d="M141.2118 40.0150
L141.3328 39.9546
" />
<path d="M141.3328 39.9546
L141.3932 39.8336
" />
<path d="M141.3932 39.8336
L141.3932 39.7731
" />
<path d="M141.3932 39.7731
L141.3328 39.6522
" />
<path d="M141.3328 39.6522
L141.2118 39.5917
" />
<path d="M141.2118 39.5917
L141.0304 39.5917
" />
<path d="M141.0304 39.5917
L140.9094 39.5312
" />
<path d="M140.9094 39.5312
L140.8490 39.4103
" />
<path d="M140.8490 39.4103
L140.8490 39.3498
" />
<path d="M140.8490 39.3498
L140.9094 39.2288
" />
<path d="M140.9094 39.2288
L141.0304 39.1684
" />
<path d="M141.0304 39.1684
L141.2118 39.1684
" />
<path d="M141.2118 39.1684
L141.3328 39.2288
" />
<path d="M142.4818 39.9546
L142.3609 40.0150
" />
<path d="M142.3609 40.0150
L142.1190 40.0150
" />
<path d="M142.1190 40.0150
L141.9980 39.9546
" />
<path d="M141.9980 39.9546
L141.9375 39.8941
" />
<path d="M141.9375 39.8941
L141.8771 39.7731
" />
<path d="M141.8771 39.7731
L141.8771 39.4103
" />
<path d="M141.8771 39.4103
L141.9375 39.2893
" />
<path d="M141.9375 39.2893
L141.9980 39.2288
" />
<path d="M141.9980 39.2288
L142.1190 39.1684
" />
<path d="M142.1190 39.1684
L142.3609 39.1684
" />
<path d="M142.3609 39.1684
L142.4818 39.2288
" />
<path d="M143.0261 40.0150
L143.0261 38.7450
" />
<path d="M143.5704 40.0150
L143.5704 39.3498
" />
<path d="M143.5704 39.3498
L143.5099 39.2288
" />
<path d="M143.5099 39.2288
L143.3890 39.1684
" />
<path d="M143.3890 39.1684
L143.2076 39.1684
" />
<path d="M143.2076 39.1684
L143.0866 39.2288
" />
<path d="M143.0866 39.2288
L143.0261 39.2893
" />
</g></g> 
</svg>
