<?xml version="1.0" encoding="UTF-8" standalone="no"?>
<svg
   xmlns:dc="http://purl.org/dc/elements/1.1/"
   xmlns:cc="http://creativecommons.org/ns#"
   xmlns:rdf="http://www.w3.org/1999/02/22-rdf-syntax-ns#"
   xmlns:svg="http://www.w3.org/2000/svg"
   xmlns="http://www.w3.org/2000/svg"
   version="1.1"
   width="24.100801mm"
   height="8.5351486mm"
   viewBox="0 0 24.100802 8.5351485"
   id="svg125684">
  <metadata
     id="metadata125690">
    <rdf:RDF>
      <cc:Work
         rdf:about="">
        <dc:format>image/svg+xml</dc:format>
        <dc:type
           rdf:resource="http://purl.org/dc/dcmitype/StillImage" />
      </cc:Work>
    </rdf:RDF>
  </metadata>
  <defs
     id="defs125688" />
  <title
     id="title125062">SVG Image created as trinamic_wiring.svg date 2023/08/02 16:28:28 </title>
  <desc
     id="desc125064">Image generated by Eeschema-SVG </desc>
  <g
     style="fill:#000000;fill-opacity:1;stroke:#000000;stroke-linecap:round;stroke-linejoin:round;stroke-opacity:1"
     id="g125066"
     transform="translate(-120.4595,-31.97755)" />
  <g
     style="fill:#000000;fill-opacity:0;stroke:#000000;stroke-width:0.1524;stroke-linecap:round;stroke-linejoin:round;stroke-opacity:1"
     id="g125068"
     transform="translate(-120.4595,-31.97755)" />
  <g
     style="fill:#ffffff;fill-opacity:0;stroke:#ffffff;stroke-width:0.1524;stroke-linecap:round;stroke-linejoin:round;stroke-opacity:1"
     id="g125070"
     transform="translate(-120.4595,-31.97755)" />
  <g
     style="fill:#ffffff;fill-opacity:0;stroke:#ffffff;stroke-width:0.0001;stroke-linecap:round;stroke-linejoin:round;stroke-opacity:1"
     id="g125074"
     transform="translate(-120.4595,-31.97755)">
    <rect
       x="120.65"
       y="34.290001"
       width="12.7"
       height="3.8099999"
       rx="0.000000"
       id="rect125072" />
  </g>
  <g
     style="fill:#ffffff;fill-opacity:0;stroke:#ffffff;stroke-width:0.1524;stroke-linecap:round;stroke-linejoin:round;stroke-opacity:1"
     id="g125076"
     transform="translate(-120.4595,-31.97755)" />
  <g
     style="fill:#586e75;fill-opacity:1;stroke:#586e75;stroke-width:0.1524;stroke-linecap:round;stroke-linejoin:round;stroke-opacity:1"
     id="g125078"
     transform="translate(-120.4595,-31.97755)" />
  <g
     style="fill:#586e75;fill-opacity:0;stroke:#586e75;stroke-width:0.381;stroke-linecap:round;stroke-linejoin:round;stroke-opacity:1"
     id="g125082"
     transform="translate(-120.4595,-31.97755)">
    <rect
       x="120.65"
       y="34.290001"
       width="12.7"
       height="3.8099999"
       rx="0.000000"
       id="rect125080" />
  </g>
  <g
     style="fill:#268bd2;fill-opacity:0;stroke:#268bd2;stroke-width:0.381;stroke-linecap:round;stroke-linejoin:round;stroke-opacity:1"
     id="g125084"
     transform="translate(-120.4595,-31.97755)" />
  <g
     style="fill:#268bd2;fill-opacity:0;stroke:#268bd2;stroke-width:0.3175;stroke-linecap:round;stroke-linejoin:round;stroke-opacity:1"
     id="g125256"
     transform="translate(-120.4595,-31.97755)">
    <text
       x="120.65"
       y="33.5784"
       textLength="9.2256002"
       font-size="1.6933px"
       lengthAdjust="spacingAndGlyphs"
       text-anchor="start"
       opacity="0"
       id="text125086">TMC2209</text>
    <g
       class="stroked-text"
       id="g125254">
      <desc
         id="desc125088">TMC2209</desc>
      <path
         d="m 120.9797,32.1363 h 0.7257"
         id="path125090" />
      <path
         d="m 121.3426,33.4063 v -1.27"
         id="path125092" />
      <path
         d="m 122.1287,33.4063 v -1.27"
         id="path125094" />
      <path
         d="m 122.1287,32.1363 0.4234,0.9072"
         id="path125096" />
      <path
         d="m 122.5521,33.0435 0.4233,-0.9072"
         id="path125098" />
      <path
         d="m 122.9754,32.1363 v 1.27"
         id="path125100" />
      <path
         d="m 124.3058,33.2854 -0.0604,0.0605"
         id="path125102" />
      <path
         d="m 124.2454,33.3459 -0.1815,0.0604"
         id="path125104" />
      <path
         d="M 124.0639,33.4063 H 123.943"
         id="path125106" />
      <path
         d="m 123.943,33.4063 -0.1814,-0.0604"
         id="path125108" />
      <path
         d="m 123.7616,33.3459 -0.121,-0.121"
         id="path125110" />
      <path
         d="m 123.6406,33.2249 -0.0605,-0.121"
         id="path125112" />
      <path
         d="M 123.5801,33.1039 123.5197,32.862"
         id="path125114" />
      <path
         d="M 123.5197,32.862 V 32.6806"
         id="path125116" />
      <path
         d="m 123.5197,32.6806 0.0604,-0.2419"
         id="path125118" />
      <path
         d="m 123.5801,32.4387 0.0605,-0.1209"
         id="path125120" />
      <path
         d="m 123.6406,32.3178 0.121,-0.121"
         id="path125122" />
      <path
         d="m 123.7616,32.1968 0.1814,-0.0605"
         id="path125124" />
      <path
         d="m 123.943,32.1363 h 0.1209"
         id="path125126" />
      <path
         d="m 124.0639,32.1363 0.1815,0.0605"
         id="path125128" />
      <path
         d="m 124.2454,32.1968 0.0604,0.0605"
         id="path125130" />
      <path
         d="m 124.7897,32.2573 0.0604,-0.0605"
         id="path125132" />
      <path
         d="m 124.8501,32.1968 0.121,-0.0605"
         id="path125134" />
      <path
         d="m 124.9711,32.1363 h 0.3024"
         id="path125136" />
      <path
         d="m 125.2735,32.1363 0.1209,0.0605"
         id="path125138" />
      <path
         d="m 125.3944,32.1968 0.0605,0.0605"
         id="path125140" />
      <path
         d="m 125.4549,32.2573 0.0605,0.1209"
         id="path125142" />
      <path
         d="m 125.5154,32.3782 v 0.121"
         id="path125144" />
      <path
         d="m 125.5154,32.4992 -0.0605,0.1814"
         id="path125146" />
      <path
         d="m 125.4549,32.6806 -0.7257,0.7257"
         id="path125148" />
      <path
         d="m 124.7292,33.4063 h 0.7862"
         id="path125150" />
      <path
         d="m 125.9992,32.2573 0.0604,-0.0605"
         id="path125152" />
      <path
         d="m 126.0596,32.1968 0.121,-0.0605"
         id="path125154" />
      <path
         d="m 126.1806,32.1363 h 0.3024"
         id="path125156" />
      <path
         d="m 126.483,32.1363 0.1209,0.0605"
         id="path125158" />
      <path
         d="m 126.6039,32.1968 0.0605,0.0605"
         id="path125160" />
      <path
         d="m 126.6644,32.2573 0.0605,0.1209"
         id="path125162" />
      <path
         d="m 126.7249,32.3782 v 0.121"
         id="path125164" />
      <path
         d="m 126.7249,32.4992 -0.0605,0.1814"
         id="path125166" />
      <path
         d="m 126.6644,32.6806 -0.7257,0.7257"
         id="path125168" />
      <path
         d="m 125.9387,33.4063 h 0.7862"
         id="path125170" />
      <path
         d="m 127.511,32.1363 h 0.121"
         id="path125172" />
      <path
         d="m 127.632,32.1363 0.1209,0.0605"
         id="path125174" />
      <path
         d="m 127.7529,32.1968 0.0605,0.0605"
         id="path125176" />
      <path
         d="m 127.8134,32.2573 0.0605,0.1209"
         id="path125178" />
      <path
         d="m 127.8739,32.3782 0.0605,0.2419"
         id="path125180" />
      <path
         d="m 127.9344,32.6201 v 0.3024"
         id="path125182" />
      <path
         d="m 127.9344,32.9225 -0.0605,0.2419"
         id="path125184" />
      <path
         d="m 127.8739,33.1644 -0.0605,0.121"
         id="path125186" />
      <path
         d="m 127.8134,33.2854 -0.0605,0.0605"
         id="path125188" />
      <path
         d="m 127.7529,33.3459 -0.1209,0.0604"
         id="path125190" />
      <path
         d="m 127.632,33.4063 h -0.121"
         id="path125192" />
      <path
         d="m 127.511,33.4063 -0.1209,-0.0604"
         id="path125194" />
      <path
         d="m 127.3901,33.3459 -0.0605,-0.0605"
         id="path125196" />
      <path
         d="m 127.3296,33.2854 -0.0605,-0.121"
         id="path125198" />
      <path
         d="m 127.2691,33.1644 -0.0604,-0.2419"
         id="path125200" />
      <path
         d="M 127.2087,32.9225 V 32.6201"
         id="path125202" />
      <path
         d="m 127.2087,32.6201 0.0604,-0.2419"
         id="path125204" />
      <path
         d="m 127.2691,32.3782 0.0605,-0.1209"
         id="path125206" />
      <path
         d="m 127.3296,32.2573 0.0605,-0.0605"
         id="path125208" />
      <path
         d="m 127.3901,32.1968 0.1209,-0.0605"
         id="path125210" />
      <path
         d="m 128.5391,33.4063 h 0.2419"
         id="path125212" />
      <path
         d="m 128.781,33.4063 0.121,-0.0604"
         id="path125214" />
      <path
         d="m 128.902,33.3459 0.0604,-0.0605"
         id="path125216" />
      <path
         d="m 128.9624,33.2854 0.121,-0.1815"
         id="path125218" />
      <path
         d="m 129.0834,33.1039 0.0605,-0.2419"
         id="path125220" />
      <path
         d="M 129.1439,32.862 V 32.3782"
         id="path125222" />
      <path
         d="m 129.1439,32.3782 -0.0605,-0.1209"
         id="path125224" />
      <path
         d="m 129.0834,32.2573 -0.0605,-0.0605"
         id="path125226" />
      <path
         d="M 129.0229,32.1968 128.902,32.1363"
         id="path125228" />
      <path
         d="m 128.902,32.1363 h -0.2419"
         id="path125230" />
      <path
         d="m 128.6601,32.1363 -0.121,0.0605"
         id="path125232" />
      <path
         d="m 128.5391,32.1968 -0.0605,0.0605"
         id="path125234" />
      <path
         d="m 128.4786,32.2573 -0.0604,0.1209"
         id="path125236" />
      <path
         d="m 128.4182,32.3782 v 0.3024"
         id="path125238" />
      <path
         d="m 128.4182,32.6806 0.0604,0.121"
         id="path125240" />
      <path
         d="m 128.4786,32.8016 0.0605,0.0604"
         id="path125242" />
      <path
         d="m 128.5391,32.862 0.121,0.0605"
         id="path125244" />
      <path
         d="m 128.6601,32.9225 h 0.2419"
         id="path125246" />
      <path
         d="m 128.902,32.9225 0.1209,-0.0605"
         id="path125248" />
      <path
         d="m 129.0229,32.862 0.0605,-0.0604"
         id="path125250" />
      <path
         d="m 129.0834,32.8016 0.0605,-0.121"
         id="path125252" />
    </g>
  </g>
  <g
     style="fill:#6c71c4;fill-opacity:0;stroke:#6c71c4;stroke-width:0.3175;stroke-linecap:round;stroke-linejoin:round;stroke-opacity:1"
     id="g125682"
     transform="translate(-120.4595,-31.97755)">
    <text
       x="120.65"
       y="39.954601"
       textLength="23.9214"
       font-size="1.6933px"
       lengthAdjust="spacingAndGlyphs"
       text-anchor="start"
       opacity="0"
       id="text125258">File: tmc2209.kicad_sch</text>
    <g
       class="stroked-text"
       id="g125680">
      <desc
         id="desc125260">File: tmc2209.kicad_sch</desc>
      <path
         d="m 121.5845,39.3332 h -0.4234"
         id="path125262" />
      <path
         d="m 121.1611,39.9984 v -1.27"
         id="path125264" />
      <path
         d="m 121.1611,38.7284 h 0.6048"
         id="path125266" />
      <path
         d="M 122.2497,39.9984 V 39.1518"
         id="path125268" />
      <path
         d="m 122.2497,38.7284 -0.0604,0.0605"
         id="path125270" />
      <path
         d="m 122.1893,38.7889 0.0604,0.0605"
         id="path125272" />
      <path
         d="m 122.2497,38.8494 0.0605,-0.0605"
         id="path125274" />
      <path
         d="m 122.3102,38.7889 -0.0605,-0.0605"
         id="path125276" />
      <path
         d="m 122.2497,38.7284 v 0.121"
         id="path125278" />
      <path
         d="M 123.036,39.9984 122.915,39.938"
         id="path125280" />
      <path
         d="m 122.915,39.938 -0.0605,-0.121"
         id="path125282" />
      <path
         d="M 122.8545,39.817 V 38.7284"
         id="path125284" />
      <path
         d="m 124.0035,39.938 -0.1209,0.0604"
         id="path125286" />
      <path
         d="m 123.8826,39.9984 h -0.2419"
         id="path125288" />
      <path
         d="m 123.6407,39.9984 -0.121,-0.0604"
         id="path125290" />
      <path
         d="m 123.5197,39.938 -0.0604,-0.121"
         id="path125292" />
      <path
         d="M 123.4593,39.817 V 39.3332"
         id="path125294" />
      <path
         d="m 123.4593,39.3332 0.0604,-0.121"
         id="path125296" />
      <path
         d="m 123.5197,39.2122 0.121,-0.0604"
         id="path125298" />
      <path
         d="m 123.6407,39.1518 h 0.2419"
         id="path125300" />
      <path
         d="m 123.8826,39.1518 0.1209,0.0604"
         id="path125302" />
      <path
         d="m 124.0035,39.2122 0.0605,0.121"
         id="path125304" />
      <path
         d="m 124.064,39.3332 v 0.1209"
         id="path125306" />
      <path
         d="m 124.064,39.4541 -0.6047,0.121"
         id="path125308" />
      <path
         d="m 124.6083,39.8775 0.0605,0.0605"
         id="path125310" />
      <path
         d="m 124.6688,39.938 -0.0605,0.0604"
         id="path125312" />
      <path
         d="M 124.6083,39.9984 124.5479,39.938"
         id="path125314" />
      <path
         d="m 124.5479,39.938 0.0604,-0.0605"
         id="path125316" />
      <path
         d="m 124.6083,39.8775 v 0.1209"
         id="path125318" />
      <path
         d="m 124.6083,39.2122 0.0605,0.0605"
         id="path125320" />
      <path
         d="m 124.6688,39.2727 -0.0605,0.0605"
         id="path125322" />
      <path
         d="m 124.6083,39.3332 -0.0604,-0.0605"
         id="path125324" />
      <path
         d="m 124.5479,39.2727 0.0604,-0.0605"
         id="path125326" />
      <path
         d="m 124.6083,39.2122 v 0.121"
         id="path125328" />
      <path
         d="m 125.9993,39.1518 h 0.4838"
         id="path125330" />
      <path
         d="M 126.1807,38.7284 V 39.817"
         id="path125332" />
      <path
         d="m 126.1807,39.817 0.0605,0.121"
         id="path125334" />
      <path
         d="m 126.2412,39.938 0.121,0.0604"
         id="path125336" />
      <path
         d="m 126.3622,39.9984 h 0.1209"
         id="path125338" />
      <path
         d="M 126.9064,39.9984 V 39.1518"
         id="path125340" />
      <path
         d="m 126.9064,39.2727 0.0605,-0.0605"
         id="path125342" />
      <path
         d="m 126.9669,39.2122 0.121,-0.0604"
         id="path125344" />
      <path
         d="m 127.0879,39.1518 h 0.1814"
         id="path125346" />
      <path
         d="m 127.2693,39.1518 0.1209,0.0604"
         id="path125348" />
      <path
         d="m 127.3902,39.2122 0.0605,0.121"
         id="path125350" />
      <path
         d="m 127.4507,39.3332 v 0.6652"
         id="path125352" />
      <path
         d="m 127.4507,39.3332 0.0605,-0.121"
         id="path125354" />
      <path
         d="m 127.5112,39.2122 0.1209,-0.0604"
         id="path125356" />
      <path
         d="m 127.6321,39.1518 h 0.1815"
         id="path125358" />
      <path
         d="m 127.8136,39.1518 0.1209,0.0604"
         id="path125360" />
      <path
         d="m 127.9345,39.2122 0.0605,0.121"
         id="path125362" />
      <path
         d="m 127.995,39.3332 v 0.6652"
         id="path125364" />
      <path
         d="m 129.144,39.938 -0.1209,0.0604"
         id="path125366" />
      <path
         d="m 129.0231,39.9984 h -0.2419"
         id="path125368" />
      <path
         d="m 128.7812,39.9984 -0.121,-0.0604"
         id="path125370" />
      <path
         d="m 128.6602,39.938 -0.0605,-0.0605"
         id="path125372" />
      <path
         d="m 128.5997,39.8775 -0.0604,-0.121"
         id="path125374" />
      <path
         d="M 128.5393,39.7565 V 39.3937"
         id="path125376" />
      <path
         d="m 128.5393,39.3937 0.0604,-0.121"
         id="path125378" />
      <path
         d="m 128.5997,39.2727 0.0605,-0.0605"
         id="path125380" />
      <path
         d="m 128.6602,39.2122 0.121,-0.0604"
         id="path125382" />
      <path
         d="m 128.7812,39.1518 h 0.2419"
         id="path125384" />
      <path
         d="m 129.0231,39.1518 0.1209,0.0604"
         id="path125386" />
      <path
         d="m 129.6279,38.8494 0.0604,-0.0605"
         id="path125388" />
      <path
         d="m 129.6883,38.7889 0.121,-0.0605"
         id="path125390" />
      <path
         d="m 129.8093,38.7284 h 0.3024"
         id="path125392" />
      <path
         d="m 130.1117,38.7284 0.1209,0.0605"
         id="path125394" />
      <path
         d="m 130.2326,38.7889 0.0605,0.0605"
         id="path125396" />
      <path
         d="m 130.2931,38.8494 0.0605,0.1209"
         id="path125398" />
      <path
         d="m 130.3536,38.9703 v 0.121"
         id="path125400" />
      <path
         d="m 130.3536,39.0913 -0.0605,0.1814"
         id="path125402" />
      <path
         d="m 130.2931,39.2727 -0.7257,0.7257"
         id="path125404" />
      <path
         d="m 129.5674,39.9984 h 0.7862"
         id="path125406" />
      <path
         d="m 130.8374,38.8494 0.0604,-0.0605"
         id="path125408" />
      <path
         d="m 130.8978,38.7889 0.121,-0.0605"
         id="path125410" />
      <path
         d="m 131.0188,38.7284 h 0.3024"
         id="path125412" />
      <path
         d="m 131.3212,38.7284 0.1209,0.0605"
         id="path125414" />
      <path
         d="m 131.4421,38.7889 0.0605,0.0605"
         id="path125416" />
      <path
         d="m 131.5026,38.8494 0.0605,0.1209"
         id="path125418" />
      <path
         d="m 131.5631,38.9703 v 0.121"
         id="path125420" />
      <path
         d="m 131.5631,39.0913 -0.0605,0.1814"
         id="path125422" />
      <path
         d="m 131.5026,39.2727 -0.7257,0.7257"
         id="path125424" />
      <path
         d="m 130.7769,39.9984 h 0.7862"
         id="path125426" />
      <path
         d="m 132.3492,38.7284 h 0.121"
         id="path125428" />
      <path
         d="m 132.4702,38.7284 0.1209,0.0605"
         id="path125430" />
      <path
         d="m 132.5911,38.7889 0.0605,0.0605"
         id="path125432" />
      <path
         d="m 132.6516,38.8494 0.0605,0.1209"
         id="path125434" />
      <path
         d="m 132.7121,38.9703 0.0605,0.2419"
         id="path125436" />
      <path
         d="m 132.7726,39.2122 v 0.3024"
         id="path125438" />
      <path
         d="m 132.7726,39.5146 -0.0605,0.2419"
         id="path125440" />
      <path
         d="m 132.7121,39.7565 -0.0605,0.121"
         id="path125442" />
      <path
         d="m 132.6516,39.8775 -0.0605,0.0605"
         id="path125444" />
      <path
         d="m 132.5911,39.938 -0.1209,0.0604"
         id="path125446" />
      <path
         d="m 132.4702,39.9984 h -0.121"
         id="path125448" />
      <path
         d="M 132.3492,39.9984 132.2283,39.938"
         id="path125450" />
      <path
         d="m 132.2283,39.938 -0.0605,-0.0605"
         id="path125452" />
      <path
         d="m 132.1678,39.8775 -0.0605,-0.121"
         id="path125454" />
      <path
         d="m 132.1073,39.7565 -0.0604,-0.2419"
         id="path125456" />
      <path
         d="M 132.0469,39.5146 V 39.2122"
         id="path125458" />
      <path
         d="m 132.0469,39.2122 0.0604,-0.2419"
         id="path125460" />
      <path
         d="m 132.1073,38.9703 0.0605,-0.1209"
         id="path125462" />
      <path
         d="m 132.1678,38.8494 0.0605,-0.0605"
         id="path125464" />
      <path
         d="m 132.2283,38.7889 0.1209,-0.0605"
         id="path125466" />
      <path
         d="m 133.3773,39.9984 h 0.2419"
         id="path125468" />
      <path
         d="m 133.6192,39.9984 0.121,-0.0604"
         id="path125470" />
      <path
         d="m 133.7402,39.938 0.0604,-0.0605"
         id="path125472" />
      <path
         d="m 133.8006,39.8775 0.121,-0.1815"
         id="path125474" />
      <path
         d="m 133.9216,39.696 0.0605,-0.2419"
         id="path125476" />
      <path
         d="M 133.9821,39.4541 V 38.9703"
         id="path125478" />
      <path
         d="m 133.9821,38.9703 -0.0605,-0.1209"
         id="path125480" />
      <path
         d="m 133.9216,38.8494 -0.0605,-0.0605"
         id="path125482" />
      <path
         d="m 133.8611,38.7889 -0.1209,-0.0605"
         id="path125484" />
      <path
         d="m 133.7402,38.7284 h -0.2419"
         id="path125486" />
      <path
         d="m 133.4983,38.7284 -0.121,0.0605"
         id="path125488" />
      <path
         d="m 133.3773,38.7889 -0.0605,0.0605"
         id="path125490" />
      <path
         d="m 133.3168,38.8494 -0.0604,0.1209"
         id="path125492" />
      <path
         d="m 133.2564,38.9703 v 0.3024"
         id="path125494" />
      <path
         d="m 133.2564,39.2727 0.0604,0.121"
         id="path125496" />
      <path
         d="m 133.3168,39.3937 0.0605,0.0604"
         id="path125498" />
      <path
         d="m 133.3773,39.4541 0.121,0.0605"
         id="path125500" />
      <path
         d="m 133.4983,39.5146 h 0.2419"
         id="path125502" />
      <path
         d="m 133.7402,39.5146 0.1209,-0.0605"
         id="path125504" />
      <path
         d="m 133.8611,39.4541 0.0605,-0.0604"
         id="path125506" />
      <path
         d="m 133.9216,39.3937 0.0605,-0.121"
         id="path125508" />
      <path
         d="m 134.5263,39.8775 0.0605,0.0605"
         id="path125510" />
      <path
         d="m 134.5868,39.938 -0.0605,0.0604"
         id="path125512" />
      <path
         d="M 134.5263,39.9984 134.4659,39.938"
         id="path125514" />
      <path
         d="m 134.4659,39.938 0.0604,-0.0605"
         id="path125516" />
      <path
         d="m 134.5263,39.8775 v 0.1209"
         id="path125518" />
      <path
         d="m 135.1311,39.9984 v -1.27"
         id="path125520" />
      <path
         d="m 135.2521,39.5146 0.3628,0.4838"
         id="path125522" />
      <path
         d="m 135.6149,39.1518 -0.4838,0.4838"
         id="path125524" />
      <path
         d="M 136.1592,39.9984 V 39.1518"
         id="path125526" />
      <path
         d="m 136.1592,38.7284 -0.0604,0.0605"
         id="path125528" />
      <path
         d="m 136.0988,38.7889 0.0604,0.0605"
         id="path125530" />
      <path
         d="m 136.1592,38.8494 0.0605,-0.0605"
         id="path125532" />
      <path
         d="m 136.2197,38.7889 -0.0605,-0.0605"
         id="path125534" />
      <path
         d="m 136.1592,38.7284 v 0.121"
         id="path125536" />
      <path
         d="m 137.3083,39.938 -0.1209,0.0604"
         id="path125538" />
      <path
         d="m 137.1874,39.9984 h -0.2419"
         id="path125540" />
      <path
         d="m 136.9455,39.9984 -0.121,-0.0604"
         id="path125542" />
      <path
         d="M 136.8245,39.938 136.764,39.8775"
         id="path125544" />
      <path
         d="m 136.764,39.8775 -0.0604,-0.121"
         id="path125546" />
      <path
         d="M 136.7036,39.7565 V 39.3937"
         id="path125548" />
      <path
         d="m 136.7036,39.3937 0.0604,-0.121"
         id="path125550" />
      <path
         d="m 136.764,39.2727 0.0605,-0.0605"
         id="path125552" />
      <path
         d="m 136.8245,39.2122 0.121,-0.0604"
         id="path125554" />
      <path
         d="m 136.9455,39.1518 h 0.2419"
         id="path125556" />
      <path
         d="m 137.1874,39.1518 0.1209,0.0604"
         id="path125558" />
      <path
         d="M 138.3969,39.9984 V 39.3332"
         id="path125560" />
      <path
         d="m 138.3969,39.3332 -0.0605,-0.121"
         id="path125562" />
      <path
         d="m 138.3364,39.2122 -0.1209,-0.0604"
         id="path125564" />
      <path
         d="m 138.2155,39.1518 h -0.2419"
         id="path125566" />
      <path
         d="m 137.9736,39.1518 -0.121,0.0604"
         id="path125568" />
      <path
         d="m 138.3969,39.938 -0.1209,0.0604"
         id="path125570" />
      <path
         d="m 138.276,39.9984 h -0.3024"
         id="path125572" />
      <path
         d="m 137.9736,39.9984 -0.121,-0.0604"
         id="path125574" />
      <path
         d="m 137.8526,39.938 -0.0604,-0.121"
         id="path125576" />
      <path
         d="M 137.7922,39.817 V 39.696"
         id="path125578" />
      <path
         d="m 137.7922,39.696 0.0604,-0.1209"
         id="path125580" />
      <path
         d="m 137.8526,39.5751 0.121,-0.0605"
         id="path125582" />
      <path
         d="m 137.9736,39.5146 h 0.3024"
         id="path125584" />
      <path
         d="m 138.276,39.5146 0.1209,-0.0605"
         id="path125586" />
      <path
         d="m 139.5459,39.9984 v -1.27"
         id="path125588" />
      <path
         d="m 139.5459,39.938 -0.1209,0.0604"
         id="path125590" />
      <path
         d="m 139.425,39.9984 h -0.2419"
         id="path125592" />
      <path
         d="m 139.1831,39.9984 -0.121,-0.0604"
         id="path125594" />
      <path
         d="m 139.0621,39.938 -0.0605,-0.0605"
         id="path125596" />
      <path
         d="m 139.0016,39.8775 -0.0604,-0.121"
         id="path125598" />
      <path
         d="M 138.9412,39.7565 V 39.3937"
         id="path125600" />
      <path
         d="m 138.9412,39.3937 0.0604,-0.121"
         id="path125602" />
      <path
         d="m 139.0016,39.2727 0.0605,-0.0605"
         id="path125604" />
      <path
         d="m 139.0621,39.2122 0.121,-0.0604"
         id="path125606" />
      <path
         d="m 139.1831,39.1518 h 0.2419"
         id="path125608" />
      <path
         d="m 139.425,39.1518 0.1209,0.0604"
         id="path125610" />
      <path
         d="m 139.8483,40.1194 h 0.9676"
         id="path125612" />
      <path
         d="m 141.0578,39.938 0.1209,0.0604"
         id="path125614" />
      <path
         d="m 141.1787,39.9984 h 0.2419"
         id="path125616" />
      <path
         d="m 141.4206,39.9984 0.121,-0.0604"
         id="path125618" />
      <path
         d="m 141.5416,39.938 0.0604,-0.121"
         id="path125620" />
      <path
         d="M 141.602,39.817 V 39.7565"
         id="path125622" />
      <path
         d="m 141.602,39.7565 -0.0604,-0.1209"
         id="path125624" />
      <path
         d="m 141.5416,39.6356 -0.121,-0.0605"
         id="path125626" />
      <path
         d="m 141.4206,39.5751 h -0.1814"
         id="path125628" />
      <path
         d="m 141.2392,39.5751 -0.121,-0.0605"
         id="path125630" />
      <path
         d="m 141.1182,39.5146 -0.0604,-0.1209"
         id="path125632" />
      <path
         d="M 141.0578,39.3937 V 39.3332"
         id="path125634" />
      <path
         d="m 141.0578,39.3332 0.0604,-0.121"
         id="path125636" />
      <path
         d="m 141.1182,39.2122 0.121,-0.0604"
         id="path125638" />
      <path
         d="m 141.2392,39.1518 h 0.1814"
         id="path125640" />
      <path
         d="m 141.4206,39.1518 0.121,0.0604"
         id="path125642" />
      <path
         d="m 142.6906,39.938 -0.1209,0.0604"
         id="path125644" />
      <path
         d="m 142.5697,39.9984 h -0.2419"
         id="path125646" />
      <path
         d="m 142.3278,39.9984 -0.121,-0.0604"
         id="path125648" />
      <path
         d="m 142.2068,39.938 -0.0605,-0.0605"
         id="path125650" />
      <path
         d="m 142.1463,39.8775 -0.0604,-0.121"
         id="path125652" />
      <path
         d="M 142.0859,39.7565 V 39.3937"
         id="path125654" />
      <path
         d="m 142.0859,39.3937 0.0604,-0.121"
         id="path125656" />
      <path
         d="m 142.1463,39.2727 0.0605,-0.0605"
         id="path125658" />
      <path
         d="m 142.2068,39.2122 0.121,-0.0604"
         id="path125660" />
      <path
         d="m 142.3278,39.1518 h 0.2419"
         id="path125662" />
      <path
         d="m 142.5697,39.1518 0.1209,0.0604"
         id="path125664" />
      <path
         d="m 143.2349,39.9984 v -1.27"
         id="path125666" />
      <path
         d="M 143.7792,39.9984 V 39.3332"
         id="path125668" />
      <path
         d="m 143.7792,39.3332 -0.0605,-0.121"
         id="path125670" />
      <path
         d="m 143.7187,39.2122 -0.1209,-0.0604"
         id="path125672" />
      <path
         d="m 143.5978,39.1518 h -0.1814"
         id="path125674" />
      <path
         d="m 143.4164,39.1518 -0.121,0.0604"
         id="path125676" />
      <path
         d="m 143.2954,39.2122 -0.0605,0.0605"
         id="path125678" />
    </g>
  </g>
</svg>
