<?xml version="1.0" encoding="UTF-8" standalone="no"?>
<svg
   xmlns:dc="http://purl.org/dc/elements/1.1/"
   xmlns:cc="http://creativecommons.org/ns#"
   xmlns:rdf="http://www.w3.org/1999/02/22-rdf-syntax-ns#"
   xmlns:svg="http://www.w3.org/2000/svg"
   xmlns="http://www.w3.org/2000/svg"
   version="1.1"
   width="24.100801mm"
   height="8.5351486mm"
   viewBox="0 0 24.100802 8.5351485"
   id="svg104018">
  <metadata
     id="metadata104024">
    <rdf:RDF>
      <cc:Work
         rdf:about="">
        <dc:format>image/svg+xml</dc:format>
        <dc:type
           rdf:resource="http://purl.org/dc/dcmitype/StillImage" />
      </cc:Work>
    </rdf:RDF>
  </metadata>
  <defs
     id="defs104022" />
  <title
     id="title103396">SVG Image created as trinamic_wiring.svg date 2023/08/01 15:05:33 </title>
  <desc
     id="desc103398">Image generated by Eeschema-SVG </desc>
  <g
     style="fill:#000000;fill-opacity:1;stroke:#000000;stroke-linecap:round;stroke-linejoin:round;stroke-opacity:1"
     id="g103400"
     transform="translate(-120.4595,-31.97755)" />
  <g
     style="fill:#000000;fill-opacity:0;stroke:#000000;stroke-width:0.1524;stroke-linecap:round;stroke-linejoin:round;stroke-opacity:1"
     id="g103402"
     transform="translate(-120.4595,-31.97755)" />
  <g
     style="fill:#ffffff;fill-opacity:0;stroke:#ffffff;stroke-width:0.1524;stroke-linecap:round;stroke-linejoin:round;stroke-opacity:1"
     id="g103404"
     transform="translate(-120.4595,-31.97755)" />
  <g
     style="fill:#ffffff;fill-opacity:0;stroke:#ffffff;stroke-width:0.0001;stroke-linecap:round;stroke-linejoin:round;stroke-opacity:1"
     id="g103408"
     transform="translate(-120.4595,-31.97755)">
    <rect
       x="120.65"
       y="34.290001"
       width="12.7"
       height="3.8099999"
       rx="0.000000"
       id="rect103406" />
  </g>
  <g
     style="fill:#ffffff;fill-opacity:0;stroke:#ffffff;stroke-width:0.1524;stroke-linecap:round;stroke-linejoin:round;stroke-opacity:1"
     id="g103410"
     transform="translate(-120.4595,-31.97755)" />
  <g
     style="fill:#840000;fill-opacity:1;stroke:#840000;stroke-width:0.1524;stroke-linecap:round;stroke-linejoin:round;stroke-opacity:1"
     id="g103412"
     transform="translate(-120.4595,-31.97755)" />
  <g
     style="fill:#840000;fill-opacity:0;stroke:#840000;stroke-width:0.381;stroke-linecap:round;stroke-linejoin:round;stroke-opacity:1"
     id="g103416"
     transform="translate(-120.4595,-31.97755)">
    <rect
       x="120.65"
       y="34.290001"
       width="12.7"
       height="3.8099999"
       rx="0.000000"
       id="rect103414" />
  </g>
  <g
     style="fill:#006464;fill-opacity:0;stroke:#006464;stroke-width:0.381;stroke-linecap:round;stroke-linejoin:round;stroke-opacity:1"
     id="g103418"
     transform="translate(-120.4595,-31.97755)" />
  <g
     style="fill:#006464;fill-opacity:0;stroke:#006464;stroke-width:0.3175;stroke-linecap:round;stroke-linejoin:round;stroke-opacity:1"
     id="g103590"
     transform="translate(-120.4595,-31.97755)">
    <text
       x="120.65"
       y="33.5784"
       textLength="9.2256002"
       font-size="1.6933px"
       lengthAdjust="spacingAndGlyphs"
       text-anchor="start"
       opacity="0"
       id="text103420">TMC2209</text>
    <g
       class="stroked-text"
       id="g103588">
      <desc
         id="desc103422">TMC2209</desc>
      <path
         d="m 120.9797,32.1363 h 0.7257"
         id="path103424" />
      <path
         d="m 121.3426,33.4063 v -1.27"
         id="path103426" />
      <path
         d="m 122.1287,33.4063 v -1.27"
         id="path103428" />
      <path
         d="m 122.1287,32.1363 0.4234,0.9072"
         id="path103430" />
      <path
         d="m 122.5521,33.0435 0.4233,-0.9072"
         id="path103432" />
      <path
         d="m 122.9754,32.1363 v 1.27"
         id="path103434" />
      <path
         d="m 124.3058,33.2854 -0.0604,0.0605"
         id="path103436" />
      <path
         d="m 124.2454,33.3459 -0.1815,0.0604"
         id="path103438" />
      <path
         d="M 124.0639,33.4063 H 123.943"
         id="path103440" />
      <path
         d="m 123.943,33.4063 -0.1814,-0.0604"
         id="path103442" />
      <path
         d="m 123.7616,33.3459 -0.121,-0.121"
         id="path103444" />
      <path
         d="m 123.6406,33.2249 -0.0605,-0.121"
         id="path103446" />
      <path
         d="M 123.5801,33.1039 123.5197,32.862"
         id="path103448" />
      <path
         d="M 123.5197,32.862 V 32.6806"
         id="path103450" />
      <path
         d="m 123.5197,32.6806 0.0604,-0.2419"
         id="path103452" />
      <path
         d="m 123.5801,32.4387 0.0605,-0.1209"
         id="path103454" />
      <path
         d="m 123.6406,32.3178 0.121,-0.121"
         id="path103456" />
      <path
         d="m 123.7616,32.1968 0.1814,-0.0605"
         id="path103458" />
      <path
         d="m 123.943,32.1363 h 0.1209"
         id="path103460" />
      <path
         d="m 124.0639,32.1363 0.1815,0.0605"
         id="path103462" />
      <path
         d="m 124.2454,32.1968 0.0604,0.0605"
         id="path103464" />
      <path
         d="m 124.7897,32.2573 0.0604,-0.0605"
         id="path103466" />
      <path
         d="m 124.8501,32.1968 0.121,-0.0605"
         id="path103468" />
      <path
         d="m 124.9711,32.1363 h 0.3024"
         id="path103470" />
      <path
         d="m 125.2735,32.1363 0.1209,0.0605"
         id="path103472" />
      <path
         d="m 125.3944,32.1968 0.0605,0.0605"
         id="path103474" />
      <path
         d="m 125.4549,32.2573 0.0605,0.1209"
         id="path103476" />
      <path
         d="m 125.5154,32.3782 v 0.121"
         id="path103478" />
      <path
         d="m 125.5154,32.4992 -0.0605,0.1814"
         id="path103480" />
      <path
         d="m 125.4549,32.6806 -0.7257,0.7257"
         id="path103482" />
      <path
         d="m 124.7292,33.4063 h 0.7862"
         id="path103484" />
      <path
         d="m 125.9992,32.2573 0.0604,-0.0605"
         id="path103486" />
      <path
         d="m 126.0596,32.1968 0.121,-0.0605"
         id="path103488" />
      <path
         d="m 126.1806,32.1363 h 0.3024"
         id="path103490" />
      <path
         d="m 126.483,32.1363 0.1209,0.0605"
         id="path103492" />
      <path
         d="m 126.6039,32.1968 0.0605,0.0605"
         id="path103494" />
      <path
         d="m 126.6644,32.2573 0.0605,0.1209"
         id="path103496" />
      <path
         d="m 126.7249,32.3782 v 0.121"
         id="path103498" />
      <path
         d="m 126.7249,32.4992 -0.0605,0.1814"
         id="path103500" />
      <path
         d="m 126.6644,32.6806 -0.7257,0.7257"
         id="path103502" />
      <path
         d="m 125.9387,33.4063 h 0.7862"
         id="path103504" />
      <path
         d="m 127.511,32.1363 h 0.121"
         id="path103506" />
      <path
         d="m 127.632,32.1363 0.1209,0.0605"
         id="path103508" />
      <path
         d="m 127.7529,32.1968 0.0605,0.0605"
         id="path103510" />
      <path
         d="m 127.8134,32.2573 0.0605,0.1209"
         id="path103512" />
      <path
         d="m 127.8739,32.3782 0.0605,0.2419"
         id="path103514" />
      <path
         d="m 127.9344,32.6201 v 0.3024"
         id="path103516" />
      <path
         d="m 127.9344,32.9225 -0.0605,0.2419"
         id="path103518" />
      <path
         d="m 127.8739,33.1644 -0.0605,0.121"
         id="path103520" />
      <path
         d="m 127.8134,33.2854 -0.0605,0.0605"
         id="path103522" />
      <path
         d="m 127.7529,33.3459 -0.1209,0.0604"
         id="path103524" />
      <path
         d="m 127.632,33.4063 h -0.121"
         id="path103526" />
      <path
         d="m 127.511,33.4063 -0.1209,-0.0604"
         id="path103528" />
      <path
         d="m 127.3901,33.3459 -0.0605,-0.0605"
         id="path103530" />
      <path
         d="m 127.3296,33.2854 -0.0605,-0.121"
         id="path103532" />
      <path
         d="m 127.2691,33.1644 -0.0604,-0.2419"
         id="path103534" />
      <path
         d="M 127.2087,32.9225 V 32.6201"
         id="path103536" />
      <path
         d="m 127.2087,32.6201 0.0604,-0.2419"
         id="path103538" />
      <path
         d="m 127.2691,32.3782 0.0605,-0.1209"
         id="path103540" />
      <path
         d="m 127.3296,32.2573 0.0605,-0.0605"
         id="path103542" />
      <path
         d="m 127.3901,32.1968 0.1209,-0.0605"
         id="path103544" />
      <path
         d="m 128.5391,33.4063 h 0.2419"
         id="path103546" />
      <path
         d="m 128.781,33.4063 0.121,-0.0604"
         id="path103548" />
      <path
         d="m 128.902,33.3459 0.0604,-0.0605"
         id="path103550" />
      <path
         d="m 128.9624,33.2854 0.121,-0.1815"
         id="path103552" />
      <path
         d="m 129.0834,33.1039 0.0605,-0.2419"
         id="path103554" />
      <path
         d="M 129.1439,32.862 V 32.3782"
         id="path103556" />
      <path
         d="m 129.1439,32.3782 -0.0605,-0.1209"
         id="path103558" />
      <path
         d="m 129.0834,32.2573 -0.0605,-0.0605"
         id="path103560" />
      <path
         d="M 129.0229,32.1968 128.902,32.1363"
         id="path103562" />
      <path
         d="m 128.902,32.1363 h -0.2419"
         id="path103564" />
      <path
         d="m 128.6601,32.1363 -0.121,0.0605"
         id="path103566" />
      <path
         d="m 128.5391,32.1968 -0.0605,0.0605"
         id="path103568" />
      <path
         d="m 128.4786,32.2573 -0.0604,0.1209"
         id="path103570" />
      <path
         d="m 128.4182,32.3782 v 0.3024"
         id="path103572" />
      <path
         d="m 128.4182,32.6806 0.0604,0.121"
         id="path103574" />
      <path
         d="m 128.4786,32.8016 0.0605,0.0604"
         id="path103576" />
      <path
         d="m 128.5391,32.862 0.121,0.0605"
         id="path103578" />
      <path
         d="m 128.6601,32.9225 h 0.2419"
         id="path103580" />
      <path
         d="m 128.902,32.9225 0.1209,-0.0605"
         id="path103582" />
      <path
         d="m 129.0229,32.862 0.0605,-0.0604"
         id="path103584" />
      <path
         d="m 129.0834,32.8016 0.0605,-0.121"
         id="path103586" />
    </g>
  </g>
  <g
     style="fill:#725600;fill-opacity:0;stroke:#725600;stroke-width:0.3175;stroke-linecap:round;stroke-linejoin:round;stroke-opacity:1"
     id="g104016"
     transform="translate(-120.4595,-31.97755)">
    <text
       x="120.65"
       y="39.954601"
       textLength="23.9214"
       font-size="1.6933px"
       lengthAdjust="spacingAndGlyphs"
       text-anchor="start"
       opacity="0"
       id="text103592">File: tmc2209.kicad_sch</text>
    <g
       class="stroked-text"
       id="g104014">
      <desc
         id="desc103594">File: tmc2209.kicad_sch</desc>
      <path
         d="m 121.5845,39.3332 h -0.4234"
         id="path103596" />
      <path
         d="m 121.1611,39.9984 v -1.27"
         id="path103598" />
      <path
         d="m 121.1611,38.7284 h 0.6048"
         id="path103600" />
      <path
         d="M 122.2497,39.9984 V 39.1518"
         id="path103602" />
      <path
         d="m 122.2497,38.7284 -0.0604,0.0605"
         id="path103604" />
      <path
         d="m 122.1893,38.7889 0.0604,0.0605"
         id="path103606" />
      <path
         d="m 122.2497,38.8494 0.0605,-0.0605"
         id="path103608" />
      <path
         d="m 122.3102,38.7889 -0.0605,-0.0605"
         id="path103610" />
      <path
         d="m 122.2497,38.7284 v 0.121"
         id="path103612" />
      <path
         d="M 123.036,39.9984 122.915,39.938"
         id="path103614" />
      <path
         d="m 122.915,39.938 -0.0605,-0.121"
         id="path103616" />
      <path
         d="M 122.8545,39.817 V 38.7284"
         id="path103618" />
      <path
         d="m 124.0035,39.938 -0.1209,0.0604"
         id="path103620" />
      <path
         d="m 123.8826,39.9984 h -0.2419"
         id="path103622" />
      <path
         d="m 123.6407,39.9984 -0.121,-0.0604"
         id="path103624" />
      <path
         d="m 123.5197,39.938 -0.0604,-0.121"
         id="path103626" />
      <path
         d="M 123.4593,39.817 V 39.3332"
         id="path103628" />
      <path
         d="m 123.4593,39.3332 0.0604,-0.121"
         id="path103630" />
      <path
         d="m 123.5197,39.2122 0.121,-0.0604"
         id="path103632" />
      <path
         d="m 123.6407,39.1518 h 0.2419"
         id="path103634" />
      <path
         d="m 123.8826,39.1518 0.1209,0.0604"
         id="path103636" />
      <path
         d="m 124.0035,39.2122 0.0605,0.121"
         id="path103638" />
      <path
         d="m 124.064,39.3332 v 0.1209"
         id="path103640" />
      <path
         d="m 124.064,39.4541 -0.6047,0.121"
         id="path103642" />
      <path
         d="m 124.6083,39.8775 0.0605,0.0605"
         id="path103644" />
      <path
         d="m 124.6688,39.938 -0.0605,0.0604"
         id="path103646" />
      <path
         d="M 124.6083,39.9984 124.5479,39.938"
         id="path103648" />
      <path
         d="m 124.5479,39.938 0.0604,-0.0605"
         id="path103650" />
      <path
         d="m 124.6083,39.8775 v 0.1209"
         id="path103652" />
      <path
         d="m 124.6083,39.2122 0.0605,0.0605"
         id="path103654" />
      <path
         d="m 124.6688,39.2727 -0.0605,0.0605"
         id="path103656" />
      <path
         d="m 124.6083,39.3332 -0.0604,-0.0605"
         id="path103658" />
      <path
         d="m 124.5479,39.2727 0.0604,-0.0605"
         id="path103660" />
      <path
         d="m 124.6083,39.2122 v 0.121"
         id="path103662" />
      <path
         d="m 125.9993,39.1518 h 0.4838"
         id="path103664" />
      <path
         d="M 126.1807,38.7284 V 39.817"
         id="path103666" />
      <path
         d="m 126.1807,39.817 0.0605,0.121"
         id="path103668" />
      <path
         d="m 126.2412,39.938 0.121,0.0604"
         id="path103670" />
      <path
         d="m 126.3622,39.9984 h 0.1209"
         id="path103672" />
      <path
         d="M 126.9064,39.9984 V 39.1518"
         id="path103674" />
      <path
         d="m 126.9064,39.2727 0.0605,-0.0605"
         id="path103676" />
      <path
         d="m 126.9669,39.2122 0.121,-0.0604"
         id="path103678" />
      <path
         d="m 127.0879,39.1518 h 0.1814"
         id="path103680" />
      <path
         d="m 127.2693,39.1518 0.1209,0.0604"
         id="path103682" />
      <path
         d="m 127.3902,39.2122 0.0605,0.121"
         id="path103684" />
      <path
         d="m 127.4507,39.3332 v 0.6652"
         id="path103686" />
      <path
         d="m 127.4507,39.3332 0.0605,-0.121"
         id="path103688" />
      <path
         d="m 127.5112,39.2122 0.1209,-0.0604"
         id="path103690" />
      <path
         d="m 127.6321,39.1518 h 0.1815"
         id="path103692" />
      <path
         d="m 127.8136,39.1518 0.1209,0.0604"
         id="path103694" />
      <path
         d="m 127.9345,39.2122 0.0605,0.121"
         id="path103696" />
      <path
         d="m 127.995,39.3332 v 0.6652"
         id="path103698" />
      <path
         d="m 129.144,39.938 -0.1209,0.0604"
         id="path103700" />
      <path
         d="m 129.0231,39.9984 h -0.2419"
         id="path103702" />
      <path
         d="m 128.7812,39.9984 -0.121,-0.0604"
         id="path103704" />
      <path
         d="m 128.6602,39.938 -0.0605,-0.0605"
         id="path103706" />
      <path
         d="m 128.5997,39.8775 -0.0604,-0.121"
         id="path103708" />
      <path
         d="M 128.5393,39.7565 V 39.3937"
         id="path103710" />
      <path
         d="m 128.5393,39.3937 0.0604,-0.121"
         id="path103712" />
      <path
         d="m 128.5997,39.2727 0.0605,-0.0605"
         id="path103714" />
      <path
         d="m 128.6602,39.2122 0.121,-0.0604"
         id="path103716" />
      <path
         d="m 128.7812,39.1518 h 0.2419"
         id="path103718" />
      <path
         d="m 129.0231,39.1518 0.1209,0.0604"
         id="path103720" />
      <path
         d="m 129.6279,38.8494 0.0604,-0.0605"
         id="path103722" />
      <path
         d="m 129.6883,38.7889 0.121,-0.0605"
         id="path103724" />
      <path
         d="m 129.8093,38.7284 h 0.3024"
         id="path103726" />
      <path
         d="m 130.1117,38.7284 0.1209,0.0605"
         id="path103728" />
      <path
         d="m 130.2326,38.7889 0.0605,0.0605"
         id="path103730" />
      <path
         d="m 130.2931,38.8494 0.0605,0.1209"
         id="path103732" />
      <path
         d="m 130.3536,38.9703 v 0.121"
         id="path103734" />
      <path
         d="m 130.3536,39.0913 -0.0605,0.1814"
         id="path103736" />
      <path
         d="m 130.2931,39.2727 -0.7257,0.7257"
         id="path103738" />
      <path
         d="m 129.5674,39.9984 h 0.7862"
         id="path103740" />
      <path
         d="m 130.8374,38.8494 0.0604,-0.0605"
         id="path103742" />
      <path
         d="m 130.8978,38.7889 0.121,-0.0605"
         id="path103744" />
      <path
         d="m 131.0188,38.7284 h 0.3024"
         id="path103746" />
      <path
         d="m 131.3212,38.7284 0.1209,0.0605"
         id="path103748" />
      <path
         d="m 131.4421,38.7889 0.0605,0.0605"
         id="path103750" />
      <path
         d="m 131.5026,38.8494 0.0605,0.1209"
         id="path103752" />
      <path
         d="m 131.5631,38.9703 v 0.121"
         id="path103754" />
      <path
         d="m 131.5631,39.0913 -0.0605,0.1814"
         id="path103756" />
      <path
         d="m 131.5026,39.2727 -0.7257,0.7257"
         id="path103758" />
      <path
         d="m 130.7769,39.9984 h 0.7862"
         id="path103760" />
      <path
         d="m 132.3492,38.7284 h 0.121"
         id="path103762" />
      <path
         d="m 132.4702,38.7284 0.1209,0.0605"
         id="path103764" />
      <path
         d="m 132.5911,38.7889 0.0605,0.0605"
         id="path103766" />
      <path
         d="m 132.6516,38.8494 0.0605,0.1209"
         id="path103768" />
      <path
         d="m 132.7121,38.9703 0.0605,0.2419"
         id="path103770" />
      <path
         d="m 132.7726,39.2122 v 0.3024"
         id="path103772" />
      <path
         d="m 132.7726,39.5146 -0.0605,0.2419"
         id="path103774" />
      <path
         d="m 132.7121,39.7565 -0.0605,0.121"
         id="path103776" />
      <path
         d="m 132.6516,39.8775 -0.0605,0.0605"
         id="path103778" />
      <path
         d="m 132.5911,39.938 -0.1209,0.0604"
         id="path103780" />
      <path
         d="m 132.4702,39.9984 h -0.121"
         id="path103782" />
      <path
         d="M 132.3492,39.9984 132.2283,39.938"
         id="path103784" />
      <path
         d="m 132.2283,39.938 -0.0605,-0.0605"
         id="path103786" />
      <path
         d="m 132.1678,39.8775 -0.0605,-0.121"
         id="path103788" />
      <path
         d="m 132.1073,39.7565 -0.0604,-0.2419"
         id="path103790" />
      <path
         d="M 132.0469,39.5146 V 39.2122"
         id="path103792" />
      <path
         d="m 132.0469,39.2122 0.0604,-0.2419"
         id="path103794" />
      <path
         d="m 132.1073,38.9703 0.0605,-0.1209"
         id="path103796" />
      <path
         d="m 132.1678,38.8494 0.0605,-0.0605"
         id="path103798" />
      <path
         d="m 132.2283,38.7889 0.1209,-0.0605"
         id="path103800" />
      <path
         d="m 133.3773,39.9984 h 0.2419"
         id="path103802" />
      <path
         d="m 133.6192,39.9984 0.121,-0.0604"
         id="path103804" />
      <path
         d="m 133.7402,39.938 0.0604,-0.0605"
         id="path103806" />
      <path
         d="m 133.8006,39.8775 0.121,-0.1815"
         id="path103808" />
      <path
         d="m 133.9216,39.696 0.0605,-0.2419"
         id="path103810" />
      <path
         d="M 133.9821,39.4541 V 38.9703"
         id="path103812" />
      <path
         d="m 133.9821,38.9703 -0.0605,-0.1209"
         id="path103814" />
      <path
         d="m 133.9216,38.8494 -0.0605,-0.0605"
         id="path103816" />
      <path
         d="m 133.8611,38.7889 -0.1209,-0.0605"
         id="path103818" />
      <path
         d="m 133.7402,38.7284 h -0.2419"
         id="path103820" />
      <path
         d="m 133.4983,38.7284 -0.121,0.0605"
         id="path103822" />
      <path
         d="m 133.3773,38.7889 -0.0605,0.0605"
         id="path103824" />
      <path
         d="m 133.3168,38.8494 -0.0604,0.1209"
         id="path103826" />
      <path
         d="m 133.2564,38.9703 v 0.3024"
         id="path103828" />
      <path
         d="m 133.2564,39.2727 0.0604,0.121"
         id="path103830" />
      <path
         d="m 133.3168,39.3937 0.0605,0.0604"
         id="path103832" />
      <path
         d="m 133.3773,39.4541 0.121,0.0605"
         id="path103834" />
      <path
         d="m 133.4983,39.5146 h 0.2419"
         id="path103836" />
      <path
         d="m 133.7402,39.5146 0.1209,-0.0605"
         id="path103838" />
      <path
         d="m 133.8611,39.4541 0.0605,-0.0604"
         id="path103840" />
      <path
         d="m 133.9216,39.3937 0.0605,-0.121"
         id="path103842" />
      <path
         d="m 134.5263,39.8775 0.0605,0.0605"
         id="path103844" />
      <path
         d="m 134.5868,39.938 -0.0605,0.0604"
         id="path103846" />
      <path
         d="M 134.5263,39.9984 134.4659,39.938"
         id="path103848" />
      <path
         d="m 134.4659,39.938 0.0604,-0.0605"
         id="path103850" />
      <path
         d="m 134.5263,39.8775 v 0.1209"
         id="path103852" />
      <path
         d="m 135.1311,39.9984 v -1.27"
         id="path103854" />
      <path
         d="m 135.2521,39.5146 0.3628,0.4838"
         id="path103856" />
      <path
         d="m 135.6149,39.1518 -0.4838,0.4838"
         id="path103858" />
      <path
         d="M 136.1592,39.9984 V 39.1518"
         id="path103860" />
      <path
         d="m 136.1592,38.7284 -0.0604,0.0605"
         id="path103862" />
      <path
         d="m 136.0988,38.7889 0.0604,0.0605"
         id="path103864" />
      <path
         d="m 136.1592,38.8494 0.0605,-0.0605"
         id="path103866" />
      <path
         d="m 136.2197,38.7889 -0.0605,-0.0605"
         id="path103868" />
      <path
         d="m 136.1592,38.7284 v 0.121"
         id="path103870" />
      <path
         d="m 137.3083,39.938 -0.1209,0.0604"
         id="path103872" />
      <path
         d="m 137.1874,39.9984 h -0.2419"
         id="path103874" />
      <path
         d="m 136.9455,39.9984 -0.121,-0.0604"
         id="path103876" />
      <path
         d="M 136.8245,39.938 136.764,39.8775"
         id="path103878" />
      <path
         d="m 136.764,39.8775 -0.0604,-0.121"
         id="path103880" />
      <path
         d="M 136.7036,39.7565 V 39.3937"
         id="path103882" />
      <path
         d="m 136.7036,39.3937 0.0604,-0.121"
         id="path103884" />
      <path
         d="m 136.764,39.2727 0.0605,-0.0605"
         id="path103886" />
      <path
         d="m 136.8245,39.2122 0.121,-0.0604"
         id="path103888" />
      <path
         d="m 136.9455,39.1518 h 0.2419"
         id="path103890" />
      <path
         d="m 137.1874,39.1518 0.1209,0.0604"
         id="path103892" />
      <path
         d="M 138.3969,39.9984 V 39.3332"
         id="path103894" />
      <path
         d="m 138.3969,39.3332 -0.0605,-0.121"
         id="path103896" />
      <path
         d="m 138.3364,39.2122 -0.1209,-0.0604"
         id="path103898" />
      <path
         d="m 138.2155,39.1518 h -0.2419"
         id="path103900" />
      <path
         d="m 137.9736,39.1518 -0.121,0.0604"
         id="path103902" />
      <path
         d="m 138.3969,39.938 -0.1209,0.0604"
         id="path103904" />
      <path
         d="m 138.276,39.9984 h -0.3024"
         id="path103906" />
      <path
         d="m 137.9736,39.9984 -0.121,-0.0604"
         id="path103908" />
      <path
         d="m 137.8526,39.938 -0.0604,-0.121"
         id="path103910" />
      <path
         d="M 137.7922,39.817 V 39.696"
         id="path103912" />
      <path
         d="m 137.7922,39.696 0.0604,-0.1209"
         id="path103914" />
      <path
         d="m 137.8526,39.5751 0.121,-0.0605"
         id="path103916" />
      <path
         d="m 137.9736,39.5146 h 0.3024"
         id="path103918" />
      <path
         d="m 138.276,39.5146 0.1209,-0.0605"
         id="path103920" />
      <path
         d="m 139.5459,39.9984 v -1.27"
         id="path103922" />
      <path
         d="m 139.5459,39.938 -0.1209,0.0604"
         id="path103924" />
      <path
         d="m 139.425,39.9984 h -0.2419"
         id="path103926" />
      <path
         d="m 139.1831,39.9984 -0.121,-0.0604"
         id="path103928" />
      <path
         d="m 139.0621,39.938 -0.0605,-0.0605"
         id="path103930" />
      <path
         d="m 139.0016,39.8775 -0.0604,-0.121"
         id="path103932" />
      <path
         d="M 138.9412,39.7565 V 39.3937"
         id="path103934" />
      <path
         d="m 138.9412,39.3937 0.0604,-0.121"
         id="path103936" />
      <path
         d="m 139.0016,39.2727 0.0605,-0.0605"
         id="path103938" />
      <path
         d="m 139.0621,39.2122 0.121,-0.0604"
         id="path103940" />
      <path
         d="m 139.1831,39.1518 h 0.2419"
         id="path103942" />
      <path
         d="m 139.425,39.1518 0.1209,0.0604"
         id="path103944" />
      <path
         d="m 139.8483,40.1194 h 0.9676"
         id="path103946" />
      <path
         d="m 141.0578,39.938 0.1209,0.0604"
         id="path103948" />
      <path
         d="m 141.1787,39.9984 h 0.2419"
         id="path103950" />
      <path
         d="m 141.4206,39.9984 0.121,-0.0604"
         id="path103952" />
      <path
         d="m 141.5416,39.938 0.0604,-0.121"
         id="path103954" />
      <path
         d="M 141.602,39.817 V 39.7565"
         id="path103956" />
      <path
         d="m 141.602,39.7565 -0.0604,-0.1209"
         id="path103958" />
      <path
         d="m 141.5416,39.6356 -0.121,-0.0605"
         id="path103960" />
      <path
         d="m 141.4206,39.5751 h -0.1814"
         id="path103962" />
      <path
         d="m 141.2392,39.5751 -0.121,-0.0605"
         id="path103964" />
      <path
         d="m 141.1182,39.5146 -0.0604,-0.1209"
         id="path103966" />
      <path
         d="M 141.0578,39.3937 V 39.3332"
         id="path103968" />
      <path
         d="m 141.0578,39.3332 0.0604,-0.121"
         id="path103970" />
      <path
         d="m 141.1182,39.2122 0.121,-0.0604"
         id="path103972" />
      <path
         d="m 141.2392,39.1518 h 0.1814"
         id="path103974" />
      <path
         d="m 141.4206,39.1518 0.121,0.0604"
         id="path103976" />
      <path
         d="m 142.6906,39.938 -0.1209,0.0604"
         id="path103978" />
      <path
         d="m 142.5697,39.9984 h -0.2419"
         id="path103980" />
      <path
         d="m 142.3278,39.9984 -0.121,-0.0604"
         id="path103982" />
      <path
         d="m 142.2068,39.938 -0.0605,-0.0605"
         id="path103984" />
      <path
         d="m 142.1463,39.8775 -0.0604,-0.121"
         id="path103986" />
      <path
         d="M 142.0859,39.7565 V 39.3937"
         id="path103988" />
      <path
         d="m 142.0859,39.3937 0.0604,-0.121"
         id="path103990" />
      <path
         d="m 142.1463,39.2727 0.0605,-0.0605"
         id="path103992" />
      <path
         d="m 142.2068,39.2122 0.121,-0.0604"
         id="path103994" />
      <path
         d="m 142.3278,39.1518 h 0.2419"
         id="path103996" />
      <path
         d="m 142.5697,39.1518 0.1209,0.0604"
         id="path103998" />
      <path
         d="m 143.2349,39.9984 v -1.27"
         id="path104000" />
      <path
         d="M 143.7792,39.9984 V 39.3332"
         id="path104002" />
      <path
         d="m 143.7792,39.3332 -0.0605,-0.121"
         id="path104004" />
      <path
         d="m 143.7187,39.2122 -0.1209,-0.0604"
         id="path104006" />
      <path
         d="m 143.5978,39.1518 h -0.1814"
         id="path104008" />
      <path
         d="m 143.4164,39.1518 -0.121,0.0604"
         id="path104010" />
      <path
         d="m 143.2954,39.2122 -0.0605,0.0605"
         id="path104012" />
    </g>
  </g>
</svg>
