<?xml version="1.0" encoding="UTF-8" standalone="no"?>
<svg
   version="1.1"
   width="66.515175mm"
   height="25.7048mm"
   viewBox="0 0 66.515175 25.704799"
   id="svg188154"
   xmlns="http://www.w3.org/2000/svg"
   xmlns:svg="http://www.w3.org/2000/svg">
  <defs
     id="defs188158" />
  <title
     id="title187454">SVG Image created as trinamic-wiring-TMC51X0-description.svg date 2024/07/31 17:09:51 </title>
  <desc
     id="desc187456">Image generated by Eeschema-SVG </desc>
  <g
     style="fill:#000000;fill-opacity:1;stroke:#000000;stroke-linecap:round;stroke-linejoin:round;stroke-opacity:1"
     id="g187458"
     transform="translate(-107.06842,-78.5876)" />
  <g
     style="fill:#000000;fill-opacity:0;stroke:#000000;stroke-width:0.1524;stroke-linecap:round;stroke-linejoin:round;stroke-opacity:1"
     id="g187460"
     transform="translate(-107.06842,-78.5876)" />
  <g
     style="fill:#000000;fill-opacity:0;stroke:#000000;stroke-width:0.1588;stroke-linecap:round;stroke-linejoin:round;stroke-opacity:1"
     id="g187462"
     transform="translate(-107.06842,-78.5876)" />
  <g
     style="fill:#000000;fill-opacity:0;stroke:#000000;stroke-width:0.3048;stroke-linecap:round;stroke-linejoin:round;stroke-opacity:1"
     id="g187464"
     transform="translate(-107.06842,-78.5876)" />
  <g
     style="fill:#000000;fill-opacity:0;stroke:#000000;stroke-width:0.1588;stroke-linecap:round;stroke-linejoin:round;stroke-opacity:1"
     id="g187466"
     transform="translate(-107.06842,-78.5876)" />
  <g
     style="fill:#000000;fill-opacity:0;stroke:#000000;stroke-width:0.3048;stroke-linecap:round;stroke-linejoin:round;stroke-opacity:1"
     id="g187468"
     transform="translate(-107.06842,-78.5876)" />
  <g
     style="fill:#000000;fill-opacity:0;stroke:#000000;stroke-width:0.1588;stroke-linecap:round;stroke-linejoin:round;stroke-opacity:1"
     id="g187470"
     transform="translate(-107.06842,-78.5876)" />
  <g
     style="fill:#000000;fill-opacity:0;stroke:#000000;stroke-width:0.3048;stroke-linecap:round;stroke-linejoin:round;stroke-opacity:1"
     id="g187472"
     transform="translate(-107.06842,-78.5876)" />
  <g
     style="fill:#000000;fill-opacity:0;stroke:#000000;stroke-width:0.1588;stroke-linecap:round;stroke-linejoin:round;stroke-opacity:1"
     id="g187474"
     transform="translate(-107.06842,-78.5876)" />
  <g
     style="fill:#000000;fill-opacity:0;stroke:#000000;stroke-width:0.3048;stroke-linecap:round;stroke-linejoin:round;stroke-opacity:1"
     id="g187476"
     transform="translate(-107.06842,-78.5876)" />
  <g
     style="fill:#000000;fill-opacity:0;stroke:#000000;stroke-width:0.1588;stroke-linecap:round;stroke-linejoin:round;stroke-opacity:1"
     id="g187478"
     transform="translate(-107.06842,-78.5876)" />
  <g
     style="fill:#000000;fill-opacity:0;stroke:#000000;stroke-width:0.3048;stroke-linecap:round;stroke-linejoin:round;stroke-opacity:1"
     id="g187480"
     transform="translate(-107.06842,-78.5876)" />
  <g
     style="fill:#000000;fill-opacity:0;stroke:#000000;stroke-width:0.1588;stroke-linecap:round;stroke-linejoin:round;stroke-opacity:1"
     id="g187482"
     transform="translate(-107.06842,-78.5876)" />
  <g
     style="fill:#000000;fill-opacity:0;stroke:#000000;stroke-width:0.3048;stroke-linecap:round;stroke-linejoin:round;stroke-opacity:1"
     id="g187484"
     transform="translate(-107.06842,-78.5876)" />
  <g
     style="fill:#000000;fill-opacity:0;stroke:#000000;stroke-width:0.1588;stroke-linecap:round;stroke-linejoin:round;stroke-opacity:1"
     id="g187486"
     transform="translate(-107.06842,-78.5876)" />
  <g
     style="fill:#000000;fill-opacity:0;stroke:#000000;stroke-width:0.3048;stroke-linecap:round;stroke-linejoin:round;stroke-opacity:1"
     id="g187488"
     transform="translate(-107.06842,-78.5876)" />
  <g
     style="fill:#000000;fill-opacity:0;stroke:#000000;stroke-width:0.1588;stroke-linecap:round;stroke-linejoin:round;stroke-opacity:1"
     id="g187490"
     transform="translate(-107.06842,-78.5876)" />
  <g
     style="fill:#000000;fill-opacity:0;stroke:#000000;stroke-width:0.3048;stroke-linecap:round;stroke-linejoin:round;stroke-opacity:1"
     id="g187492"
     transform="translate(-107.06842,-78.5876)" />
  <g
     style="fill:#000000;fill-opacity:0;stroke:#000000;stroke-width:0.1588;stroke-linecap:round;stroke-linejoin:round;stroke-opacity:1"
     id="g187494"
     transform="translate(-107.06842,-78.5876)" />
  <g
     style="fill:#000000;fill-opacity:0;stroke:#000000;stroke-width:0.3048;stroke-linecap:round;stroke-linejoin:round;stroke-opacity:1"
     id="g187496"
     transform="translate(-107.06842,-78.5876)" />
  <g
     style="fill:#000000;fill-opacity:0;stroke:#000000;stroke-width:0.1524;stroke-linecap:round;stroke-linejoin:round;stroke-opacity:1"
     id="g187540"
     transform="translate(-107.06842,-78.5876)">
    <g
       id="g187498" />
    <g
       style="fill:#586e75;fill-opacity:0;stroke:#586e75;stroke-width:0.1524;stroke-linecap:round;stroke-linejoin:round;stroke-opacity:1"
       id="g187500" />
    <g
       style="fill:#586e75;fill-opacity:0;stroke:#586e75;stroke-width:0.3048;stroke-linecap:round;stroke-linejoin:round;stroke-opacity:1"
       id="g187538">
      <path
         style="fill:none;fill-opacity:0;stroke:#586e75;stroke-width:0.3048;stroke-linecap:round;stroke-linejoin:round;stroke-opacity:1"
         d="m 168.91,89.408 v -3.81 l 1.27,2.54 1.27,-2.54 v 3.81"
         id="path187502" />
      <path
         d="m 165.735,90.17 a 0.635,0.635 0 0 0 0,-1.27"
         id="path187504" />
      <path
         d="m 165.735,88.9 a 0.635,0.635 0 0 0 0,-1.27"
         id="path187506" />
      <path
         d="m 165.735,87.63 a 0.635,0.635 0 0 0 0,-1.27"
         id="path187508" />
      <path
         d="m 165.735,86.36 a 0.635,0.635 0 0 0 0,-1.27"
         id="path187510" />
      <path
         d="m 168.91,92.075 a 0.635,0.635 0 0 0 -1.27,0"
         id="path187512" />
      <path
         d="m 170.18,92.075 a 0.635,0.635 0 0 0 -1.27,0"
         id="path187514" />
      <path
         style="fill:none;fill-opacity:0;stroke:#586e75;stroke-width:0.3048;stroke-linecap:round;stroke-linejoin:round;stroke-opacity:1"
         d="m 165.1,90.17 h 0.635"
         id="path187516" />
      <path
         style="fill:none;fill-opacity:0;stroke:#586e75;stroke-width:0.3048;stroke-linecap:round;stroke-linejoin:round;stroke-opacity:1"
         d="m 165.1,85.09 h 0.635"
         id="path187518" />
      <path
         style="fill:none;fill-opacity:0;stroke:#586e75;stroke-width:0.3048;stroke-linecap:round;stroke-linejoin:round;stroke-opacity:1"
         d="M 167.64,92.71 V 92.075"
         id="path187520" />
      <path
         style="fill:none;fill-opacity:0;stroke:#586e75;stroke-width:0.3048;stroke-linecap:round;stroke-linejoin:round;stroke-opacity:1"
         d="M 172.72,92.71 V 92.075"
         id="path187522" />
      <circle
         cx="170.17999"
         cy="87.629997"
         r="3.2512"
         id="circle187524" />
      <path
         d="m 171.45,92.075 a 0.635,0.635 0 0 0 -1.27,0"
         id="path187526" />
      <path
         d="m 172.72,92.075 a 0.635,0.635 0 0 0 -1.27,0"
         id="path187528" />
      <path
         d="m 165.1,85.09 h -3.81"
         id="path187530" />
      <path
         d="m 165.1,90.17 h -3.81"
         id="path187532" />
      <path
         d="m 167.64,92.71 v 3.81"
         id="path187534" />
      <path
         d="m 172.72,92.71 v 3.81"
         id="path187536" />
    </g>
  </g>
  <g
     style="fill:#586e75;fill-opacity:0;stroke:#586e75;stroke-width:0.1524;stroke-linecap:round;stroke-linejoin:round;stroke-opacity:1"
     id="g187696"
     transform="translate(-107.06842,-78.5876)">
    <g
       id="g187542" />
    <g
       style="fill:#586e75;fill-opacity:0;stroke:#586e75;stroke-width:0.3048;stroke-linecap:round;stroke-linejoin:round;stroke-opacity:1"
       id="g187546">
      <path
         style="fill:none;fill-opacity:0;stroke:#586e75;stroke-width:0.3048;stroke-linecap:round;stroke-linejoin:round;stroke-opacity:1"
         d="m 142.24,97.79 v 6.35 h -20.32 v -25.4 h 20.32 v 6.35"
         id="path187544" />
    </g>
    <g
       style="fill:#586e75;fill-opacity:0;stroke:#586e75;stroke-width:0.3048;stroke-linecap:round;stroke-linejoin:round;stroke-dasharray:3.3528, 1.2192;stroke-opacity:1"
       id="g187550">
      <rect
         x="139.7"
         y="85.089996"
         width="5.0799999"
         height="12.7"
         rx="0.000000"
         id="rect187548" />
    </g>
    <g
       style="fill:#586e75;fill-opacity:0;stroke:#586e75;stroke-width:0.3048;stroke-linecap:round;stroke-linejoin:round;stroke-opacity:1"
       id="g187694">
      <text
         x="132.08"
         y="92.074997"
         textLength="9.1873999"
         font-size="1.6933px"
         lengthAdjust="spacingAndGlyphs"
         text-anchor="middle"
         opacity="0"
         id="text187552">TMC51X0</text>
      <g
         class="stroked-text"
         id="g187682">
        <desc
           id="desc187554">TMC51X0</desc>
        <path
           d="m 127.9374,90.7416 h 0.7257"
           id="path187556" />
        <path
           d="m 128.3003,92.0116 v -1.27"
           id="path187558" />
        <path
           d="m 129.0864,92.0116 v -1.27"
           id="path187560" />
        <path
           d="m 129.0864,90.7416 0.4234,0.9072"
           id="path187562" />
        <path
           d="m 129.5098,91.6488 0.4233,-0.9072"
           id="path187564" />
        <path
           d="m 129.9331,90.7416 v 1.27"
           id="path187566" />
        <path
           d="m 131.2635,91.8907 -0.0604,0.0605"
           id="path187568" />
        <path
           d="m 131.2031,91.9512 -0.1815,0.0604"
           id="path187570" />
        <path
           d="m 131.0216,92.0116 h -0.1209"
           id="path187572" />
        <path
           d="m 130.9007,92.0116 -0.1814,-0.0604"
           id="path187574" />
        <path
           d="m 130.7193,91.9512 -0.121,-0.121"
           id="path187576" />
        <path
           d="m 130.5983,91.8302 -0.0605,-0.121"
           id="path187578" />
        <path
           d="m 130.5378,91.7092 -0.0604,-0.2419"
           id="path187580" />
        <path
           d="M 130.4774,91.4673 V 91.2859"
           id="path187582" />
        <path
           d="m 130.4774,91.2859 0.0604,-0.2419"
           id="path187584" />
        <path
           d="m 130.5378,91.044 0.0605,-0.1209"
           id="path187586" />
        <path
           d="m 130.5983,90.9231 0.121,-0.121"
           id="path187588" />
        <path
           d="m 130.7193,90.8021 0.1814,-0.0605"
           id="path187590" />
        <path
           d="m 130.9007,90.7416 h 0.1209"
           id="path187592" />
        <path
           d="m 131.0216,90.7416 0.1815,0.0605"
           id="path187594" />
        <path
           d="m 131.2031,90.8021 0.0604,0.0605"
           id="path187596" />
        <path
           d="m 132.4126,90.7416 h -0.6048"
           id="path187598" />
        <path
           d="m 131.8078,90.7416 -0.0604,0.6048"
           id="path187600" />
        <path
           d="m 131.7474,91.3464 0.0604,-0.0605"
           id="path187602" />
        <path
           d="m 131.8078,91.2859 0.121,-0.0605"
           id="path187604" />
        <path
           d="m 131.9288,91.2254 h 0.3024"
           id="path187606" />
        <path
           d="m 132.2312,91.2254 0.1209,0.0605"
           id="path187608" />
        <path
           d="m 132.3521,91.2859 0.0605,0.0605"
           id="path187610" />
        <path
           d="m 132.4126,91.3464 0.0605,0.1209"
           id="path187612" />
        <path
           d="m 132.4731,91.4673 v 0.3024"
           id="path187614" />
        <path
           d="m 132.4731,91.7697 -0.0605,0.121"
           id="path187616" />
        <path
           d="m 132.4126,91.8907 -0.0605,0.0605"
           id="path187618" />
        <path
           d="m 132.3521,91.9512 -0.1209,0.0604"
           id="path187620" />
        <path
           d="m 132.2312,92.0116 h -0.3024"
           id="path187622" />
        <path
           d="m 131.9288,92.0116 -0.121,-0.0604"
           id="path187624" />
        <path
           d="m 131.8078,91.9512 -0.0604,-0.0605"
           id="path187626" />
        <path
           d="m 133.6826,92.0116 h -0.7257"
           id="path187628" />
        <path
           d="m 133.3197,92.0116 v -1.27"
           id="path187630" />
        <path
           d="m 133.3197,90.7416 -0.1209,0.1815"
           id="path187632" />
        <path
           d="m 133.1988,90.9231 -0.121,0.1209"
           id="path187634" />
        <path
           d="m 133.0778,91.044 -0.1209,0.0605"
           id="path187636" />
        <path
           d="m 134.1059,90.7416 0.8466,1.27"
           id="path187638" />
        <path
           d="m 134.9525,90.7416 -0.8466,1.27"
           id="path187640" />
        <path
           d="m 135.6782,90.7416 h 0.121"
           id="path187642" />
        <path
           d="m 135.7992,90.7416 0.1209,0.0605"
           id="path187644" />
        <path
           d="m 135.9201,90.8021 0.0605,0.0605"
           id="path187646" />
        <path
           d="m 135.9806,90.8626 0.0605,0.1209"
           id="path187648" />
        <path
           d="m 136.0411,90.9835 0.0605,0.2419"
           id="path187650" />
        <path
           d="m 136.1016,91.2254 v 0.3024"
           id="path187652" />
        <path
           d="m 136.1016,91.5278 -0.0605,0.2419"
           id="path187654" />
        <path
           d="m 136.0411,91.7697 -0.0605,0.121"
           id="path187656" />
        <path
           d="m 135.9806,91.8907 -0.0605,0.0605"
           id="path187658" />
        <path
           d="m 135.9201,91.9512 -0.1209,0.0604"
           id="path187660" />
        <path
           d="m 135.7992,92.0116 h -0.121"
           id="path187662" />
        <path
           d="m 135.6782,92.0116 -0.1209,-0.0604"
           id="path187664" />
        <path
           d="m 135.5573,91.9512 -0.0605,-0.0605"
           id="path187666" />
        <path
           d="m 135.4968,91.8907 -0.0605,-0.121"
           id="path187668" />
        <path
           d="m 135.4363,91.7697 -0.0604,-0.2419"
           id="path187670" />
        <path
           d="M 135.3759,91.5278 V 91.2254"
           id="path187672" />
        <path
           d="m 135.3759,91.2254 0.0604,-0.2419"
           id="path187674" />
        <path
           d="m 135.4363,90.9835 0.0605,-0.1209"
           id="path187676" />
        <path
           d="m 135.4968,90.8626 0.0605,-0.0605"
           id="path187678" />
        <path
           d="m 135.5573,90.8021 0.1209,-0.0605"
           id="path187680" />
      </g>
      <path
         d="m 121.92,81.28 h -2.54"
         id="path187684" />
      <path
         d="m 144.78,86.36 h 2.54"
         id="path187686" />
      <path
         d="m 144.78,88.9 h 2.54"
         id="path187688" />
      <path
         d="m 144.78,93.98 h 2.54"
         id="path187690" />
      <path
         d="m 144.78,96.52 h 2.54"
         id="path187692" />
    </g>
  </g>
  <g
     style="fill:#586e75;fill-opacity:0;stroke:#586e75;stroke-width:0.1588;stroke-linecap:round;stroke-linejoin:round;stroke-opacity:1"
     id="g187698"
     transform="translate(-107.06842,-78.5876)" />
  <g
     style="fill:#586e75;fill-opacity:0;stroke:#586e75;stroke-width:0.3048;stroke-linecap:round;stroke-linejoin:round;stroke-opacity:1"
     id="g187700"
     transform="translate(-107.06842,-78.5876)" />
  <g
     style="fill:#2aa198;fill-opacity:0;stroke:#2aa198;stroke-width:0.3048;stroke-linecap:round;stroke-linejoin:round;stroke-opacity:1"
     id="g187718"
     transform="translate(-107.06842,-78.5876)">
    <text
       x="158.75"
       y="84.7407"
       textLength="3.3213999"
       font-size="1.6933px"
       lengthAdjust="spacingAndGlyphs"
       text-anchor="end"
       opacity="0"
       id="text187702">A+</text>
    <g
       class="stroked-text"
       id="g187716">
      <desc
         id="desc187704">A+</desc>
      <path
         d="m 156.1304,84.2065 h 0.6047"
         id="path187706" />
      <path
         d="m 156.0094,84.5693 0.4233,-1.27"
         id="path187708" />
      <path
         d="m 156.4327,83.2993 0.4234,1.27"
         id="path187710" />
      <path
         d="m 157.2794,84.0855 h 0.9677"
         id="path187712" />
      <path
         d="M 157.7632,84.5693 V 83.6017"
         id="path187714" />
    </g>
  </g>
  <g
     style="fill:#2aa198;fill-opacity:0;stroke:#2aa198;stroke-width:0.1588;stroke-linecap:round;stroke-linejoin:round;stroke-opacity:1"
     id="g187720"
     transform="translate(-107.06842,-78.5876)" />
  <g
     style="fill:#2aa198;fill-opacity:0;stroke:#2aa198;stroke-width:0.3048;stroke-linecap:round;stroke-linejoin:round;stroke-opacity:1"
     id="g187768"
     transform="translate(-107.06842,-78.5876)">
    <g
       transform="rotate(-90,172.3707,99.06)"
       id="g187724">
      <text
         x="172.3707"
         y="99.059998"
         textLength="3.5028"
         font-size="1.6933px"
         lengthAdjust="spacingAndGlyphs"
         text-anchor="end"
         opacity="0"
         id="text187722">B-</text>
    </g>
    <g
       class="stroked-text"
       id="g187766">
      <desc
         id="desc187726">B-</desc>
      <path
         d="m 171.5341,101.3771 0.0605,-0.1814"
         id="path187728" />
      <path
         d="m 171.5946,101.1957 0.0604,-0.0605"
         id="path187730" />
      <path
         d="m 171.655,101.1352 0.121,-0.0604"
         id="path187732" />
      <path
         d="m 171.776,101.0748 h 0.1814"
         id="path187734" />
      <path
         d="m 171.9574,101.0748 0.121,0.0604"
         id="path187736" />
      <path
         d="m 172.0784,101.1352 0.0605,0.0605"
         id="path187738" />
      <path
         d="m 172.1389,101.1957 0.0604,0.121"
         id="path187740" />
      <path
         d="m 172.1993,101.3167 v 0.4838"
         id="path187742" />
      <path
         d="m 172.1993,101.8005 h -1.27"
         id="path187744" />
      <path
         d="m 170.9293,101.8005 v -0.4234"
         id="path187746" />
      <path
         d="m 170.9293,101.3771 0.0605,-0.1209"
         id="path187748" />
      <path
         d="m 170.9898,101.2562 0.0605,-0.0605"
         id="path187750" />
      <path
         d="m 171.0503,101.1957 0.1209,-0.0605"
         id="path187752" />
      <path
         d="m 171.1712,101.1352 h 0.121"
         id="path187754" />
      <path
         d="m 171.2922,101.1352 0.1209,0.0605"
         id="path187756" />
      <path
         d="m 171.4131,101.1957 0.0605,0.0605"
         id="path187758" />
      <path
         d="m 171.4736,101.2562 0.0605,0.1209"
         id="path187760" />
      <path
         d="m 171.5341,101.3771 v 0.4234"
         id="path187762" />
      <path
         d="M 171.7155,100.5305 V 99.5629"
         id="path187764" />
    </g>
  </g>
  <g
     style="fill:#2aa198;fill-opacity:0;stroke:#2aa198;stroke-width:0.1588;stroke-linecap:round;stroke-linejoin:round;stroke-opacity:1"
     id="g187770"
     transform="translate(-107.06842,-78.5876)" />
  <g
     style="fill:#2aa198;fill-opacity:0;stroke:#2aa198;stroke-width:0.3048;stroke-linecap:round;stroke-linejoin:round;stroke-opacity:1"
     id="g187820"
     transform="translate(-107.06842,-78.5876)">
    <g
       transform="rotate(-90,167.2907,99.06)"
       id="g187774">
      <text
         x="167.2907"
         y="99.059998"
         textLength="3.5028"
         font-size="1.6933px"
         lengthAdjust="spacingAndGlyphs"
         text-anchor="end"
         opacity="0"
         id="text187772">B+</text>
    </g>
    <g
       class="stroked-text"
       id="g187818">
      <desc
         id="desc187776">B+</desc>
      <path
         d="m 166.4541,101.3771 0.0605,-0.1814"
         id="path187778" />
      <path
         d="m 166.5146,101.1957 0.0604,-0.0605"
         id="path187780" />
      <path
         d="m 166.575,101.1352 0.121,-0.0604"
         id="path187782" />
      <path
         d="m 166.696,101.0748 h 0.1814"
         id="path187784" />
      <path
         d="m 166.8774,101.0748 0.121,0.0604"
         id="path187786" />
      <path
         d="m 166.9984,101.1352 0.0605,0.0605"
         id="path187788" />
      <path
         d="m 167.0589,101.1957 0.0604,0.121"
         id="path187790" />
      <path
         d="m 167.1193,101.3167 v 0.4838"
         id="path187792" />
      <path
         d="m 167.1193,101.8005 h -1.27"
         id="path187794" />
      <path
         d="m 165.8493,101.8005 v -0.4234"
         id="path187796" />
      <path
         d="m 165.8493,101.3771 0.0605,-0.1209"
         id="path187798" />
      <path
         d="m 165.9098,101.2562 0.0605,-0.0605"
         id="path187800" />
      <path
         d="m 165.9703,101.1957 0.1209,-0.0605"
         id="path187802" />
      <path
         d="m 166.0912,101.1352 h 0.121"
         id="path187804" />
      <path
         d="m 166.2122,101.1352 0.1209,0.0605"
         id="path187806" />
      <path
         d="m 166.3331,101.1957 0.0605,0.0605"
         id="path187808" />
      <path
         d="m 166.3936,101.2562 0.0605,0.1209"
         id="path187810" />
      <path
         d="m 166.4541,101.3771 v 0.4234"
         id="path187812" />
      <path
         d="M 166.6355,100.5305 V 99.5629"
         id="path187814" />
      <path
         d="m 167.1193,100.0467 h -0.9676"
         id="path187816" />
    </g>
  </g>
  <g
     style="fill:#2aa198;fill-opacity:0;stroke:#2aa198;stroke-width:0.1588;stroke-linecap:round;stroke-linejoin:round;stroke-opacity:1"
     id="g187822"
     transform="translate(-107.06842,-78.5876)" />
  <g
     style="fill:#2aa198;fill-opacity:0;stroke:#2aa198;stroke-width:0.3048;stroke-linecap:round;stroke-linejoin:round;stroke-opacity:1"
     id="g187838"
     transform="translate(-107.06842,-78.5876)">
    <text
       x="149.86"
       y="88.550697"
       textLength="3.3213999"
       font-size="1.6933px"
       lengthAdjust="spacingAndGlyphs"
       text-anchor="start"
       opacity="0"
       id="text187824">A-</text>
    <g
       class="stroked-text"
       id="g187836">
      <desc
         id="desc187826">A-</desc>
      <path
         d="m 150.3024,88.0165 h 0.6047"
         id="path187828" />
      <path
         d="m 150.1814,88.3793 0.4233,-1.27"
         id="path187830" />
      <path
         d="m 150.6047,87.1093 0.4234,1.27"
         id="path187832" />
      <path
         d="m 151.4514,87.8955 h 0.9677"
         id="path187834" />
    </g>
  </g>
  <g
     style="fill:#2aa198;fill-opacity:0;stroke:#2aa198;stroke-width:0.1588;stroke-linecap:round;stroke-linejoin:round;stroke-opacity:1"
     id="g187840"
     transform="translate(-107.06842,-78.5876)" />
  <g
     style="fill:#2aa198;fill-opacity:0;stroke:#2aa198;stroke-width:0.3048;stroke-linecap:round;stroke-linejoin:round;stroke-opacity:1"
     id="g187888"
     transform="translate(-107.06842,-78.5876)">
    <text
       x="149.86"
       y="93.630699"
       textLength="3.5028"
       font-size="1.6933px"
       lengthAdjust="spacingAndGlyphs"
       text-anchor="start"
       opacity="0"
       id="text187842">B+</text>
    <g
       class="stroked-text"
       id="g187886">
      <desc
         id="desc187844">B+</desc>
      <path
         d="m 150.7862,92.7941 0.1814,0.0605"
         id="path187846" />
      <path
         d="m 150.9676,92.8546 0.0605,0.0604"
         id="path187848" />
      <path
         d="m 151.0281,92.915 0.0604,0.121"
         id="path187850" />
      <path
         d="m 151.0885,93.036 v 0.1814"
         id="path187852" />
      <path
         d="m 151.0885,93.2174 -0.0604,0.121"
         id="path187854" />
      <path
         d="m 151.0281,93.3384 -0.0605,0.0605"
         id="path187856" />
      <path
         d="m 150.9676,93.3989 -0.121,0.0604"
         id="path187858" />
      <path
         d="m 150.8466,93.4593 h -0.4838"
         id="path187860" />
      <path
         d="m 150.3628,93.4593 v -1.27"
         id="path187862" />
      <path
         d="m 150.3628,92.1893 h 0.4234"
         id="path187864" />
      <path
         d="m 150.7862,92.1893 0.1209,0.0605"
         id="path187866" />
      <path
         d="m 150.9071,92.2498 0.0605,0.0605"
         id="path187868" />
      <path
         d="m 150.9676,92.3103 0.0605,0.1209"
         id="path187870" />
      <path
         d="m 151.0281,92.4312 v 0.121"
         id="path187872" />
      <path
         d="m 151.0281,92.5522 -0.0605,0.1209"
         id="path187874" />
      <path
         d="m 150.9676,92.6731 -0.0605,0.0605"
         id="path187876" />
      <path
         d="m 150.9071,92.7336 -0.1209,0.0605"
         id="path187878" />
      <path
         d="m 150.7862,92.7941 h -0.4234"
         id="path187880" />
      <path
         d="m 151.6328,92.9755 h 0.9677"
         id="path187882" />
      <path
         d="M 152.1166,93.4593 V 92.4917"
         id="path187884" />
    </g>
  </g>
  <g
     style="fill:#2aa198;fill-opacity:0;stroke:#2aa198;stroke-width:0.1588;stroke-linecap:round;stroke-linejoin:round;stroke-opacity:1"
     id="g187890"
     transform="translate(-107.06842,-78.5876)" />
  <g
     style="fill:#2aa198;fill-opacity:0;stroke:#2aa198;stroke-width:0.3048;stroke-linecap:round;stroke-linejoin:round;stroke-opacity:1"
     id="g187908"
     transform="translate(-107.06842,-78.5876)">
    <text
       x="149.86"
       y="86.010696"
       textLength="3.3213999"
       font-size="1.6933px"
       lengthAdjust="spacingAndGlyphs"
       text-anchor="start"
       opacity="0"
       id="text187892">A+</text>
    <g
       class="stroked-text"
       id="g187906">
      <desc
         id="desc187894">A+</desc>
      <path
         d="m 150.3024,85.4765 h 0.6047"
         id="path187896" />
      <path
         d="m 150.1814,85.8393 0.4233,-1.27"
         id="path187898" />
      <path
         d="m 150.6047,84.5693 0.4234,1.27"
         id="path187900" />
      <path
         d="m 151.4514,85.3555 h 0.9677"
         id="path187902" />
      <path
         d="M 151.9352,85.8393 V 84.8717"
         id="path187904" />
    </g>
  </g>
  <g
     style="fill:#2aa198;fill-opacity:0;stroke:#2aa198;stroke-width:0.1588;stroke-linecap:round;stroke-linejoin:round;stroke-opacity:1"
     id="g187910"
     transform="translate(-107.06842,-78.5876)" />
  <g
     style="fill:#2aa198;fill-opacity:0;stroke:#2aa198;stroke-width:0.3048;stroke-linecap:round;stroke-linejoin:round;stroke-opacity:1"
     id="g187956"
     transform="translate(-107.06842,-78.5876)">
    <text
       x="149.86"
       y="96.1707"
       textLength="3.5028"
       font-size="1.6933px"
       lengthAdjust="spacingAndGlyphs"
       text-anchor="start"
       opacity="0"
       id="text187912">B-</text>
    <g
       class="stroked-text"
       id="g187954">
      <desc
         id="desc187914">B-</desc>
      <path
         d="m 150.7862,95.3341 0.1814,0.0605"
         id="path187916" />
      <path
         d="m 150.9676,95.3946 0.0605,0.0604"
         id="path187918" />
      <path
         d="m 151.0281,95.455 0.0604,0.121"
         id="path187920" />
      <path
         d="m 151.0885,95.576 v 0.1814"
         id="path187922" />
      <path
         d="m 151.0885,95.7574 -0.0604,0.121"
         id="path187924" />
      <path
         d="m 151.0281,95.8784 -0.0605,0.0605"
         id="path187926" />
      <path
         d="m 150.9676,95.9389 -0.121,0.0604"
         id="path187928" />
      <path
         d="m 150.8466,95.9993 h -0.4838"
         id="path187930" />
      <path
         d="m 150.3628,95.9993 v -1.27"
         id="path187932" />
      <path
         d="m 150.3628,94.7293 h 0.4234"
         id="path187934" />
      <path
         d="m 150.7862,94.7293 0.1209,0.0605"
         id="path187936" />
      <path
         d="m 150.9071,94.7898 0.0605,0.0605"
         id="path187938" />
      <path
         d="m 150.9676,94.8503 0.0605,0.1209"
         id="path187940" />
      <path
         d="m 151.0281,94.9712 v 0.121"
         id="path187942" />
      <path
         d="m 151.0281,95.0922 -0.0605,0.1209"
         id="path187944" />
      <path
         d="m 150.9676,95.2131 -0.0605,0.0605"
         id="path187946" />
      <path
         d="m 150.9071,95.2736 -0.1209,0.0605"
         id="path187948" />
      <path
         d="m 150.7862,95.3341 h -0.4234"
         id="path187950" />
      <path
         d="m 151.6328,95.5155 h 0.9677"
         id="path187952" />
    </g>
  </g>
  <g
     style="fill:#2aa198;fill-opacity:0;stroke:#2aa198;stroke-width:0.1588;stroke-linecap:round;stroke-linejoin:round;stroke-opacity:1"
     id="g187958"
     transform="translate(-107.06842,-78.5876)" />
  <g
     style="fill:#2aa198;fill-opacity:0;stroke:#2aa198;stroke-width:0.3048;stroke-linecap:round;stroke-linejoin:round;stroke-opacity:1"
     id="g187974"
     transform="translate(-107.06842,-78.5876)">
    <text
       x="158.75"
       y="89.820702"
       textLength="3.3213999"
       font-size="1.6933px"
       lengthAdjust="spacingAndGlyphs"
       text-anchor="end"
       opacity="0"
       id="text187960">A-</text>
    <g
       class="stroked-text"
       id="g187972">
      <desc
         id="desc187962">A-</desc>
      <path
         d="m 156.1304,89.2865 h 0.6047"
         id="path187964" />
      <path
         d="m 156.0094,89.6493 0.4233,-1.27"
         id="path187966" />
      <path
         d="m 156.4327,88.3793 0.4234,1.27"
         id="path187968" />
      <path
         d="m 157.2794,89.1655 h 0.9677"
         id="path187970" />
    </g>
  </g>
  <g
     style="fill:#2aa198;fill-opacity:0;stroke:#2aa198;stroke-width:0.1588;stroke-linecap:round;stroke-linejoin:round;stroke-opacity:1"
     id="g187976"
     transform="translate(-107.06842,-78.5876)" />
  <g
     style="fill:#2aa198;fill-opacity:0;stroke:#2aa198;stroke-width:0.3048;stroke-linecap:round;stroke-linejoin:round;stroke-opacity:1"
     id="g188096"
     transform="translate(-107.06842,-78.5876)">
    <text
       x="116.84"
       y="80.930702"
       textLength="9.7319002"
       font-size="1.6933px"
       lengthAdjust="spacingAndGlyphs"
       text-anchor="end"
       opacity="0"
       id="text187978">SPI/UART</text>
    <g
       class="stroked-text"
       id="g188094">
      <desc
         id="desc187980">SPI/UART</desc>
      <path
         d="m 107.8099,80.6989 0.1814,0.0604"
         id="path187982" />
      <path
         d="m 107.9913,80.7593 h 0.3024"
         id="path187984" />
      <path
         d="m 108.2937,80.7593 0.1209,-0.0604"
         id="path187986" />
      <path
         d="m 108.4146,80.6989 0.0605,-0.0605"
         id="path187988" />
      <path
         d="m 108.4751,80.6384 0.0605,-0.121"
         id="path187990" />
      <path
         d="M 108.5356,80.5174 V 80.3965"
         id="path187992" />
      <path
         d="m 108.5356,80.3965 -0.0605,-0.121"
         id="path187994" />
      <path
         d="M 108.4751,80.2755 108.4146,80.215"
         id="path187996" />
      <path
         d="m 108.4146,80.215 -0.1209,-0.0604"
         id="path187998" />
      <path
         d="m 108.2937,80.1546 -0.2419,-0.0605"
         id="path188000" />
      <path
         d="m 108.0518,80.0941 -0.121,-0.0605"
         id="path188002" />
      <path
         d="m 107.9308,80.0336 -0.0605,-0.0605"
         id="path188004" />
      <path
         d="m 107.8703,79.9731 -0.0604,-0.1209"
         id="path188006" />
      <path
         d="m 107.8099,79.8522 v -0.121"
         id="path188008" />
      <path
         d="m 107.8099,79.7312 0.0604,-0.1209"
         id="path188010" />
      <path
         d="m 107.8703,79.6103 0.0605,-0.0605"
         id="path188012" />
      <path
         d="m 107.9308,79.5498 0.121,-0.0605"
         id="path188014" />
      <path
         d="m 108.0518,79.4893 h 0.3023"
         id="path188016" />
      <path
         d="m 108.3541,79.4893 0.1815,0.0605"
         id="path188018" />
      <path
         d="m 109.0798,80.7593 v -1.27"
         id="path188020" />
      <path
         d="m 109.0798,79.4893 h 0.4838"
         id="path188022" />
      <path
         d="m 109.5636,79.4893 0.121,0.0605"
         id="path188024" />
      <path
         d="m 109.6846,79.5498 0.0605,0.0605"
         id="path188026" />
      <path
         d="m 109.7451,79.6103 0.0604,0.1209"
         id="path188028" />
      <path
         d="m 109.8055,79.7312 v 0.1815"
         id="path188030" />
      <path
         d="m 109.8055,79.9127 -0.0604,0.1209"
         id="path188032" />
      <path
         d="m 109.7451,80.0336 -0.0605,0.0605"
         id="path188034" />
      <path
         d="m 109.6846,80.0941 -0.121,0.0605"
         id="path188036" />
      <path
         d="m 109.5636,80.1546 h -0.4838"
         id="path188038" />
      <path
         d="m 110.3498,80.7593 v -1.27"
         id="path188040" />
      <path
         d="m 111.8618,79.4289 -1.0886,1.6328"
         id="path188042" />
      <path
         d="m 112.2851,79.4893 v 1.0281"
         id="path188044" />
      <path
         d="m 112.2851,80.5174 0.0605,0.121"
         id="path188046" />
      <path
         d="m 112.3456,80.6384 0.0605,0.0605"
         id="path188048" />
      <path
         d="m 112.4061,80.6989 0.1209,0.0604"
         id="path188050" />
      <path
         d="m 112.527,80.7593 h 0.2419"
         id="path188052" />
      <path
         d="m 112.7689,80.7593 0.121,-0.0604"
         id="path188054" />
      <path
         d="m 112.8899,80.6989 0.0605,-0.0605"
         id="path188056" />
      <path
         d="m 112.9504,80.6384 0.0604,-0.121"
         id="path188058" />
      <path
         d="M 113.0108,80.5174 V 79.4893"
         id="path188060" />
      <path
         d="m 113.5552,80.3965 h 0.6047"
         id="path188062" />
      <path
         d="m 113.4342,80.7593 0.4233,-1.27"
         id="path188064" />
      <path
         d="m 113.8575,79.4893 0.4234,1.27"
         id="path188066" />
      <path
         d="m 115.4299,80.7593 -0.4233,-0.6047"
         id="path188068" />
      <path
         d="m 114.7042,80.7593 v -1.27"
         id="path188070" />
      <path
         d="m 114.7042,79.4893 h 0.4838"
         id="path188072" />
      <path
         d="m 115.188,79.4893 0.121,0.0605"
         id="path188074" />
      <path
         d="m 115.309,79.5498 0.0605,0.0605"
         id="path188076" />
      <path
         d="m 115.3695,79.6103 0.0604,0.1209"
         id="path188078" />
      <path
         d="m 115.4299,79.7312 v 0.1815"
         id="path188080" />
      <path
         d="m 115.4299,79.9127 -0.0604,0.1209"
         id="path188082" />
      <path
         d="m 115.3695,80.0336 -0.0605,0.0605"
         id="path188084" />
      <path
         d="m 115.309,80.0941 -0.121,0.0605"
         id="path188086" />
      <path
         d="m 115.188,80.1546 h -0.4838"
         id="path188088" />
      <path
         d="m 115.7928,79.4893 h 0.7257"
         id="path188090" />
      <path
         d="m 116.1557,80.7593 v -1.27"
         id="path188092" />
    </g>
  </g>
  <g
     style="fill:#2aa198;fill-opacity:0;stroke:#2aa198;stroke-width:0.1524;stroke-linecap:round;stroke-linejoin:round;stroke-opacity:1"
     id="g188098"
     transform="translate(-107.06842,-78.5876)" />
  <g
     style="fill:#859900;fill-opacity:0;stroke:#859900;stroke-width:0.1524;stroke-linecap:round;stroke-linejoin:round;stroke-opacity:1"
     id="g188100"
     transform="translate(-107.06842,-78.5876)" />
  <g
     style="fill:#859900;fill-opacity:0;stroke:#859900;stroke-width:0.3048;stroke-linecap:round;stroke-linejoin:round;stroke-opacity:1"
     id="g188104"
     transform="translate(-107.06842,-78.5876)">
    <path
       d="m 149.86,93.98 h -2.54"
       id="path188102" />
  </g>
  <g
     style="fill:#859900;fill-opacity:0;stroke:#859900;stroke-width:0.1524;stroke-linecap:round;stroke-linejoin:round;stroke-opacity:1"
     id="g188106"
     transform="translate(-107.06842,-78.5876)" />
  <g
     style="fill:#859900;fill-opacity:0;stroke:#859900;stroke-width:0.3048;stroke-linecap:round;stroke-linejoin:round;stroke-opacity:1"
     id="g188110"
     transform="translate(-107.06842,-78.5876)">
    <path
       d="m 149.86,96.52 h -2.54"
       id="path188108" />
  </g>
  <g
     style="fill:#859900;fill-opacity:0;stroke:#859900;stroke-width:0.1524;stroke-linecap:round;stroke-linejoin:round;stroke-opacity:1"
     id="g188112"
     transform="translate(-107.06842,-78.5876)" />
  <g
     style="fill:#859900;fill-opacity:0;stroke:#859900;stroke-width:0.3048;stroke-linecap:round;stroke-linejoin:round;stroke-opacity:1"
     id="g188116"
     transform="translate(-107.06842,-78.5876)">
    <path
       d="m 158.75,85.09 h 2.54"
       id="path188114" />
  </g>
  <g
     style="fill:#859900;fill-opacity:0;stroke:#859900;stroke-width:0.1524;stroke-linecap:round;stroke-linejoin:round;stroke-opacity:1"
     id="g188118"
     transform="translate(-107.06842,-78.5876)" />
  <g
     style="fill:#859900;fill-opacity:0;stroke:#859900;stroke-width:0.3048;stroke-linecap:round;stroke-linejoin:round;stroke-opacity:1"
     id="g188122"
     transform="translate(-107.06842,-78.5876)">
    <path
       d="m 158.75,90.17 h 2.54"
       id="path188120" />
  </g>
  <g
     style="fill:#859900;fill-opacity:0;stroke:#859900;stroke-width:0.1524;stroke-linecap:round;stroke-linejoin:round;stroke-opacity:1"
     id="g188124"
     transform="translate(-107.06842,-78.5876)" />
  <g
     style="fill:#859900;fill-opacity:0;stroke:#859900;stroke-width:0.3048;stroke-linecap:round;stroke-linejoin:round;stroke-opacity:1"
     id="g188128"
     transform="translate(-107.06842,-78.5876)">
    <path
       d="M 172.72,99.06 V 96.52"
       id="path188126" />
  </g>
  <g
     style="fill:#859900;fill-opacity:0;stroke:#859900;stroke-width:0.1524;stroke-linecap:round;stroke-linejoin:round;stroke-opacity:1"
     id="g188130"
     transform="translate(-107.06842,-78.5876)" />
  <g
     style="fill:#859900;fill-opacity:0;stroke:#859900;stroke-width:0.3048;stroke-linecap:round;stroke-linejoin:round;stroke-opacity:1"
     id="g188134"
     transform="translate(-107.06842,-78.5876)">
    <path
       d="M 167.64,99.06 V 96.52"
       id="path188132" />
  </g>
  <g
     style="fill:#859900;fill-opacity:0;stroke:#859900;stroke-width:0.1524;stroke-linecap:round;stroke-linejoin:round;stroke-opacity:1"
     id="g188136"
     transform="translate(-107.06842,-78.5876)" />
  <g
     style="fill:#859900;fill-opacity:0;stroke:#859900;stroke-width:0.3048;stroke-linecap:round;stroke-linejoin:round;stroke-opacity:1"
     id="g188140"
     transform="translate(-107.06842,-78.5876)">
    <path
       d="m 149.86,88.9 h -2.54"
       id="path188138" />
  </g>
  <g
     style="fill:#859900;fill-opacity:0;stroke:#859900;stroke-width:0.1524;stroke-linecap:round;stroke-linejoin:round;stroke-opacity:1"
     id="g188142"
     transform="translate(-107.06842,-78.5876)" />
  <g
     style="fill:#859900;fill-opacity:0;stroke:#859900;stroke-width:0.3048;stroke-linecap:round;stroke-linejoin:round;stroke-opacity:1"
     id="g188146"
     transform="translate(-107.06842,-78.5876)">
    <path
       d="m 149.86,86.36 h -2.54"
       id="path188144" />
  </g>
  <g
     style="fill:#859900;fill-opacity:0;stroke:#859900;stroke-width:0.1524;stroke-linecap:round;stroke-linejoin:round;stroke-opacity:1"
     id="g188148"
     transform="translate(-107.06842,-78.5876)" />
  <g
     style="fill:#859900;fill-opacity:0;stroke:#859900;stroke-width:0.3048;stroke-linecap:round;stroke-linejoin:round;stroke-opacity:1"
     id="g188152"
     transform="translate(-107.06842,-78.5876)">
    <path
       d="m 116.84,81.28 h 2.54"
       id="path188150" />
  </g>
</svg>
