<?xml version="1.0" encoding="UTF-8" standalone="no"?>
<svg
   version="1.1"
   width="71.62001mm"
   height="25.9mm"
   viewBox="0 0 71.620011 25.899999"
   id="svg120833"
   xmlns="http://www.w3.org/2000/svg"
   xmlns:svg="http://www.w3.org/2000/svg">
  <defs
     id="defs120837" />
  <title
     id="title120233">SVG Image created as trinamic-wiring-TMC2209-unidirectional.svg date 2024/08/01 11:44:07 </title>
  <desc
     id="desc120235">Image generated by Eeschema-SVG </desc>
  <g
     style="fill:#000000;fill-opacity:1;stroke:#000000;stroke-linecap:round;stroke-linejoin:round;stroke-opacity:1"
     id="g120237"
     transform="translate(-96.269997,-82.300003)" />
  <g
     style="fill:#000000;fill-opacity:0;stroke:#000000;stroke-width:0.1524;stroke-linecap:round;stroke-linejoin:round;stroke-opacity:1"
     id="g120573"
     transform="translate(-96.269997,-82.300003)">
    <g
       id="g120239" />
    <g
       style="fill:#586e75;fill-opacity:0;stroke:#586e75;stroke-width:0.1524;stroke-linecap:round;stroke-linejoin:round;stroke-opacity:1"
       id="g120241" />
    <g
       style="fill:#586e75;fill-opacity:0;stroke:#586e75;stroke-width:0.5;stroke-linecap:round;stroke-linejoin:round;stroke-opacity:1"
       id="g120511">
      <rect
         x="96.519997"
         y="82.550003"
         width="20.32"
         height="25.4"
         rx="0.000000"
         id="rect120243" />
      <text
         x="106.68"
         y="95.885002"
         textLength="19.146999"
         font-size="1.6933px"
         lengthAdjust="spacingAndGlyphs"
         text-anchor="middle"
         opacity="0"
         id="text120245">MICROCONTROLLER</text>
      <g
         class="stroked-text"
         id="g120507">
        <desc
           id="desc120247">MICROCONTROLLER</desc>
        <path
           d="m 98.0318,95.8115 v -1.27"
           id="path120249" />
        <path
           d="m 98.0318,94.5415 0.4234,0.9072"
           id="path120251" />
        <path
           d="m 98.4552,95.4487 0.4233,-0.9072"
           id="path120253" />
        <path
           d="m 98.8785,94.5415 v 1.27"
           id="path120255" />
        <path
           d="m 99.4832,95.8115 v -1.27"
           id="path120257" />
        <path
           d="m 100.8137,95.6906 -0.0604,0.0605"
           id="path120259" />
        <path
           d="m 100.7533,95.7511 -0.1815,0.0604"
           id="path120261" />
        <path
           d="m 100.5718,95.8115 h -0.1209"
           id="path120263" />
        <path
           d="m 100.4509,95.8115 -0.1814,-0.0604"
           id="path120265" />
        <path
           d="m 100.2695,95.7511 -0.121,-0.121"
           id="path120267" />
        <path
           d="m 100.1485,95.6301 -0.0605,-0.121"
           id="path120269" />
        <path
           d="m 100.088,95.5091 -0.0604,-0.2419"
           id="path120271" />
        <path
           d="M 100.0276,95.2672 V 95.0858"
           id="path120273" />
        <path
           d="m 100.0276,95.0858 0.0604,-0.2419"
           id="path120275" />
        <path
           d="m 100.088,94.8439 0.0605,-0.1209"
           id="path120277" />
        <path
           d="m 100.1485,94.723 0.121,-0.121"
           id="path120279" />
        <path
           d="m 100.2695,94.602 0.1814,-0.0605"
           id="path120281" />
        <path
           d="m 100.4509,94.5415 h 0.1209"
           id="path120283" />
        <path
           d="m 100.5718,94.5415 0.1815,0.0605"
           id="path120285" />
        <path
           d="m 100.7533,94.602 0.0604,0.0605"
           id="path120287" />
        <path
           d="m 102.0837,95.8115 -0.4233,-0.6047"
           id="path120289" />
        <path
           d="m 101.358,95.8115 v -1.27"
           id="path120291" />
        <path
           d="m 101.358,94.5415 h 0.4838"
           id="path120293" />
        <path
           d="m 101.8418,94.5415 0.121,0.0605"
           id="path120295" />
        <path
           d="m 101.9628,94.602 0.0605,0.0605"
           id="path120297" />
        <path
           d="m 102.0233,94.6625 0.0604,0.1209"
           id="path120299" />
        <path
           d="m 102.0837,94.7834 v 0.1815"
           id="path120301" />
        <path
           d="m 102.0837,94.9649 -0.0604,0.1209"
           id="path120303" />
        <path
           d="m 102.0233,95.0858 -0.0605,0.0605"
           id="path120305" />
        <path
           d="m 101.9628,95.1463 -0.121,0.0605"
           id="path120307" />
        <path
           d="M 101.8418,95.2068 H 101.358"
           id="path120309" />
        <path
           d="m 102.8699,94.5415 h 0.2419"
           id="path120311" />
        <path
           d="m 103.1118,94.5415 0.121,0.0605"
           id="path120313" />
        <path
           d="m 103.2328,94.602 0.1209,0.121"
           id="path120315" />
        <path
           d="m 103.3537,94.723 0.0605,0.2419"
           id="path120317" />
        <path
           d="m 103.4142,94.9649 v 0.4233"
           id="path120319" />
        <path
           d="m 103.4142,95.3882 -0.0605,0.2419"
           id="path120321" />
        <path
           d="m 103.3537,95.6301 -0.1209,0.121"
           id="path120323" />
        <path
           d="m 103.2328,95.7511 -0.121,0.0604"
           id="path120325" />
        <path
           d="m 103.1118,95.8115 h -0.2419"
           id="path120327" />
        <path
           d="M 102.8699,95.8115 102.749,95.7511"
           id="path120329" />
        <path
           d="m 102.749,95.7511 -0.121,-0.121"
           id="path120331" />
        <path
           d="m 102.628,95.6301 -0.0604,-0.2419"
           id="path120333" />
        <path
           d="M 102.5676,95.3882 V 94.9649"
           id="path120335" />
        <path
           d="M 102.5676,94.9649 102.628,94.723"
           id="path120337" />
        <path
           d="m 102.628,94.723 0.121,-0.121"
           id="path120339" />
        <path
           d="m 102.749,94.602 0.1209,-0.0605"
           id="path120341" />
        <path
           d="m 104.6842,95.6906 -0.0604,0.0605"
           id="path120343" />
        <path
           d="m 104.6238,95.7511 -0.1815,0.0604"
           id="path120345" />
        <path
           d="m 104.4423,95.8115 h -0.1209"
           id="path120347" />
        <path
           d="M 104.3214,95.8115 104.14,95.7511"
           id="path120349" />
        <path
           d="m 104.14,95.7511 -0.121,-0.121"
           id="path120351" />
        <path
           d="m 104.019,95.6301 -0.0605,-0.121"
           id="path120353" />
        <path
           d="m 103.9585,95.5091 -0.0604,-0.2419"
           id="path120355" />
        <path
           d="M 103.8981,95.2672 V 95.0858"
           id="path120357" />
        <path
           d="m 103.8981,95.0858 0.0604,-0.2419"
           id="path120359" />
        <path
           d="M 103.9585,94.8439 104.019,94.723"
           id="path120361" />
        <path
           d="m 104.019,94.723 0.121,-0.121"
           id="path120363" />
        <path
           d="m 104.14,94.602 0.1814,-0.0605"
           id="path120365" />
        <path
           d="m 104.3214,94.5415 h 0.1209"
           id="path120367" />
        <path
           d="m 104.4423,94.5415 0.1815,0.0605"
           id="path120369" />
        <path
           d="m 104.6238,94.602 0.0604,0.0605"
           id="path120371" />
        <path
           d="m 105.4704,94.5415 h 0.2419"
           id="path120373" />
        <path
           d="m 105.7123,94.5415 0.121,0.0605"
           id="path120375" />
        <path
           d="m 105.8333,94.602 0.1209,0.121"
           id="path120377" />
        <path
           d="m 105.9542,94.723 0.0605,0.2419"
           id="path120379" />
        <path
           d="m 106.0147,94.9649 v 0.4233"
           id="path120381" />
        <path
           d="m 106.0147,95.3882 -0.0605,0.2419"
           id="path120383" />
        <path
           d="m 105.9542,95.6301 -0.1209,0.121"
           id="path120385" />
        <path
           d="m 105.8333,95.7511 -0.121,0.0604"
           id="path120387" />
        <path
           d="m 105.7123,95.8115 h -0.2419"
           id="path120389" />
        <path
           d="m 105.4704,95.8115 -0.1209,-0.0604"
           id="path120391" />
        <path
           d="m 105.3495,95.7511 -0.121,-0.121"
           id="path120393" />
        <path
           d="m 105.2285,95.6301 -0.0604,-0.2419"
           id="path120395" />
        <path
           d="M 105.1681,95.3882 V 94.9649"
           id="path120397" />
        <path
           d="m 105.1681,94.9649 0.0604,-0.2419"
           id="path120399" />
        <path
           d="m 105.2285,94.723 0.121,-0.121"
           id="path120401" />
        <path
           d="m 105.3495,94.602 0.1209,-0.0605"
           id="path120403" />
        <path
           d="m 106.559,95.8115 v -1.27"
           id="path120405" />
        <path
           d="m 106.559,94.5415 0.7257,1.27"
           id="path120407" />
        <path
           d="m 107.2847,95.8115 v -1.27"
           id="path120409" />
        <path
           d="m 107.7081,94.5415 h 0.7257"
           id="path120411" />
        <path
           d="m 108.071,95.8115 v -1.27"
           id="path120413" />
        <path
           d="m 109.5828,95.8115 -0.4233,-0.6047"
           id="path120415" />
        <path
           d="m 108.8571,95.8115 v -1.27"
           id="path120417" />
        <path
           d="m 108.8571,94.5415 h 0.4838"
           id="path120419" />
        <path
           d="m 109.3409,94.5415 0.121,0.0605"
           id="path120421" />
        <path
           d="m 109.4619,94.602 0.0605,0.0605"
           id="path120423" />
        <path
           d="m 109.5224,94.6625 0.0604,0.1209"
           id="path120425" />
        <path
           d="m 109.5828,94.7834 v 0.1815"
           id="path120427" />
        <path
           d="m 109.5828,94.9649 -0.0604,0.1209"
           id="path120429" />
        <path
           d="m 109.5224,95.0858 -0.0605,0.0605"
           id="path120431" />
        <path
           d="m 109.4619,95.1463 -0.121,0.0605"
           id="path120433" />
        <path
           d="m 109.3409,95.2068 h -0.4838"
           id="path120435" />
        <path
           d="m 110.369,94.5415 h 0.2419"
           id="path120437" />
        <path
           d="m 110.6109,94.5415 0.121,0.0605"
           id="path120439" />
        <path
           d="m 110.7319,94.602 0.1209,0.121"
           id="path120441" />
        <path
           d="m 110.8528,94.723 0.0605,0.2419"
           id="path120443" />
        <path
           d="m 110.9133,94.9649 v 0.4233"
           id="path120445" />
        <path
           d="m 110.9133,95.3882 -0.0605,0.2419"
           id="path120447" />
        <path
           d="m 110.8528,95.6301 -0.1209,0.121"
           id="path120449" />
        <path
           d="m 110.7319,95.7511 -0.121,0.0604"
           id="path120451" />
        <path
           d="M 110.6109,95.8115 H 110.369"
           id="path120453" />
        <path
           d="m 110.369,95.8115 -0.1209,-0.0604"
           id="path120455" />
        <path
           d="m 110.2481,95.7511 -0.121,-0.121"
           id="path120457" />
        <path
           d="m 110.1271,95.6301 -0.0604,-0.2419"
           id="path120459" />
        <path
           d="M 110.0667,95.3882 V 94.9649"
           id="path120461" />
        <path
           d="m 110.0667,94.9649 0.0604,-0.2419"
           id="path120463" />
        <path
           d="m 110.1271,94.723 0.121,-0.121"
           id="path120465" />
        <path
           d="m 110.2481,94.602 0.1209,-0.0605"
           id="path120467" />
        <path
           d="m 112.0624,95.8115 h -0.6048"
           id="path120469" />
        <path
           d="m 111.4576,95.8115 v -1.27"
           id="path120471" />
        <path
           d="m 113.0905,95.8115 h -0.6048"
           id="path120473" />
        <path
           d="m 112.4857,95.8115 v -1.27"
           id="path120475" />
        <path
           d="m 113.5138,95.1463 h 0.4234"
           id="path120477" />
        <path
           d="m 114.1186,95.8115 h -0.6048"
           id="path120479" />
        <path
           d="m 113.5138,95.8115 v -1.27"
           id="path120481" />
        <path
           d="m 113.5138,94.5415 h 0.6048"
           id="path120483" />
        <path
           d="m 115.3885,95.8115 -0.4233,-0.6047"
           id="path120485" />
        <path
           d="m 114.6628,95.8115 v -1.27"
           id="path120487" />
        <path
           d="m 114.6628,94.5415 h 0.4838"
           id="path120489" />
        <path
           d="m 115.1466,94.5415 0.121,0.0605"
           id="path120491" />
        <path
           d="m 115.2676,94.602 0.0605,0.0605"
           id="path120493" />
        <path
           d="m 115.3281,94.6625 0.0604,0.1209"
           id="path120495" />
        <path
           d="m 115.3885,94.7834 v 0.1815"
           id="path120497" />
        <path
           d="m 115.3885,94.9649 -0.0604,0.1209"
           id="path120499" />
        <path
           d="m 115.3281,95.0858 -0.0605,0.0605"
           id="path120501" />
        <path
           d="m 115.2676,95.1463 -0.121,0.0605"
           id="path120503" />
        <path
           d="m 115.1466,95.2068 h -0.4838"
           id="path120505" />
      </g>
      <path
         d="m 116.84,87.63 h 2.54"
         id="path120509" />
    </g>
    <g
       style="fill:#cb4b16;fill-opacity:0;stroke:#cb4b16;stroke-width:0.5;stroke-linecap:round;stroke-linejoin:round;stroke-opacity:1"
       id="g120513" />
    <g
       style="fill:#cb4b16;fill-opacity:0;stroke:#cb4b16;stroke-width:0.1524;stroke-linecap:round;stroke-linejoin:round;stroke-opacity:1"
       id="g120547">
      <text
         x="115.824"
         y="88.264999"
         textLength="2.6826999"
         font-size="1.6933px"
         lengthAdjust="spacingAndGlyphs"
         text-anchor="end"
         opacity="0"
         id="text120515">RX</text>
      <g
         class="stroked-text"
         id="g120545">
        <desc
           id="desc120517">RX</desc>
        <path
           d="M 114.2723,88.2095 113.849,87.6048"
           id="path120519" />
        <path
           d="m 113.5466,88.2095 v -1.27"
           id="path120521" />
        <path
           d="m 113.5466,86.9395 h 0.4838"
           id="path120523" />
        <path
           d="M 114.0304,86.9395 114.1514,87"
           id="path120525" />
        <path
           d="m 114.1514,87 0.0605,0.0605"
           id="path120527" />
        <path
           d="m 114.2119,87.0605 0.0604,0.1209"
           id="path120529" />
        <path
           d="m 114.2723,87.1814 v 0.1815"
           id="path120531" />
        <path
           d="m 114.2723,87.3629 -0.0604,0.1209"
           id="path120533" />
        <path
           d="m 114.2119,87.4838 -0.0605,0.0605"
           id="path120535" />
        <path
           d="m 114.1514,87.5443 -0.121,0.0605"
           id="path120537" />
        <path
           d="m 114.0304,87.6048 h -0.4838"
           id="path120539" />
        <path
           d="m 114.6957,86.9395 0.8466,1.27"
           id="path120541" />
        <path
           d="m 115.5423,86.9395 -0.8466,1.27"
           id="path120543" />
      </g>
    </g>
    <g
       style="fill:#586e75;fill-opacity:0;stroke:#586e75;stroke-width:0.1524;stroke-linecap:round;stroke-linejoin:round;stroke-opacity:1"
       id="g120549" />
    <g
       style="fill:#586e75;fill-opacity:0;stroke:#586e75;stroke-width:0.5;stroke-linecap:round;stroke-linejoin:round;stroke-opacity:1"
       id="g120553">
      <path
         d="m 116.84,85.09 h 2.54"
         id="path120551" />
    </g>
    <g
       style="fill:#cb4b16;fill-opacity:0;stroke:#cb4b16;stroke-width:0.5;stroke-linecap:round;stroke-linejoin:round;stroke-opacity:1"
       id="g120555" />
    <g
       style="fill:#cb4b16;fill-opacity:0;stroke:#cb4b16;stroke-width:0.1524;stroke-linecap:round;stroke-linejoin:round;stroke-opacity:1"
       id="g120571">
      <text
         x="115.824"
         y="85.724998"
         textLength="2.3803"
         font-size="1.6933px"
         lengthAdjust="spacingAndGlyphs"
         text-anchor="end"
         opacity="0"
         id="text120557">TX</text>
      <g
         class="stroked-text"
         id="g120569">
        <desc
           id="desc120559">TX</desc>
        <path
           d="m 113.6676,84.3995 h 0.7257"
           id="path120561" />
        <path
           d="m 114.0305,85.6695 v -1.27"
           id="path120563" />
        <path
           d="m 114.6957,84.3995 0.8466,1.27"
           id="path120565" />
        <path
           d="m 115.5423,84.3995 -0.8466,1.27"
           id="path120567" />
      </g>
    </g>
  </g>
  <g
     style="fill:#cb4b16;fill-opacity:0;stroke:#cb4b16;stroke-width:0.1524;stroke-linecap:round;stroke-linejoin:round;stroke-opacity:1"
     id="g120815"
     transform="translate(-96.269997,-82.300003)">
    <g
       id="g120575" />
    <g
       style="fill:#586e75;fill-opacity:0;stroke:#586e75;stroke-width:0.1524;stroke-linecap:round;stroke-linejoin:round;stroke-opacity:1"
       id="g120577" />
    <g
       style="fill:#586e75;fill-opacity:0;stroke:#586e75;stroke-width:0.5;stroke-linecap:round;stroke-linejoin:round;stroke-opacity:1"
       id="g120753">
      <rect
         x="147.32001"
         y="82.550003"
         width="20.32"
         height="25.4"
         rx="0.000000"
         id="rect120579" />
      <text
         x="157.48"
         y="95.885002"
         textLength="9.7729998"
         font-size="1.6933px"
         lengthAdjust="spacingAndGlyphs"
         text-anchor="middle"
         opacity="0"
         id="text120581">TMC2209</text>
      <g
         class="stroked-text"
         id="g120749">
        <desc
           id="desc120583">TMC2209</desc>
        <path
           d="m 153.3374,94.5415 h 0.7257"
           id="path120585" />
        <path
           d="m 153.7003,95.8115 v -1.27"
           id="path120587" />
        <path
           d="m 154.4864,95.8115 v -1.27"
           id="path120589" />
        <path
           d="m 154.4864,94.5415 0.4234,0.9072"
           id="path120591" />
        <path
           d="m 154.9098,95.4487 0.4233,-0.9072"
           id="path120593" />
        <path
           d="m 155.3331,94.5415 v 1.27"
           id="path120595" />
        <path
           d="m 156.6635,95.6906 -0.0604,0.0605"
           id="path120597" />
        <path
           d="m 156.6031,95.7511 -0.1815,0.0604"
           id="path120599" />
        <path
           d="m 156.4216,95.8115 h -0.1209"
           id="path120601" />
        <path
           d="m 156.3007,95.8115 -0.1814,-0.0604"
           id="path120603" />
        <path
           d="m 156.1193,95.7511 -0.121,-0.121"
           id="path120605" />
        <path
           d="m 155.9983,95.6301 -0.0605,-0.121"
           id="path120607" />
        <path
           d="m 155.9378,95.5091 -0.0604,-0.2419"
           id="path120609" />
        <path
           d="M 155.8774,95.2672 V 95.0858"
           id="path120611" />
        <path
           d="m 155.8774,95.0858 0.0604,-0.2419"
           id="path120613" />
        <path
           d="m 155.9378,94.8439 0.0605,-0.1209"
           id="path120615" />
        <path
           d="m 155.9983,94.723 0.121,-0.121"
           id="path120617" />
        <path
           d="m 156.1193,94.602 0.1814,-0.0605"
           id="path120619" />
        <path
           d="m 156.3007,94.5415 h 0.1209"
           id="path120621" />
        <path
           d="m 156.4216,94.5415 0.1815,0.0605"
           id="path120623" />
        <path
           d="m 156.6031,94.602 0.0604,0.0605"
           id="path120625" />
        <path
           d="m 157.1474,94.6625 0.0604,-0.0605"
           id="path120627" />
        <path
           d="m 157.2078,94.602 0.121,-0.0605"
           id="path120629" />
        <path
           d="m 157.3288,94.5415 h 0.3024"
           id="path120631" />
        <path
           d="m 157.6312,94.5415 0.1209,0.0605"
           id="path120633" />
        <path
           d="m 157.7521,94.602 0.0605,0.0605"
           id="path120635" />
        <path
           d="m 157.8126,94.6625 0.0605,0.1209"
           id="path120637" />
        <path
           d="m 157.8731,94.7834 v 0.121"
           id="path120639" />
        <path
           d="m 157.8731,94.9044 -0.0605,0.1814"
           id="path120641" />
        <path
           d="m 157.8126,95.0858 -0.7257,0.7257"
           id="path120643" />
        <path
           d="m 157.0869,95.8115 h 0.7862"
           id="path120645" />
        <path
           d="m 158.3569,94.6625 0.0604,-0.0605"
           id="path120647" />
        <path
           d="m 158.4173,94.602 0.121,-0.0605"
           id="path120649" />
        <path
           d="m 158.5383,94.5415 h 0.3024"
           id="path120651" />
        <path
           d="m 158.8407,94.5415 0.1209,0.0605"
           id="path120653" />
        <path
           d="m 158.9616,94.602 0.0605,0.0605"
           id="path120655" />
        <path
           d="m 159.0221,94.6625 0.0605,0.1209"
           id="path120657" />
        <path
           d="m 159.0826,94.7834 v 0.121"
           id="path120659" />
        <path
           d="m 159.0826,94.9044 -0.0605,0.1814"
           id="path120661" />
        <path
           d="m 159.0221,95.0858 -0.7257,0.7257"
           id="path120663" />
        <path
           d="m 158.2964,95.8115 h 0.7862"
           id="path120665" />
        <path
           d="m 159.8687,94.5415 h 0.121"
           id="path120667" />
        <path
           d="m 159.9897,94.5415 0.1209,0.0605"
           id="path120669" />
        <path
           d="m 160.1106,94.602 0.0605,0.0605"
           id="path120671" />
        <path
           d="m 160.1711,94.6625 0.0605,0.1209"
           id="path120673" />
        <path
           d="m 160.2316,94.7834 0.0605,0.2419"
           id="path120675" />
        <path
           d="m 160.2921,95.0253 v 0.3024"
           id="path120677" />
        <path
           d="m 160.2921,95.3277 -0.0605,0.2419"
           id="path120679" />
        <path
           d="m 160.2316,95.5696 -0.0605,0.121"
           id="path120681" />
        <path
           d="m 160.1711,95.6906 -0.0605,0.0605"
           id="path120683" />
        <path
           d="m 160.1106,95.7511 -0.1209,0.0604"
           id="path120685" />
        <path
           d="m 159.9897,95.8115 h -0.121"
           id="path120687" />
        <path
           d="m 159.8687,95.8115 -0.1209,-0.0604"
           id="path120689" />
        <path
           d="m 159.7478,95.7511 -0.0605,-0.0605"
           id="path120691" />
        <path
           d="m 159.6873,95.6906 -0.0605,-0.121"
           id="path120693" />
        <path
           d="m 159.6268,95.5696 -0.0604,-0.2419"
           id="path120695" />
        <path
           d="M 159.5664,95.3277 V 95.0253"
           id="path120697" />
        <path
           d="m 159.5664,95.0253 0.0604,-0.2419"
           id="path120699" />
        <path
           d="m 159.6268,94.7834 0.0605,-0.1209"
           id="path120701" />
        <path
           d="m 159.6873,94.6625 0.0605,-0.0605"
           id="path120703" />
        <path
           d="m 159.7478,94.602 0.1209,-0.0605"
           id="path120705" />
        <path
           d="m 160.8968,95.8115 h 0.2419"
           id="path120707" />
        <path
           d="m 161.1387,95.8115 0.121,-0.0604"
           id="path120709" />
        <path
           d="m 161.2597,95.7511 0.0604,-0.0605"
           id="path120711" />
        <path
           d="m 161.3201,95.6906 0.121,-0.1815"
           id="path120713" />
        <path
           d="m 161.4411,95.5091 0.0605,-0.2419"
           id="path120715" />
        <path
           d="M 161.5016,95.2672 V 94.7834"
           id="path120717" />
        <path
           d="m 161.5016,94.7834 -0.0605,-0.1209"
           id="path120719" />
        <path
           d="M 161.4411,94.6625 161.3806,94.602"
           id="path120721" />
        <path
           d="m 161.3806,94.602 -0.1209,-0.0605"
           id="path120723" />
        <path
           d="m 161.2597,94.5415 h -0.2419"
           id="path120725" />
        <path
           d="m 161.0178,94.5415 -0.121,0.0605"
           id="path120727" />
        <path
           d="m 160.8968,94.602 -0.0605,0.0605"
           id="path120729" />
        <path
           d="m 160.8363,94.6625 -0.0604,0.1209"
           id="path120731" />
        <path
           d="m 160.7759,94.7834 v 0.3024"
           id="path120733" />
        <path
           d="m 160.7759,95.0858 0.0604,0.121"
           id="path120735" />
        <path
           d="m 160.8363,95.2068 0.0605,0.0604"
           id="path120737" />
        <path
           d="m 160.8968,95.2672 0.121,0.0605"
           id="path120739" />
        <path
           d="m 161.0178,95.3277 h 0.2419"
           id="path120741" />
        <path
           d="m 161.2597,95.3277 0.1209,-0.0605"
           id="path120743" />
        <path
           d="m 161.3806,95.2672 0.0605,-0.0604"
           id="path120745" />
        <path
           d="m 161.4411,95.2068 0.0605,-0.121"
           id="path120747" />
      </g>
      <path
         d="m 147.32,85.09 h -2.54"
         id="path120751" />
    </g>
    <g
       style="fill:#cb4b16;fill-opacity:0;stroke:#cb4b16;stroke-width:0.5;stroke-linecap:round;stroke-linejoin:round;stroke-opacity:1"
       id="g120755" />
    <g
       style="fill:#cb4b16;fill-opacity:0;stroke:#cb4b16;stroke-width:0.1524;stroke-linecap:round;stroke-linejoin:round;stroke-opacity:1"
       id="g120813">
      <text
         x="148.336"
         y="85.724998"
         textLength="4.8599"
         font-size="1.6933px"
         lengthAdjust="spacingAndGlyphs"
         text-anchor="start"
         opacity="0"
         id="text120757">UART</text>
      <g
         class="stroked-text"
         id="g120811">
        <desc
           id="desc120759">UART</desc>
        <path
           d="m 148.7385,84.3995 v 1.0281"
           id="path120761" />
        <path
           d="m 148.7385,85.4276 0.0605,0.121"
           id="path120763" />
        <path
           d="m 148.799,85.5486 0.0605,0.0605"
           id="path120765" />
        <path
           d="m 148.8595,85.6091 0.1209,0.0604"
           id="path120767" />
        <path
           d="m 148.9804,85.6695 h 0.2419"
           id="path120769" />
        <path
           d="m 149.2223,85.6695 0.121,-0.0604"
           id="path120771" />
        <path
           d="m 149.3433,85.6091 0.0605,-0.0605"
           id="path120773" />
        <path
           d="m 149.4038,85.5486 0.0604,-0.121"
           id="path120775" />
        <path
           d="M 149.4642,85.4276 V 84.3995"
           id="path120777" />
        <path
           d="m 150.0086,85.3067 h 0.6047"
           id="path120779" />
        <path
           d="m 149.8876,85.6695 0.4233,-1.27"
           id="path120781" />
        <path
           d="m 150.3109,84.3995 0.4234,1.27"
           id="path120783" />
        <path
           d="M 151.8833,85.6695 151.46,85.0648"
           id="path120785" />
        <path
           d="m 151.1576,85.6695 v -1.27"
           id="path120787" />
        <path
           d="m 151.1576,84.3995 h 0.4838"
           id="path120789" />
        <path
           d="m 151.6414,84.3995 0.121,0.0605"
           id="path120791" />
        <path
           d="m 151.7624,84.46 0.0605,0.0605"
           id="path120793" />
        <path
           d="m 151.8229,84.5205 0.0604,0.1209"
           id="path120795" />
        <path
           d="m 151.8833,84.6414 v 0.1815"
           id="path120797" />
        <path
           d="m 151.8833,84.8229 -0.0604,0.1209"
           id="path120799" />
        <path
           d="m 151.8229,84.9438 -0.0605,0.0605"
           id="path120801" />
        <path
           d="m 151.7624,85.0043 -0.121,0.0605"
           id="path120803" />
        <path
           d="m 151.6414,85.0648 h -0.4838"
           id="path120805" />
        <path
           d="m 152.2462,84.3995 h 0.7257"
           id="path120807" />
        <path
           d="m 152.6091,85.6695 v -1.27"
           id="path120809" />
      </g>
    </g>
  </g>
  <g
     style="fill:#cb4b16;fill-opacity:0;stroke:#cb4b16;stroke-width:0.1524;stroke-linecap:round;stroke-linejoin:round;stroke-opacity:1"
     id="g120817"
     transform="translate(-96.269997,-82.300003)" />
  <g
     style="fill:#859900;fill-opacity:0;stroke:#859900;stroke-width:0.1524;stroke-linecap:round;stroke-linejoin:round;stroke-opacity:1"
     id="g120819"
     transform="translate(-96.269997,-82.300003)" />
  <g
     style="fill:#859900;fill-opacity:0;stroke:#859900;stroke-width:0.5;stroke-linecap:round;stroke-linejoin:round;stroke-opacity:1"
     id="g120823"
     transform="translate(-96.269997,-82.300003)">
    <path
       d="m 119.38,85.09 h 25.4"
       id="path120821" />
  </g>
  <g
     style="fill:#859900;fill-opacity:0;stroke:#859900;stroke-width:0.1524;stroke-linecap:round;stroke-linejoin:round;stroke-opacity:1"
     id="g120825"
     transform="translate(-96.269997,-82.300003)" />
  <g
     style="fill:#6c71c4;fill-opacity:0;stroke:#6c71c4;stroke-width:0.1524;stroke-linecap:round;stroke-linejoin:round;stroke-opacity:1"
     id="g120831"
     transform="translate(-96.269997,-82.300003)">
    <path
       d="m 118.7704,87.0204 1.2192,1.2192"
       id="path120827" />
    <path
       d="m 119.9896,87.0204 -1.2192,1.2192"
       id="path120829" />
  </g>
</svg>
