<?xml version="1.0" encoding="UTF-8" standalone="no"?>
<svg
   version="1.1"
   width="66.892662mm"
   height="25.799999mm"
   viewBox="0 0 66.892663 25.799999"
   id="svg188211"
   xmlns="http://www.w3.org/2000/svg"
   xmlns:svg="http://www.w3.org/2000/svg">
  <defs
     id="defs188215" />
  <title
     id="title187511">SVG Image created as trinamic-wiring-TMC51X0-description.svg date 2024/08/01 14:17:40 </title>
  <desc
     id="desc187513">Image generated by Eeschema-SVG </desc>
  <g
     style="fill:#000000;fill-opacity:1;stroke:#000000;stroke-linecap:round;stroke-linejoin:round;stroke-opacity:1"
     id="g187515"
     transform="translate(-106.73853,-78.54)" />
  <g
     style="fill:#000000;fill-opacity:0;stroke:#000000;stroke-width:0.1524;stroke-linecap:round;stroke-linejoin:round;stroke-opacity:1"
     id="g187517"
     transform="translate(-106.73853,-78.54)" />
  <g
     style="fill:#000000;fill-opacity:0;stroke:#000000;stroke-width:0.1588;stroke-linecap:round;stroke-linejoin:round;stroke-opacity:1"
     id="g187519"
     transform="translate(-106.73853,-78.54)" />
  <g
     style="fill:#000000;fill-opacity:0;stroke:#000000;stroke-width:0.4;stroke-linecap:round;stroke-linejoin:round;stroke-opacity:1"
     id="g187521"
     transform="translate(-106.73853,-78.54)" />
  <g
     style="fill:#000000;fill-opacity:0;stroke:#000000;stroke-width:0.1588;stroke-linecap:round;stroke-linejoin:round;stroke-opacity:1"
     id="g187523"
     transform="translate(-106.73853,-78.54)" />
  <g
     style="fill:#000000;fill-opacity:0;stroke:#000000;stroke-width:0.4;stroke-linecap:round;stroke-linejoin:round;stroke-opacity:1"
     id="g187525"
     transform="translate(-106.73853,-78.54)" />
  <g
     style="fill:#000000;fill-opacity:0;stroke:#000000;stroke-width:0.1588;stroke-linecap:round;stroke-linejoin:round;stroke-opacity:1"
     id="g187527"
     transform="translate(-106.73853,-78.54)" />
  <g
     style="fill:#000000;fill-opacity:0;stroke:#000000;stroke-width:0.4;stroke-linecap:round;stroke-linejoin:round;stroke-opacity:1"
     id="g187529"
     transform="translate(-106.73853,-78.54)" />
  <g
     style="fill:#000000;fill-opacity:0;stroke:#000000;stroke-width:0.1588;stroke-linecap:round;stroke-linejoin:round;stroke-opacity:1"
     id="g187531"
     transform="translate(-106.73853,-78.54)" />
  <g
     style="fill:#000000;fill-opacity:0;stroke:#000000;stroke-width:0.4;stroke-linecap:round;stroke-linejoin:round;stroke-opacity:1"
     id="g187533"
     transform="translate(-106.73853,-78.54)" />
  <g
     style="fill:#000000;fill-opacity:0;stroke:#000000;stroke-width:0.1588;stroke-linecap:round;stroke-linejoin:round;stroke-opacity:1"
     id="g187535"
     transform="translate(-106.73853,-78.54)" />
  <g
     style="fill:#000000;fill-opacity:0;stroke:#000000;stroke-width:0.4;stroke-linecap:round;stroke-linejoin:round;stroke-opacity:1"
     id="g187537"
     transform="translate(-106.73853,-78.54)" />
  <g
     style="fill:#000000;fill-opacity:0;stroke:#000000;stroke-width:0.1588;stroke-linecap:round;stroke-linejoin:round;stroke-opacity:1"
     id="g187539"
     transform="translate(-106.73853,-78.54)" />
  <g
     style="fill:#000000;fill-opacity:0;stroke:#000000;stroke-width:0.4;stroke-linecap:round;stroke-linejoin:round;stroke-opacity:1"
     id="g187541"
     transform="translate(-106.73853,-78.54)" />
  <g
     style="fill:#000000;fill-opacity:0;stroke:#000000;stroke-width:0.1588;stroke-linecap:round;stroke-linejoin:round;stroke-opacity:1"
     id="g187543"
     transform="translate(-106.73853,-78.54)" />
  <g
     style="fill:#000000;fill-opacity:0;stroke:#000000;stroke-width:0.4;stroke-linecap:round;stroke-linejoin:round;stroke-opacity:1"
     id="g187545"
     transform="translate(-106.73853,-78.54)" />
  <g
     style="fill:#000000;fill-opacity:0;stroke:#000000;stroke-width:0.1588;stroke-linecap:round;stroke-linejoin:round;stroke-opacity:1"
     id="g187547"
     transform="translate(-106.73853,-78.54)" />
  <g
     style="fill:#000000;fill-opacity:0;stroke:#000000;stroke-width:0.4;stroke-linecap:round;stroke-linejoin:round;stroke-opacity:1"
     id="g187549"
     transform="translate(-106.73853,-78.54)" />
  <g
     style="fill:#000000;fill-opacity:0;stroke:#000000;stroke-width:0.1588;stroke-linecap:round;stroke-linejoin:round;stroke-opacity:1"
     id="g187551"
     transform="translate(-106.73853,-78.54)" />
  <g
     style="fill:#000000;fill-opacity:0;stroke:#000000;stroke-width:0.4;stroke-linecap:round;stroke-linejoin:round;stroke-opacity:1"
     id="g187553"
     transform="translate(-106.73853,-78.54)" />
  <g
     style="fill:#000000;fill-opacity:0;stroke:#000000;stroke-width:0.1524;stroke-linecap:round;stroke-linejoin:round;stroke-opacity:1"
     id="g187597"
     transform="translate(-106.73853,-78.54)">
    <g
       id="g187555" />
    <g
       style="fill:#586e75;fill-opacity:0;stroke:#586e75;stroke-width:0.1524;stroke-linecap:round;stroke-linejoin:round;stroke-opacity:1"
       id="g187557" />
    <g
       style="fill:#586e75;fill-opacity:0;stroke:#586e75;stroke-width:0.4;stroke-linecap:round;stroke-linejoin:round;stroke-opacity:1"
       id="g187595">
      <path
         style="fill:none;fill-opacity:0;stroke:#586e75;stroke-width:0.4;stroke-linecap:round;stroke-linejoin:round;stroke-opacity:1"
         d="m 168.91,89.408 v -3.81 l 1.27,2.54 1.27,-2.54 v 3.81"
         id="path187559" />
      <path
         d="m 165.735,90.17 a 0.635,0.635 0 0 0 0,-1.27"
         id="path187561" />
      <path
         d="m 165.735,88.9 a 0.635,0.635 0 0 0 0,-1.27"
         id="path187563" />
      <path
         d="m 165.735,87.63 a 0.635,0.635 0 0 0 0,-1.27"
         id="path187565" />
      <path
         d="m 165.735,86.36 a 0.635,0.635 0 0 0 0,-1.27"
         id="path187567" />
      <path
         d="m 168.91,92.075 a 0.635,0.635 0 0 0 -1.27,0"
         id="path187569" />
      <path
         d="m 170.18,92.075 a 0.635,0.635 0 0 0 -1.27,0"
         id="path187571" />
      <path
         style="fill:none;fill-opacity:0;stroke:#586e75;stroke-width:0.4;stroke-linecap:round;stroke-linejoin:round;stroke-opacity:1"
         d="m 165.1,90.17 h 0.635"
         id="path187573" />
      <path
         style="fill:none;fill-opacity:0;stroke:#586e75;stroke-width:0.4;stroke-linecap:round;stroke-linejoin:round;stroke-opacity:1"
         d="m 165.1,85.09 h 0.635"
         id="path187575" />
      <path
         style="fill:none;fill-opacity:0;stroke:#586e75;stroke-width:0.4;stroke-linecap:round;stroke-linejoin:round;stroke-opacity:1"
         d="M 167.64,92.71 V 92.075"
         id="path187577" />
      <path
         style="fill:none;fill-opacity:0;stroke:#586e75;stroke-width:0.4;stroke-linecap:round;stroke-linejoin:round;stroke-opacity:1"
         d="M 172.72,92.71 V 92.075"
         id="path187579" />
      <circle
         cx="170.17999"
         cy="87.629997"
         r="3.2512"
         id="circle187581" />
      <path
         d="m 171.45,92.075 a 0.635,0.635 0 0 0 -1.27,0"
         id="path187583" />
      <path
         d="m 172.72,92.075 a 0.635,0.635 0 0 0 -1.27,0"
         id="path187585" />
      <path
         d="m 165.1,85.09 h -3.81"
         id="path187587" />
      <path
         d="m 165.1,90.17 h -3.81"
         id="path187589" />
      <path
         d="m 167.64,92.71 v 3.81"
         id="path187591" />
      <path
         d="m 172.72,92.71 v 3.81"
         id="path187593" />
    </g>
  </g>
  <g
     style="fill:#586e75;fill-opacity:0;stroke:#586e75;stroke-width:0.1524;stroke-linecap:round;stroke-linejoin:round;stroke-opacity:1"
     id="g187753"
     transform="translate(-106.73853,-78.54)">
    <g
       id="g187599" />
    <g
       style="fill:#586e75;fill-opacity:0;stroke:#586e75;stroke-width:0.4;stroke-linecap:round;stroke-linejoin:round;stroke-opacity:1"
       id="g187603">
      <path
         style="fill:none;fill-opacity:0;stroke:#586e75;stroke-width:0.4;stroke-linecap:round;stroke-linejoin:round;stroke-opacity:1"
         d="m 142.24,97.79 v 6.35 h -20.32 v -25.4 h 20.32 v 6.35"
         id="path187601" />
    </g>
    <g
       style="fill:#586e75;fill-opacity:0;stroke:#586e75;stroke-width:0.4;stroke-linecap:round;stroke-linejoin:round;stroke-dasharray:4.4, 1.6;stroke-opacity:1"
       id="g187607">
      <rect
         x="139.7"
         y="85.089996"
         width="5.0799999"
         height="12.7"
         rx="0.000000"
         id="rect187605" />
    </g>
    <g
       style="fill:#586e75;fill-opacity:0;stroke:#586e75;stroke-width:0.4;stroke-linecap:round;stroke-linejoin:round;stroke-opacity:1"
       id="g187751">
      <text
         x="132.08"
         y="92.074997"
         textLength="9.4729996"
         font-size="1.6933px"
         lengthAdjust="spacingAndGlyphs"
         text-anchor="middle"
         opacity="0"
         id="text187609">TMC51X0</text>
      <g
         class="stroked-text"
         id="g187739">
        <desc
           id="desc187611">TMC51X0</desc>
        <path
           d="m 127.9374,90.7367 h 0.7257"
           id="path187613" />
        <path
           d="m 128.3003,92.0067 v -1.27"
           id="path187615" />
        <path
           d="m 129.0864,92.0067 v -1.27"
           id="path187617" />
        <path
           d="m 129.0864,90.7367 0.4234,0.9072"
           id="path187619" />
        <path
           d="m 129.5098,91.6439 0.4233,-0.9072"
           id="path187621" />
        <path
           d="m 129.9331,90.7367 v 1.27"
           id="path187623" />
        <path
           d="m 131.2635,91.8858 -0.0604,0.0605"
           id="path187625" />
        <path
           d="m 131.2031,91.9463 -0.1815,0.0604"
           id="path187627" />
        <path
           d="m 131.0216,92.0067 h -0.1209"
           id="path187629" />
        <path
           d="m 130.9007,92.0067 -0.1814,-0.0604"
           id="path187631" />
        <path
           d="m 130.7193,91.9463 -0.121,-0.121"
           id="path187633" />
        <path
           d="m 130.5983,91.8253 -0.0605,-0.121"
           id="path187635" />
        <path
           d="m 130.5378,91.7043 -0.0604,-0.2419"
           id="path187637" />
        <path
           d="M 130.4774,91.4624 V 91.281"
           id="path187639" />
        <path
           d="m 130.4774,91.281 0.0604,-0.2419"
           id="path187641" />
        <path
           d="m 130.5378,91.0391 0.0605,-0.1209"
           id="path187643" />
        <path
           d="m 130.5983,90.9182 0.121,-0.121"
           id="path187645" />
        <path
           d="m 130.7193,90.7972 0.1814,-0.0605"
           id="path187647" />
        <path
           d="m 130.9007,90.7367 h 0.1209"
           id="path187649" />
        <path
           d="m 131.0216,90.7367 0.1815,0.0605"
           id="path187651" />
        <path
           d="m 131.2031,90.7972 0.0604,0.0605"
           id="path187653" />
        <path
           d="m 132.4126,90.7367 h -0.6048"
           id="path187655" />
        <path
           d="m 131.8078,90.7367 -0.0604,0.6048"
           id="path187657" />
        <path
           d="m 131.7474,91.3415 0.0604,-0.0605"
           id="path187659" />
        <path
           d="m 131.8078,91.281 0.121,-0.0605"
           id="path187661" />
        <path
           d="m 131.9288,91.2205 h 0.3024"
           id="path187663" />
        <path
           d="m 132.2312,91.2205 0.1209,0.0605"
           id="path187665" />
        <path
           d="m 132.3521,91.281 0.0605,0.0605"
           id="path187667" />
        <path
           d="m 132.4126,91.3415 0.0605,0.1209"
           id="path187669" />
        <path
           d="m 132.4731,91.4624 v 0.3024"
           id="path187671" />
        <path
           d="m 132.4731,91.7648 -0.0605,0.121"
           id="path187673" />
        <path
           d="m 132.4126,91.8858 -0.0605,0.0605"
           id="path187675" />
        <path
           d="m 132.3521,91.9463 -0.1209,0.0604"
           id="path187677" />
        <path
           d="m 132.2312,92.0067 h -0.3024"
           id="path187679" />
        <path
           d="m 131.9288,92.0067 -0.121,-0.0604"
           id="path187681" />
        <path
           d="m 131.8078,91.9463 -0.0604,-0.0605"
           id="path187683" />
        <path
           d="m 133.6826,92.0067 h -0.7257"
           id="path187685" />
        <path
           d="m 133.3197,92.0067 v -1.27"
           id="path187687" />
        <path
           d="m 133.3197,90.7367 -0.1209,0.1815"
           id="path187689" />
        <path
           d="m 133.1988,90.9182 -0.121,0.1209"
           id="path187691" />
        <path
           d="m 133.0778,91.0391 -0.1209,0.0605"
           id="path187693" />
        <path
           d="m 134.1059,90.7367 0.8466,1.27"
           id="path187695" />
        <path
           d="m 134.9525,90.7367 -0.8466,1.27"
           id="path187697" />
        <path
           d="m 135.6782,90.7367 h 0.121"
           id="path187699" />
        <path
           d="m 135.7992,90.7367 0.1209,0.0605"
           id="path187701" />
        <path
           d="m 135.9201,90.7972 0.0605,0.0605"
           id="path187703" />
        <path
           d="m 135.9806,90.8577 0.0605,0.1209"
           id="path187705" />
        <path
           d="m 136.0411,90.9786 0.0605,0.2419"
           id="path187707" />
        <path
           d="m 136.1016,91.2205 v 0.3024"
           id="path187709" />
        <path
           d="m 136.1016,91.5229 -0.0605,0.2419"
           id="path187711" />
        <path
           d="m 136.0411,91.7648 -0.0605,0.121"
           id="path187713" />
        <path
           d="m 135.9806,91.8858 -0.0605,0.0605"
           id="path187715" />
        <path
           d="m 135.9201,91.9463 -0.1209,0.0604"
           id="path187717" />
        <path
           d="m 135.7992,92.0067 h -0.121"
           id="path187719" />
        <path
           d="m 135.6782,92.0067 -0.1209,-0.0604"
           id="path187721" />
        <path
           d="m 135.5573,91.9463 -0.0605,-0.0605"
           id="path187723" />
        <path
           d="m 135.4968,91.8858 -0.0605,-0.121"
           id="path187725" />
        <path
           d="m 135.4363,91.7648 -0.0604,-0.2419"
           id="path187727" />
        <path
           d="M 135.3759,91.5229 V 91.2205"
           id="path187729" />
        <path
           d="m 135.3759,91.2205 0.0604,-0.2419"
           id="path187731" />
        <path
           d="m 135.4363,90.9786 0.0605,-0.1209"
           id="path187733" />
        <path
           d="m 135.4968,90.8577 0.0605,-0.0605"
           id="path187735" />
        <path
           d="m 135.5573,90.7972 0.1209,-0.0605"
           id="path187737" />
      </g>
      <path
         d="m 121.92,81.28 h -2.54"
         id="path187741" />
      <path
         d="m 144.78,86.36 h 2.54"
         id="path187743" />
      <path
         d="m 144.78,88.9 h 2.54"
         id="path187745" />
      <path
         d="m 144.78,93.98 h 2.54"
         id="path187747" />
      <path
         d="m 144.78,96.52 h 2.54"
         id="path187749" />
    </g>
  </g>
  <g
     style="fill:#586e75;fill-opacity:0;stroke:#586e75;stroke-width:0.1588;stroke-linecap:round;stroke-linejoin:round;stroke-opacity:1"
     id="g187755"
     transform="translate(-106.73853,-78.54)" />
  <g
     style="fill:#586e75;fill-opacity:0;stroke:#586e75;stroke-width:0.4;stroke-linecap:round;stroke-linejoin:round;stroke-opacity:1"
     id="g187757"
     transform="translate(-106.73853,-78.54)" />
  <g
     style="fill:#2aa198;fill-opacity:0;stroke:#2aa198;stroke-width:0.4;stroke-linecap:round;stroke-linejoin:round;stroke-opacity:1"
     id="g187775"
     transform="translate(-106.73853,-78.54)">
    <text
       x="158.75"
       y="84.7407"
       textLength="3.6070001"
       font-size="1.6933px"
       lengthAdjust="spacingAndGlyphs"
       text-anchor="end"
       opacity="0"
       id="text187759">A+</text>
    <g
       class="stroked-text"
       id="g187773">
      <desc
         id="desc187761">A+</desc>
      <path
         d="m 156.0678,84.2016 h 0.6047"
         id="path187763" />
      <path
         d="m 155.9468,84.5644 0.4233,-1.27"
         id="path187765" />
      <path
         d="m 156.3701,83.2944 0.4234,1.27"
         id="path187767" />
      <path
         d="m 157.2168,84.0806 h 0.9677"
         id="path187769" />
      <path
         d="M 157.7006,84.5644 V 83.5968"
         id="path187771" />
    </g>
  </g>
  <g
     style="fill:#2aa198;fill-opacity:0;stroke:#2aa198;stroke-width:0.1588;stroke-linecap:round;stroke-linejoin:round;stroke-opacity:1"
     id="g187777"
     transform="translate(-106.73853,-78.54)" />
  <g
     style="fill:#2aa198;fill-opacity:0;stroke:#2aa198;stroke-width:0.4;stroke-linecap:round;stroke-linejoin:round;stroke-opacity:1"
     id="g187825"
     transform="translate(-106.73853,-78.54)">
    <g
       transform="rotate(-90,172.3707,99.06)"
       id="g187781">
      <text
         x="172.3707"
         y="99.059998"
         textLength="3.7883999"
         font-size="1.6933px"
         lengthAdjust="spacingAndGlyphs"
         text-anchor="end"
         opacity="0"
         id="text187779">B-</text>
    </g>
    <g
       class="stroked-text"
       id="g187823">
      <desc
         id="desc187783">B-</desc>
      <path
         d="m 171.5292,101.4397 0.0605,-0.1814"
         id="path187785" />
      <path
         d="m 171.5897,101.2583 0.0604,-0.0605"
         id="path187787" />
      <path
         d="m 171.6501,101.1978 0.121,-0.0604"
         id="path187789" />
      <path
         d="m 171.7711,101.1374 h 0.1814"
         id="path187791" />
      <path
         d="m 171.9525,101.1374 0.121,0.0604"
         id="path187793" />
      <path
         d="m 172.0735,101.1978 0.0605,0.0605"
         id="path187795" />
      <path
         d="m 172.134,101.2583 0.0604,0.121"
         id="path187797" />
      <path
         d="m 172.1944,101.3793 v 0.4838"
         id="path187799" />
      <path
         d="m 172.1944,101.8631 h -1.27"
         id="path187801" />
      <path
         d="m 170.9244,101.8631 v -0.4234"
         id="path187803" />
      <path
         d="m 170.9244,101.4397 0.0605,-0.1209"
         id="path187805" />
      <path
         d="m 170.9849,101.3188 0.0605,-0.0605"
         id="path187807" />
      <path
         d="m 171.0454,101.2583 0.1209,-0.0605"
         id="path187809" />
      <path
         d="m 171.1663,101.1978 h 0.121"
         id="path187811" />
      <path
         d="m 171.2873,101.1978 0.1209,0.0605"
         id="path187813" />
      <path
         d="m 171.4082,101.2583 0.0605,0.0605"
         id="path187815" />
      <path
         d="m 171.4687,101.3188 0.0605,0.1209"
         id="path187817" />
      <path
         d="m 171.5292,101.4397 v 0.4234"
         id="path187819" />
      <path
         d="M 171.7106,100.5931 V 99.6255"
         id="path187821" />
    </g>
  </g>
  <g
     style="fill:#2aa198;fill-opacity:0;stroke:#2aa198;stroke-width:0.1588;stroke-linecap:round;stroke-linejoin:round;stroke-opacity:1"
     id="g187827"
     transform="translate(-106.73853,-78.54)" />
  <g
     style="fill:#2aa198;fill-opacity:0;stroke:#2aa198;stroke-width:0.4;stroke-linecap:round;stroke-linejoin:round;stroke-opacity:1"
     id="g187877"
     transform="translate(-106.73853,-78.54)">
    <g
       transform="rotate(-90,167.2907,99.06)"
       id="g187831">
      <text
         x="167.2907"
         y="99.059998"
         textLength="3.7883999"
         font-size="1.6933px"
         lengthAdjust="spacingAndGlyphs"
         text-anchor="end"
         opacity="0"
         id="text187829">B+</text>
    </g>
    <g
       class="stroked-text"
       id="g187875">
      <desc
         id="desc187833">B+</desc>
      <path
         d="m 166.4492,101.4397 0.0605,-0.1814"
         id="path187835" />
      <path
         d="m 166.5097,101.2583 0.0604,-0.0605"
         id="path187837" />
      <path
         d="m 166.5701,101.1978 0.121,-0.0604"
         id="path187839" />
      <path
         d="m 166.6911,101.1374 h 0.1814"
         id="path187841" />
      <path
         d="m 166.8725,101.1374 0.121,0.0604"
         id="path187843" />
      <path
         d="m 166.9935,101.1978 0.0605,0.0605"
         id="path187845" />
      <path
         d="m 167.054,101.2583 0.0604,0.121"
         id="path187847" />
      <path
         d="m 167.1144,101.3793 v 0.4838"
         id="path187849" />
      <path
         d="m 167.1144,101.8631 h -1.27"
         id="path187851" />
      <path
         d="m 165.8444,101.8631 v -0.4234"
         id="path187853" />
      <path
         d="m 165.8444,101.4397 0.0605,-0.1209"
         id="path187855" />
      <path
         d="m 165.9049,101.3188 0.0605,-0.0605"
         id="path187857" />
      <path
         d="m 165.9654,101.2583 0.1209,-0.0605"
         id="path187859" />
      <path
         d="m 166.0863,101.1978 h 0.121"
         id="path187861" />
      <path
         d="m 166.2073,101.1978 0.1209,0.0605"
         id="path187863" />
      <path
         d="m 166.3282,101.2583 0.0605,0.0605"
         id="path187865" />
      <path
         d="m 166.3887,101.3188 0.0605,0.1209"
         id="path187867" />
      <path
         d="m 166.4492,101.4397 v 0.4234"
         id="path187869" />
      <path
         d="M 166.6306,100.5931 V 99.6255"
         id="path187871" />
      <path
         d="m 167.1144,100.1093 h -0.9676"
         id="path187873" />
    </g>
  </g>
  <g
     style="fill:#2aa198;fill-opacity:0;stroke:#2aa198;stroke-width:0.1588;stroke-linecap:round;stroke-linejoin:round;stroke-opacity:1"
     id="g187879"
     transform="translate(-106.73853,-78.54)" />
  <g
     style="fill:#2aa198;fill-opacity:0;stroke:#2aa198;stroke-width:0.4;stroke-linecap:round;stroke-linejoin:round;stroke-opacity:1"
     id="g187895"
     transform="translate(-106.73853,-78.54)">
    <text
       x="149.86"
       y="88.550697"
       textLength="3.6070001"
       font-size="1.6933px"
       lengthAdjust="spacingAndGlyphs"
       text-anchor="start"
       opacity="0"
       id="text187881">A-</text>
    <g
       class="stroked-text"
       id="g187893">
      <desc
         id="desc187883">A-</desc>
      <path
         d="m 150.365,88.0116 h 0.6047"
         id="path187885" />
      <path
         d="m 150.244,88.3744 0.4233,-1.27"
         id="path187887" />
      <path
         d="m 150.6673,87.1044 0.4234,1.27"
         id="path187889" />
      <path
         d="m 151.514,87.8906 h 0.9677"
         id="path187891" />
    </g>
  </g>
  <g
     style="fill:#2aa198;fill-opacity:0;stroke:#2aa198;stroke-width:0.1588;stroke-linecap:round;stroke-linejoin:round;stroke-opacity:1"
     id="g187897"
     transform="translate(-106.73853,-78.54)" />
  <g
     style="fill:#2aa198;fill-opacity:0;stroke:#2aa198;stroke-width:0.4;stroke-linecap:round;stroke-linejoin:round;stroke-opacity:1"
     id="g187945"
     transform="translate(-106.73853,-78.54)">
    <text
       x="149.86"
       y="93.630699"
       textLength="3.7883999"
       font-size="1.6933px"
       lengthAdjust="spacingAndGlyphs"
       text-anchor="start"
       opacity="0"
       id="text187899">B+</text>
    <g
       class="stroked-text"
       id="g187943">
      <desc
         id="desc187901">B+</desc>
      <path
         d="m 150.8488,92.7892 0.1814,0.0605"
         id="path187903" />
      <path
         d="m 151.0302,92.8497 0.0605,0.0604"
         id="path187905" />
      <path
         d="m 151.0907,92.9101 0.0604,0.121"
         id="path187907" />
      <path
         d="m 151.1511,93.0311 v 0.1814"
         id="path187909" />
      <path
         d="m 151.1511,93.2125 -0.0604,0.121"
         id="path187911" />
      <path
         d="m 151.0907,93.3335 -0.0605,0.0605"
         id="path187913" />
      <path
         d="m 151.0302,93.394 -0.121,0.0604"
         id="path187915" />
      <path
         d="m 150.9092,93.4544 h -0.4838"
         id="path187917" />
      <path
         d="m 150.4254,93.4544 v -1.27"
         id="path187919" />
      <path
         d="m 150.4254,92.1844 h 0.4234"
         id="path187921" />
      <path
         d="m 150.8488,92.1844 0.1209,0.0605"
         id="path187923" />
      <path
         d="m 150.9697,92.2449 0.0605,0.0605"
         id="path187925" />
      <path
         d="m 151.0302,92.3054 0.0605,0.1209"
         id="path187927" />
      <path
         d="m 151.0907,92.4263 v 0.121"
         id="path187929" />
      <path
         d="m 151.0907,92.5473 -0.0605,0.1209"
         id="path187931" />
      <path
         d="m 151.0302,92.6682 -0.0605,0.0605"
         id="path187933" />
      <path
         d="m 150.9697,92.7287 -0.1209,0.0605"
         id="path187935" />
      <path
         d="m 150.8488,92.7892 h -0.4234"
         id="path187937" />
      <path
         d="m 151.6954,92.9706 h 0.9677"
         id="path187939" />
      <path
         d="M 152.1792,93.4544 V 92.4868"
         id="path187941" />
    </g>
  </g>
  <g
     style="fill:#2aa198;fill-opacity:0;stroke:#2aa198;stroke-width:0.1588;stroke-linecap:round;stroke-linejoin:round;stroke-opacity:1"
     id="g187947"
     transform="translate(-106.73853,-78.54)" />
  <g
     style="fill:#2aa198;fill-opacity:0;stroke:#2aa198;stroke-width:0.4;stroke-linecap:round;stroke-linejoin:round;stroke-opacity:1"
     id="g187965"
     transform="translate(-106.73853,-78.54)">
    <text
       x="149.86"
       y="86.010696"
       textLength="3.6070001"
       font-size="1.6933px"
       lengthAdjust="spacingAndGlyphs"
       text-anchor="start"
       opacity="0"
       id="text187949">A+</text>
    <g
       class="stroked-text"
       id="g187963">
      <desc
         id="desc187951">A+</desc>
      <path
         d="m 150.365,85.4716 h 0.6047"
         id="path187953" />
      <path
         d="m 150.244,85.8344 0.4233,-1.27"
         id="path187955" />
      <path
         d="m 150.6673,84.5644 0.4234,1.27"
         id="path187957" />
      <path
         d="m 151.514,85.3506 h 0.9677"
         id="path187959" />
      <path
         d="M 151.9978,85.8344 V 84.8668"
         id="path187961" />
    </g>
  </g>
  <g
     style="fill:#2aa198;fill-opacity:0;stroke:#2aa198;stroke-width:0.1588;stroke-linecap:round;stroke-linejoin:round;stroke-opacity:1"
     id="g187967"
     transform="translate(-106.73853,-78.54)" />
  <g
     style="fill:#2aa198;fill-opacity:0;stroke:#2aa198;stroke-width:0.4;stroke-linecap:round;stroke-linejoin:round;stroke-opacity:1"
     id="g188013"
     transform="translate(-106.73853,-78.54)">
    <text
       x="149.86"
       y="96.1707"
       textLength="3.7883999"
       font-size="1.6933px"
       lengthAdjust="spacingAndGlyphs"
       text-anchor="start"
       opacity="0"
       id="text187969">B-</text>
    <g
       class="stroked-text"
       id="g188011">
      <desc
         id="desc187971">B-</desc>
      <path
         d="m 150.8488,95.3292 0.1814,0.0605"
         id="path187973" />
      <path
         d="m 151.0302,95.3897 0.0605,0.0604"
         id="path187975" />
      <path
         d="m 151.0907,95.4501 0.0604,0.121"
         id="path187977" />
      <path
         d="m 151.1511,95.5711 v 0.1814"
         id="path187979" />
      <path
         d="m 151.1511,95.7525 -0.0604,0.121"
         id="path187981" />
      <path
         d="m 151.0907,95.8735 -0.0605,0.0605"
         id="path187983" />
      <path
         d="m 151.0302,95.934 -0.121,0.0604"
         id="path187985" />
      <path
         d="m 150.9092,95.9944 h -0.4838"
         id="path187987" />
      <path
         d="m 150.4254,95.9944 v -1.27"
         id="path187989" />
      <path
         d="m 150.4254,94.7244 h 0.4234"
         id="path187991" />
      <path
         d="m 150.8488,94.7244 0.1209,0.0605"
         id="path187993" />
      <path
         d="m 150.9697,94.7849 0.0605,0.0605"
         id="path187995" />
      <path
         d="m 151.0302,94.8454 0.0605,0.1209"
         id="path187997" />
      <path
         d="m 151.0907,94.9663 v 0.121"
         id="path187999" />
      <path
         d="m 151.0907,95.0873 -0.0605,0.1209"
         id="path188001" />
      <path
         d="m 151.0302,95.2082 -0.0605,0.0605"
         id="path188003" />
      <path
         d="m 150.9697,95.2687 -0.1209,0.0605"
         id="path188005" />
      <path
         d="m 150.8488,95.3292 h -0.4234"
         id="path188007" />
      <path
         d="m 151.6954,95.5106 h 0.9677"
         id="path188009" />
    </g>
  </g>
  <g
     style="fill:#2aa198;fill-opacity:0;stroke:#2aa198;stroke-width:0.1588;stroke-linecap:round;stroke-linejoin:round;stroke-opacity:1"
     id="g188015"
     transform="translate(-106.73853,-78.54)" />
  <g
     style="fill:#2aa198;fill-opacity:0;stroke:#2aa198;stroke-width:0.4;stroke-linecap:round;stroke-linejoin:round;stroke-opacity:1"
     id="g188031"
     transform="translate(-106.73853,-78.54)">
    <text
       x="158.75"
       y="89.820702"
       textLength="3.6070001"
       font-size="1.6933px"
       lengthAdjust="spacingAndGlyphs"
       text-anchor="end"
       opacity="0"
       id="text188017">A-</text>
    <g
       class="stroked-text"
       id="g188029">
      <desc
         id="desc188019">A-</desc>
      <path
         d="m 156.0678,89.2816 h 0.6047"
         id="path188021" />
      <path
         d="m 155.9468,89.6444 0.4233,-1.27"
         id="path188023" />
      <path
         d="m 156.3701,88.3744 0.4234,1.27"
         id="path188025" />
      <path
         d="m 157.2168,89.1606 h 0.9677"
         id="path188027" />
    </g>
  </g>
  <g
     style="fill:#2aa198;fill-opacity:0;stroke:#2aa198;stroke-width:0.1588;stroke-linecap:round;stroke-linejoin:round;stroke-opacity:1"
     id="g188033"
     transform="translate(-106.73853,-78.54)" />
  <g
     style="fill:#2aa198;fill-opacity:0;stroke:#2aa198;stroke-width:0.4;stroke-linecap:round;stroke-linejoin:round;stroke-opacity:1"
     id="g188153"
     transform="translate(-106.73853,-78.54)">
    <text
       x="116.84"
       y="80.930702"
       textLength="10.0175"
       font-size="1.6933px"
       lengthAdjust="spacingAndGlyphs"
       text-anchor="end"
       opacity="0"
       id="text188035">SPI/UART</text>
    <g
       class="stroked-text"
       id="g188151">
      <desc
         id="desc188037">SPI/UART</desc>
      <path
         d="m 107.7473,80.694 0.1814,0.0604"
         id="path188039" />
      <path
         d="m 107.9287,80.7544 h 0.3024"
         id="path188041" />
      <path
         d="M 108.2311,80.7544 108.352,80.694"
         id="path188043" />
      <path
         d="m 108.352,80.694 0.0605,-0.0605"
         id="path188045" />
      <path
         d="m 108.4125,80.6335 0.0605,-0.121"
         id="path188047" />
      <path
         d="M 108.473,80.5125 V 80.3916"
         id="path188049" />
      <path
         d="m 108.473,80.3916 -0.0605,-0.121"
         id="path188051" />
      <path
         d="M 108.4125,80.2706 108.352,80.2101"
         id="path188053" />
      <path
         d="m 108.352,80.2101 -0.1209,-0.0604"
         id="path188055" />
      <path
         d="m 108.2311,80.1497 -0.2419,-0.0605"
         id="path188057" />
      <path
         d="m 107.9892,80.0892 -0.121,-0.0605"
         id="path188059" />
      <path
         d="m 107.8682,80.0287 -0.0605,-0.0605"
         id="path188061" />
      <path
         d="m 107.8077,79.9682 -0.0604,-0.1209"
         id="path188063" />
      <path
         d="m 107.7473,79.8473 v -0.121"
         id="path188065" />
      <path
         d="m 107.7473,79.7263 0.0604,-0.1209"
         id="path188067" />
      <path
         d="m 107.8077,79.6054 0.0605,-0.0605"
         id="path188069" />
      <path
         d="m 107.8682,79.5449 0.121,-0.0605"
         id="path188071" />
      <path
         d="m 107.9892,79.4844 h 0.3023"
         id="path188073" />
      <path
         d="m 108.2915,79.4844 0.1815,0.0605"
         id="path188075" />
      <path
         d="m 109.0172,80.7544 v -1.27"
         id="path188077" />
      <path
         d="m 109.0172,79.4844 h 0.4838"
         id="path188079" />
      <path
         d="m 109.501,79.4844 0.121,0.0605"
         id="path188081" />
      <path
         d="m 109.622,79.5449 0.0605,0.0605"
         id="path188083" />
      <path
         d="m 109.6825,79.6054 0.0604,0.1209"
         id="path188085" />
      <path
         d="m 109.7429,79.7263 v 0.1815"
         id="path188087" />
      <path
         d="m 109.7429,79.9078 -0.0604,0.1209"
         id="path188089" />
      <path
         d="m 109.6825,80.0287 -0.0605,0.0605"
         id="path188091" />
      <path
         d="m 109.622,80.0892 -0.121,0.0605"
         id="path188093" />
      <path
         d="m 109.501,80.1497 h -0.4838"
         id="path188095" />
      <path
         d="m 110.2872,80.7544 v -1.27"
         id="path188097" />
      <path
         d="m 111.7992,79.424 -1.0886,1.6328"
         id="path188099" />
      <path
         d="m 112.2225,79.4844 v 1.0281"
         id="path188101" />
      <path
         d="m 112.2225,80.5125 0.0605,0.121"
         id="path188103" />
      <path
         d="m 112.283,80.6335 0.0605,0.0605"
         id="path188105" />
      <path
         d="m 112.3435,80.694 0.1209,0.0604"
         id="path188107" />
      <path
         d="m 112.4644,80.7544 h 0.2419"
         id="path188109" />
      <path
         d="m 112.7063,80.7544 0.121,-0.0604"
         id="path188111" />
      <path
         d="m 112.8273,80.694 0.0605,-0.0605"
         id="path188113" />
      <path
         d="m 112.8878,80.6335 0.0604,-0.121"
         id="path188115" />
      <path
         d="M 112.9482,80.5125 V 79.4844"
         id="path188117" />
      <path
         d="m 113.4926,80.3916 h 0.6047"
         id="path188119" />
      <path
         d="m 113.3716,80.7544 0.4233,-1.27"
         id="path188121" />
      <path
         d="m 113.7949,79.4844 0.4234,1.27"
         id="path188123" />
      <path
         d="M 115.3673,80.7544 114.944,80.1497"
         id="path188125" />
      <path
         d="m 114.6416,80.7544 v -1.27"
         id="path188127" />
      <path
         d="m 114.6416,79.4844 h 0.4838"
         id="path188129" />
      <path
         d="m 115.1254,79.4844 0.121,0.0605"
         id="path188131" />
      <path
         d="m 115.2464,79.5449 0.0605,0.0605"
         id="path188133" />
      <path
         d="m 115.3069,79.6054 0.0604,0.1209"
         id="path188135" />
      <path
         d="m 115.3673,79.7263 v 0.1815"
         id="path188137" />
      <path
         d="m 115.3673,79.9078 -0.0604,0.1209"
         id="path188139" />
      <path
         d="m 115.3069,80.0287 -0.0605,0.0605"
         id="path188141" />
      <path
         d="m 115.2464,80.0892 -0.121,0.0605"
         id="path188143" />
      <path
         d="m 115.1254,80.1497 h -0.4838"
         id="path188145" />
      <path
         d="m 115.7302,79.4844 h 0.7257"
         id="path188147" />
      <path
         d="m 116.0931,80.7544 v -1.27"
         id="path188149" />
    </g>
  </g>
  <g
     style="fill:#2aa198;fill-opacity:0;stroke:#2aa198;stroke-width:0.1524;stroke-linecap:round;stroke-linejoin:round;stroke-opacity:1"
     id="g188155"
     transform="translate(-106.73853,-78.54)" />
  <g
     style="fill:#859900;fill-opacity:0;stroke:#859900;stroke-width:0.1524;stroke-linecap:round;stroke-linejoin:round;stroke-opacity:1"
     id="g188157"
     transform="translate(-106.73853,-78.54)" />
  <g
     style="fill:#859900;fill-opacity:0;stroke:#859900;stroke-width:0.4;stroke-linecap:round;stroke-linejoin:round;stroke-opacity:1"
     id="g188161"
     transform="translate(-106.73853,-78.54)">
    <path
       d="m 149.86,93.98 h -2.54"
       id="path188159" />
  </g>
  <g
     style="fill:#859900;fill-opacity:0;stroke:#859900;stroke-width:0.1524;stroke-linecap:round;stroke-linejoin:round;stroke-opacity:1"
     id="g188163"
     transform="translate(-106.73853,-78.54)" />
  <g
     style="fill:#859900;fill-opacity:0;stroke:#859900;stroke-width:0.4;stroke-linecap:round;stroke-linejoin:round;stroke-opacity:1"
     id="g188167"
     transform="translate(-106.73853,-78.54)">
    <path
       d="m 149.86,96.52 h -2.54"
       id="path188165" />
  </g>
  <g
     style="fill:#859900;fill-opacity:0;stroke:#859900;stroke-width:0.1524;stroke-linecap:round;stroke-linejoin:round;stroke-opacity:1"
     id="g188169"
     transform="translate(-106.73853,-78.54)" />
  <g
     style="fill:#859900;fill-opacity:0;stroke:#859900;stroke-width:0.4;stroke-linecap:round;stroke-linejoin:round;stroke-opacity:1"
     id="g188173"
     transform="translate(-106.73853,-78.54)">
    <path
       d="m 158.75,85.09 h 2.54"
       id="path188171" />
  </g>
  <g
     style="fill:#859900;fill-opacity:0;stroke:#859900;stroke-width:0.1524;stroke-linecap:round;stroke-linejoin:round;stroke-opacity:1"
     id="g188175"
     transform="translate(-106.73853,-78.54)" />
  <g
     style="fill:#859900;fill-opacity:0;stroke:#859900;stroke-width:0.4;stroke-linecap:round;stroke-linejoin:round;stroke-opacity:1"
     id="g188179"
     transform="translate(-106.73853,-78.54)">
    <path
       d="m 158.75,90.17 h 2.54"
       id="path188177" />
  </g>
  <g
     style="fill:#859900;fill-opacity:0;stroke:#859900;stroke-width:0.1524;stroke-linecap:round;stroke-linejoin:round;stroke-opacity:1"
     id="g188181"
     transform="translate(-106.73853,-78.54)" />
  <g
     style="fill:#859900;fill-opacity:0;stroke:#859900;stroke-width:0.4;stroke-linecap:round;stroke-linejoin:round;stroke-opacity:1"
     id="g188185"
     transform="translate(-106.73853,-78.54)">
    <path
       d="M 172.72,99.06 V 96.52"
       id="path188183" />
  </g>
  <g
     style="fill:#859900;fill-opacity:0;stroke:#859900;stroke-width:0.1524;stroke-linecap:round;stroke-linejoin:round;stroke-opacity:1"
     id="g188187"
     transform="translate(-106.73853,-78.54)" />
  <g
     style="fill:#859900;fill-opacity:0;stroke:#859900;stroke-width:0.4;stroke-linecap:round;stroke-linejoin:round;stroke-opacity:1"
     id="g188191"
     transform="translate(-106.73853,-78.54)">
    <path
       d="M 167.64,99.06 V 96.52"
       id="path188189" />
  </g>
  <g
     style="fill:#859900;fill-opacity:0;stroke:#859900;stroke-width:0.1524;stroke-linecap:round;stroke-linejoin:round;stroke-opacity:1"
     id="g188193"
     transform="translate(-106.73853,-78.54)" />
  <g
     style="fill:#859900;fill-opacity:0;stroke:#859900;stroke-width:0.4;stroke-linecap:round;stroke-linejoin:round;stroke-opacity:1"
     id="g188197"
     transform="translate(-106.73853,-78.54)">
    <path
       d="m 149.86,88.9 h -2.54"
       id="path188195" />
  </g>
  <g
     style="fill:#859900;fill-opacity:0;stroke:#859900;stroke-width:0.1524;stroke-linecap:round;stroke-linejoin:round;stroke-opacity:1"
     id="g188199"
     transform="translate(-106.73853,-78.54)" />
  <g
     style="fill:#859900;fill-opacity:0;stroke:#859900;stroke-width:0.4;stroke-linecap:round;stroke-linejoin:round;stroke-opacity:1"
     id="g188203"
     transform="translate(-106.73853,-78.54)">
    <path
       d="m 149.86,86.36 h -2.54"
       id="path188201" />
  </g>
  <g
     style="fill:#859900;fill-opacity:0;stroke:#859900;stroke-width:0.1524;stroke-linecap:round;stroke-linejoin:round;stroke-opacity:1"
     id="g188205"
     transform="translate(-106.73853,-78.54)" />
  <g
     style="fill:#859900;fill-opacity:0;stroke:#859900;stroke-width:0.4;stroke-linecap:round;stroke-linejoin:round;stroke-opacity:1"
     id="g188209"
     transform="translate(-106.73853,-78.54)">
    <path
       d="m 116.84,81.28 h 2.54"
       id="path188207" />
  </g>
</svg>
