<?xml version="1.0" encoding="UTF-8" standalone="no"?>
<svg
   version="1.1"
   width="66.892662mm"
   height="25.799999mm"
   viewBox="0 0 66.892663 25.799999"
   id="svg125816"
   xmlns="http://www.w3.org/2000/svg"
   xmlns:svg="http://www.w3.org/2000/svg">
  <defs
     id="defs125820" />
  <title
     id="title125116">SVG Image created as trinamic_wiring-TMC51X0-description.svg date 2024/01/31 15:00:37 </title>
  <desc
     id="desc125118">Image generated by Eeschema-SVG </desc>
  <g
     style="fill:#000000;fill-opacity:1;stroke:#000000;stroke-linecap:round;stroke-linejoin:round;stroke-opacity:1"
     id="g125120"
     transform="translate(-106.73853,-78.54)" />
  <g
     style="fill:#000000;fill-opacity:0;stroke:#000000;stroke-width:0.1524;stroke-linecap:round;stroke-linejoin:round;stroke-opacity:1"
     id="g125122"
     transform="translate(-106.73853,-78.54)" />
  <g
     style="fill:#000000;fill-opacity:0;stroke:#000000;stroke-width:0.1588;stroke-linecap:round;stroke-linejoin:round;stroke-opacity:1"
     id="g125124"
     transform="translate(-106.73853,-78.54)" />
  <g
     style="fill:#000000;fill-opacity:0;stroke:#000000;stroke-width:0.4;stroke-linecap:round;stroke-linejoin:round;stroke-opacity:1"
     id="g125126"
     transform="translate(-106.73853,-78.54)" />
  <g
     style="fill:#000000;fill-opacity:0;stroke:#000000;stroke-width:0.1588;stroke-linecap:round;stroke-linejoin:round;stroke-opacity:1"
     id="g125128"
     transform="translate(-106.73853,-78.54)" />
  <g
     style="fill:#000000;fill-opacity:0;stroke:#000000;stroke-width:0.4;stroke-linecap:round;stroke-linejoin:round;stroke-opacity:1"
     id="g125130"
     transform="translate(-106.73853,-78.54)" />
  <g
     style="fill:#000000;fill-opacity:0;stroke:#000000;stroke-width:0.1588;stroke-linecap:round;stroke-linejoin:round;stroke-opacity:1"
     id="g125132"
     transform="translate(-106.73853,-78.54)" />
  <g
     style="fill:#000000;fill-opacity:0;stroke:#000000;stroke-width:0.4;stroke-linecap:round;stroke-linejoin:round;stroke-opacity:1"
     id="g125134"
     transform="translate(-106.73853,-78.54)" />
  <g
     style="fill:#000000;fill-opacity:0;stroke:#000000;stroke-width:0.1588;stroke-linecap:round;stroke-linejoin:round;stroke-opacity:1"
     id="g125136"
     transform="translate(-106.73853,-78.54)" />
  <g
     style="fill:#000000;fill-opacity:0;stroke:#000000;stroke-width:0.4;stroke-linecap:round;stroke-linejoin:round;stroke-opacity:1"
     id="g125138"
     transform="translate(-106.73853,-78.54)" />
  <g
     style="fill:#000000;fill-opacity:0;stroke:#000000;stroke-width:0.1588;stroke-linecap:round;stroke-linejoin:round;stroke-opacity:1"
     id="g125140"
     transform="translate(-106.73853,-78.54)" />
  <g
     style="fill:#000000;fill-opacity:0;stroke:#000000;stroke-width:0.4;stroke-linecap:round;stroke-linejoin:round;stroke-opacity:1"
     id="g125142"
     transform="translate(-106.73853,-78.54)" />
  <g
     style="fill:#000000;fill-opacity:0;stroke:#000000;stroke-width:0.1588;stroke-linecap:round;stroke-linejoin:round;stroke-opacity:1"
     id="g125144"
     transform="translate(-106.73853,-78.54)" />
  <g
     style="fill:#000000;fill-opacity:0;stroke:#000000;stroke-width:0.4;stroke-linecap:round;stroke-linejoin:round;stroke-opacity:1"
     id="g125146"
     transform="translate(-106.73853,-78.54)" />
  <g
     style="fill:#000000;fill-opacity:0;stroke:#000000;stroke-width:0.1588;stroke-linecap:round;stroke-linejoin:round;stroke-opacity:1"
     id="g125148"
     transform="translate(-106.73853,-78.54)" />
  <g
     style="fill:#000000;fill-opacity:0;stroke:#000000;stroke-width:0.4;stroke-linecap:round;stroke-linejoin:round;stroke-opacity:1"
     id="g125150"
     transform="translate(-106.73853,-78.54)" />
  <g
     style="fill:#000000;fill-opacity:0;stroke:#000000;stroke-width:0.1588;stroke-linecap:round;stroke-linejoin:round;stroke-opacity:1"
     id="g125152"
     transform="translate(-106.73853,-78.54)" />
  <g
     style="fill:#000000;fill-opacity:0;stroke:#000000;stroke-width:0.4;stroke-linecap:round;stroke-linejoin:round;stroke-opacity:1"
     id="g125154"
     transform="translate(-106.73853,-78.54)" />
  <g
     style="fill:#000000;fill-opacity:0;stroke:#000000;stroke-width:0.1588;stroke-linecap:round;stroke-linejoin:round;stroke-opacity:1"
     id="g125156"
     transform="translate(-106.73853,-78.54)" />
  <g
     style="fill:#000000;fill-opacity:0;stroke:#000000;stroke-width:0.4;stroke-linecap:round;stroke-linejoin:round;stroke-opacity:1"
     id="g125158"
     transform="translate(-106.73853,-78.54)" />
  <g
     style="fill:#000000;fill-opacity:0;stroke:#000000;stroke-width:0.1524;stroke-linecap:round;stroke-linejoin:round;stroke-opacity:1"
     id="g125202"
     transform="translate(-106.73853,-78.54)">
    <g
       id="g125160" />
    <g
       style="fill:#586e75;fill-opacity:0;stroke:#586e75;stroke-width:0.1524;stroke-linecap:round;stroke-linejoin:round;stroke-opacity:1"
       id="g125162" />
    <g
       style="fill:#586e75;fill-opacity:0;stroke:#586e75;stroke-width:0.4;stroke-linecap:round;stroke-linejoin:round;stroke-opacity:1"
       id="g125200">
      <path
         style="fill:none;fill-opacity:0;stroke:#586e75;stroke-width:0.4;stroke-linecap:round;stroke-linejoin:round;stroke-opacity:1"
         d="m 168.91,89.408 v -3.81 l 1.27,2.54 1.27,-2.54 v 3.81"
         id="path125164" />
      <path
         d="m 165.735,90.17 a 0.635,0.635 0 0 0 0,-1.27"
         id="path125166" />
      <path
         d="m 165.735,88.9 a 0.635,0.635 0 0 0 0,-1.27"
         id="path125168" />
      <path
         d="m 165.735,87.63 a 0.635,0.635 0 0 0 0,-1.27"
         id="path125170" />
      <path
         d="m 165.735,86.36 a 0.635,0.635 0 0 0 0,-1.27"
         id="path125172" />
      <path
         d="m 168.91,92.075 a 0.635,0.635 0 0 0 -1.27,0"
         id="path125174" />
      <path
         d="m 170.18,92.075 a 0.635,0.635 0 0 0 -1.27,0"
         id="path125176" />
      <path
         style="fill:none;fill-opacity:0;stroke:#586e75;stroke-width:0.4;stroke-linecap:round;stroke-linejoin:round;stroke-opacity:1"
         d="m 165.1,90.17 h 0.635"
         id="path125178" />
      <path
         style="fill:none;fill-opacity:0;stroke:#586e75;stroke-width:0.4;stroke-linecap:round;stroke-linejoin:round;stroke-opacity:1"
         d="m 165.1,85.09 h 0.635"
         id="path125180" />
      <path
         style="fill:none;fill-opacity:0;stroke:#586e75;stroke-width:0.4;stroke-linecap:round;stroke-linejoin:round;stroke-opacity:1"
         d="M 167.64,92.71 V 92.075"
         id="path125182" />
      <path
         style="fill:none;fill-opacity:0;stroke:#586e75;stroke-width:0.4;stroke-linecap:round;stroke-linejoin:round;stroke-opacity:1"
         d="M 172.72,92.71 V 92.075"
         id="path125184" />
      <circle
         cx="170.17999"
         cy="87.629997"
         r="3.2512"
         id="circle125186" />
      <path
         d="m 171.45,92.075 a 0.635,0.635 0 0 0 -1.27,0"
         id="path125188" />
      <path
         d="m 172.72,92.075 a 0.635,0.635 0 0 0 -1.27,0"
         id="path125190" />
      <path
         d="m 165.1,85.09 h -3.81"
         id="path125192" />
      <path
         d="m 165.1,90.17 h -3.81"
         id="path125194" />
      <path
         d="m 167.64,92.71 v 3.81"
         id="path125196" />
      <path
         d="m 172.72,92.71 v 3.81"
         id="path125198" />
    </g>
  </g>
  <g
     style="fill:#586e75;fill-opacity:0;stroke:#586e75;stroke-width:0.1524;stroke-linecap:round;stroke-linejoin:round;stroke-opacity:1"
     id="g125358"
     transform="translate(-106.73853,-78.54)">
    <g
       id="g125204" />
    <g
       style="fill:#586e75;fill-opacity:0;stroke:#586e75;stroke-width:0.4;stroke-linecap:round;stroke-linejoin:round;stroke-opacity:1"
       id="g125208">
      <path
         style="fill:none;fill-opacity:0;stroke:#586e75;stroke-width:0.4;stroke-linecap:round;stroke-linejoin:round;stroke-opacity:1"
         d="m 142.24,97.79 v 6.35 h -20.32 v -25.4 h 20.32 v 6.35"
         id="path125206" />
    </g>
    <g
       style="fill:#586e75;fill-opacity:0;stroke:#586e75;stroke-width:0.4;stroke-linecap:round;stroke-linejoin:round;stroke-dasharray:4.4, 1.6;stroke-opacity:1"
       id="g125212">
      <rect
         x="139.7"
         y="85.089996"
         width="5.0799999"
         height="12.7"
         rx="0.000000"
         id="rect125210" />
    </g>
    <g
       style="fill:#586e75;fill-opacity:0;stroke:#586e75;stroke-width:0.4;stroke-linecap:round;stroke-linejoin:round;stroke-opacity:1"
       id="g125356">
      <text
         x="132.08"
         y="92.074997"
         textLength="9.4729996"
         font-size="1.6933px"
         lengthAdjust="spacingAndGlyphs"
         text-anchor="middle"
         opacity="0"
         id="text125214">TMC51X0</text>
      <g
         class="stroked-text"
         id="g125344">
        <desc
           id="desc125216">TMC51X0</desc>
        <path
           d="m 127.9374,90.7367 h 0.7257"
           id="path125218" />
        <path
           d="m 128.3003,92.0067 v -1.27"
           id="path125220" />
        <path
           d="m 129.0864,92.0067 v -1.27"
           id="path125222" />
        <path
           d="m 129.0864,90.7367 0.4234,0.9072"
           id="path125224" />
        <path
           d="m 129.5098,91.6439 0.4233,-0.9072"
           id="path125226" />
        <path
           d="m 129.9331,90.7367 v 1.27"
           id="path125228" />
        <path
           d="m 131.2635,91.8858 -0.0604,0.0605"
           id="path125230" />
        <path
           d="m 131.2031,91.9463 -0.1815,0.0604"
           id="path125232" />
        <path
           d="m 131.0216,92.0067 h -0.1209"
           id="path125234" />
        <path
           d="m 130.9007,92.0067 -0.1814,-0.0604"
           id="path125236" />
        <path
           d="m 130.7193,91.9463 -0.121,-0.121"
           id="path125238" />
        <path
           d="m 130.5983,91.8253 -0.0605,-0.121"
           id="path125240" />
        <path
           d="m 130.5378,91.7043 -0.0604,-0.2419"
           id="path125242" />
        <path
           d="M 130.4774,91.4624 V 91.281"
           id="path125244" />
        <path
           d="m 130.4774,91.281 0.0604,-0.2419"
           id="path125246" />
        <path
           d="m 130.5378,91.0391 0.0605,-0.1209"
           id="path125248" />
        <path
           d="m 130.5983,90.9182 0.121,-0.121"
           id="path125250" />
        <path
           d="m 130.7193,90.7972 0.1814,-0.0605"
           id="path125252" />
        <path
           d="m 130.9007,90.7367 h 0.1209"
           id="path125254" />
        <path
           d="m 131.0216,90.7367 0.1815,0.0605"
           id="path125256" />
        <path
           d="m 131.2031,90.7972 0.0604,0.0605"
           id="path125258" />
        <path
           d="m 132.4126,90.7367 h -0.6048"
           id="path125260" />
        <path
           d="m 131.8078,90.7367 -0.0604,0.6048"
           id="path125262" />
        <path
           d="m 131.7474,91.3415 0.0604,-0.0605"
           id="path125264" />
        <path
           d="m 131.8078,91.281 0.121,-0.0605"
           id="path125266" />
        <path
           d="m 131.9288,91.2205 h 0.3024"
           id="path125268" />
        <path
           d="m 132.2312,91.2205 0.1209,0.0605"
           id="path125270" />
        <path
           d="m 132.3521,91.281 0.0605,0.0605"
           id="path125272" />
        <path
           d="m 132.4126,91.3415 0.0605,0.1209"
           id="path125274" />
        <path
           d="m 132.4731,91.4624 v 0.3024"
           id="path125276" />
        <path
           d="m 132.4731,91.7648 -0.0605,0.121"
           id="path125278" />
        <path
           d="m 132.4126,91.8858 -0.0605,0.0605"
           id="path125280" />
        <path
           d="m 132.3521,91.9463 -0.1209,0.0604"
           id="path125282" />
        <path
           d="m 132.2312,92.0067 h -0.3024"
           id="path125284" />
        <path
           d="m 131.9288,92.0067 -0.121,-0.0604"
           id="path125286" />
        <path
           d="m 131.8078,91.9463 -0.0604,-0.0605"
           id="path125288" />
        <path
           d="m 133.6826,92.0067 h -0.7257"
           id="path125290" />
        <path
           d="m 133.3197,92.0067 v -1.27"
           id="path125292" />
        <path
           d="m 133.3197,90.7367 -0.1209,0.1815"
           id="path125294" />
        <path
           d="m 133.1988,90.9182 -0.121,0.1209"
           id="path125296" />
        <path
           d="m 133.0778,91.0391 -0.1209,0.0605"
           id="path125298" />
        <path
           d="m 134.1059,90.7367 0.8466,1.27"
           id="path125300" />
        <path
           d="m 134.9525,90.7367 -0.8466,1.27"
           id="path125302" />
        <path
           d="m 135.6782,90.7367 h 0.121"
           id="path125304" />
        <path
           d="m 135.7992,90.7367 0.1209,0.0605"
           id="path125306" />
        <path
           d="m 135.9201,90.7972 0.0605,0.0605"
           id="path125308" />
        <path
           d="m 135.9806,90.8577 0.0605,0.1209"
           id="path125310" />
        <path
           d="m 136.0411,90.9786 0.0605,0.2419"
           id="path125312" />
        <path
           d="m 136.1016,91.2205 v 0.3024"
           id="path125314" />
        <path
           d="m 136.1016,91.5229 -0.0605,0.2419"
           id="path125316" />
        <path
           d="m 136.0411,91.7648 -0.0605,0.121"
           id="path125318" />
        <path
           d="m 135.9806,91.8858 -0.0605,0.0605"
           id="path125320" />
        <path
           d="m 135.9201,91.9463 -0.1209,0.0604"
           id="path125322" />
        <path
           d="m 135.7992,92.0067 h -0.121"
           id="path125324" />
        <path
           d="m 135.6782,92.0067 -0.1209,-0.0604"
           id="path125326" />
        <path
           d="m 135.5573,91.9463 -0.0605,-0.0605"
           id="path125328" />
        <path
           d="m 135.4968,91.8858 -0.0605,-0.121"
           id="path125330" />
        <path
           d="m 135.4363,91.7648 -0.0604,-0.2419"
           id="path125332" />
        <path
           d="M 135.3759,91.5229 V 91.2205"
           id="path125334" />
        <path
           d="m 135.3759,91.2205 0.0604,-0.2419"
           id="path125336" />
        <path
           d="m 135.4363,90.9786 0.0605,-0.1209"
           id="path125338" />
        <path
           d="m 135.4968,90.8577 0.0605,-0.0605"
           id="path125340" />
        <path
           d="m 135.5573,90.7972 0.1209,-0.0605"
           id="path125342" />
      </g>
      <path
         d="m 121.92,81.28 h -2.54"
         id="path125346" />
      <path
         d="m 144.78,86.36 h 2.54"
         id="path125348" />
      <path
         d="m 144.78,88.9 h 2.54"
         id="path125350" />
      <path
         d="m 144.78,93.98 h 2.54"
         id="path125352" />
      <path
         d="m 144.78,96.52 h 2.54"
         id="path125354" />
    </g>
  </g>
  <g
     style="fill:#586e75;fill-opacity:0;stroke:#586e75;stroke-width:0.1588;stroke-linecap:round;stroke-linejoin:round;stroke-opacity:1"
     id="g125360"
     transform="translate(-106.73853,-78.54)" />
  <g
     style="fill:#586e75;fill-opacity:0;stroke:#586e75;stroke-width:0.4;stroke-linecap:round;stroke-linejoin:round;stroke-opacity:1"
     id="g125362"
     transform="translate(-106.73853,-78.54)" />
  <g
     style="fill:#2aa198;fill-opacity:0;stroke:#2aa198;stroke-width:0.4;stroke-linecap:round;stroke-linejoin:round;stroke-opacity:1"
     id="g125380"
     transform="translate(-106.73853,-78.54)">
    <text
       x="158.75"
       y="84.7407"
       textLength="3.6070001"
       font-size="1.6933px"
       lengthAdjust="spacingAndGlyphs"
       text-anchor="end"
       opacity="0"
       id="text125364">A+</text>
    <g
       class="stroked-text"
       id="g125378">
      <desc
         id="desc125366">A+</desc>
      <path
         d="m 156.0678,84.2016 h 0.6047"
         id="path125368" />
      <path
         d="m 155.9468,84.5644 0.4233,-1.27"
         id="path125370" />
      <path
         d="m 156.3701,83.2944 0.4234,1.27"
         id="path125372" />
      <path
         d="m 157.2168,84.0806 h 0.9677"
         id="path125374" />
      <path
         d="M 157.7006,84.5644 V 83.5968"
         id="path125376" />
    </g>
  </g>
  <g
     style="fill:#2aa198;fill-opacity:0;stroke:#2aa198;stroke-width:0.1588;stroke-linecap:round;stroke-linejoin:round;stroke-opacity:1"
     id="g125382"
     transform="translate(-106.73853,-78.54)" />
  <g
     style="fill:#2aa198;fill-opacity:0;stroke:#2aa198;stroke-width:0.4;stroke-linecap:round;stroke-linejoin:round;stroke-opacity:1"
     id="g125430"
     transform="translate(-106.73853,-78.54)">
    <g
       transform="rotate(-90,172.3707,99.06)"
       id="g125386">
      <text
         x="172.3707"
         y="99.059998"
         textLength="3.7883999"
         font-size="1.6933px"
         lengthAdjust="spacingAndGlyphs"
         text-anchor="end"
         opacity="0"
         id="text125384">B-</text>
    </g>
    <g
       class="stroked-text"
       id="g125428">
      <desc
         id="desc125388">B-</desc>
      <path
         d="m 171.5292,101.4397 0.0605,-0.1814"
         id="path125390" />
      <path
         d="m 171.5897,101.2583 0.0604,-0.0605"
         id="path125392" />
      <path
         d="m 171.6501,101.1978 0.121,-0.0604"
         id="path125394" />
      <path
         d="m 171.7711,101.1374 h 0.1814"
         id="path125396" />
      <path
         d="m 171.9525,101.1374 0.121,0.0604"
         id="path125398" />
      <path
         d="m 172.0735,101.1978 0.0605,0.0605"
         id="path125400" />
      <path
         d="m 172.134,101.2583 0.0604,0.121"
         id="path125402" />
      <path
         d="m 172.1944,101.3793 v 0.4838"
         id="path125404" />
      <path
         d="m 172.1944,101.8631 h -1.27"
         id="path125406" />
      <path
         d="m 170.9244,101.8631 v -0.4234"
         id="path125408" />
      <path
         d="m 170.9244,101.4397 0.0605,-0.1209"
         id="path125410" />
      <path
         d="m 170.9849,101.3188 0.0605,-0.0605"
         id="path125412" />
      <path
         d="m 171.0454,101.2583 0.1209,-0.0605"
         id="path125414" />
      <path
         d="m 171.1663,101.1978 h 0.121"
         id="path125416" />
      <path
         d="m 171.2873,101.1978 0.1209,0.0605"
         id="path125418" />
      <path
         d="m 171.4082,101.2583 0.0605,0.0605"
         id="path125420" />
      <path
         d="m 171.4687,101.3188 0.0605,0.1209"
         id="path125422" />
      <path
         d="m 171.5292,101.4397 v 0.4234"
         id="path125424" />
      <path
         d="M 171.7106,100.5931 V 99.6255"
         id="path125426" />
    </g>
  </g>
  <g
     style="fill:#2aa198;fill-opacity:0;stroke:#2aa198;stroke-width:0.1588;stroke-linecap:round;stroke-linejoin:round;stroke-opacity:1"
     id="g125432"
     transform="translate(-106.73853,-78.54)" />
  <g
     style="fill:#2aa198;fill-opacity:0;stroke:#2aa198;stroke-width:0.4;stroke-linecap:round;stroke-linejoin:round;stroke-opacity:1"
     id="g125482"
     transform="translate(-106.73853,-78.54)">
    <g
       transform="rotate(-90,167.2907,99.06)"
       id="g125436">
      <text
         x="167.2907"
         y="99.059998"
         textLength="3.7883999"
         font-size="1.6933px"
         lengthAdjust="spacingAndGlyphs"
         text-anchor="end"
         opacity="0"
         id="text125434">B+</text>
    </g>
    <g
       class="stroked-text"
       id="g125480">
      <desc
         id="desc125438">B+</desc>
      <path
         d="m 166.4492,101.4397 0.0605,-0.1814"
         id="path125440" />
      <path
         d="m 166.5097,101.2583 0.0604,-0.0605"
         id="path125442" />
      <path
         d="m 166.5701,101.1978 0.121,-0.0604"
         id="path125444" />
      <path
         d="m 166.6911,101.1374 h 0.1814"
         id="path125446" />
      <path
         d="m 166.8725,101.1374 0.121,0.0604"
         id="path125448" />
      <path
         d="m 166.9935,101.1978 0.0605,0.0605"
         id="path125450" />
      <path
         d="m 167.054,101.2583 0.0604,0.121"
         id="path125452" />
      <path
         d="m 167.1144,101.3793 v 0.4838"
         id="path125454" />
      <path
         d="m 167.1144,101.8631 h -1.27"
         id="path125456" />
      <path
         d="m 165.8444,101.8631 v -0.4234"
         id="path125458" />
      <path
         d="m 165.8444,101.4397 0.0605,-0.1209"
         id="path125460" />
      <path
         d="m 165.9049,101.3188 0.0605,-0.0605"
         id="path125462" />
      <path
         d="m 165.9654,101.2583 0.1209,-0.0605"
         id="path125464" />
      <path
         d="m 166.0863,101.1978 h 0.121"
         id="path125466" />
      <path
         d="m 166.2073,101.1978 0.1209,0.0605"
         id="path125468" />
      <path
         d="m 166.3282,101.2583 0.0605,0.0605"
         id="path125470" />
      <path
         d="m 166.3887,101.3188 0.0605,0.1209"
         id="path125472" />
      <path
         d="m 166.4492,101.4397 v 0.4234"
         id="path125474" />
      <path
         d="M 166.6306,100.5931 V 99.6255"
         id="path125476" />
      <path
         d="m 167.1144,100.1093 h -0.9676"
         id="path125478" />
    </g>
  </g>
  <g
     style="fill:#2aa198;fill-opacity:0;stroke:#2aa198;stroke-width:0.1588;stroke-linecap:round;stroke-linejoin:round;stroke-opacity:1"
     id="g125484"
     transform="translate(-106.73853,-78.54)" />
  <g
     style="fill:#2aa198;fill-opacity:0;stroke:#2aa198;stroke-width:0.4;stroke-linecap:round;stroke-linejoin:round;stroke-opacity:1"
     id="g125500"
     transform="translate(-106.73853,-78.54)">
    <text
       x="149.86"
       y="88.550697"
       textLength="3.6070001"
       font-size="1.6933px"
       lengthAdjust="spacingAndGlyphs"
       text-anchor="start"
       opacity="0"
       id="text125486">A-</text>
    <g
       class="stroked-text"
       id="g125498">
      <desc
         id="desc125488">A-</desc>
      <path
         d="m 150.365,88.0116 h 0.6047"
         id="path125490" />
      <path
         d="m 150.244,88.3744 0.4233,-1.27"
         id="path125492" />
      <path
         d="m 150.6673,87.1044 0.4234,1.27"
         id="path125494" />
      <path
         d="m 151.514,87.8906 h 0.9677"
         id="path125496" />
    </g>
  </g>
  <g
     style="fill:#2aa198;fill-opacity:0;stroke:#2aa198;stroke-width:0.1588;stroke-linecap:round;stroke-linejoin:round;stroke-opacity:1"
     id="g125502"
     transform="translate(-106.73853,-78.54)" />
  <g
     style="fill:#2aa198;fill-opacity:0;stroke:#2aa198;stroke-width:0.4;stroke-linecap:round;stroke-linejoin:round;stroke-opacity:1"
     id="g125550"
     transform="translate(-106.73853,-78.54)">
    <text
       x="149.86"
       y="93.630699"
       textLength="3.7883999"
       font-size="1.6933px"
       lengthAdjust="spacingAndGlyphs"
       text-anchor="start"
       opacity="0"
       id="text125504">B+</text>
    <g
       class="stroked-text"
       id="g125548">
      <desc
         id="desc125506">B+</desc>
      <path
         d="m 150.8488,92.7892 0.1814,0.0605"
         id="path125508" />
      <path
         d="m 151.0302,92.8497 0.0605,0.0604"
         id="path125510" />
      <path
         d="m 151.0907,92.9101 0.0604,0.121"
         id="path125512" />
      <path
         d="m 151.1511,93.0311 v 0.1814"
         id="path125514" />
      <path
         d="m 151.1511,93.2125 -0.0604,0.121"
         id="path125516" />
      <path
         d="m 151.0907,93.3335 -0.0605,0.0605"
         id="path125518" />
      <path
         d="m 151.0302,93.394 -0.121,0.0604"
         id="path125520" />
      <path
         d="m 150.9092,93.4544 h -0.4838"
         id="path125522" />
      <path
         d="m 150.4254,93.4544 v -1.27"
         id="path125524" />
      <path
         d="m 150.4254,92.1844 h 0.4234"
         id="path125526" />
      <path
         d="m 150.8488,92.1844 0.1209,0.0605"
         id="path125528" />
      <path
         d="m 150.9697,92.2449 0.0605,0.0605"
         id="path125530" />
      <path
         d="m 151.0302,92.3054 0.0605,0.1209"
         id="path125532" />
      <path
         d="m 151.0907,92.4263 v 0.121"
         id="path125534" />
      <path
         d="m 151.0907,92.5473 -0.0605,0.1209"
         id="path125536" />
      <path
         d="m 151.0302,92.6682 -0.0605,0.0605"
         id="path125538" />
      <path
         d="m 150.9697,92.7287 -0.1209,0.0605"
         id="path125540" />
      <path
         d="m 150.8488,92.7892 h -0.4234"
         id="path125542" />
      <path
         d="m 151.6954,92.9706 h 0.9677"
         id="path125544" />
      <path
         d="M 152.1792,93.4544 V 92.4868"
         id="path125546" />
    </g>
  </g>
  <g
     style="fill:#2aa198;fill-opacity:0;stroke:#2aa198;stroke-width:0.1588;stroke-linecap:round;stroke-linejoin:round;stroke-opacity:1"
     id="g125552"
     transform="translate(-106.73853,-78.54)" />
  <g
     style="fill:#2aa198;fill-opacity:0;stroke:#2aa198;stroke-width:0.4;stroke-linecap:round;stroke-linejoin:round;stroke-opacity:1"
     id="g125570"
     transform="translate(-106.73853,-78.54)">
    <text
       x="149.86"
       y="86.010696"
       textLength="3.6070001"
       font-size="1.6933px"
       lengthAdjust="spacingAndGlyphs"
       text-anchor="start"
       opacity="0"
       id="text125554">A+</text>
    <g
       class="stroked-text"
       id="g125568">
      <desc
         id="desc125556">A+</desc>
      <path
         d="m 150.365,85.4716 h 0.6047"
         id="path125558" />
      <path
         d="m 150.244,85.8344 0.4233,-1.27"
         id="path125560" />
      <path
         d="m 150.6673,84.5644 0.4234,1.27"
         id="path125562" />
      <path
         d="m 151.514,85.3506 h 0.9677"
         id="path125564" />
      <path
         d="M 151.9978,85.8344 V 84.8668"
         id="path125566" />
    </g>
  </g>
  <g
     style="fill:#2aa198;fill-opacity:0;stroke:#2aa198;stroke-width:0.1588;stroke-linecap:round;stroke-linejoin:round;stroke-opacity:1"
     id="g125572"
     transform="translate(-106.73853,-78.54)" />
  <g
     style="fill:#2aa198;fill-opacity:0;stroke:#2aa198;stroke-width:0.4;stroke-linecap:round;stroke-linejoin:round;stroke-opacity:1"
     id="g125618"
     transform="translate(-106.73853,-78.54)">
    <text
       x="149.86"
       y="96.1707"
       textLength="3.7883999"
       font-size="1.6933px"
       lengthAdjust="spacingAndGlyphs"
       text-anchor="start"
       opacity="0"
       id="text125574">B-</text>
    <g
       class="stroked-text"
       id="g125616">
      <desc
         id="desc125576">B-</desc>
      <path
         d="m 150.8488,95.3292 0.1814,0.0605"
         id="path125578" />
      <path
         d="m 151.0302,95.3897 0.0605,0.0604"
         id="path125580" />
      <path
         d="m 151.0907,95.4501 0.0604,0.121"
         id="path125582" />
      <path
         d="m 151.1511,95.5711 v 0.1814"
         id="path125584" />
      <path
         d="m 151.1511,95.7525 -0.0604,0.121"
         id="path125586" />
      <path
         d="m 151.0907,95.8735 -0.0605,0.0605"
         id="path125588" />
      <path
         d="m 151.0302,95.934 -0.121,0.0604"
         id="path125590" />
      <path
         d="m 150.9092,95.9944 h -0.4838"
         id="path125592" />
      <path
         d="m 150.4254,95.9944 v -1.27"
         id="path125594" />
      <path
         d="m 150.4254,94.7244 h 0.4234"
         id="path125596" />
      <path
         d="m 150.8488,94.7244 0.1209,0.0605"
         id="path125598" />
      <path
         d="m 150.9697,94.7849 0.0605,0.0605"
         id="path125600" />
      <path
         d="m 151.0302,94.8454 0.0605,0.1209"
         id="path125602" />
      <path
         d="m 151.0907,94.9663 v 0.121"
         id="path125604" />
      <path
         d="m 151.0907,95.0873 -0.0605,0.1209"
         id="path125606" />
      <path
         d="m 151.0302,95.2082 -0.0605,0.0605"
         id="path125608" />
      <path
         d="m 150.9697,95.2687 -0.1209,0.0605"
         id="path125610" />
      <path
         d="m 150.8488,95.3292 h -0.4234"
         id="path125612" />
      <path
         d="m 151.6954,95.5106 h 0.9677"
         id="path125614" />
    </g>
  </g>
  <g
     style="fill:#2aa198;fill-opacity:0;stroke:#2aa198;stroke-width:0.1588;stroke-linecap:round;stroke-linejoin:round;stroke-opacity:1"
     id="g125620"
     transform="translate(-106.73853,-78.54)" />
  <g
     style="fill:#2aa198;fill-opacity:0;stroke:#2aa198;stroke-width:0.4;stroke-linecap:round;stroke-linejoin:round;stroke-opacity:1"
     id="g125636"
     transform="translate(-106.73853,-78.54)">
    <text
       x="158.75"
       y="89.820702"
       textLength="3.6070001"
       font-size="1.6933px"
       lengthAdjust="spacingAndGlyphs"
       text-anchor="end"
       opacity="0"
       id="text125622">A-</text>
    <g
       class="stroked-text"
       id="g125634">
      <desc
         id="desc125624">A-</desc>
      <path
         d="m 156.0678,89.2816 h 0.6047"
         id="path125626" />
      <path
         d="m 155.9468,89.6444 0.4233,-1.27"
         id="path125628" />
      <path
         d="m 156.3701,88.3744 0.4234,1.27"
         id="path125630" />
      <path
         d="m 157.2168,89.1606 h 0.9677"
         id="path125632" />
    </g>
  </g>
  <g
     style="fill:#2aa198;fill-opacity:0;stroke:#2aa198;stroke-width:0.1588;stroke-linecap:round;stroke-linejoin:round;stroke-opacity:1"
     id="g125638"
     transform="translate(-106.73853,-78.54)" />
  <g
     style="fill:#2aa198;fill-opacity:0;stroke:#2aa198;stroke-width:0.4;stroke-linecap:round;stroke-linejoin:round;stroke-opacity:1"
     id="g125758"
     transform="translate(-106.73853,-78.54)">
    <text
       x="116.84"
       y="80.930702"
       textLength="10.0175"
       font-size="1.6933px"
       lengthAdjust="spacingAndGlyphs"
       text-anchor="end"
       opacity="0"
       id="text125640">SPI/UART</text>
    <g
       class="stroked-text"
       id="g125756">
      <desc
         id="desc125642">SPI/UART</desc>
      <path
         d="m 107.7473,80.694 0.1814,0.0604"
         id="path125644" />
      <path
         d="m 107.9287,80.7544 h 0.3024"
         id="path125646" />
      <path
         d="M 108.2311,80.7544 108.352,80.694"
         id="path125648" />
      <path
         d="m 108.352,80.694 0.0605,-0.0605"
         id="path125650" />
      <path
         d="m 108.4125,80.6335 0.0605,-0.121"
         id="path125652" />
      <path
         d="M 108.473,80.5125 V 80.3916"
         id="path125654" />
      <path
         d="m 108.473,80.3916 -0.0605,-0.121"
         id="path125656" />
      <path
         d="M 108.4125,80.2706 108.352,80.2101"
         id="path125658" />
      <path
         d="m 108.352,80.2101 -0.1209,-0.0604"
         id="path125660" />
      <path
         d="m 108.2311,80.1497 -0.2419,-0.0605"
         id="path125662" />
      <path
         d="m 107.9892,80.0892 -0.121,-0.0605"
         id="path125664" />
      <path
         d="m 107.8682,80.0287 -0.0605,-0.0605"
         id="path125666" />
      <path
         d="m 107.8077,79.9682 -0.0604,-0.1209"
         id="path125668" />
      <path
         d="m 107.7473,79.8473 v -0.121"
         id="path125670" />
      <path
         d="m 107.7473,79.7263 0.0604,-0.1209"
         id="path125672" />
      <path
         d="m 107.8077,79.6054 0.0605,-0.0605"
         id="path125674" />
      <path
         d="m 107.8682,79.5449 0.121,-0.0605"
         id="path125676" />
      <path
         d="m 107.9892,79.4844 h 0.3023"
         id="path125678" />
      <path
         d="m 108.2915,79.4844 0.1815,0.0605"
         id="path125680" />
      <path
         d="m 109.0172,80.7544 v -1.27"
         id="path125682" />
      <path
         d="m 109.0172,79.4844 h 0.4838"
         id="path125684" />
      <path
         d="m 109.501,79.4844 0.121,0.0605"
         id="path125686" />
      <path
         d="m 109.622,79.5449 0.0605,0.0605"
         id="path125688" />
      <path
         d="m 109.6825,79.6054 0.0604,0.1209"
         id="path125690" />
      <path
         d="m 109.7429,79.7263 v 0.1815"
         id="path125692" />
      <path
         d="m 109.7429,79.9078 -0.0604,0.1209"
         id="path125694" />
      <path
         d="m 109.6825,80.0287 -0.0605,0.0605"
         id="path125696" />
      <path
         d="m 109.622,80.0892 -0.121,0.0605"
         id="path125698" />
      <path
         d="m 109.501,80.1497 h -0.4838"
         id="path125700" />
      <path
         d="m 110.2872,80.7544 v -1.27"
         id="path125702" />
      <path
         d="m 111.7992,79.424 -1.0886,1.6328"
         id="path125704" />
      <path
         d="m 112.2225,79.4844 v 1.0281"
         id="path125706" />
      <path
         d="m 112.2225,80.5125 0.0605,0.121"
         id="path125708" />
      <path
         d="m 112.283,80.6335 0.0605,0.0605"
         id="path125710" />
      <path
         d="m 112.3435,80.694 0.1209,0.0604"
         id="path125712" />
      <path
         d="m 112.4644,80.7544 h 0.2419"
         id="path125714" />
      <path
         d="m 112.7063,80.7544 0.121,-0.0604"
         id="path125716" />
      <path
         d="m 112.8273,80.694 0.0605,-0.0605"
         id="path125718" />
      <path
         d="m 112.8878,80.6335 0.0604,-0.121"
         id="path125720" />
      <path
         d="M 112.9482,80.5125 V 79.4844"
         id="path125722" />
      <path
         d="m 113.4926,80.3916 h 0.6047"
         id="path125724" />
      <path
         d="m 113.3716,80.7544 0.4233,-1.27"
         id="path125726" />
      <path
         d="m 113.7949,79.4844 0.4234,1.27"
         id="path125728" />
      <path
         d="M 115.3673,80.7544 114.944,80.1497"
         id="path125730" />
      <path
         d="m 114.6416,80.7544 v -1.27"
         id="path125732" />
      <path
         d="m 114.6416,79.4844 h 0.4838"
         id="path125734" />
      <path
         d="m 115.1254,79.4844 0.121,0.0605"
         id="path125736" />
      <path
         d="m 115.2464,79.5449 0.0605,0.0605"
         id="path125738" />
      <path
         d="m 115.3069,79.6054 0.0604,0.1209"
         id="path125740" />
      <path
         d="m 115.3673,79.7263 v 0.1815"
         id="path125742" />
      <path
         d="m 115.3673,79.9078 -0.0604,0.1209"
         id="path125744" />
      <path
         d="m 115.3069,80.0287 -0.0605,0.0605"
         id="path125746" />
      <path
         d="m 115.2464,80.0892 -0.121,0.0605"
         id="path125748" />
      <path
         d="m 115.1254,80.1497 h -0.4838"
         id="path125750" />
      <path
         d="m 115.7302,79.4844 h 0.7257"
         id="path125752" />
      <path
         d="m 116.0931,80.7544 v -1.27"
         id="path125754" />
    </g>
  </g>
  <g
     style="fill:#2aa198;fill-opacity:0;stroke:#2aa198;stroke-width:0.1524;stroke-linecap:round;stroke-linejoin:round;stroke-opacity:1"
     id="g125760"
     transform="translate(-106.73853,-78.54)" />
  <g
     style="fill:#859900;fill-opacity:0;stroke:#859900;stroke-width:0.1524;stroke-linecap:round;stroke-linejoin:round;stroke-opacity:1"
     id="g125762"
     transform="translate(-106.73853,-78.54)" />
  <g
     style="fill:#859900;fill-opacity:0;stroke:#859900;stroke-width:0.4;stroke-linecap:round;stroke-linejoin:round;stroke-opacity:1"
     id="g125766"
     transform="translate(-106.73853,-78.54)">
    <path
       d="m 149.86,93.98 h -2.54"
       id="path125764" />
  </g>
  <g
     style="fill:#859900;fill-opacity:0;stroke:#859900;stroke-width:0.1524;stroke-linecap:round;stroke-linejoin:round;stroke-opacity:1"
     id="g125768"
     transform="translate(-106.73853,-78.54)" />
  <g
     style="fill:#859900;fill-opacity:0;stroke:#859900;stroke-width:0.4;stroke-linecap:round;stroke-linejoin:round;stroke-opacity:1"
     id="g125772"
     transform="translate(-106.73853,-78.54)">
    <path
       d="m 149.86,96.52 h -2.54"
       id="path125770" />
  </g>
  <g
     style="fill:#859900;fill-opacity:0;stroke:#859900;stroke-width:0.1524;stroke-linecap:round;stroke-linejoin:round;stroke-opacity:1"
     id="g125774"
     transform="translate(-106.73853,-78.54)" />
  <g
     style="fill:#859900;fill-opacity:0;stroke:#859900;stroke-width:0.4;stroke-linecap:round;stroke-linejoin:round;stroke-opacity:1"
     id="g125778"
     transform="translate(-106.73853,-78.54)">
    <path
       d="m 158.75,85.09 h 2.54"
       id="path125776" />
  </g>
  <g
     style="fill:#859900;fill-opacity:0;stroke:#859900;stroke-width:0.1524;stroke-linecap:round;stroke-linejoin:round;stroke-opacity:1"
     id="g125780"
     transform="translate(-106.73853,-78.54)" />
  <g
     style="fill:#859900;fill-opacity:0;stroke:#859900;stroke-width:0.4;stroke-linecap:round;stroke-linejoin:round;stroke-opacity:1"
     id="g125784"
     transform="translate(-106.73853,-78.54)">
    <path
       d="m 158.75,90.17 h 2.54"
       id="path125782" />
  </g>
  <g
     style="fill:#859900;fill-opacity:0;stroke:#859900;stroke-width:0.1524;stroke-linecap:round;stroke-linejoin:round;stroke-opacity:1"
     id="g125786"
     transform="translate(-106.73853,-78.54)" />
  <g
     style="fill:#859900;fill-opacity:0;stroke:#859900;stroke-width:0.4;stroke-linecap:round;stroke-linejoin:round;stroke-opacity:1"
     id="g125790"
     transform="translate(-106.73853,-78.54)">
    <path
       d="M 172.72,99.06 V 96.52"
       id="path125788" />
  </g>
  <g
     style="fill:#859900;fill-opacity:0;stroke:#859900;stroke-width:0.1524;stroke-linecap:round;stroke-linejoin:round;stroke-opacity:1"
     id="g125792"
     transform="translate(-106.73853,-78.54)" />
  <g
     style="fill:#859900;fill-opacity:0;stroke:#859900;stroke-width:0.4;stroke-linecap:round;stroke-linejoin:round;stroke-opacity:1"
     id="g125796"
     transform="translate(-106.73853,-78.54)">
    <path
       d="M 167.64,99.06 V 96.52"
       id="path125794" />
  </g>
  <g
     style="fill:#859900;fill-opacity:0;stroke:#859900;stroke-width:0.1524;stroke-linecap:round;stroke-linejoin:round;stroke-opacity:1"
     id="g125798"
     transform="translate(-106.73853,-78.54)" />
  <g
     style="fill:#859900;fill-opacity:0;stroke:#859900;stroke-width:0.4;stroke-linecap:round;stroke-linejoin:round;stroke-opacity:1"
     id="g125802"
     transform="translate(-106.73853,-78.54)">
    <path
       d="m 149.86,88.9 h -2.54"
       id="path125800" />
  </g>
  <g
     style="fill:#859900;fill-opacity:0;stroke:#859900;stroke-width:0.1524;stroke-linecap:round;stroke-linejoin:round;stroke-opacity:1"
     id="g125804"
     transform="translate(-106.73853,-78.54)" />
  <g
     style="fill:#859900;fill-opacity:0;stroke:#859900;stroke-width:0.4;stroke-linecap:round;stroke-linejoin:round;stroke-opacity:1"
     id="g125808"
     transform="translate(-106.73853,-78.54)">
    <path
       d="m 149.86,86.36 h -2.54"
       id="path125806" />
  </g>
  <g
     style="fill:#859900;fill-opacity:0;stroke:#859900;stroke-width:0.1524;stroke-linecap:round;stroke-linejoin:round;stroke-opacity:1"
     id="g125810"
     transform="translate(-106.73853,-78.54)" />
  <g
     style="fill:#859900;fill-opacity:0;stroke:#859900;stroke-width:0.4;stroke-linecap:round;stroke-linejoin:round;stroke-opacity:1"
     id="g125814"
     transform="translate(-106.73853,-78.54)">
    <path
       d="m 116.84,81.28 h 2.54"
       id="path125812" />
  </g>
</svg>
