<?xml version="1.0" encoding="UTF-8" standalone="no"?>
<svg
   version="1.1"
   width="59.49419mm"
   height="25.7048mm"
   viewBox="0 0 59.494191 25.704799"
   id="svg5550"
   xmlns="http://www.w3.org/2000/svg"
   xmlns:svg="http://www.w3.org/2000/svg">
  <defs
     id="defs5554" />
  <title
     id="title4718">SVG Image created as trinamic-wiring-TMC2209-description.svg date 2024/07/31 17:09:51 </title>
  <desc
     id="desc4720">Image generated by Eeschema-SVG </desc>
  <g
     style="fill:#000000;fill-opacity:1;stroke:#000000;stroke-linecap:round;stroke-linejoin:round;stroke-opacity:1"
     id="g4722"
     transform="translate(-114.0894,-78.587598)" />
  <g
     style="fill:#000000;fill-opacity:0;stroke:#000000;stroke-width:0.1524;stroke-linecap:round;stroke-linejoin:round;stroke-opacity:1"
     id="g4724"
     transform="translate(-114.0894,-78.587598)" />
  <g
     style="fill:#000000;fill-opacity:0;stroke:#000000;stroke-width:0.1588;stroke-linecap:round;stroke-linejoin:round;stroke-opacity:1"
     id="g4726"
     transform="translate(-114.0894,-78.587598)" />
  <g
     style="fill:#000000;fill-opacity:0;stroke:#000000;stroke-width:0.3048;stroke-linecap:round;stroke-linejoin:round;stroke-opacity:1"
     id="g4728"
     transform="translate(-114.0894,-78.587598)" />
  <g
     style="fill:#000000;fill-opacity:0;stroke:#000000;stroke-width:0.1588;stroke-linecap:round;stroke-linejoin:round;stroke-opacity:1"
     id="g4730"
     transform="translate(-114.0894,-78.587598)" />
  <g
     style="fill:#000000;fill-opacity:0;stroke:#000000;stroke-width:0.3048;stroke-linecap:round;stroke-linejoin:round;stroke-opacity:1"
     id="g4732"
     transform="translate(-114.0894,-78.587598)" />
  <g
     style="fill:#000000;fill-opacity:0;stroke:#000000;stroke-width:0.1588;stroke-linecap:round;stroke-linejoin:round;stroke-opacity:1"
     id="g4734"
     transform="translate(-114.0894,-78.587598)" />
  <g
     style="fill:#000000;fill-opacity:0;stroke:#000000;stroke-width:0.3048;stroke-linecap:round;stroke-linejoin:round;stroke-opacity:1"
     id="g4736"
     transform="translate(-114.0894,-78.587598)" />
  <g
     style="fill:#000000;fill-opacity:0;stroke:#000000;stroke-width:0.1588;stroke-linecap:round;stroke-linejoin:round;stroke-opacity:1"
     id="g4738"
     transform="translate(-114.0894,-78.587598)" />
  <g
     style="fill:#000000;fill-opacity:0;stroke:#000000;stroke-width:0.3048;stroke-linecap:round;stroke-linejoin:round;stroke-opacity:1"
     id="g4740"
     transform="translate(-114.0894,-78.587598)" />
  <g
     style="fill:#000000;fill-opacity:0;stroke:#000000;stroke-width:0.1588;stroke-linecap:round;stroke-linejoin:round;stroke-opacity:1"
     id="g4742"
     transform="translate(-114.0894,-78.587598)" />
  <g
     style="fill:#000000;fill-opacity:0;stroke:#000000;stroke-width:0.3048;stroke-linecap:round;stroke-linejoin:round;stroke-opacity:1"
     id="g4744"
     transform="translate(-114.0894,-78.587598)" />
  <g
     style="fill:#000000;fill-opacity:0;stroke:#000000;stroke-width:0.1588;stroke-linecap:round;stroke-linejoin:round;stroke-opacity:1"
     id="g4746"
     transform="translate(-114.0894,-78.587598)" />
  <g
     style="fill:#000000;fill-opacity:0;stroke:#000000;stroke-width:0.3048;stroke-linecap:round;stroke-linejoin:round;stroke-opacity:1"
     id="g4748"
     transform="translate(-114.0894,-78.587598)" />
  <g
     style="fill:#000000;fill-opacity:0;stroke:#000000;stroke-width:0.1588;stroke-linecap:round;stroke-linejoin:round;stroke-opacity:1"
     id="g4750"
     transform="translate(-114.0894,-78.587598)" />
  <g
     style="fill:#000000;fill-opacity:0;stroke:#000000;stroke-width:0.3048;stroke-linecap:round;stroke-linejoin:round;stroke-opacity:1"
     id="g4752"
     transform="translate(-114.0894,-78.587598)" />
  <g
     style="fill:#000000;fill-opacity:0;stroke:#000000;stroke-width:0.1588;stroke-linecap:round;stroke-linejoin:round;stroke-opacity:1"
     id="g4754"
     transform="translate(-114.0894,-78.587598)" />
  <g
     style="fill:#000000;fill-opacity:0;stroke:#000000;stroke-width:0.3048;stroke-linecap:round;stroke-linejoin:round;stroke-opacity:1"
     id="g4756"
     transform="translate(-114.0894,-78.587598)" />
  <g
     style="fill:#000000;fill-opacity:0;stroke:#000000;stroke-width:0.1588;stroke-linecap:round;stroke-linejoin:round;stroke-opacity:1"
     id="g4758"
     transform="translate(-114.0894,-78.587598)" />
  <g
     style="fill:#000000;fill-opacity:0;stroke:#000000;stroke-width:0.3048;stroke-linecap:round;stroke-linejoin:round;stroke-opacity:1"
     id="g4760"
     transform="translate(-114.0894,-78.587598)" />
  <g
     style="fill:#000000;fill-opacity:0;stroke:#000000;stroke-width:0.1588;stroke-linecap:round;stroke-linejoin:round;stroke-opacity:1"
     id="g4762"
     transform="translate(-114.0894,-78.587598)" />
  <g
     style="fill:#000000;fill-opacity:0;stroke:#000000;stroke-width:0.3048;stroke-linecap:round;stroke-linejoin:round;stroke-opacity:1"
     id="g4764"
     transform="translate(-114.0894,-78.587598)" />
  <g
     style="fill:#000000;fill-opacity:0;stroke:#000000;stroke-width:0.1588;stroke-linecap:round;stroke-linejoin:round;stroke-opacity:1"
     id="g4766"
     transform="translate(-114.0894,-78.587598)" />
  <g
     style="fill:#000000;fill-opacity:0;stroke:#000000;stroke-width:0.3048;stroke-linecap:round;stroke-linejoin:round;stroke-opacity:1"
     id="g4768"
     transform="translate(-114.0894,-78.587598)" />
  <g
     style="fill:#000000;fill-opacity:0;stroke:#000000;stroke-width:0.1524;stroke-linecap:round;stroke-linejoin:round;stroke-opacity:1"
     id="g4962"
     transform="translate(-114.0894,-78.587598)">
    <g
       id="g4770" />
    <g
       style="fill:#586e75;fill-opacity:0;stroke:#586e75;stroke-width:0.1524;stroke-linecap:round;stroke-linejoin:round;stroke-opacity:1"
       id="g4772" />
    <g
       style="fill:#586e75;fill-opacity:0;stroke:#586e75;stroke-width:0.3048;stroke-linecap:round;stroke-linejoin:round;stroke-opacity:1"
       id="g4960">
      <rect
         x="124.46"
         y="78.739998"
         width="20.32"
         height="25.4"
         rx="0.000000"
         id="rect4774" />
      <text
         x="134.62"
         y="92.074997"
         textLength="9.1873999"
         font-size="1.6933px"
         lengthAdjust="spacingAndGlyphs"
         text-anchor="middle"
         opacity="0"
         id="text4776">TMC2209</text>
      <g
         class="stroked-text"
         id="g4944">
        <desc
           id="desc4778">TMC2209</desc>
        <path
           d="m 130.4774,90.7416 h 0.7257"
           id="path4780" />
        <path
           d="m 130.8403,92.0116 v -1.27"
           id="path4782" />
        <path
           d="m 131.6264,92.0116 v -1.27"
           id="path4784" />
        <path
           d="m 131.6264,90.7416 0.4234,0.9072"
           id="path4786" />
        <path
           d="m 132.0498,91.6488 0.4233,-0.9072"
           id="path4788" />
        <path
           d="m 132.4731,90.7416 v 1.27"
           id="path4790" />
        <path
           d="m 133.8035,91.8907 -0.0604,0.0605"
           id="path4792" />
        <path
           d="m 133.7431,91.9512 -0.1815,0.0604"
           id="path4794" />
        <path
           d="m 133.5616,92.0116 h -0.1209"
           id="path4796" />
        <path
           d="m 133.4407,92.0116 -0.1814,-0.0604"
           id="path4798" />
        <path
           d="m 133.2593,91.9512 -0.121,-0.121"
           id="path4800" />
        <path
           d="m 133.1383,91.8302 -0.0605,-0.121"
           id="path4802" />
        <path
           d="m 133.0778,91.7092 -0.0604,-0.2419"
           id="path4804" />
        <path
           d="M 133.0174,91.4673 V 91.2859"
           id="path4806" />
        <path
           d="m 133.0174,91.2859 0.0604,-0.2419"
           id="path4808" />
        <path
           d="m 133.0778,91.044 0.0605,-0.1209"
           id="path4810" />
        <path
           d="m 133.1383,90.9231 0.121,-0.121"
           id="path4812" />
        <path
           d="m 133.2593,90.8021 0.1814,-0.0605"
           id="path4814" />
        <path
           d="m 133.4407,90.7416 h 0.1209"
           id="path4816" />
        <path
           d="m 133.5616,90.7416 0.1815,0.0605"
           id="path4818" />
        <path
           d="m 133.7431,90.8021 0.0604,0.0605"
           id="path4820" />
        <path
           d="m 134.2874,90.8626 0.0604,-0.0605"
           id="path4822" />
        <path
           d="m 134.3478,90.8021 0.121,-0.0605"
           id="path4824" />
        <path
           d="m 134.4688,90.7416 h 0.3024"
           id="path4826" />
        <path
           d="m 134.7712,90.7416 0.1209,0.0605"
           id="path4828" />
        <path
           d="m 134.8921,90.8021 0.0605,0.0605"
           id="path4830" />
        <path
           d="m 134.9526,90.8626 0.0605,0.1209"
           id="path4832" />
        <path
           d="m 135.0131,90.9835 v 0.121"
           id="path4834" />
        <path
           d="m 135.0131,91.1045 -0.0605,0.1814"
           id="path4836" />
        <path
           d="m 134.9526,91.2859 -0.7257,0.7257"
           id="path4838" />
        <path
           d="m 134.2269,92.0116 h 0.7862"
           id="path4840" />
        <path
           d="m 135.4969,90.8626 0.0604,-0.0605"
           id="path4842" />
        <path
           d="m 135.5573,90.8021 0.121,-0.0605"
           id="path4844" />
        <path
           d="m 135.6783,90.7416 h 0.3024"
           id="path4846" />
        <path
           d="m 135.9807,90.7416 0.1209,0.0605"
           id="path4848" />
        <path
           d="m 136.1016,90.8021 0.0605,0.0605"
           id="path4850" />
        <path
           d="m 136.1621,90.8626 0.0605,0.1209"
           id="path4852" />
        <path
           d="m 136.2226,90.9835 v 0.121"
           id="path4854" />
        <path
           d="m 136.2226,91.1045 -0.0605,0.1814"
           id="path4856" />
        <path
           d="m 136.1621,91.2859 -0.7257,0.7257"
           id="path4858" />
        <path
           d="m 135.4364,92.0116 h 0.7862"
           id="path4860" />
        <path
           d="m 137.0087,90.7416 h 0.121"
           id="path4862" />
        <path
           d="m 137.1297,90.7416 0.1209,0.0605"
           id="path4864" />
        <path
           d="m 137.2506,90.8021 0.0605,0.0605"
           id="path4866" />
        <path
           d="m 137.3111,90.8626 0.0605,0.1209"
           id="path4868" />
        <path
           d="m 137.3716,90.9835 0.0605,0.2419"
           id="path4870" />
        <path
           d="m 137.4321,91.2254 v 0.3024"
           id="path4872" />
        <path
           d="m 137.4321,91.5278 -0.0605,0.2419"
           id="path4874" />
        <path
           d="m 137.3716,91.7697 -0.0605,0.121"
           id="path4876" />
        <path
           d="m 137.3111,91.8907 -0.0605,0.0605"
           id="path4878" />
        <path
           d="m 137.2506,91.9512 -0.1209,0.0604"
           id="path4880" />
        <path
           d="m 137.1297,92.0116 h -0.121"
           id="path4882" />
        <path
           d="m 137.0087,92.0116 -0.1209,-0.0604"
           id="path4884" />
        <path
           d="m 136.8878,91.9512 -0.0605,-0.0605"
           id="path4886" />
        <path
           d="m 136.8273,91.8907 -0.0605,-0.121"
           id="path4888" />
        <path
           d="m 136.7668,91.7697 -0.0604,-0.2419"
           id="path4890" />
        <path
           d="M 136.7064,91.5278 V 91.2254"
           id="path4892" />
        <path
           d="m 136.7064,91.2254 0.0604,-0.2419"
           id="path4894" />
        <path
           d="m 136.7668,90.9835 0.0605,-0.1209"
           id="path4896" />
        <path
           d="m 136.8273,90.8626 0.0605,-0.0605"
           id="path4898" />
        <path
           d="m 136.8878,90.8021 0.1209,-0.0605"
           id="path4900" />
        <path
           d="m 138.0368,92.0116 h 0.2419"
           id="path4902" />
        <path
           d="m 138.2787,92.0116 0.121,-0.0604"
           id="path4904" />
        <path
           d="m 138.3997,91.9512 0.0604,-0.0605"
           id="path4906" />
        <path
           d="m 138.4601,91.8907 0.121,-0.1815"
           id="path4908" />
        <path
           d="m 138.5811,91.7092 0.0605,-0.2419"
           id="path4910" />
        <path
           d="M 138.6416,91.4673 V 90.9835"
           id="path4912" />
        <path
           d="m 138.6416,90.9835 -0.0605,-0.1209"
           id="path4914" />
        <path
           d="m 138.5811,90.8626 -0.0605,-0.0605"
           id="path4916" />
        <path
           d="m 138.5206,90.8021 -0.1209,-0.0605"
           id="path4918" />
        <path
           d="m 138.3997,90.7416 h -0.2419"
           id="path4920" />
        <path
           d="m 138.1578,90.7416 -0.121,0.0605"
           id="path4922" />
        <path
           d="m 138.0368,90.8021 -0.0605,0.0605"
           id="path4924" />
        <path
           d="m 137.9763,90.8626 -0.0604,0.1209"
           id="path4926" />
        <path
           d="m 137.9159,90.9835 v 0.3024"
           id="path4928" />
        <path
           d="m 137.9159,91.2859 0.0604,0.121"
           id="path4930" />
        <path
           d="m 137.9763,91.4069 0.0605,0.0604"
           id="path4932" />
        <path
           d="m 138.0368,91.4673 0.121,0.0605"
           id="path4934" />
        <path
           d="m 138.1578,91.5278 h 0.2419"
           id="path4936" />
        <path
           d="m 138.3997,91.5278 0.1209,-0.0605"
           id="path4938" />
        <path
           d="m 138.5206,91.4673 0.0605,-0.0604"
           id="path4940" />
        <path
           d="m 138.5811,91.4069 0.0605,-0.121"
           id="path4942" />
      </g>
      <path
         d="m 124.46,81.28 h -2.54"
         id="path4946" />
      <path
         d="m 124.46,86.36 h -2.54"
         id="path4948" />
      <path
         d="m 124.46,88.9 h -2.54"
         id="path4950" />
      <path
         d="m 144.78,86.36 h 2.54"
         id="path4952" />
      <path
         d="m 144.78,88.9 h 2.54"
         id="path4954" />
      <path
         d="m 144.78,93.98 h 2.54"
         id="path4956" />
      <path
         d="m 144.78,96.52 h 2.54"
         id="path4958" />
    </g>
  </g>
  <g
     style="fill:#586e75;fill-opacity:0;stroke:#586e75;stroke-width:0.1524;stroke-linecap:round;stroke-linejoin:round;stroke-opacity:1"
     id="g5004"
     transform="translate(-114.0894,-78.587598)">
    <g
       id="g4964" />
    <g
       style="fill:#586e75;fill-opacity:0;stroke:#586e75;stroke-width:0.3048;stroke-linecap:round;stroke-linejoin:round;stroke-opacity:1"
       id="g5002">
      <path
         style="fill:none;fill-opacity:0;stroke:#586e75;stroke-width:0.3048;stroke-linecap:round;stroke-linejoin:round;stroke-opacity:1"
         d="m 168.91,89.408 v -3.81 l 1.27,2.54 1.27,-2.54 v 3.81"
         id="path4966" />
      <path
         d="m 165.735,90.17 a 0.635,0.635 0 0 0 0,-1.27"
         id="path4968" />
      <path
         d="m 165.735,88.9 a 0.635,0.635 0 0 0 0,-1.27"
         id="path4970" />
      <path
         d="m 165.735,87.63 a 0.635,0.635 0 0 0 0,-1.27"
         id="path4972" />
      <path
         d="m 165.735,86.36 a 0.635,0.635 0 0 0 0,-1.27"
         id="path4974" />
      <path
         d="m 168.91,92.075 a 0.635,0.635 0 0 0 -1.27,0"
         id="path4976" />
      <path
         d="m 170.18,92.075 a 0.635,0.635 0 0 0 -1.27,0"
         id="path4978" />
      <path
         style="fill:none;fill-opacity:0;stroke:#586e75;stroke-width:0.3048;stroke-linecap:round;stroke-linejoin:round;stroke-opacity:1"
         d="m 165.1,90.17 h 0.635"
         id="path4980" />
      <path
         style="fill:none;fill-opacity:0;stroke:#586e75;stroke-width:0.3048;stroke-linecap:round;stroke-linejoin:round;stroke-opacity:1"
         d="m 165.1,85.09 h 0.635"
         id="path4982" />
      <path
         style="fill:none;fill-opacity:0;stroke:#586e75;stroke-width:0.3048;stroke-linecap:round;stroke-linejoin:round;stroke-opacity:1"
         d="M 167.64,92.71 V 92.075"
         id="path4984" />
      <path
         style="fill:none;fill-opacity:0;stroke:#586e75;stroke-width:0.3048;stroke-linecap:round;stroke-linejoin:round;stroke-opacity:1"
         d="M 172.72,92.71 V 92.075"
         id="path4986" />
      <circle
         cx="170.17999"
         cy="87.629997"
         r="3.2512"
         id="circle4988" />
      <path
         d="m 171.45,92.075 a 0.635,0.635 0 0 0 -1.27,0"
         id="path4990" />
      <path
         d="m 172.72,92.075 a 0.635,0.635 0 0 0 -1.27,0"
         id="path4992" />
      <path
         d="m 165.1,85.09 h -3.81"
         id="path4994" />
      <path
         d="m 165.1,90.17 h -3.81"
         id="path4996" />
      <path
         d="m 167.64,92.71 v 3.81"
         id="path4998" />
      <path
         d="m 172.72,92.71 v 3.81"
         id="path5000" />
    </g>
  </g>
  <g
     style="fill:#586e75;fill-opacity:0;stroke:#586e75;stroke-width:0.1588;stroke-linecap:round;stroke-linejoin:round;stroke-opacity:1"
     id="g5006"
     transform="translate(-114.0894,-78.587598)" />
  <g
     style="fill:#586e75;fill-opacity:0;stroke:#586e75;stroke-width:0.3048;stroke-linecap:round;stroke-linejoin:round;stroke-opacity:1"
     id="g5008"
     transform="translate(-114.0894,-78.587598)" />
  <g
     style="fill:#2aa198;fill-opacity:0;stroke:#2aa198;stroke-width:0.3048;stroke-linecap:round;stroke-linejoin:round;stroke-opacity:1"
     id="g5056"
     transform="translate(-114.0894,-78.587598)">
    <g
       transform="rotate(-90,172.3707,99.06)"
       id="g5012">
      <text
         x="172.3707"
         y="99.059998"
         textLength="3.5028"
         font-size="1.6933px"
         lengthAdjust="spacingAndGlyphs"
         text-anchor="end"
         opacity="0"
         id="text5010">B-</text>
    </g>
    <g
       class="stroked-text"
       id="g5054">
      <desc
         id="desc5014">B-</desc>
      <path
         d="m 171.5341,101.3771 0.0605,-0.1814"
         id="path5016" />
      <path
         d="m 171.5946,101.1957 0.0604,-0.0605"
         id="path5018" />
      <path
         d="m 171.655,101.1352 0.121,-0.0604"
         id="path5020" />
      <path
         d="m 171.776,101.0748 h 0.1814"
         id="path5022" />
      <path
         d="m 171.9574,101.0748 0.121,0.0604"
         id="path5024" />
      <path
         d="m 172.0784,101.1352 0.0605,0.0605"
         id="path5026" />
      <path
         d="m 172.1389,101.1957 0.0604,0.121"
         id="path5028" />
      <path
         d="m 172.1993,101.3167 v 0.4838"
         id="path5030" />
      <path
         d="m 172.1993,101.8005 h -1.27"
         id="path5032" />
      <path
         d="m 170.9293,101.8005 v -0.4234"
         id="path5034" />
      <path
         d="m 170.9293,101.3771 0.0605,-0.1209"
         id="path5036" />
      <path
         d="m 170.9898,101.2562 0.0605,-0.0605"
         id="path5038" />
      <path
         d="m 171.0503,101.1957 0.1209,-0.0605"
         id="path5040" />
      <path
         d="m 171.1712,101.1352 h 0.121"
         id="path5042" />
      <path
         d="m 171.2922,101.1352 0.1209,0.0605"
         id="path5044" />
      <path
         d="m 171.4131,101.1957 0.0605,0.0605"
         id="path5046" />
      <path
         d="m 171.4736,101.2562 0.0605,0.1209"
         id="path5048" />
      <path
         d="m 171.5341,101.3771 v 0.4234"
         id="path5050" />
      <path
         d="M 171.7155,100.5305 V 99.5629"
         id="path5052" />
    </g>
  </g>
  <g
     style="fill:#2aa198;fill-opacity:0;stroke:#2aa198;stroke-width:0.1588;stroke-linecap:round;stroke-linejoin:round;stroke-opacity:1"
     id="g5058"
     transform="translate(-114.0894,-78.587598)" />
  <g
     style="fill:#2aa198;fill-opacity:0;stroke:#2aa198;stroke-width:0.3048;stroke-linecap:round;stroke-linejoin:round;stroke-opacity:1"
     id="g5106"
     transform="translate(-114.0894,-78.587598)">
    <text
       x="149.86"
       y="93.630699"
       textLength="3.5028"
       font-size="1.6933px"
       lengthAdjust="spacingAndGlyphs"
       text-anchor="start"
       opacity="0"
       id="text5060">B+</text>
    <g
       class="stroked-text"
       id="g5104">
      <desc
         id="desc5062">B+</desc>
      <path
         d="m 150.7862,92.7941 0.1814,0.0605"
         id="path5064" />
      <path
         d="m 150.9676,92.8546 0.0605,0.0604"
         id="path5066" />
      <path
         d="m 151.0281,92.915 0.0604,0.121"
         id="path5068" />
      <path
         d="m 151.0885,93.036 v 0.1814"
         id="path5070" />
      <path
         d="m 151.0885,93.2174 -0.0604,0.121"
         id="path5072" />
      <path
         d="m 151.0281,93.3384 -0.0605,0.0605"
         id="path5074" />
      <path
         d="m 150.9676,93.3989 -0.121,0.0604"
         id="path5076" />
      <path
         d="m 150.8466,93.4593 h -0.4838"
         id="path5078" />
      <path
         d="m 150.3628,93.4593 v -1.27"
         id="path5080" />
      <path
         d="m 150.3628,92.1893 h 0.4234"
         id="path5082" />
      <path
         d="m 150.7862,92.1893 0.1209,0.0605"
         id="path5084" />
      <path
         d="m 150.9071,92.2498 0.0605,0.0605"
         id="path5086" />
      <path
         d="m 150.9676,92.3103 0.0605,0.1209"
         id="path5088" />
      <path
         d="m 151.0281,92.4312 v 0.121"
         id="path5090" />
      <path
         d="m 151.0281,92.5522 -0.0605,0.1209"
         id="path5092" />
      <path
         d="m 150.9676,92.6731 -0.0605,0.0605"
         id="path5094" />
      <path
         d="m 150.9071,92.7336 -0.1209,0.0605"
         id="path5096" />
      <path
         d="m 150.7862,92.7941 h -0.4234"
         id="path5098" />
      <path
         d="m 151.6328,92.9755 h 0.9677"
         id="path5100" />
      <path
         d="M 152.1166,93.4593 V 92.4917"
         id="path5102" />
    </g>
  </g>
  <g
     style="fill:#2aa198;fill-opacity:0;stroke:#2aa198;stroke-width:0.1588;stroke-linecap:round;stroke-linejoin:round;stroke-opacity:1"
     id="g5108"
     transform="translate(-114.0894,-78.587598)" />
  <g
     style="fill:#2aa198;fill-opacity:0;stroke:#2aa198;stroke-width:0.3048;stroke-linecap:round;stroke-linejoin:round;stroke-opacity:1"
     id="g5154"
     transform="translate(-114.0894,-78.587598)">
    <text
       x="149.86"
       y="96.1707"
       textLength="3.5028"
       font-size="1.6933px"
       lengthAdjust="spacingAndGlyphs"
       text-anchor="start"
       opacity="0"
       id="text5110">B-</text>
    <g
       class="stroked-text"
       id="g5152">
      <desc
         id="desc5112">B-</desc>
      <path
         d="m 150.7862,95.3341 0.1814,0.0605"
         id="path5114" />
      <path
         d="m 150.9676,95.3946 0.0605,0.0604"
         id="path5116" />
      <path
         d="m 151.0281,95.455 0.0604,0.121"
         id="path5118" />
      <path
         d="m 151.0885,95.576 v 0.1814"
         id="path5120" />
      <path
         d="m 151.0885,95.7574 -0.0604,0.121"
         id="path5122" />
      <path
         d="m 151.0281,95.8784 -0.0605,0.0605"
         id="path5124" />
      <path
         d="m 150.9676,95.9389 -0.121,0.0604"
         id="path5126" />
      <path
         d="m 150.8466,95.9993 h -0.4838"
         id="path5128" />
      <path
         d="m 150.3628,95.9993 v -1.27"
         id="path5130" />
      <path
         d="m 150.3628,94.7293 h 0.4234"
         id="path5132" />
      <path
         d="m 150.7862,94.7293 0.1209,0.0605"
         id="path5134" />
      <path
         d="m 150.9071,94.7898 0.0605,0.0605"
         id="path5136" />
      <path
         d="m 150.9676,94.8503 0.0605,0.1209"
         id="path5138" />
      <path
         d="m 151.0281,94.9712 v 0.121"
         id="path5140" />
      <path
         d="m 151.0281,95.0922 -0.0605,0.1209"
         id="path5142" />
      <path
         d="m 150.9676,95.2131 -0.0605,0.0605"
         id="path5144" />
      <path
         d="m 150.9071,95.2736 -0.1209,0.0605"
         id="path5146" />
      <path
         d="m 150.7862,95.3341 h -0.4234"
         id="path5148" />
      <path
         d="m 151.6328,95.5155 h 0.9677"
         id="path5150" />
    </g>
  </g>
  <g
     style="fill:#2aa198;fill-opacity:0;stroke:#2aa198;stroke-width:0.1588;stroke-linecap:round;stroke-linejoin:round;stroke-opacity:1"
     id="g5156"
     transform="translate(-114.0894,-78.587598)" />
  <g
     style="fill:#2aa198;fill-opacity:0;stroke:#2aa198;stroke-width:0.3048;stroke-linecap:round;stroke-linejoin:round;stroke-opacity:1"
     id="g5172"
     transform="translate(-114.0894,-78.587598)">
    <text
       x="149.86"
       y="88.550697"
       textLength="3.3213999"
       font-size="1.6933px"
       lengthAdjust="spacingAndGlyphs"
       text-anchor="start"
       opacity="0"
       id="text5158">A-</text>
    <g
       class="stroked-text"
       id="g5170">
      <desc
         id="desc5160">A-</desc>
      <path
         d="m 150.3024,88.0165 h 0.6047"
         id="path5162" />
      <path
         d="m 150.1814,88.3793 0.4233,-1.27"
         id="path5164" />
      <path
         d="m 150.6047,87.1093 0.4234,1.27"
         id="path5166" />
      <path
         d="m 151.4514,87.8955 h 0.9677"
         id="path5168" />
    </g>
  </g>
  <g
     style="fill:#2aa198;fill-opacity:0;stroke:#2aa198;stroke-width:0.1588;stroke-linecap:round;stroke-linejoin:round;stroke-opacity:1"
     id="g5174"
     transform="translate(-114.0894,-78.587598)" />
  <g
     style="fill:#2aa198;fill-opacity:0;stroke:#2aa198;stroke-width:0.3048;stroke-linecap:round;stroke-linejoin:round;stroke-opacity:1"
     id="g5192"
     transform="translate(-114.0894,-78.587598)">
    <text
       x="149.86"
       y="86.010696"
       textLength="3.3213999"
       font-size="1.6933px"
       lengthAdjust="spacingAndGlyphs"
       text-anchor="start"
       opacity="0"
       id="text5176">A+</text>
    <g
       class="stroked-text"
       id="g5190">
      <desc
         id="desc5178">A+</desc>
      <path
         d="m 150.3024,85.4765 h 0.6047"
         id="path5180" />
      <path
         d="m 150.1814,85.8393 0.4233,-1.27"
         id="path5182" />
      <path
         d="m 150.6047,84.5693 0.4234,1.27"
         id="path5184" />
      <path
         d="m 151.4514,85.3555 h 0.9677"
         id="path5186" />
      <path
         d="M 151.9352,85.8393 V 84.8717"
         id="path5188" />
    </g>
  </g>
  <g
     style="fill:#2aa198;fill-opacity:0;stroke:#2aa198;stroke-width:0.1588;stroke-linecap:round;stroke-linejoin:round;stroke-opacity:1"
     id="g5194"
     transform="translate(-114.0894,-78.587598)" />
  <g
     style="fill:#2aa198;fill-opacity:0;stroke:#2aa198;stroke-width:0.3048;stroke-linecap:round;stroke-linejoin:round;stroke-opacity:1"
     id="g5212"
     transform="translate(-114.0894,-78.587598)">
    <text
       x="158.75"
       y="84.7407"
       textLength="3.3213999"
       font-size="1.6933px"
       lengthAdjust="spacingAndGlyphs"
       text-anchor="end"
       opacity="0"
       id="text5196">A+</text>
    <g
       class="stroked-text"
       id="g5210">
      <desc
         id="desc5198">A+</desc>
      <path
         d="m 156.1304,84.2065 h 0.6047"
         id="path5200" />
      <path
         d="m 156.0094,84.5693 0.4233,-1.27"
         id="path5202" />
      <path
         d="m 156.4327,83.2993 0.4234,1.27"
         id="path5204" />
      <path
         d="m 157.2794,84.0855 h 0.9677"
         id="path5206" />
      <path
         d="M 157.7632,84.5693 V 83.6017"
         id="path5208" />
    </g>
  </g>
  <g
     style="fill:#2aa198;fill-opacity:0;stroke:#2aa198;stroke-width:0.1588;stroke-linecap:round;stroke-linejoin:round;stroke-opacity:1"
     id="g5214"
     transform="translate(-114.0894,-78.587598)" />
  <g
     style="fill:#2aa198;fill-opacity:0;stroke:#2aa198;stroke-width:0.3048;stroke-linecap:round;stroke-linejoin:round;stroke-opacity:1"
     id="g5230"
     transform="translate(-114.0894,-78.587598)">
    <text
       x="158.75"
       y="89.820702"
       textLength="3.3213999"
       font-size="1.6933px"
       lengthAdjust="spacingAndGlyphs"
       text-anchor="end"
       opacity="0"
       id="text5216">A-</text>
    <g
       class="stroked-text"
       id="g5228">
      <desc
         id="desc5218">A-</desc>
      <path
         d="m 156.1304,89.2865 h 0.6047"
         id="path5220" />
      <path
         d="m 156.0094,89.6493 0.4233,-1.27"
         id="path5222" />
      <path
         d="m 156.4327,88.3793 0.4234,1.27"
         id="path5224" />
      <path
         d="m 157.2794,89.1655 h 0.9677"
         id="path5226" />
    </g>
  </g>
  <g
     style="fill:#2aa198;fill-opacity:0;stroke:#2aa198;stroke-width:0.1588;stroke-linecap:round;stroke-linejoin:round;stroke-opacity:1"
     id="g5232"
     transform="translate(-114.0894,-78.587598)" />
  <g
     style="fill:#2aa198;fill-opacity:0;stroke:#2aa198;stroke-width:0.3048;stroke-linecap:round;stroke-linejoin:round;stroke-opacity:1"
     id="g5282"
     transform="translate(-114.0894,-78.587598)">
    <g
       transform="rotate(-90,167.2907,99.06)"
       id="g5236">
      <text
         x="167.2907"
         y="99.059998"
         textLength="3.5028"
         font-size="1.6933px"
         lengthAdjust="spacingAndGlyphs"
         text-anchor="end"
         opacity="0"
         id="text5234">B+</text>
    </g>
    <g
       class="stroked-text"
       id="g5280">
      <desc
         id="desc5238">B+</desc>
      <path
         d="m 166.4541,101.3771 0.0605,-0.1814"
         id="path5240" />
      <path
         d="m 166.5146,101.1957 0.0604,-0.0605"
         id="path5242" />
      <path
         d="m 166.575,101.1352 0.121,-0.0604"
         id="path5244" />
      <path
         d="m 166.696,101.0748 h 0.1814"
         id="path5246" />
      <path
         d="m 166.8774,101.0748 0.121,0.0604"
         id="path5248" />
      <path
         d="m 166.9984,101.1352 0.0605,0.0605"
         id="path5250" />
      <path
         d="m 167.0589,101.1957 0.0604,0.121"
         id="path5252" />
      <path
         d="m 167.1193,101.3167 v 0.4838"
         id="path5254" />
      <path
         d="m 167.1193,101.8005 h -1.27"
         id="path5256" />
      <path
         d="m 165.8493,101.8005 v -0.4234"
         id="path5258" />
      <path
         d="m 165.8493,101.3771 0.0605,-0.1209"
         id="path5260" />
      <path
         d="m 165.9098,101.2562 0.0605,-0.0605"
         id="path5262" />
      <path
         d="m 165.9703,101.1957 0.1209,-0.0605"
         id="path5264" />
      <path
         d="m 166.0912,101.1352 h 0.121"
         id="path5266" />
      <path
         d="m 166.2122,101.1352 0.1209,0.0605"
         id="path5268" />
      <path
         d="m 166.3331,101.1957 0.0605,0.0605"
         id="path5270" />
      <path
         d="m 166.3936,101.2562 0.0605,0.1209"
         id="path5272" />
      <path
         d="m 166.4541,101.3771 v 0.4234"
         id="path5274" />
      <path
         d="M 166.6355,100.5305 V 99.5629"
         id="path5276" />
      <path
         d="m 167.1193,100.0467 h -0.9676"
         id="path5278" />
    </g>
  </g>
  <g
     style="fill:#2aa198;fill-opacity:0;stroke:#2aa198;stroke-width:0.1588;stroke-linecap:round;stroke-linejoin:round;stroke-opacity:1"
     id="g5284"
     transform="translate(-114.0894,-78.587598)" />
  <g
     style="fill:#2aa198;fill-opacity:0;stroke:#2aa198;stroke-width:0.3048;stroke-linecap:round;stroke-linejoin:round;stroke-opacity:1"
     id="g5340"
     transform="translate(-114.0894,-78.587598)">
    <text
       x="119.38"
       y="88.550697"
       textLength="3.8052001"
       font-size="1.6933px"
       lengthAdjust="spacingAndGlyphs"
       text-anchor="end"
       opacity="0"
       id="text5286">DIR</text>
    <g
       class="stroked-text"
       id="g5338">
      <desc
         id="desc5288">DIR</desc>
      <path
         d="m 116.337,88.3793 v -1.27"
         id="path5290" />
      <path
         d="m 116.337,87.1093 h 0.3024"
         id="path5292" />
      <path
         d="m 116.6394,87.1093 0.1814,0.0605"
         id="path5294" />
      <path
         d="m 116.8208,87.1698 0.121,0.121"
         id="path5296" />
      <path
         d="m 116.9418,87.2908 0.0605,0.1209"
         id="path5298" />
      <path
         d="m 117.0023,87.4117 0.0604,0.2419"
         id="path5300" />
      <path
         d="M 117.0627,87.6536 V 87.835"
         id="path5302" />
      <path
         d="m 117.0627,87.835 -0.0604,0.2419"
         id="path5304" />
      <path
         d="m 117.0023,88.0769 -0.0605,0.121"
         id="path5306" />
      <path
         d="m 116.9418,88.1979 -0.121,0.121"
         id="path5308" />
      <path
         d="m 116.8208,88.3189 -0.1814,0.0604"
         id="path5310" />
      <path
         d="M 116.6394,88.3793 H 116.337"
         id="path5312" />
      <path
         d="m 117.607,88.3793 v -1.27"
         id="path5314" />
      <path
         d="m 118.9375,88.3793 -0.4233,-0.6047"
         id="path5316" />
      <path
         d="m 118.2118,88.3793 v -1.27"
         id="path5318" />
      <path
         d="m 118.2118,87.1093 h 0.4838"
         id="path5320" />
      <path
         d="m 118.6956,87.1093 0.121,0.0605"
         id="path5322" />
      <path
         d="m 118.8166,87.1698 0.0605,0.0605"
         id="path5324" />
      <path
         d="m 118.8771,87.2303 0.0604,0.1209"
         id="path5326" />
      <path
         d="m 118.9375,87.3512 v 0.1815"
         id="path5328" />
      <path
         d="m 118.9375,87.5327 -0.0604,0.1209"
         id="path5330" />
      <path
         d="m 118.8771,87.6536 -0.0605,0.0605"
         id="path5332" />
      <path
         d="m 118.8166,87.7141 -0.121,0.0605"
         id="path5334" />
      <path
         d="m 118.6956,87.7746 h -0.4838"
         id="path5336" />
    </g>
  </g>
  <g
     style="fill:#2aa198;fill-opacity:0;stroke:#2aa198;stroke-width:0.1588;stroke-linecap:round;stroke-linejoin:round;stroke-opacity:1"
     id="g5342"
     transform="translate(-114.0894,-78.587598)" />
  <g
     style="fill:#2aa198;fill-opacity:0;stroke:#2aa198;stroke-width:0.3048;stroke-linecap:round;stroke-linejoin:round;stroke-opacity:1"
     id="g5400"
     transform="translate(-114.0894,-78.587598)">
    <text
       x="119.38"
       y="80.930702"
       textLength="5.3171"
       font-size="1.6933px"
       lengthAdjust="spacingAndGlyphs"
       text-anchor="end"
       opacity="0"
       id="text5344">UART</text>
    <g
       class="stroked-text"
       id="g5398">
      <desc
         id="desc5346">UART</desc>
      <path
         d="m 114.8251,79.4893 v 1.0281"
         id="path5348" />
      <path
         d="m 114.8251,80.5174 0.0605,0.121"
         id="path5350" />
      <path
         d="m 114.8856,80.6384 0.0605,0.0605"
         id="path5352" />
      <path
         d="m 114.9461,80.6989 0.1209,0.0604"
         id="path5354" />
      <path
         d="m 115.067,80.7593 h 0.2419"
         id="path5356" />
      <path
         d="m 115.3089,80.7593 0.121,-0.0604"
         id="path5358" />
      <path
         d="m 115.4299,80.6989 0.0605,-0.0605"
         id="path5360" />
      <path
         d="m 115.4904,80.6384 0.0604,-0.121"
         id="path5362" />
      <path
         d="M 115.5508,80.5174 V 79.4893"
         id="path5364" />
      <path
         d="m 116.0952,80.3965 h 0.6047"
         id="path5366" />
      <path
         d="m 115.9742,80.7593 0.4233,-1.27"
         id="path5368" />
      <path
         d="m 116.3975,79.4893 0.4234,1.27"
         id="path5370" />
      <path
         d="m 117.9699,80.7593 -0.4233,-0.6047"
         id="path5372" />
      <path
         d="m 117.2442,80.7593 v -1.27"
         id="path5374" />
      <path
         d="m 117.2442,79.4893 h 0.4838"
         id="path5376" />
      <path
         d="m 117.728,79.4893 0.121,0.0605"
         id="path5378" />
      <path
         d="m 117.849,79.5498 0.0605,0.0605"
         id="path5380" />
      <path
         d="m 117.9095,79.6103 0.0604,0.1209"
         id="path5382" />
      <path
         d="m 117.9699,79.7312 v 0.1815"
         id="path5384" />
      <path
         d="m 117.9699,79.9127 -0.0604,0.1209"
         id="path5386" />
      <path
         d="m 117.9095,80.0336 -0.0605,0.0605"
         id="path5388" />
      <path
         d="m 117.849,80.0941 -0.121,0.0605"
         id="path5390" />
      <path
         d="m 117.728,80.1546 h -0.4838"
         id="path5392" />
      <path
         d="m 118.3328,79.4893 h 0.7257"
         id="path5394" />
      <path
         d="m 118.6957,80.7593 v -1.27"
         id="path5396" />
    </g>
  </g>
  <g
     style="fill:#2aa198;fill-opacity:0;stroke:#2aa198;stroke-width:0.1588;stroke-linecap:round;stroke-linejoin:round;stroke-opacity:1"
     id="g5402"
     transform="translate(-114.0894,-78.587598)" />
  <g
     style="fill:#2aa198;fill-opacity:0;stroke:#2aa198;stroke-width:0.3048;stroke-linecap:round;stroke-linejoin:round;stroke-opacity:1"
     id="g5480"
     transform="translate(-114.0894,-78.587598)">
    <text
       x="119.38"
       y="86.010696"
       textLength="5.2564998"
       font-size="1.6933px"
       lengthAdjust="spacingAndGlyphs"
       text-anchor="end"
       opacity="0"
       id="text5404">STEP</text>
    <g
       class="stroked-text"
       id="g5478">
      <desc
         id="desc5406">STEP</desc>
      <path
         d="m 114.8253,85.7789 0.1814,0.0604"
         id="path5408" />
      <path
         d="m 115.0067,85.8393 h 0.3024"
         id="path5410" />
      <path
         d="M 115.3091,85.8393 115.43,85.7789"
         id="path5412" />
      <path
         d="m 115.43,85.7789 0.0605,-0.0605"
         id="path5414" />
      <path
         d="m 115.4905,85.7184 0.0605,-0.121"
         id="path5416" />
      <path
         d="M 115.551,85.5974 V 85.4765"
         id="path5418" />
      <path
         d="m 115.551,85.4765 -0.0605,-0.121"
         id="path5420" />
      <path
         d="M 115.4905,85.3555 115.43,85.295"
         id="path5422" />
      <path
         d="m 115.43,85.295 -0.1209,-0.0604"
         id="path5424" />
      <path
         d="m 115.3091,85.2346 -0.2419,-0.0605"
         id="path5426" />
      <path
         d="m 115.0672,85.1741 -0.121,-0.0605"
         id="path5428" />
      <path
         d="m 114.9462,85.1136 -0.0605,-0.0605"
         id="path5430" />
      <path
         d="m 114.8857,85.0531 -0.0604,-0.1209"
         id="path5432" />
      <path
         d="m 114.8253,84.9322 v -0.121"
         id="path5434" />
      <path
         d="m 114.8253,84.8112 0.0604,-0.1209"
         id="path5436" />
      <path
         d="m 114.8857,84.6903 0.0605,-0.0605"
         id="path5438" />
      <path
         d="m 114.9462,84.6298 0.121,-0.0605"
         id="path5440" />
      <path
         d="m 115.0672,84.5693 h 0.3023"
         id="path5442" />
      <path
         d="m 115.3695,84.5693 0.1815,0.0605"
         id="path5444" />
      <path
         d="m 115.9138,84.5693 h 0.7257"
         id="path5446" />
      <path
         d="m 116.2767,85.8393 v -1.27"
         id="path5448" />
      <path
         d="m 117.0628,85.1741 h 0.4234"
         id="path5450" />
      <path
         d="m 117.6676,85.8393 h -0.6048"
         id="path5452" />
      <path
         d="m 117.0628,85.8393 v -1.27"
         id="path5454" />
      <path
         d="m 117.0628,84.5693 h 0.6048"
         id="path5456" />
      <path
         d="m 118.2118,85.8393 v -1.27"
         id="path5458" />
      <path
         d="m 118.2118,84.5693 h 0.4838"
         id="path5460" />
      <path
         d="m 118.6956,84.5693 0.121,0.0605"
         id="path5462" />
      <path
         d="m 118.8166,84.6298 0.0605,0.0605"
         id="path5464" />
      <path
         d="m 118.8771,84.6903 0.0604,0.1209"
         id="path5466" />
      <path
         d="m 118.9375,84.8112 v 0.1815"
         id="path5468" />
      <path
         d="m 118.9375,84.9927 -0.0604,0.1209"
         id="path5470" />
      <path
         d="m 118.8771,85.1136 -0.0605,0.0605"
         id="path5472" />
      <path
         d="m 118.8166,85.1741 -0.121,0.0605"
         id="path5474" />
      <path
         d="m 118.6956,85.2346 h -0.4838"
         id="path5476" />
    </g>
  </g>
  <g
     style="fill:#2aa198;fill-opacity:0;stroke:#2aa198;stroke-width:0.1524;stroke-linecap:round;stroke-linejoin:round;stroke-opacity:1"
     id="g5482"
     transform="translate(-114.0894,-78.587598)" />
  <g
     style="fill:#859900;fill-opacity:0;stroke:#859900;stroke-width:0.1524;stroke-linecap:round;stroke-linejoin:round;stroke-opacity:1"
     id="g5484"
     transform="translate(-114.0894,-78.587598)" />
  <g
     style="fill:#859900;fill-opacity:0;stroke:#859900;stroke-width:0.3048;stroke-linecap:round;stroke-linejoin:round;stroke-opacity:1"
     id="g5488"
     transform="translate(-114.0894,-78.587598)">
    <path
       d="M 167.64,99.06 V 96.52"
       id="path5486" />
  </g>
  <g
     style="fill:#859900;fill-opacity:0;stroke:#859900;stroke-width:0.1524;stroke-linecap:round;stroke-linejoin:round;stroke-opacity:1"
     id="g5490"
     transform="translate(-114.0894,-78.587598)" />
  <g
     style="fill:#859900;fill-opacity:0;stroke:#859900;stroke-width:0.3048;stroke-linecap:round;stroke-linejoin:round;stroke-opacity:1"
     id="g5494"
     transform="translate(-114.0894,-78.587598)">
    <path
       d="M 172.72,99.06 V 96.52"
       id="path5492" />
  </g>
  <g
     style="fill:#859900;fill-opacity:0;stroke:#859900;stroke-width:0.1524;stroke-linecap:round;stroke-linejoin:round;stroke-opacity:1"
     id="g5496"
     transform="translate(-114.0894,-78.587598)" />
  <g
     style="fill:#859900;fill-opacity:0;stroke:#859900;stroke-width:0.3048;stroke-linecap:round;stroke-linejoin:round;stroke-opacity:1"
     id="g5500"
     transform="translate(-114.0894,-78.587598)">
    <path
       d="m 119.38,81.28 h 2.54"
       id="path5498" />
  </g>
  <g
     style="fill:#859900;fill-opacity:0;stroke:#859900;stroke-width:0.1524;stroke-linecap:round;stroke-linejoin:round;stroke-opacity:1"
     id="g5502"
     transform="translate(-114.0894,-78.587598)" />
  <g
     style="fill:#859900;fill-opacity:0;stroke:#859900;stroke-width:0.3048;stroke-linecap:round;stroke-linejoin:round;stroke-opacity:1"
     id="g5506"
     transform="translate(-114.0894,-78.587598)">
    <path
       d="m 158.75,90.17 h 2.54"
       id="path5504" />
  </g>
  <g
     style="fill:#859900;fill-opacity:0;stroke:#859900;stroke-width:0.1524;stroke-linecap:round;stroke-linejoin:round;stroke-opacity:1"
     id="g5508"
     transform="translate(-114.0894,-78.587598)" />
  <g
     style="fill:#859900;fill-opacity:0;stroke:#859900;stroke-width:0.3048;stroke-linecap:round;stroke-linejoin:round;stroke-opacity:1"
     id="g5512"
     transform="translate(-114.0894,-78.587598)">
    <path
       d="m 158.75,85.09 h 2.54"
       id="path5510" />
  </g>
  <g
     style="fill:#859900;fill-opacity:0;stroke:#859900;stroke-width:0.1524;stroke-linecap:round;stroke-linejoin:round;stroke-opacity:1"
     id="g5514"
     transform="translate(-114.0894,-78.587598)" />
  <g
     style="fill:#859900;fill-opacity:0;stroke:#859900;stroke-width:0.3048;stroke-linecap:round;stroke-linejoin:round;stroke-opacity:1"
     id="g5518"
     transform="translate(-114.0894,-78.587598)">
    <path
       d="m 119.38,86.36 h 2.54"
       id="path5516" />
  </g>
  <g
     style="fill:#859900;fill-opacity:0;stroke:#859900;stroke-width:0.1524;stroke-linecap:round;stroke-linejoin:round;stroke-opacity:1"
     id="g5520"
     transform="translate(-114.0894,-78.587598)" />
  <g
     style="fill:#859900;fill-opacity:0;stroke:#859900;stroke-width:0.3048;stroke-linecap:round;stroke-linejoin:round;stroke-opacity:1"
     id="g5524"
     transform="translate(-114.0894,-78.587598)">
    <path
       d="m 149.86,93.98 h -2.54"
       id="path5522" />
  </g>
  <g
     style="fill:#859900;fill-opacity:0;stroke:#859900;stroke-width:0.1524;stroke-linecap:round;stroke-linejoin:round;stroke-opacity:1"
     id="g5526"
     transform="translate(-114.0894,-78.587598)" />
  <g
     style="fill:#859900;fill-opacity:0;stroke:#859900;stroke-width:0.3048;stroke-linecap:round;stroke-linejoin:round;stroke-opacity:1"
     id="g5530"
     transform="translate(-114.0894,-78.587598)">
    <path
       d="m 149.86,96.52 h -2.54"
       id="path5528" />
  </g>
  <g
     style="fill:#859900;fill-opacity:0;stroke:#859900;stroke-width:0.1524;stroke-linecap:round;stroke-linejoin:round;stroke-opacity:1"
     id="g5532"
     transform="translate(-114.0894,-78.587598)" />
  <g
     style="fill:#859900;fill-opacity:0;stroke:#859900;stroke-width:0.3048;stroke-linecap:round;stroke-linejoin:round;stroke-opacity:1"
     id="g5536"
     transform="translate(-114.0894,-78.587598)">
    <path
       d="m 149.86,88.9 h -2.54"
       id="path5534" />
  </g>
  <g
     style="fill:#859900;fill-opacity:0;stroke:#859900;stroke-width:0.1524;stroke-linecap:round;stroke-linejoin:round;stroke-opacity:1"
     id="g5538"
     transform="translate(-114.0894,-78.587598)" />
  <g
     style="fill:#859900;fill-opacity:0;stroke:#859900;stroke-width:0.3048;stroke-linecap:round;stroke-linejoin:round;stroke-opacity:1"
     id="g5542"
     transform="translate(-114.0894,-78.587598)">
    <path
       d="m 149.86,86.36 h -2.54"
       id="path5540" />
  </g>
  <g
     style="fill:#859900;fill-opacity:0;stroke:#859900;stroke-width:0.1524;stroke-linecap:round;stroke-linejoin:round;stroke-opacity:1"
     id="g5544"
     transform="translate(-114.0894,-78.587598)" />
  <g
     style="fill:#859900;fill-opacity:0;stroke:#859900;stroke-width:0.3048;stroke-linecap:round;stroke-linejoin:round;stroke-opacity:1"
     id="g5548"
     transform="translate(-114.0894,-78.587598)">
    <path
       d="m 119.38,88.9 h 2.54"
       id="path5546" />
  </g>
</svg>
