<?xml version="1.0" encoding="UTF-8" standalone="no"?>
<svg
   version="1.1"
   width="71.424805mm"
   height="25.7048mm"
   viewBox="0 0 71.424805 25.704799"
   id="svg4378"
   xmlns="http://www.w3.org/2000/svg"
   xmlns:svg="http://www.w3.org/2000/svg">
  <defs
     id="defs4382" />
  <title
     id="title3716">SVG Image created as trinamic-wiring-TMC2209-bidirectional-coupled.svg date 2024/07/31 17:09:51 </title>
  <desc
     id="desc3718">Image generated by Eeschema-SVG </desc>
  <g
     style="fill:#000000;fill-opacity:1;stroke:#000000;stroke-linecap:round;stroke-linejoin:round;stroke-opacity:1"
     id="g3720"
     transform="translate(-103.9876,-86.207601)" />
  <g
     style="fill:#000000;fill-opacity:0;stroke:#000000;stroke-width:0.1524;stroke-linecap:round;stroke-linejoin:round;stroke-opacity:1"
     id="g3962"
     transform="translate(-103.9876,-86.207601)">
    <g
       id="g3722" />
    <g
       style="fill:#586e75;fill-opacity:0;stroke:#586e75;stroke-width:0.1524;stroke-linecap:round;stroke-linejoin:round;stroke-opacity:1"
       id="g3724" />
    <g
       style="fill:#586e75;fill-opacity:0;stroke:#586e75;stroke-width:0.3048;stroke-linecap:round;stroke-linejoin:round;stroke-opacity:1"
       id="g3900">
      <rect
         x="154.94"
         y="86.360001"
         width="20.32"
         height="25.4"
         rx="0.000000"
         id="rect3726" />
      <text
         x="165.10001"
         y="99.695"
         textLength="9.1873999"
         font-size="1.6933px"
         lengthAdjust="spacingAndGlyphs"
         text-anchor="middle"
         opacity="0"
         id="text3728">TMC2209</text>
      <g
         class="stroked-text"
         id="g3896">
        <desc
           id="desc3730">TMC2209</desc>
        <path
           d="m 160.9574,98.3616 h 0.7257"
           id="path3732" />
        <path
           d="m 161.3203,99.6316 v -1.27"
           id="path3734" />
        <path
           d="m 162.1064,99.6316 v -1.27"
           id="path3736" />
        <path
           d="m 162.1064,98.3616 0.4234,0.9072"
           id="path3738" />
        <path
           d="m 162.5298,99.2688 0.4233,-0.9072"
           id="path3740" />
        <path
           d="m 162.9531,98.3616 v 1.27"
           id="path3742" />
        <path
           d="m 164.2835,99.5107 -0.0604,0.0605"
           id="path3744" />
        <path
           d="m 164.2231,99.5712 -0.1815,0.0604"
           id="path3746" />
        <path
           d="m 164.0416,99.6316 h -0.1209"
           id="path3748" />
        <path
           d="m 163.9207,99.6316 -0.1814,-0.0604"
           id="path3750" />
        <path
           d="m 163.7393,99.5712 -0.121,-0.121"
           id="path3752" />
        <path
           d="m 163.6183,99.4502 -0.0605,-0.121"
           id="path3754" />
        <path
           d="m 163.5578,99.3292 -0.0604,-0.2419"
           id="path3756" />
        <path
           d="M 163.4974,99.0873 V 98.9059"
           id="path3758" />
        <path
           d="m 163.4974,98.9059 0.0604,-0.2419"
           id="path3760" />
        <path
           d="m 163.5578,98.664 0.0605,-0.1209"
           id="path3762" />
        <path
           d="m 163.6183,98.5431 0.121,-0.121"
           id="path3764" />
        <path
           d="m 163.7393,98.4221 0.1814,-0.0605"
           id="path3766" />
        <path
           d="m 163.9207,98.3616 h 0.1209"
           id="path3768" />
        <path
           d="m 164.0416,98.3616 0.1815,0.0605"
           id="path3770" />
        <path
           d="m 164.2231,98.4221 0.0604,0.0605"
           id="path3772" />
        <path
           d="m 164.7674,98.4826 0.0604,-0.0605"
           id="path3774" />
        <path
           d="m 164.8278,98.4221 0.121,-0.0605"
           id="path3776" />
        <path
           d="m 164.9488,98.3616 h 0.3024"
           id="path3778" />
        <path
           d="m 165.2512,98.3616 0.1209,0.0605"
           id="path3780" />
        <path
           d="m 165.3721,98.4221 0.0605,0.0605"
           id="path3782" />
        <path
           d="m 165.4326,98.4826 0.0605,0.1209"
           id="path3784" />
        <path
           d="m 165.4931,98.6035 v 0.121"
           id="path3786" />
        <path
           d="m 165.4931,98.7245 -0.0605,0.1814"
           id="path3788" />
        <path
           d="m 165.4326,98.9059 -0.7257,0.7257"
           id="path3790" />
        <path
           d="m 164.7069,99.6316 h 0.7862"
           id="path3792" />
        <path
           d="m 165.9769,98.4826 0.0604,-0.0605"
           id="path3794" />
        <path
           d="m 166.0373,98.4221 0.121,-0.0605"
           id="path3796" />
        <path
           d="m 166.1583,98.3616 h 0.3024"
           id="path3798" />
        <path
           d="m 166.4607,98.3616 0.1209,0.0605"
           id="path3800" />
        <path
           d="m 166.5816,98.4221 0.0605,0.0605"
           id="path3802" />
        <path
           d="m 166.6421,98.4826 0.0605,0.1209"
           id="path3804" />
        <path
           d="m 166.7026,98.6035 v 0.121"
           id="path3806" />
        <path
           d="m 166.7026,98.7245 -0.0605,0.1814"
           id="path3808" />
        <path
           d="m 166.6421,98.9059 -0.7257,0.7257"
           id="path3810" />
        <path
           d="m 165.9164,99.6316 h 0.7862"
           id="path3812" />
        <path
           d="m 167.4887,98.3616 h 0.121"
           id="path3814" />
        <path
           d="m 167.6097,98.3616 0.1209,0.0605"
           id="path3816" />
        <path
           d="m 167.7306,98.4221 0.0605,0.0605"
           id="path3818" />
        <path
           d="m 167.7911,98.4826 0.0605,0.1209"
           id="path3820" />
        <path
           d="m 167.8516,98.6035 0.0605,0.2419"
           id="path3822" />
        <path
           d="m 167.9121,98.8454 v 0.3024"
           id="path3824" />
        <path
           d="m 167.9121,99.1478 -0.0605,0.2419"
           id="path3826" />
        <path
           d="m 167.8516,99.3897 -0.0605,0.121"
           id="path3828" />
        <path
           d="m 167.7911,99.5107 -0.0605,0.0605"
           id="path3830" />
        <path
           d="m 167.7306,99.5712 -0.1209,0.0604"
           id="path3832" />
        <path
           d="m 167.6097,99.6316 h -0.121"
           id="path3834" />
        <path
           d="m 167.4887,99.6316 -0.1209,-0.0604"
           id="path3836" />
        <path
           d="m 167.3678,99.5712 -0.0605,-0.0605"
           id="path3838" />
        <path
           d="m 167.3073,99.5107 -0.0605,-0.121"
           id="path3840" />
        <path
           d="m 167.2468,99.3897 -0.0604,-0.2419"
           id="path3842" />
        <path
           d="M 167.1864,99.1478 V 98.8454"
           id="path3844" />
        <path
           d="m 167.1864,98.8454 0.0604,-0.2419"
           id="path3846" />
        <path
           d="m 167.2468,98.6035 0.0605,-0.1209"
           id="path3848" />
        <path
           d="m 167.3073,98.4826 0.0605,-0.0605"
           id="path3850" />
        <path
           d="m 167.3678,98.4221 0.1209,-0.0605"
           id="path3852" />
        <path
           d="m 168.5168,99.6316 h 0.2419"
           id="path3854" />
        <path
           d="m 168.7587,99.6316 0.121,-0.0604"
           id="path3856" />
        <path
           d="m 168.8797,99.5712 0.0604,-0.0605"
           id="path3858" />
        <path
           d="m 168.9401,99.5107 0.121,-0.1815"
           id="path3860" />
        <path
           d="m 169.0611,99.3292 0.0605,-0.2419"
           id="path3862" />
        <path
           d="M 169.1216,99.0873 V 98.6035"
           id="path3864" />
        <path
           d="m 169.1216,98.6035 -0.0605,-0.1209"
           id="path3866" />
        <path
           d="m 169.0611,98.4826 -0.0605,-0.0605"
           id="path3868" />
        <path
           d="m 169.0006,98.4221 -0.1209,-0.0605"
           id="path3870" />
        <path
           d="m 168.8797,98.3616 h -0.2419"
           id="path3872" />
        <path
           d="m 168.6378,98.3616 -0.121,0.0605"
           id="path3874" />
        <path
           d="m 168.5168,98.4221 -0.0605,0.0605"
           id="path3876" />
        <path
           d="m 168.4563,98.4826 -0.0604,0.1209"
           id="path3878" />
        <path
           d="m 168.3959,98.6035 v 0.3024"
           id="path3880" />
        <path
           d="m 168.3959,98.9059 0.0604,0.121"
           id="path3882" />
        <path
           d="m 168.4563,99.0269 0.0605,0.0604"
           id="path3884" />
        <path
           d="m 168.5168,99.0873 0.121,0.0605"
           id="path3886" />
        <path
           d="m 168.6378,99.1478 h 0.2419"
           id="path3888" />
        <path
           d="m 168.8797,99.1478 0.1209,-0.0605"
           id="path3890" />
        <path
           d="m 169.0006,99.0873 0.0605,-0.0604"
           id="path3892" />
        <path
           d="m 169.0611,99.0269 0.0605,-0.121"
           id="path3894" />
      </g>
      <path
         d="M 154.94,88.9 H 152.4"
         id="path3898" />
    </g>
    <g
       style="fill:#cb4b16;fill-opacity:0;stroke:#cb4b16;stroke-width:0.3048;stroke-linecap:round;stroke-linejoin:round;stroke-opacity:1"
       id="g3902" />
    <g
       style="fill:#cb4b16;fill-opacity:0;stroke:#cb4b16;stroke-width:0.1524;stroke-linecap:round;stroke-linejoin:round;stroke-opacity:1"
       id="g3960">
      <text
         x="155.95599"
         y="89.535004"
         textLength="4.8599"
         font-size="1.6933px"
         lengthAdjust="spacingAndGlyphs"
         text-anchor="start"
         opacity="0"
         id="text3904">UART</text>
      <g
         class="stroked-text"
         id="g3958">
        <desc
           id="desc3906">UART</desc>
        <path
           d="m 156.3585,88.2095 v 1.0281"
           id="path3908" />
        <path
           d="m 156.3585,89.2376 0.0605,0.121"
           id="path3910" />
        <path
           d="m 156.419,89.3586 0.0605,0.0605"
           id="path3912" />
        <path
           d="m 156.4795,89.4191 0.1209,0.0604"
           id="path3914" />
        <path
           d="m 156.6004,89.4795 h 0.2419"
           id="path3916" />
        <path
           d="m 156.8423,89.4795 0.121,-0.0604"
           id="path3918" />
        <path
           d="m 156.9633,89.4191 0.0605,-0.0605"
           id="path3920" />
        <path
           d="m 157.0238,89.3586 0.0604,-0.121"
           id="path3922" />
        <path
           d="M 157.0842,89.2376 V 88.2095"
           id="path3924" />
        <path
           d="m 157.6286,89.1167 h 0.6047"
           id="path3926" />
        <path
           d="m 157.5076,89.4795 0.4233,-1.27"
           id="path3928" />
        <path
           d="m 157.9309,88.2095 0.4234,1.27"
           id="path3930" />
        <path
           d="M 159.5033,89.4795 159.08,88.8748"
           id="path3932" />
        <path
           d="m 158.7776,89.4795 v -1.27"
           id="path3934" />
        <path
           d="m 158.7776,88.2095 h 0.4838"
           id="path3936" />
        <path
           d="m 159.2614,88.2095 0.121,0.0605"
           id="path3938" />
        <path
           d="m 159.3824,88.27 0.0605,0.0605"
           id="path3940" />
        <path
           d="m 159.4429,88.3305 0.0604,0.1209"
           id="path3942" />
        <path
           d="m 159.5033,88.4514 v 0.1815"
           id="path3944" />
        <path
           d="m 159.5033,88.6329 -0.0604,0.1209"
           id="path3946" />
        <path
           d="m 159.4429,88.7538 -0.0605,0.0605"
           id="path3948" />
        <path
           d="m 159.3824,88.8143 -0.121,0.0605"
           id="path3950" />
        <path
           d="m 159.2614,88.8748 h -0.4838"
           id="path3952" />
        <path
           d="m 159.8662,88.2095 h 0.7257"
           id="path3954" />
        <path
           d="m 160.2291,89.4795 v -1.27"
           id="path3956" />
      </g>
    </g>
  </g>
  <g
     style="fill:#cb4b16;fill-opacity:0;stroke:#cb4b16;stroke-width:0.1524;stroke-linecap:round;stroke-linejoin:round;stroke-opacity:1"
     id="g4298"
     transform="translate(-103.9876,-86.207601)">
    <g
       id="g3964" />
    <g
       style="fill:#586e75;fill-opacity:0;stroke:#586e75;stroke-width:0.1524;stroke-linecap:round;stroke-linejoin:round;stroke-opacity:1"
       id="g3966" />
    <g
       style="fill:#586e75;fill-opacity:0;stroke:#586e75;stroke-width:0.3048;stroke-linecap:round;stroke-linejoin:round;stroke-opacity:1"
       id="g4236">
      <rect
         x="104.14"
         y="86.360001"
         width="20.32"
         height="25.4"
         rx="0.000000"
         id="rect3968" />
      <text
         x="114.3"
         y="99.695"
         textLength="18.561399"
         font-size="1.6933px"
         lengthAdjust="spacingAndGlyphs"
         text-anchor="middle"
         opacity="0"
         id="text3970">MICROCONTROLLER</text>
      <g
         class="stroked-text"
         id="g4232">
        <desc
           id="desc3972">MICROCONTROLLER</desc>
        <path
           d="m 105.6518,99.6316 v -1.27"
           id="path3974" />
        <path
           d="m 105.6518,98.3616 0.4234,0.9072"
           id="path3976" />
        <path
           d="m 106.0752,99.2688 0.4233,-0.9072"
           id="path3978" />
        <path
           d="m 106.4985,98.3616 v 1.27"
           id="path3980" />
        <path
           d="m 107.1032,99.6316 v -1.27"
           id="path3982" />
        <path
           d="m 108.4337,99.5107 -0.0604,0.0605"
           id="path3984" />
        <path
           d="m 108.3733,99.5712 -0.1815,0.0604"
           id="path3986" />
        <path
           d="m 108.1918,99.6316 h -0.1209"
           id="path3988" />
        <path
           d="m 108.0709,99.6316 -0.1814,-0.0604"
           id="path3990" />
        <path
           d="m 107.8895,99.5712 -0.121,-0.121"
           id="path3992" />
        <path
           d="m 107.7685,99.4502 -0.0605,-0.121"
           id="path3994" />
        <path
           d="m 107.708,99.3292 -0.0604,-0.2419"
           id="path3996" />
        <path
           d="M 107.6476,99.0873 V 98.9059"
           id="path3998" />
        <path
           d="M 107.6476,98.9059 107.708,98.664"
           id="path4000" />
        <path
           d="m 107.708,98.664 0.0605,-0.1209"
           id="path4002" />
        <path
           d="m 107.7685,98.5431 0.121,-0.121"
           id="path4004" />
        <path
           d="m 107.8895,98.4221 0.1814,-0.0605"
           id="path4006" />
        <path
           d="m 108.0709,98.3616 h 0.1209"
           id="path4008" />
        <path
           d="m 108.1918,98.3616 0.1815,0.0605"
           id="path4010" />
        <path
           d="m 108.3733,98.4221 0.0604,0.0605"
           id="path4012" />
        <path
           d="m 109.7037,99.6316 -0.4233,-0.6047"
           id="path4014" />
        <path
           d="m 108.978,99.6316 v -1.27"
           id="path4016" />
        <path
           d="m 108.978,98.3616 h 0.4838"
           id="path4018" />
        <path
           d="m 109.4618,98.3616 0.121,0.0605"
           id="path4020" />
        <path
           d="m 109.5828,98.4221 0.0605,0.0605"
           id="path4022" />
        <path
           d="m 109.6433,98.4826 0.0604,0.1209"
           id="path4024" />
        <path
           d="M 109.7037,98.6035 V 98.785"
           id="path4026" />
        <path
           d="m 109.7037,98.785 -0.0604,0.1209"
           id="path4028" />
        <path
           d="m 109.6433,98.9059 -0.0605,0.0605"
           id="path4030" />
        <path
           d="m 109.5828,98.9664 -0.121,0.0605"
           id="path4032" />
        <path
           d="M 109.4618,99.0269 H 108.978"
           id="path4034" />
        <path
           d="m 110.4899,98.3616 h 0.2419"
           id="path4036" />
        <path
           d="m 110.7318,98.3616 0.121,0.0605"
           id="path4038" />
        <path
           d="m 110.8528,98.4221 0.1209,0.121"
           id="path4040" />
        <path
           d="m 110.9737,98.5431 0.0605,0.2419"
           id="path4042" />
        <path
           d="m 111.0342,98.785 v 0.4233"
           id="path4044" />
        <path
           d="m 111.0342,99.2083 -0.0605,0.2419"
           id="path4046" />
        <path
           d="m 110.9737,99.4502 -0.1209,0.121"
           id="path4048" />
        <path
           d="m 110.8528,99.5712 -0.121,0.0604"
           id="path4050" />
        <path
           d="m 110.7318,99.6316 h -0.2419"
           id="path4052" />
        <path
           d="M 110.4899,99.6316 110.369,99.5712"
           id="path4054" />
        <path
           d="m 110.369,99.5712 -0.121,-0.121"
           id="path4056" />
        <path
           d="m 110.248,99.4502 -0.0604,-0.2419"
           id="path4058" />
        <path
           d="M 110.1876,99.2083 V 98.785"
           id="path4060" />
        <path
           d="m 110.1876,98.785 0.0604,-0.2419"
           id="path4062" />
        <path
           d="m 110.248,98.5431 0.121,-0.121"
           id="path4064" />
        <path
           d="m 110.369,98.4221 0.1209,-0.0605"
           id="path4066" />
        <path
           d="m 112.3042,99.5107 -0.0604,0.0605"
           id="path4068" />
        <path
           d="m 112.2438,99.5712 -0.1815,0.0604"
           id="path4070" />
        <path
           d="m 112.0623,99.6316 h -0.1209"
           id="path4072" />
        <path
           d="M 111.9414,99.6316 111.76,99.5712"
           id="path4074" />
        <path
           d="m 111.76,99.5712 -0.121,-0.121"
           id="path4076" />
        <path
           d="m 111.639,99.4502 -0.0605,-0.121"
           id="path4078" />
        <path
           d="m 111.5785,99.3292 -0.0604,-0.2419"
           id="path4080" />
        <path
           d="M 111.5181,99.0873 V 98.9059"
           id="path4082" />
        <path
           d="m 111.5181,98.9059 0.0604,-0.2419"
           id="path4084" />
        <path
           d="m 111.5785,98.664 0.0605,-0.1209"
           id="path4086" />
        <path
           d="m 111.639,98.5431 0.121,-0.121"
           id="path4088" />
        <path
           d="m 111.76,98.4221 0.1814,-0.0605"
           id="path4090" />
        <path
           d="m 111.9414,98.3616 h 0.1209"
           id="path4092" />
        <path
           d="m 112.0623,98.3616 0.1815,0.0605"
           id="path4094" />
        <path
           d="m 112.2438,98.4221 0.0604,0.0605"
           id="path4096" />
        <path
           d="m 113.0904,98.3616 h 0.2419"
           id="path4098" />
        <path
           d="m 113.3323,98.3616 0.121,0.0605"
           id="path4100" />
        <path
           d="m 113.4533,98.4221 0.1209,0.121"
           id="path4102" />
        <path
           d="m 113.5742,98.5431 0.0605,0.2419"
           id="path4104" />
        <path
           d="m 113.6347,98.785 v 0.4233"
           id="path4106" />
        <path
           d="m 113.6347,99.2083 -0.0605,0.2419"
           id="path4108" />
        <path
           d="m 113.5742,99.4502 -0.1209,0.121"
           id="path4110" />
        <path
           d="m 113.4533,99.5712 -0.121,0.0604"
           id="path4112" />
        <path
           d="m 113.3323,99.6316 h -0.2419"
           id="path4114" />
        <path
           d="m 113.0904,99.6316 -0.1209,-0.0604"
           id="path4116" />
        <path
           d="m 112.9695,99.5712 -0.121,-0.121"
           id="path4118" />
        <path
           d="m 112.8485,99.4502 -0.0604,-0.2419"
           id="path4120" />
        <path
           d="M 112.7881,99.2083 V 98.785"
           id="path4122" />
        <path
           d="m 112.7881,98.785 0.0604,-0.2419"
           id="path4124" />
        <path
           d="m 112.8485,98.5431 0.121,-0.121"
           id="path4126" />
        <path
           d="m 112.9695,98.4221 0.1209,-0.0605"
           id="path4128" />
        <path
           d="m 114.179,99.6316 v -1.27"
           id="path4130" />
        <path
           d="m 114.179,98.3616 0.7257,1.27"
           id="path4132" />
        <path
           d="m 114.9047,99.6316 v -1.27"
           id="path4134" />
        <path
           d="m 115.3281,98.3616 h 0.7257"
           id="path4136" />
        <path
           d="m 115.691,99.6316 v -1.27"
           id="path4138" />
        <path
           d="m 117.2028,99.6316 -0.4233,-0.6047"
           id="path4140" />
        <path
           d="m 116.4771,99.6316 v -1.27"
           id="path4142" />
        <path
           d="m 116.4771,98.3616 h 0.4838"
           id="path4144" />
        <path
           d="m 116.9609,98.3616 0.121,0.0605"
           id="path4146" />
        <path
           d="m 117.0819,98.4221 0.0605,0.0605"
           id="path4148" />
        <path
           d="m 117.1424,98.4826 0.0604,0.1209"
           id="path4150" />
        <path
           d="M 117.2028,98.6035 V 98.785"
           id="path4152" />
        <path
           d="m 117.2028,98.785 -0.0604,0.1209"
           id="path4154" />
        <path
           d="m 117.1424,98.9059 -0.0605,0.0605"
           id="path4156" />
        <path
           d="m 117.0819,98.9664 -0.121,0.0605"
           id="path4158" />
        <path
           d="m 116.9609,99.0269 h -0.4838"
           id="path4160" />
        <path
           d="m 117.989,98.3616 h 0.2419"
           id="path4162" />
        <path
           d="m 118.2309,98.3616 0.121,0.0605"
           id="path4164" />
        <path
           d="m 118.3519,98.4221 0.1209,0.121"
           id="path4166" />
        <path
           d="m 118.4728,98.5431 0.0605,0.2419"
           id="path4168" />
        <path
           d="m 118.5333,98.785 v 0.4233"
           id="path4170" />
        <path
           d="m 118.5333,99.2083 -0.0605,0.2419"
           id="path4172" />
        <path
           d="m 118.4728,99.4502 -0.1209,0.121"
           id="path4174" />
        <path
           d="m 118.3519,99.5712 -0.121,0.0604"
           id="path4176" />
        <path
           d="M 118.2309,99.6316 H 117.989"
           id="path4178" />
        <path
           d="m 117.989,99.6316 -0.1209,-0.0604"
           id="path4180" />
        <path
           d="m 117.8681,99.5712 -0.121,-0.121"
           id="path4182" />
        <path
           d="m 117.7471,99.4502 -0.0604,-0.2419"
           id="path4184" />
        <path
           d="M 117.6867,99.2083 V 98.785"
           id="path4186" />
        <path
           d="m 117.6867,98.785 0.0604,-0.2419"
           id="path4188" />
        <path
           d="m 117.7471,98.5431 0.121,-0.121"
           id="path4190" />
        <path
           d="m 117.8681,98.4221 0.1209,-0.0605"
           id="path4192" />
        <path
           d="m 119.6824,99.6316 h -0.6048"
           id="path4194" />
        <path
           d="m 119.0776,99.6316 v -1.27"
           id="path4196" />
        <path
           d="m 120.7105,99.6316 h -0.6048"
           id="path4198" />
        <path
           d="m 120.1057,99.6316 v -1.27"
           id="path4200" />
        <path
           d="m 121.1338,98.9664 h 0.4234"
           id="path4202" />
        <path
           d="m 121.7386,99.6316 h -0.6048"
           id="path4204" />
        <path
           d="m 121.1338,99.6316 v -1.27"
           id="path4206" />
        <path
           d="m 121.1338,98.3616 h 0.6048"
           id="path4208" />
        <path
           d="m 123.0085,99.6316 -0.4233,-0.6047"
           id="path4210" />
        <path
           d="m 122.2828,99.6316 v -1.27"
           id="path4212" />
        <path
           d="m 122.2828,98.3616 h 0.4838"
           id="path4214" />
        <path
           d="m 122.7666,98.3616 0.121,0.0605"
           id="path4216" />
        <path
           d="m 122.8876,98.4221 0.0605,0.0605"
           id="path4218" />
        <path
           d="m 122.9481,98.4826 0.0604,0.1209"
           id="path4220" />
        <path
           d="M 123.0085,98.6035 V 98.785"
           id="path4222" />
        <path
           d="m 123.0085,98.785 -0.0604,0.1209"
           id="path4224" />
        <path
           d="m 122.9481,98.9059 -0.0605,0.0605"
           id="path4226" />
        <path
           d="m 122.8876,98.9664 -0.121,0.0605"
           id="path4228" />
        <path
           d="m 122.7666,99.0269 h -0.4838"
           id="path4230" />
      </g>
      <path
         d="M 124.46,91.44 H 127"
         id="path4234" />
    </g>
    <g
       style="fill:#cb4b16;fill-opacity:0;stroke:#cb4b16;stroke-width:0.3048;stroke-linecap:round;stroke-linejoin:round;stroke-opacity:1"
       id="g4238" />
    <g
       style="fill:#cb4b16;fill-opacity:0;stroke:#cb4b16;stroke-width:0.1524;stroke-linecap:round;stroke-linejoin:round;stroke-opacity:1"
       id="g4272">
      <text
         x="123.444"
         y="92.074997"
         textLength="2.6826999"
         font-size="1.6933px"
         lengthAdjust="spacingAndGlyphs"
         text-anchor="end"
         opacity="0"
         id="text4240">RX</text>
      <g
         class="stroked-text"
         id="g4270">
        <desc
           id="desc4242">RX</desc>
        <path
           d="M 121.8923,92.0195 121.469,91.4148"
           id="path4244" />
        <path
           d="m 121.1666,92.0195 v -1.27"
           id="path4246" />
        <path
           d="m 121.1666,90.7495 h 0.4838"
           id="path4248" />
        <path
           d="m 121.6504,90.7495 0.121,0.0605"
           id="path4250" />
        <path
           d="m 121.7714,90.81 0.0605,0.0605"
           id="path4252" />
        <path
           d="m 121.8319,90.8705 0.0604,0.1209"
           id="path4254" />
        <path
           d="m 121.8923,90.9914 v 0.1815"
           id="path4256" />
        <path
           d="m 121.8923,91.1729 -0.0604,0.1209"
           id="path4258" />
        <path
           d="m 121.8319,91.2938 -0.0605,0.0605"
           id="path4260" />
        <path
           d="m 121.7714,91.3543 -0.121,0.0605"
           id="path4262" />
        <path
           d="m 121.6504,91.4148 h -0.4838"
           id="path4264" />
        <path
           d="m 122.3157,90.7495 0.8466,1.27"
           id="path4266" />
        <path
           d="m 123.1623,90.7495 -0.8466,1.27"
           id="path4268" />
      </g>
    </g>
    <g
       style="fill:#586e75;fill-opacity:0;stroke:#586e75;stroke-width:0.1524;stroke-linecap:round;stroke-linejoin:round;stroke-opacity:1"
       id="g4274" />
    <g
       style="fill:#586e75;fill-opacity:0;stroke:#586e75;stroke-width:0.3048;stroke-linecap:round;stroke-linejoin:round;stroke-opacity:1"
       id="g4278">
      <path
         d="M 124.46,88.9 H 127"
         id="path4276" />
    </g>
    <g
       style="fill:#cb4b16;fill-opacity:0;stroke:#cb4b16;stroke-width:0.3048;stroke-linecap:round;stroke-linejoin:round;stroke-opacity:1"
       id="g4280" />
    <g
       style="fill:#cb4b16;fill-opacity:0;stroke:#cb4b16;stroke-width:0.1524;stroke-linecap:round;stroke-linejoin:round;stroke-opacity:1"
       id="g4296">
      <text
         x="123.444"
         y="89.535004"
         textLength="2.3803"
         font-size="1.6933px"
         lengthAdjust="spacingAndGlyphs"
         text-anchor="end"
         opacity="0"
         id="text4282">TX</text>
      <g
         class="stroked-text"
         id="g4294">
        <desc
           id="desc4284">TX</desc>
        <path
           d="m 121.2876,88.2095 h 0.7257"
           id="path4286" />
        <path
           d="m 121.6505,89.4795 v -1.27"
           id="path4288" />
        <path
           d="m 122.3157,88.2095 0.8466,1.27"
           id="path4290" />
        <path
           d="m 123.1623,88.2095 -0.8466,1.27"
           id="path4292" />
      </g>
    </g>
  </g>
  <g
     style="fill:#cb4b16;fill-opacity:0;stroke:#cb4b16;stroke-width:0.1524;stroke-linecap:round;stroke-linejoin:round;stroke-opacity:1"
     id="g4338"
     transform="translate(-103.9876,-86.207601)">
    <g
       id="g4300" />
    <g
       style="fill:#586e75;fill-opacity:0;stroke:#586e75;stroke-width:0.1524;stroke-linecap:round;stroke-linejoin:round;stroke-opacity:1"
       id="g4302" />
    <g
       style="fill:#586e75;fill-opacity:0;stroke:#586e75;stroke-width:0.3048;stroke-linecap:round;stroke-linejoin:round;stroke-opacity:1"
       id="g4310">
      <rect
         x="132.08"
         y="87.884003"
         width="7.6199999"
         height="2.0320001"
         rx="0.000000"
         id="rect4304" />
      <path
         d="m 132.08,88.9 h -2.54"
         id="path4306" />
      <path
         d="m 139.7,88.9 h 2.54"
         id="path4308" />
    </g>
    <g
       style="fill:#6c71c4;fill-opacity:0;stroke:#6c71c4;stroke-width:0.3048;stroke-linecap:round;stroke-linejoin:round;stroke-opacity:1"
       id="g4312" />
    <g
       style="fill:#6c71c4;fill-opacity:0;stroke:#6c71c4;stroke-width:0.1905;stroke-linecap:round;stroke-linejoin:round;stroke-opacity:1"
       id="g4336">
      <text
         x="135.89"
         y="89.280899"
         textLength="1.7618001"
         font-size="1.016px"
         lengthAdjust="spacingAndGlyphs"
         text-anchor="middle"
         opacity="0"
         id="text4314">1k</text>
      <g
         class="stroked-text"
         id="g4334">
        <desc
           id="desc4316">1k</desc>
        <path
           d="m 135.7992,89.2424 h -0.4354"
           id="path4318" />
        <path
           d="m 135.5815,89.2424 v -0.762"
           id="path4320" />
        <path
           d="m 135.5815,88.4804 -0.0726,0.1089"
           id="path4322" />
        <path
           d="m 135.5089,88.5893 -0.0725,0.0726"
           id="path4324" />
        <path
           d="m 135.4364,88.6619 -0.0726,0.0363"
           id="path4326" />
        <path
           d="m 136.1258,89.2424 v -0.762"
           id="path4328" />
        <path
           d="m 136.1984,88.9522 0.2177,0.2902"
           id="path4330" />
        <path
           d="m 136.4161,88.7344 -0.2903,0.2903"
           id="path4332" />
      </g>
    </g>
  </g>
  <g
     style="fill:#6c71c4;fill-opacity:0;stroke:#6c71c4;stroke-width:0.1524;stroke-linecap:round;stroke-linejoin:round;stroke-opacity:1"
     id="g4340"
     transform="translate(-103.9876,-86.207601)" />
  <g
     style="fill:#859900;fill-opacity:0;stroke:#859900;stroke-width:0.1524;stroke-linecap:round;stroke-linejoin:round;stroke-opacity:1"
     id="g4342"
     transform="translate(-103.9876,-86.207601)" />
  <g
     style="fill:#859900;fill-opacity:0;stroke:#859900;stroke-width:0.3048;stroke-linecap:round;stroke-linejoin:round;stroke-opacity:1"
     id="g4346"
     transform="translate(-103.9876,-86.207601)">
    <path
       d="m 142.24,88.9 h 2.54"
       id="path4344" />
  </g>
  <g
     style="fill:#859900;fill-opacity:0;stroke:#859900;stroke-width:0.1524;stroke-linecap:round;stroke-linejoin:round;stroke-opacity:1"
     id="g4348"
     transform="translate(-103.9876,-86.207601)" />
  <g
     style="fill:#859900;fill-opacity:0;stroke:#859900;stroke-width:0.3048;stroke-linecap:round;stroke-linejoin:round;stroke-opacity:1"
     id="g4352"
     transform="translate(-103.9876,-86.207601)">
    <path
       d="m 144.78,88.9 v 2.54"
       id="path4350" />
  </g>
  <g
     style="fill:#859900;fill-opacity:0;stroke:#859900;stroke-width:0.1524;stroke-linecap:round;stroke-linejoin:round;stroke-opacity:1"
     id="g4354"
     transform="translate(-103.9876,-86.207601)" />
  <g
     style="fill:#859900;fill-opacity:0;stroke:#859900;stroke-width:0.3048;stroke-linecap:round;stroke-linejoin:round;stroke-opacity:1"
     id="g4358"
     transform="translate(-103.9876,-86.207601)">
    <path
       d="m 144.78,88.9 h 7.62"
       id="path4356" />
  </g>
  <g
     style="fill:#859900;fill-opacity:0;stroke:#859900;stroke-width:0.1524;stroke-linecap:round;stroke-linejoin:round;stroke-opacity:1"
     id="g4360"
     transform="translate(-103.9876,-86.207601)" />
  <g
     style="fill:#859900;fill-opacity:0;stroke:#859900;stroke-width:0.3048;stroke-linecap:round;stroke-linejoin:round;stroke-opacity:1"
     id="g4364"
     transform="translate(-103.9876,-86.207601)">
    <path
       d="m 127,91.44 h 17.78"
       id="path4362" />
  </g>
  <g
     style="fill:#859900;fill-opacity:0;stroke:#859900;stroke-width:0.1524;stroke-linecap:round;stroke-linejoin:round;stroke-opacity:1"
     id="g4366"
     transform="translate(-103.9876,-86.207601)" />
  <g
     style="fill:#859900;fill-opacity:0;stroke:#859900;stroke-width:0.3048;stroke-linecap:round;stroke-linejoin:round;stroke-opacity:1"
     id="g4370"
     transform="translate(-103.9876,-86.207601)">
    <path
       d="m 127,88.9 h 2.54"
       id="path4368" />
  </g>
  <g
     style="fill:#859900;fill-opacity:0;stroke:#859900;stroke-width:0.1524;stroke-linecap:round;stroke-linejoin:round;stroke-opacity:1"
     id="g4372"
     transform="translate(-103.9876,-86.207601)" />
  <g
     style="fill:#859900;fill-opacity:1;stroke:#859900;stroke-width:0.1524;stroke-linecap:round;stroke-linejoin:round;stroke-opacity:1"
     id="g4376"
     transform="translate(-103.9876,-86.207601)">
    <circle
       cx="144.78"
       cy="88.900002"
       r="0.45719999"
       id="circle4374" />
  </g>
</svg>
