<?xml version="1.0" standalone="no"?>
 <!DOCTYPE svg PUBLIC "-//W3C//DTD SVG 1.1//EN" 
 "http://www.w3.org/Graphics/SVG/1.1/DTD/svg11.dtd"> 
<svg
  xmlns:svg="http://www.w3.org/2000/svg"
  xmlns="http://www.w3.org/2000/svg"
  xmlns:xlink="http://www.w3.org/1999/xlink"
  version="1.1"
  width="297.0022mm" height="210.0072mm" viewBox="0.0000 0.0000 297.0022 210.0072">
<title>SVG Image created as trinamic_wiring.svg date 2023/06/27 13:13:37 </title>
  <desc>Image generated by Eeschema-SVG </desc>
<g style="fill:#000000; fill-opacity:1.0000;stroke:#000000; stroke-opacity:1.0000;
stroke-linecap:round; stroke-linejoin:round;"
 transform="translate(0 0) scale(1 1)">
</g>
<g style="fill:#000000; fill-opacity:0.0; 
stroke:#000000; stroke-width:0.1524; stroke-opacity:1; 
stroke-linecap:round; stroke-linejoin:round;">
</g>
<g style="fill:#FFFFFF; fill-opacity:0.0; 
stroke:#FFFFFF; stroke-width:0.1524; stroke-opacity:1; 
stroke-linecap:round; stroke-linejoin:round;">
</g>
<g style="fill:#FFFFFF; fill-opacity:0.0000; 
stroke:#FFFFFF; stroke-width:0.0001; stroke-opacity:1; 
stroke-linecap:round; stroke-linejoin:round;">
<rect x="120.650000" y="34.290000" width="12.700000" height="3.810000" rx="0.000000" />
</g>
<g style="fill:#FFFFFF; fill-opacity:0.0000; 
stroke:#FFFFFF; stroke-width:0.1524; stroke-opacity:1; 
stroke-linecap:round; stroke-linejoin:round;">
</g>
<g style="fill:#840000; fill-opacity:1.0000; 
stroke:#840000; stroke-width:0.1524; stroke-opacity:1; 
stroke-linecap:round; stroke-linejoin:round;">
</g>
<g style="fill:#840000; fill-opacity:0.0; 
stroke:#840000; stroke-width:0.1524; stroke-opacity:1; 
stroke-linecap:round; stroke-linejoin:round;">
<rect x="120.650000" y="34.290000" width="12.700000" height="3.810000" rx="0.000000" />
</g>
<g style="fill:#006464; fill-opacity:0.0; 
stroke:#006464; stroke-width:0.1524; stroke-opacity:1; 
stroke-linecap:round; stroke-linejoin:round;">
<text x="120.6500" y="33.5784"
textLength="8.6540" font-size="1.6933" lengthAdjust="spacingAndGlyphs"
text-anchor="start" opacity="0">TMC2209</text>
<g class="stroked-text"><desc>TMC2209</desc>
<path d="M120.8711 32.1449
L121.5968 32.1449
" />
<path d="M121.2340 33.4149
L121.2340 32.1449
" />
<path d="M122.0201 33.4149
L122.0201 32.1449
" />
<path d="M122.0201 32.1449
L122.4435 33.0521
" />
<path d="M122.4435 33.0521
L122.8668 32.1449
" />
<path d="M122.8668 32.1449
L122.8668 33.4149
" />
<path d="M124.1972 33.2940
L124.1368 33.3545
" />
<path d="M124.1368 33.3545
L123.9553 33.4149
" />
<path d="M123.9553 33.4149
L123.8344 33.4149
" />
<path d="M123.8344 33.4149
L123.6530 33.3545
" />
<path d="M123.6530 33.3545
L123.5320 33.2335
" />
<path d="M123.5320 33.2335
L123.4715 33.1125
" />
<path d="M123.4715 33.1125
L123.4111 32.8706
" />
<path d="M123.4111 32.8706
L123.4111 32.6892
" />
<path d="M123.4111 32.6892
L123.4715 32.4473
" />
<path d="M123.4715 32.4473
L123.5320 32.3264
" />
<path d="M123.5320 32.3264
L123.6530 32.2054
" />
<path d="M123.6530 32.2054
L123.8344 32.1449
" />
<path d="M123.8344 32.1449
L123.9553 32.1449
" />
<path d="M123.9553 32.1449
L124.1368 32.2054
" />
<path d="M124.1368 32.2054
L124.1972 32.2659
" />
<path d="M124.6811 32.2659
L124.7415 32.2054
" />
<path d="M124.7415 32.2054
L124.8625 32.1449
" />
<path d="M124.8625 32.1449
L125.1649 32.1449
" />
<path d="M125.1649 32.1449
L125.2858 32.2054
" />
<path d="M125.2858 32.2054
L125.3463 32.2659
" />
<path d="M125.3463 32.2659
L125.4068 32.3868
" />
<path d="M125.4068 32.3868
L125.4068 32.5078
" />
<path d="M125.4068 32.5078
L125.3463 32.6892
" />
<path d="M125.3463 32.6892
L124.6206 33.4149
" />
<path d="M124.6206 33.4149
L125.4068 33.4149
" />
<path d="M125.8906 32.2659
L125.9510 32.2054
" />
<path d="M125.9510 32.2054
L126.0720 32.1449
" />
<path d="M126.0720 32.1449
L126.3744 32.1449
" />
<path d="M126.3744 32.1449
L126.4953 32.2054
" />
<path d="M126.4953 32.2054
L126.5558 32.2659
" />
<path d="M126.5558 32.2659
L126.6163 32.3868
" />
<path d="M126.6163 32.3868
L126.6163 32.5078
" />
<path d="M126.6163 32.5078
L126.5558 32.6892
" />
<path d="M126.5558 32.6892
L125.8301 33.4149
" />
<path d="M125.8301 33.4149
L126.6163 33.4149
" />
<path d="M127.4024 32.1449
L127.5234 32.1449
" />
<path d="M127.5234 32.1449
L127.6443 32.2054
" />
<path d="M127.6443 32.2054
L127.7048 32.2659
" />
<path d="M127.7048 32.2659
L127.7653 32.3868
" />
<path d="M127.7653 32.3868
L127.8258 32.6287
" />
<path d="M127.8258 32.6287
L127.8258 32.9311
" />
<path d="M127.8258 32.9311
L127.7653 33.1730
" />
<path d="M127.7653 33.1730
L127.7048 33.2940
" />
<path d="M127.7048 33.2940
L127.6443 33.3545
" />
<path d="M127.6443 33.3545
L127.5234 33.4149
" />
<path d="M127.5234 33.4149
L127.4024 33.4149
" />
<path d="M127.4024 33.4149
L127.2815 33.3545
" />
<path d="M127.2815 33.3545
L127.2210 33.2940
" />
<path d="M127.2210 33.2940
L127.1605 33.1730
" />
<path d="M127.1605 33.1730
L127.1001 32.9311
" />
<path d="M127.1001 32.9311
L127.1001 32.6287
" />
<path d="M127.1001 32.6287
L127.1605 32.3868
" />
<path d="M127.1605 32.3868
L127.2210 32.2659
" />
<path d="M127.2210 32.2659
L127.2815 32.2054
" />
<path d="M127.2815 32.2054
L127.4024 32.1449
" />
<path d="M128.4305 33.4149
L128.6724 33.4149
" />
<path d="M128.6724 33.4149
L128.7934 33.3545
" />
<path d="M128.7934 33.3545
L128.8538 33.2940
" />
<path d="M128.8538 33.2940
L128.9748 33.1125
" />
<path d="M128.9748 33.1125
L129.0353 32.8706
" />
<path d="M129.0353 32.8706
L129.0353 32.3868
" />
<path d="M129.0353 32.3868
L128.9748 32.2659
" />
<path d="M128.9748 32.2659
L128.9143 32.2054
" />
<path d="M128.9143 32.2054
L128.7934 32.1449
" />
<path d="M128.7934 32.1449
L128.5515 32.1449
" />
<path d="M128.5515 32.1449
L128.4305 32.2054
" />
<path d="M128.4305 32.2054
L128.3700 32.2659
" />
<path d="M128.3700 32.2659
L128.3096 32.3868
" />
<path d="M128.3096 32.3868
L128.3096 32.6892
" />
<path d="M128.3096 32.6892
L128.3700 32.8102
" />
<path d="M128.3700 32.8102
L128.4305 32.8706
" />
<path d="M128.4305 32.8706
L128.5515 32.9311
" />
<path d="M128.5515 32.9311
L128.7934 32.9311
" />
<path d="M128.7934 32.9311
L128.9143 32.8706
" />
<path d="M128.9143 32.8706
L128.9748 32.8102
" />
<path d="M128.9748 32.8102
L129.0353 32.6892
" />
</g></g>
<g style="fill:#725600; fill-opacity:0.0; 
stroke:#725600; stroke-width:0.1524; stroke-opacity:1; 
stroke-linecap:round; stroke-linejoin:round;">
<text x="120.6500" y="39.9546"
textLength="23.3498" font-size="1.6933" lengthAdjust="spacingAndGlyphs"
text-anchor="start" opacity="0">File: tmc2209.kicad_sch</text>
<g class="stroked-text"><desc>File: tmc2209.kicad_sch</desc>
<path d="M121.4759 39.3418
L121.0525 39.3418
" />
<path d="M121.0525 40.0070
L121.0525 38.7370
" />
<path d="M121.0525 38.7370
L121.6573 38.7370
" />
<path d="M122.1411 40.0070
L122.1411 39.1604
" />
<path d="M122.1411 38.7370
L122.0807 38.7975
" />
<path d="M122.0807 38.7975
L122.1411 38.8580
" />
<path d="M122.1411 38.8580
L122.2016 38.7975
" />
<path d="M122.2016 38.7975
L122.1411 38.7370
" />
<path d="M122.1411 38.7370
L122.1411 38.8580
" />
<path d="M122.9274 40.0070
L122.8064 39.9466
" />
<path d="M122.8064 39.9466
L122.7459 39.8256
" />
<path d="M122.7459 39.8256
L122.7459 38.7370
" />
<path d="M123.8949 39.9466
L123.7740 40.0070
" />
<path d="M123.7740 40.0070
L123.5321 40.0070
" />
<path d="M123.5321 40.0070
L123.4111 39.9466
" />
<path d="M123.4111 39.9466
L123.3507 39.8256
" />
<path d="M123.3507 39.8256
L123.3507 39.3418
" />
<path d="M123.3507 39.3418
L123.4111 39.2208
" />
<path d="M123.4111 39.2208
L123.5321 39.1604
" />
<path d="M123.5321 39.1604
L123.7740 39.1604
" />
<path d="M123.7740 39.1604
L123.8949 39.2208
" />
<path d="M123.8949 39.2208
L123.9554 39.3418
" />
<path d="M123.9554 39.3418
L123.9554 39.4627
" />
<path d="M123.9554 39.4627
L123.3507 39.5837
" />
<path d="M124.4997 39.8861
L124.5602 39.9466
" />
<path d="M124.5602 39.9466
L124.4997 40.0070
" />
<path d="M124.4997 40.0070
L124.4393 39.9466
" />
<path d="M124.4393 39.9466
L124.4997 39.8861
" />
<path d="M124.4997 39.8861
L124.4997 40.0070
" />
<path d="M124.4997 39.2208
L124.5602 39.2813
" />
<path d="M124.5602 39.2813
L124.4997 39.3418
" />
<path d="M124.4997 39.3418
L124.4393 39.2813
" />
<path d="M124.4393 39.2813
L124.4997 39.2208
" />
<path d="M124.4997 39.2208
L124.4997 39.3418
" />
<path d="M125.8907 39.1604
L126.3745 39.1604
" />
<path d="M126.0721 38.7370
L126.0721 39.8256
" />
<path d="M126.0721 39.8256
L126.1326 39.9466
" />
<path d="M126.1326 39.9466
L126.2536 40.0070
" />
<path d="M126.2536 40.0070
L126.3745 40.0070
" />
<path d="M126.7978 40.0070
L126.7978 39.1604
" />
<path d="M126.7978 39.2813
L126.8583 39.2208
" />
<path d="M126.8583 39.2208
L126.9793 39.1604
" />
<path d="M126.9793 39.1604
L127.1607 39.1604
" />
<path d="M127.1607 39.1604
L127.2816 39.2208
" />
<path d="M127.2816 39.2208
L127.3421 39.3418
" />
<path d="M127.3421 39.3418
L127.3421 40.0070
" />
<path d="M127.3421 39.3418
L127.4026 39.2208
" />
<path d="M127.4026 39.2208
L127.5235 39.1604
" />
<path d="M127.5235 39.1604
L127.7050 39.1604
" />
<path d="M127.7050 39.1604
L127.8259 39.2208
" />
<path d="M127.8259 39.2208
L127.8864 39.3418
" />
<path d="M127.8864 39.3418
L127.8864 40.0070
" />
<path d="M129.0354 39.9466
L128.9145 40.0070
" />
<path d="M128.9145 40.0070
L128.6726 40.0070
" />
<path d="M128.6726 40.0070
L128.5516 39.9466
" />
<path d="M128.5516 39.9466
L128.4911 39.8861
" />
<path d="M128.4911 39.8861
L128.4307 39.7651
" />
<path d="M128.4307 39.7651
L128.4307 39.4023
" />
<path d="M128.4307 39.4023
L128.4911 39.2813
" />
<path d="M128.4911 39.2813
L128.5516 39.2208
" />
<path d="M128.5516 39.2208
L128.6726 39.1604
" />
<path d="M128.6726 39.1604
L128.9145 39.1604
" />
<path d="M128.9145 39.1604
L129.0354 39.2208
" />
<path d="M129.5193 38.8580
L129.5797 38.7975
" />
<path d="M129.5797 38.7975
L129.7007 38.7370
" />
<path d="M129.7007 38.7370
L130.0031 38.7370
" />
<path d="M130.0031 38.7370
L130.1240 38.7975
" />
<path d="M130.1240 38.7975
L130.1845 38.8580
" />
<path d="M130.1845 38.8580
L130.2450 38.9789
" />
<path d="M130.2450 38.9789
L130.2450 39.0999
" />
<path d="M130.2450 39.0999
L130.1845 39.2813
" />
<path d="M130.1845 39.2813
L129.4588 40.0070
" />
<path d="M129.4588 40.0070
L130.2450 40.0070
" />
<path d="M130.7288 38.8580
L130.7892 38.7975
" />
<path d="M130.7892 38.7975
L130.9102 38.7370
" />
<path d="M130.9102 38.7370
L131.2126 38.7370
" />
<path d="M131.2126 38.7370
L131.3335 38.7975
" />
<path d="M131.3335 38.7975
L131.3940 38.8580
" />
<path d="M131.3940 38.8580
L131.4545 38.9789
" />
<path d="M131.4545 38.9789
L131.4545 39.0999
" />
<path d="M131.4545 39.0999
L131.3940 39.2813
" />
<path d="M131.3940 39.2813
L130.6683 40.0070
" />
<path d="M130.6683 40.0070
L131.4545 40.0070
" />
<path d="M132.2406 38.7370
L132.3616 38.7370
" />
<path d="M132.3616 38.7370
L132.4825 38.7975
" />
<path d="M132.4825 38.7975
L132.5430 38.8580
" />
<path d="M132.5430 38.8580
L132.6035 38.9789
" />
<path d="M132.6035 38.9789
L132.6640 39.2208
" />
<path d="M132.6640 39.2208
L132.6640 39.5232
" />
<path d="M132.6640 39.5232
L132.6035 39.7651
" />
<path d="M132.6035 39.7651
L132.5430 39.8861
" />
<path d="M132.5430 39.8861
L132.4825 39.9466
" />
<path d="M132.4825 39.9466
L132.3616 40.0070
" />
<path d="M132.3616 40.0070
L132.2406 40.0070
" />
<path d="M132.2406 40.0070
L132.1197 39.9466
" />
<path d="M132.1197 39.9466
L132.0592 39.8861
" />
<path d="M132.0592 39.8861
L131.9987 39.7651
" />
<path d="M131.9987 39.7651
L131.9383 39.5232
" />
<path d="M131.9383 39.5232
L131.9383 39.2208
" />
<path d="M131.9383 39.2208
L131.9987 38.9789
" />
<path d="M131.9987 38.9789
L132.0592 38.8580
" />
<path d="M132.0592 38.8580
L132.1197 38.7975
" />
<path d="M132.1197 38.7975
L132.2406 38.7370
" />
<path d="M133.2687 40.0070
L133.5106 40.0070
" />
<path d="M133.5106 40.0070
L133.6316 39.9466
" />
<path d="M133.6316 39.9466
L133.6920 39.8861
" />
<path d="M133.6920 39.8861
L133.8130 39.7046
" />
<path d="M133.8130 39.7046
L133.8735 39.4627
" />
<path d="M133.8735 39.4627
L133.8735 38.9789
" />
<path d="M133.8735 38.9789
L133.8130 38.8580
" />
<path d="M133.8130 38.8580
L133.7525 38.7975
" />
<path d="M133.7525 38.7975
L133.6316 38.7370
" />
<path d="M133.6316 38.7370
L133.3897 38.7370
" />
<path d="M133.3897 38.7370
L133.2687 38.7975
" />
<path d="M133.2687 38.7975
L133.2082 38.8580
" />
<path d="M133.2082 38.8580
L133.1478 38.9789
" />
<path d="M133.1478 38.9789
L133.1478 39.2813
" />
<path d="M133.1478 39.2813
L133.2082 39.4023
" />
<path d="M133.2082 39.4023
L133.2687 39.4627
" />
<path d="M133.2687 39.4627
L133.3897 39.5232
" />
<path d="M133.3897 39.5232
L133.6316 39.5232
" />
<path d="M133.6316 39.5232
L133.7525 39.4627
" />
<path d="M133.7525 39.4627
L133.8130 39.4023
" />
<path d="M133.8130 39.4023
L133.8735 39.2813
" />
<path d="M134.4177 39.8861
L134.4782 39.9466
" />
<path d="M134.4782 39.9466
L134.4177 40.0070
" />
<path d="M134.4177 40.0070
L134.3573 39.9466
" />
<path d="M134.3573 39.9466
L134.4177 39.8861
" />
<path d="M134.4177 39.8861
L134.4177 40.0070
" />
<path d="M135.0225 40.0070
L135.0225 38.7370
" />
<path d="M135.1435 39.5232
L135.5063 40.0070
" />
<path d="M135.5063 39.1604
L135.0225 39.6442
" />
<path d="M136.0506 40.0070
L136.0506 39.1604
" />
<path d="M136.0506 38.7370
L135.9902 38.7975
" />
<path d="M135.9902 38.7975
L136.0506 38.8580
" />
<path d="M136.0506 38.8580
L136.1111 38.7975
" />
<path d="M136.1111 38.7975
L136.0506 38.7370
" />
<path d="M136.0506 38.7370
L136.0506 38.8580
" />
<path d="M137.1997 39.9466
L137.0788 40.0070
" />
<path d="M137.0788 40.0070
L136.8369 40.0070
" />
<path d="M136.8369 40.0070
L136.7159 39.9466
" />
<path d="M136.7159 39.9466
L136.6554 39.8861
" />
<path d="M136.6554 39.8861
L136.5950 39.7651
" />
<path d="M136.5950 39.7651
L136.5950 39.4023
" />
<path d="M136.5950 39.4023
L136.6554 39.2813
" />
<path d="M136.6554 39.2813
L136.7159 39.2208
" />
<path d="M136.7159 39.2208
L136.8369 39.1604
" />
<path d="M136.8369 39.1604
L137.0788 39.1604
" />
<path d="M137.0788 39.1604
L137.1997 39.2208
" />
<path d="M138.2883 40.0070
L138.2883 39.3418
" />
<path d="M138.2883 39.3418
L138.2278 39.2208
" />
<path d="M138.2278 39.2208
L138.1069 39.1604
" />
<path d="M138.1069 39.1604
L137.8650 39.1604
" />
<path d="M137.8650 39.1604
L137.7440 39.2208
" />
<path d="M138.2883 39.9466
L138.1674 40.0070
" />
<path d="M138.1674 40.0070
L137.8650 40.0070
" />
<path d="M137.8650 40.0070
L137.7440 39.9466
" />
<path d="M137.7440 39.9466
L137.6836 39.8256
" />
<path d="M137.6836 39.8256
L137.6836 39.7046
" />
<path d="M137.6836 39.7046
L137.7440 39.5837
" />
<path d="M137.7440 39.5837
L137.8650 39.5232
" />
<path d="M137.8650 39.5232
L138.1674 39.5232
" />
<path d="M138.1674 39.5232
L138.2883 39.4627
" />
<path d="M139.4373 40.0070
L139.4373 38.7370
" />
<path d="M139.4373 39.9466
L139.3164 40.0070
" />
<path d="M139.3164 40.0070
L139.0745 40.0070
" />
<path d="M139.0745 40.0070
L138.9535 39.9466
" />
<path d="M138.9535 39.9466
L138.8930 39.8861
" />
<path d="M138.8930 39.8861
L138.8326 39.7651
" />
<path d="M138.8326 39.7651
L138.8326 39.4023
" />
<path d="M138.8326 39.4023
L138.8930 39.2813
" />
<path d="M138.8930 39.2813
L138.9535 39.2208
" />
<path d="M138.9535 39.2208
L139.0745 39.1604
" />
<path d="M139.0745 39.1604
L139.3164 39.1604
" />
<path d="M139.3164 39.1604
L139.4373 39.2208
" />
<path d="M139.7397 40.1280
L140.7073 40.1280
" />
<path d="M140.9492 39.9466
L141.0701 40.0070
" />
<path d="M141.0701 40.0070
L141.3120 40.0070
" />
<path d="M141.3120 40.0070
L141.4330 39.9466
" />
<path d="M141.4330 39.9466
L141.4934 39.8256
" />
<path d="M141.4934 39.8256
L141.4934 39.7651
" />
<path d="M141.4934 39.7651
L141.4330 39.6442
" />
<path d="M141.4330 39.6442
L141.3120 39.5837
" />
<path d="M141.3120 39.5837
L141.1306 39.5837
" />
<path d="M141.1306 39.5837
L141.0096 39.5232
" />
<path d="M141.0096 39.5232
L140.9492 39.4023
" />
<path d="M140.9492 39.4023
L140.9492 39.3418
" />
<path d="M140.9492 39.3418
L141.0096 39.2208
" />
<path d="M141.0096 39.2208
L141.1306 39.1604
" />
<path d="M141.1306 39.1604
L141.3120 39.1604
" />
<path d="M141.3120 39.1604
L141.4330 39.2208
" />
<path d="M142.5820 39.9466
L142.4611 40.0070
" />
<path d="M142.4611 40.0070
L142.2192 40.0070
" />
<path d="M142.2192 40.0070
L142.0982 39.9466
" />
<path d="M142.0982 39.9466
L142.0377 39.8861
" />
<path d="M142.0377 39.8861
L141.9773 39.7651
" />
<path d="M141.9773 39.7651
L141.9773 39.4023
" />
<path d="M141.9773 39.4023
L142.0377 39.2813
" />
<path d="M142.0377 39.2813
L142.0982 39.2208
" />
<path d="M142.0982 39.2208
L142.2192 39.1604
" />
<path d="M142.2192 39.1604
L142.4611 39.1604
" />
<path d="M142.4611 39.1604
L142.5820 39.2208
" />
<path d="M143.1263 40.0070
L143.1263 38.7370
" />
<path d="M143.6706 40.0070
L143.6706 39.3418
" />
<path d="M143.6706 39.3418
L143.6101 39.2208
" />
<path d="M143.6101 39.2208
L143.4892 39.1604
" />
<path d="M143.4892 39.1604
L143.3078 39.1604
" />
<path d="M143.3078 39.1604
L143.1868 39.2208
" />
<path d="M143.1868 39.2208
L143.1263 39.2813
" />
</g></g> 
</svg>
