<?xml version="1.0" encoding="UTF-8" standalone="no"?>
<svg
   version="1.1"
   width="71.424797mm"
   height="53.644802mm"
   viewBox="0 0 71.424798 53.644802"
   id="svg118409"
   xmlns="http://www.w3.org/2000/svg"
   xmlns:svg="http://www.w3.org/2000/svg">
  <defs
     id="defs118413" />
  <title
     id="title117419">SVG Image created as trinamic-wiring-TMC2209-unidirectional-multiple-uart.svg date 2024/07/31 17:09:51 </title>
  <desc
     id="desc117421">Image generated by Eeschema-SVG </desc>
  <g
     style="fill:#000000;fill-opacity:1;stroke:#000000;stroke-linecap:round;stroke-linejoin:round;stroke-opacity:1"
     id="g117423"
     transform="translate(-102.7176,-74.7776)" />
  <g
     style="fill:#000000;fill-opacity:0;stroke:#000000;stroke-width:0.1524;stroke-linecap:round;stroke-linejoin:round;stroke-opacity:1"
     id="g117885"
     transform="translate(-102.7176,-74.7776)">
    <g
       id="g117425" />
    <g
       style="fill:#586e75;fill-opacity:0;stroke:#586e75;stroke-width:0.1524;stroke-linecap:round;stroke-linejoin:round;stroke-opacity:1"
       id="g117427" />
    <g
       style="fill:#586e75;fill-opacity:0;stroke:#586e75;stroke-width:0.3048;stroke-linecap:round;stroke-linejoin:round;stroke-opacity:1"
       id="g117697">
      <rect
         x="102.87"
         y="74.93"
         width="20.32"
         height="25.4"
         rx="0.000000"
         id="rect117429" />
      <text
         x="113.03"
         y="88.264999"
         textLength="18.561399"
         font-size="1.6933px"
         lengthAdjust="spacingAndGlyphs"
         text-anchor="middle"
         opacity="0"
         id="text117431">MICROCONTROLLER</text>
      <g
         class="stroked-text"
         id="g117693">
        <desc
           id="desc117433">MICROCONTROLLER</desc>
        <path
           d="m 104.3818,88.2016 v -1.27"
           id="path117435" />
        <path
           d="m 104.3818,86.9316 0.4234,0.9072"
           id="path117437" />
        <path
           d="m 104.8052,87.8388 0.4233,-0.9072"
           id="path117439" />
        <path
           d="m 105.2285,86.9316 v 1.27"
           id="path117441" />
        <path
           d="m 105.8332,88.2016 v -1.27"
           id="path117443" />
        <path
           d="m 107.1637,88.0807 -0.0604,0.0605"
           id="path117445" />
        <path
           d="m 107.1033,88.1412 -0.1815,0.0604"
           id="path117447" />
        <path
           d="m 106.9218,88.2016 h -0.1209"
           id="path117449" />
        <path
           d="m 106.8009,88.2016 -0.1814,-0.0604"
           id="path117451" />
        <path
           d="m 106.6195,88.1412 -0.121,-0.121"
           id="path117453" />
        <path
           d="m 106.4985,88.0202 -0.0605,-0.121"
           id="path117455" />
        <path
           d="m 106.438,87.8992 -0.0604,-0.2419"
           id="path117457" />
        <path
           d="M 106.3776,87.6573 V 87.4759"
           id="path117459" />
        <path
           d="M 106.3776,87.4759 106.438,87.234"
           id="path117461" />
        <path
           d="m 106.438,87.234 0.0605,-0.1209"
           id="path117463" />
        <path
           d="m 106.4985,87.1131 0.121,-0.121"
           id="path117465" />
        <path
           d="m 106.6195,86.9921 0.1814,-0.0605"
           id="path117467" />
        <path
           d="m 106.8009,86.9316 h 0.1209"
           id="path117469" />
        <path
           d="m 106.9218,86.9316 0.1815,0.0605"
           id="path117471" />
        <path
           d="m 107.1033,86.9921 0.0604,0.0605"
           id="path117473" />
        <path
           d="m 108.4337,88.2016 -0.4233,-0.6047"
           id="path117475" />
        <path
           d="m 107.708,88.2016 v -1.27"
           id="path117477" />
        <path
           d="m 107.708,86.9316 h 0.4838"
           id="path117479" />
        <path
           d="m 108.1918,86.9316 0.121,0.0605"
           id="path117481" />
        <path
           d="m 108.3128,86.9921 0.0605,0.0605"
           id="path117483" />
        <path
           d="m 108.3733,87.0526 0.0604,0.1209"
           id="path117485" />
        <path
           d="M 108.4337,87.1735 V 87.355"
           id="path117487" />
        <path
           d="m 108.4337,87.355 -0.0604,0.1209"
           id="path117489" />
        <path
           d="m 108.3733,87.4759 -0.0605,0.0605"
           id="path117491" />
        <path
           d="m 108.3128,87.5364 -0.121,0.0605"
           id="path117493" />
        <path
           d="M 108.1918,87.5969 H 107.708"
           id="path117495" />
        <path
           d="m 109.2199,86.9316 h 0.2419"
           id="path117497" />
        <path
           d="m 109.4618,86.9316 0.121,0.0605"
           id="path117499" />
        <path
           d="m 109.5828,86.9921 0.1209,0.121"
           id="path117501" />
        <path
           d="m 109.7037,87.1131 0.0605,0.2419"
           id="path117503" />
        <path
           d="m 109.7642,87.355 v 0.4233"
           id="path117505" />
        <path
           d="m 109.7642,87.7783 -0.0605,0.2419"
           id="path117507" />
        <path
           d="m 109.7037,88.0202 -0.1209,0.121"
           id="path117509" />
        <path
           d="m 109.5828,88.1412 -0.121,0.0604"
           id="path117511" />
        <path
           d="m 109.4618,88.2016 h -0.2419"
           id="path117513" />
        <path
           d="M 109.2199,88.2016 109.099,88.1412"
           id="path117515" />
        <path
           d="m 109.099,88.1412 -0.121,-0.121"
           id="path117517" />
        <path
           d="m 108.978,88.0202 -0.0604,-0.2419"
           id="path117519" />
        <path
           d="M 108.9176,87.7783 V 87.355"
           id="path117521" />
        <path
           d="m 108.9176,87.355 0.0604,-0.2419"
           id="path117523" />
        <path
           d="m 108.978,87.1131 0.121,-0.121"
           id="path117525" />
        <path
           d="m 109.099,86.9921 0.1209,-0.0605"
           id="path117527" />
        <path
           d="m 111.0342,88.0807 -0.0604,0.0605"
           id="path117529" />
        <path
           d="m 110.9738,88.1412 -0.1815,0.0604"
           id="path117531" />
        <path
           d="m 110.7923,88.2016 h -0.1209"
           id="path117533" />
        <path
           d="M 110.6714,88.2016 110.49,88.1412"
           id="path117535" />
        <path
           d="m 110.49,88.1412 -0.121,-0.121"
           id="path117537" />
        <path
           d="m 110.369,88.0202 -0.0605,-0.121"
           id="path117539" />
        <path
           d="m 110.3085,87.8992 -0.0604,-0.2419"
           id="path117541" />
        <path
           d="M 110.2481,87.6573 V 87.4759"
           id="path117543" />
        <path
           d="m 110.2481,87.4759 0.0604,-0.2419"
           id="path117545" />
        <path
           d="m 110.3085,87.234 0.0605,-0.1209"
           id="path117547" />
        <path
           d="m 110.369,87.1131 0.121,-0.121"
           id="path117549" />
        <path
           d="m 110.49,86.9921 0.1814,-0.0605"
           id="path117551" />
        <path
           d="m 110.6714,86.9316 h 0.1209"
           id="path117553" />
        <path
           d="m 110.7923,86.9316 0.1815,0.0605"
           id="path117555" />
        <path
           d="m 110.9738,86.9921 0.0604,0.0605"
           id="path117557" />
        <path
           d="m 111.8204,86.9316 h 0.2419"
           id="path117559" />
        <path
           d="m 112.0623,86.9316 0.121,0.0605"
           id="path117561" />
        <path
           d="m 112.1833,86.9921 0.1209,0.121"
           id="path117563" />
        <path
           d="m 112.3042,87.1131 0.0605,0.2419"
           id="path117565" />
        <path
           d="m 112.3647,87.355 v 0.4233"
           id="path117567" />
        <path
           d="m 112.3647,87.7783 -0.0605,0.2419"
           id="path117569" />
        <path
           d="m 112.3042,88.0202 -0.1209,0.121"
           id="path117571" />
        <path
           d="m 112.1833,88.1412 -0.121,0.0604"
           id="path117573" />
        <path
           d="m 112.0623,88.2016 h -0.2419"
           id="path117575" />
        <path
           d="m 111.8204,88.2016 -0.1209,-0.0604"
           id="path117577" />
        <path
           d="m 111.6995,88.1412 -0.121,-0.121"
           id="path117579" />
        <path
           d="m 111.5785,88.0202 -0.0604,-0.2419"
           id="path117581" />
        <path
           d="M 111.5181,87.7783 V 87.355"
           id="path117583" />
        <path
           d="m 111.5181,87.355 0.0604,-0.2419"
           id="path117585" />
        <path
           d="m 111.5785,87.1131 0.121,-0.121"
           id="path117587" />
        <path
           d="m 111.6995,86.9921 0.1209,-0.0605"
           id="path117589" />
        <path
           d="m 112.909,88.2016 v -1.27"
           id="path117591" />
        <path
           d="m 112.909,86.9316 0.7257,1.27"
           id="path117593" />
        <path
           d="m 113.6347,88.2016 v -1.27"
           id="path117595" />
        <path
           d="m 114.0581,86.9316 h 0.7257"
           id="path117597" />
        <path
           d="m 114.421,88.2016 v -1.27"
           id="path117599" />
        <path
           d="m 115.9328,88.2016 -0.4233,-0.6047"
           id="path117601" />
        <path
           d="m 115.2071,88.2016 v -1.27"
           id="path117603" />
        <path
           d="m 115.2071,86.9316 h 0.4838"
           id="path117605" />
        <path
           d="m 115.6909,86.9316 0.121,0.0605"
           id="path117607" />
        <path
           d="m 115.8119,86.9921 0.0605,0.0605"
           id="path117609" />
        <path
           d="m 115.8724,87.0526 0.0604,0.1209"
           id="path117611" />
        <path
           d="M 115.9328,87.1735 V 87.355"
           id="path117613" />
        <path
           d="m 115.9328,87.355 -0.0604,0.1209"
           id="path117615" />
        <path
           d="m 115.8724,87.4759 -0.0605,0.0605"
           id="path117617" />
        <path
           d="m 115.8119,87.5364 -0.121,0.0605"
           id="path117619" />
        <path
           d="m 115.6909,87.5969 h -0.4838"
           id="path117621" />
        <path
           d="m 116.719,86.9316 h 0.2419"
           id="path117623" />
        <path
           d="m 116.9609,86.9316 0.121,0.0605"
           id="path117625" />
        <path
           d="m 117.0819,86.9921 0.1209,0.121"
           id="path117627" />
        <path
           d="m 117.2028,87.1131 0.0605,0.2419"
           id="path117629" />
        <path
           d="m 117.2633,87.355 v 0.4233"
           id="path117631" />
        <path
           d="m 117.2633,87.7783 -0.0605,0.2419"
           id="path117633" />
        <path
           d="m 117.2028,88.0202 -0.1209,0.121"
           id="path117635" />
        <path
           d="m 117.0819,88.1412 -0.121,0.0604"
           id="path117637" />
        <path
           d="M 116.9609,88.2016 H 116.719"
           id="path117639" />
        <path
           d="m 116.719,88.2016 -0.1209,-0.0604"
           id="path117641" />
        <path
           d="m 116.5981,88.1412 -0.121,-0.121"
           id="path117643" />
        <path
           d="m 116.4771,88.0202 -0.0604,-0.2419"
           id="path117645" />
        <path
           d="M 116.4167,87.7783 V 87.355"
           id="path117647" />
        <path
           d="m 116.4167,87.355 0.0604,-0.2419"
           id="path117649" />
        <path
           d="m 116.4771,87.1131 0.121,-0.121"
           id="path117651" />
        <path
           d="m 116.5981,86.9921 0.1209,-0.0605"
           id="path117653" />
        <path
           d="m 118.4124,88.2016 h -0.6048"
           id="path117655" />
        <path
           d="m 117.8076,88.2016 v -1.27"
           id="path117657" />
        <path
           d="m 119.4405,88.2016 h -0.6048"
           id="path117659" />
        <path
           d="m 118.8357,88.2016 v -1.27"
           id="path117661" />
        <path
           d="m 119.8638,87.5364 h 0.4234"
           id="path117663" />
        <path
           d="m 120.4686,88.2016 h -0.6048"
           id="path117665" />
        <path
           d="m 119.8638,88.2016 v -1.27"
           id="path117667" />
        <path
           d="m 119.8638,86.9316 h 0.6048"
           id="path117669" />
        <path
           d="m 121.7385,88.2016 -0.4233,-0.6047"
           id="path117671" />
        <path
           d="m 121.0128,88.2016 v -1.27"
           id="path117673" />
        <path
           d="m 121.0128,86.9316 h 0.4838"
           id="path117675" />
        <path
           d="m 121.4966,86.9316 0.121,0.0605"
           id="path117677" />
        <path
           d="m 121.6176,86.9921 0.0605,0.0605"
           id="path117679" />
        <path
           d="m 121.6781,87.0526 0.0604,0.1209"
           id="path117681" />
        <path
           d="M 121.7385,87.1735 V 87.355"
           id="path117683" />
        <path
           d="m 121.7385,87.355 -0.0604,0.1209"
           id="path117685" />
        <path
           d="m 121.6781,87.4759 -0.0605,0.0605"
           id="path117687" />
        <path
           d="m 121.6176,87.5364 -0.121,0.0605"
           id="path117689" />
        <path
           d="m 121.4966,87.5969 h -0.4838"
           id="path117691" />
      </g>
      <path
         d="m 123.19,80.01 h 2.54"
         id="path117695" />
    </g>
    <g
       style="fill:#cb4b16;fill-opacity:0;stroke:#cb4b16;stroke-width:0.3048;stroke-linecap:round;stroke-linejoin:round;stroke-opacity:1"
       id="g117699" />
    <g
       style="fill:#cb4b16;fill-opacity:0;stroke:#cb4b16;stroke-width:0.1524;stroke-linecap:round;stroke-linejoin:round;stroke-opacity:1"
       id="g117743">
      <text
         x="122.174"
         y="80.644997"
         textLength="3.8922"
         font-size="1.6933px"
         lengthAdjust="spacingAndGlyphs"
         text-anchor="end"
         opacity="0"
         id="text117701">RX1</text>
      <g
         class="stroked-text"
         id="g117741">
        <desc
           id="desc117703">RX1</desc>
        <path
           d="m 119.4128,80.5895 -0.4233,-0.6047"
           id="path117705" />
        <path
           d="m 118.6871,80.5895 v -1.27"
           id="path117707" />
        <path
           d="m 118.6871,79.3195 h 0.4838"
           id="path117709" />
        <path
           d="m 119.1709,79.3195 0.121,0.0605"
           id="path117711" />
        <path
           d="m 119.2919,79.38 0.0605,0.0605"
           id="path117713" />
        <path
           d="m 119.3524,79.4405 0.0604,0.1209"
           id="path117715" />
        <path
           d="m 119.4128,79.5614 v 0.1815"
           id="path117717" />
        <path
           d="m 119.4128,79.7429 -0.0604,0.1209"
           id="path117719" />
        <path
           d="m 119.3524,79.8638 -0.0605,0.0605"
           id="path117721" />
        <path
           d="m 119.2919,79.9243 -0.121,0.0605"
           id="path117723" />
        <path
           d="m 119.1709,79.9848 h -0.4838"
           id="path117725" />
        <path
           d="m 119.8362,79.3195 0.8466,1.27"
           id="path117727" />
        <path
           d="m 120.6828,79.3195 -0.8466,1.27"
           id="path117729" />
        <path
           d="m 121.8319,80.5895 h -0.7257"
           id="path117731" />
        <path
           d="m 121.469,80.5895 v -1.27"
           id="path117733" />
        <path
           d="m 121.469,79.3195 -0.1209,0.1815"
           id="path117735" />
        <path
           d="m 121.3481,79.501 -0.121,0.1209"
           id="path117737" />
        <path
           d="m 121.2271,79.6219 -0.1209,0.0605"
           id="path117739" />
      </g>
    </g>
    <g
       style="fill:#586e75;fill-opacity:0;stroke:#586e75;stroke-width:0.1524;stroke-linecap:round;stroke-linejoin:round;stroke-opacity:1"
       id="g117745" />
    <g
       style="fill:#586e75;fill-opacity:0;stroke:#586e75;stroke-width:0.3048;stroke-linecap:round;stroke-linejoin:round;stroke-opacity:1"
       id="g117749">
      <path
         d="m 123.19,77.47 h 2.54"
         id="path117747" />
    </g>
    <g
       style="fill:#cb4b16;fill-opacity:0;stroke:#cb4b16;stroke-width:0.3048;stroke-linecap:round;stroke-linejoin:round;stroke-opacity:1"
       id="g117751" />
    <g
       style="fill:#cb4b16;fill-opacity:0;stroke:#cb4b16;stroke-width:0.1524;stroke-linecap:round;stroke-linejoin:round;stroke-opacity:1"
       id="g117777">
      <text
         x="122.174"
         y="78.105003"
         textLength="3.5897999"
         font-size="1.6933px"
         lengthAdjust="spacingAndGlyphs"
         text-anchor="end"
         opacity="0"
         id="text117753">TX1</text>
      <g
         class="stroked-text"
         id="g117775">
        <desc
           id="desc117755">TX1</desc>
        <path
           d="m 118.8081,76.7795 h 0.7257"
           id="path117757" />
        <path
           d="m 119.171,78.0495 v -1.27"
           id="path117759" />
        <path
           d="m 119.8362,76.7795 0.8466,1.27"
           id="path117761" />
        <path
           d="m 120.6828,76.7795 -0.8466,1.27"
           id="path117763" />
        <path
           d="m 121.8319,78.0495 h -0.7257"
           id="path117765" />
        <path
           d="m 121.469,78.0495 v -1.27"
           id="path117767" />
        <path
           d="m 121.469,76.7795 -0.1209,0.1815"
           id="path117769" />
        <path
           d="m 121.3481,76.961 -0.121,0.1209"
           id="path117771" />
        <path
           d="m 121.2271,77.0819 -0.1209,0.0605"
           id="path117773" />
      </g>
    </g>
    <g
       style="fill:#586e75;fill-opacity:0;stroke:#586e75;stroke-width:0.1524;stroke-linecap:round;stroke-linejoin:round;stroke-opacity:1"
       id="g117779" />
    <g
       style="fill:#586e75;fill-opacity:0;stroke:#586e75;stroke-width:0.3048;stroke-linecap:round;stroke-linejoin:round;stroke-opacity:1"
       id="g117783">
      <path
         d="m 123.19,92.71 h 2.54"
         id="path117781" />
    </g>
    <g
       style="fill:#cb4b16;fill-opacity:0;stroke:#cb4b16;stroke-width:0.3048;stroke-linecap:round;stroke-linejoin:round;stroke-opacity:1"
       id="g117785" />
    <g
       style="fill:#cb4b16;fill-opacity:0;stroke:#cb4b16;stroke-width:0.1524;stroke-linecap:round;stroke-linejoin:round;stroke-opacity:1"
       id="g117839">
      <text
         x="122.174"
         y="93.345001"
         textLength="3.8922"
         font-size="1.6933px"
         lengthAdjust="spacingAndGlyphs"
         text-anchor="end"
         opacity="0"
         id="text117787">RX2</text>
      <g
         class="stroked-text"
         id="g117837">
        <desc
           id="desc117789">RX2</desc>
        <path
           d="m 119.4128,93.2895 -0.4233,-0.6047"
           id="path117791" />
        <path
           d="m 118.6871,93.2895 v -1.27"
           id="path117793" />
        <path
           d="m 118.6871,92.0195 h 0.4838"
           id="path117795" />
        <path
           d="m 119.1709,92.0195 0.121,0.0605"
           id="path117797" />
        <path
           d="m 119.2919,92.08 0.0605,0.0605"
           id="path117799" />
        <path
           d="m 119.3524,92.1405 0.0604,0.1209"
           id="path117801" />
        <path
           d="m 119.4128,92.2614 v 0.1815"
           id="path117803" />
        <path
           d="m 119.4128,92.4429 -0.0604,0.1209"
           id="path117805" />
        <path
           d="m 119.3524,92.5638 -0.0605,0.0605"
           id="path117807" />
        <path
           d="m 119.2919,92.6243 -0.121,0.0605"
           id="path117809" />
        <path
           d="m 119.1709,92.6848 h -0.4838"
           id="path117811" />
        <path
           d="m 119.8362,92.0195 0.8466,1.27"
           id="path117813" />
        <path
           d="m 120.6828,92.0195 -0.8466,1.27"
           id="path117815" />
        <path
           d="M 121.1062,92.1405 121.1666,92.08"
           id="path117817" />
        <path
           d="m 121.1666,92.08 0.121,-0.0605"
           id="path117819" />
        <path
           d="M 121.2876,92.0195 H 121.59"
           id="path117821" />
        <path
           d="m 121.59,92.0195 0.1209,0.0605"
           id="path117823" />
        <path
           d="m 121.7109,92.08 0.0605,0.0605"
           id="path117825" />
        <path
           d="m 121.7714,92.1405 0.0605,0.1209"
           id="path117827" />
        <path
           d="m 121.8319,92.2614 v 0.121"
           id="path117829" />
        <path
           d="m 121.8319,92.3824 -0.0605,0.1814"
           id="path117831" />
        <path
           d="m 121.7714,92.5638 -0.7257,0.7257"
           id="path117833" />
        <path
           d="m 121.0457,93.2895 h 0.7862"
           id="path117835" />
      </g>
    </g>
    <g
       style="fill:#586e75;fill-opacity:0;stroke:#586e75;stroke-width:0.1524;stroke-linecap:round;stroke-linejoin:round;stroke-opacity:1"
       id="g117841" />
    <g
       style="fill:#586e75;fill-opacity:0;stroke:#586e75;stroke-width:0.3048;stroke-linecap:round;stroke-linejoin:round;stroke-opacity:1"
       id="g117845">
      <path
         d="m 123.19,90.17 h 2.54"
         id="path117843" />
    </g>
    <g
       style="fill:#cb4b16;fill-opacity:0;stroke:#cb4b16;stroke-width:0.3048;stroke-linecap:round;stroke-linejoin:round;stroke-opacity:1"
       id="g117847" />
    <g
       style="fill:#cb4b16;fill-opacity:0;stroke:#cb4b16;stroke-width:0.1524;stroke-linecap:round;stroke-linejoin:round;stroke-opacity:1"
       id="g117883">
      <text
         x="122.174"
         y="90.805"
         textLength="3.5897999"
         font-size="1.6933px"
         lengthAdjust="spacingAndGlyphs"
         text-anchor="end"
         opacity="0"
         id="text117849">TX2</text>
      <g
         class="stroked-text"
         id="g117881">
        <desc
           id="desc117851">TX2</desc>
        <path
           d="m 118.8081,89.4795 h 0.7257"
           id="path117853" />
        <path
           d="m 119.171,90.7495 v -1.27"
           id="path117855" />
        <path
           d="m 119.8362,89.4795 0.8466,1.27"
           id="path117857" />
        <path
           d="m 120.6828,89.4795 -0.8466,1.27"
           id="path117859" />
        <path
           d="M 121.1062,89.6005 121.1666,89.54"
           id="path117861" />
        <path
           d="m 121.1666,89.54 0.121,-0.0605"
           id="path117863" />
        <path
           d="M 121.2876,89.4795 H 121.59"
           id="path117865" />
        <path
           d="m 121.59,89.4795 0.1209,0.0605"
           id="path117867" />
        <path
           d="m 121.7109,89.54 0.0605,0.0605"
           id="path117869" />
        <path
           d="m 121.7714,89.6005 0.0605,0.1209"
           id="path117871" />
        <path
           d="m 121.8319,89.7214 v 0.121"
           id="path117873" />
        <path
           d="m 121.8319,89.8424 -0.0605,0.1814"
           id="path117875" />
        <path
           d="m 121.7714,90.0238 -0.7257,0.7257"
           id="path117877" />
        <path
           d="m 121.0457,90.7495 h 0.7862"
           id="path117879" />
      </g>
    </g>
  </g>
  <g
     style="fill:#cb4b16;fill-opacity:0;stroke:#cb4b16;stroke-width:0.1524;stroke-linecap:round;stroke-linejoin:round;stroke-opacity:1"
     id="g118127"
     transform="translate(-102.7176,-74.7776)">
    <g
       id="g117887" />
    <g
       style="fill:#586e75;fill-opacity:0;stroke:#586e75;stroke-width:0.1524;stroke-linecap:round;stroke-linejoin:round;stroke-opacity:1"
       id="g117889" />
    <g
       style="fill:#586e75;fill-opacity:0;stroke:#586e75;stroke-width:0.3048;stroke-linecap:round;stroke-linejoin:round;stroke-opacity:1"
       id="g118065">
      <rect
         x="153.67"
         y="74.93"
         width="20.32"
         height="25.4"
         rx="0.000000"
         id="rect117891" />
      <text
         x="163.83"
         y="88.264999"
         textLength="9.1873999"
         font-size="1.6933px"
         lengthAdjust="spacingAndGlyphs"
         text-anchor="middle"
         opacity="0"
         id="text117893">TMC2209</text>
      <g
         class="stroked-text"
         id="g118061">
        <desc
           id="desc117895">TMC2209</desc>
        <path
           d="m 159.6874,86.9316 h 0.7257"
           id="path117897" />
        <path
           d="m 160.0503,88.2016 v -1.27"
           id="path117899" />
        <path
           d="m 160.8364,88.2016 v -1.27"
           id="path117901" />
        <path
           d="m 160.8364,86.9316 0.4234,0.9072"
           id="path117903" />
        <path
           d="m 161.2598,87.8388 0.4233,-0.9072"
           id="path117905" />
        <path
           d="m 161.6831,86.9316 v 1.27"
           id="path117907" />
        <path
           d="m 163.0135,88.0807 -0.0604,0.0605"
           id="path117909" />
        <path
           d="m 162.9531,88.1412 -0.1815,0.0604"
           id="path117911" />
        <path
           d="m 162.7716,88.2016 h -0.1209"
           id="path117913" />
        <path
           d="m 162.6507,88.2016 -0.1814,-0.0604"
           id="path117915" />
        <path
           d="m 162.4693,88.1412 -0.121,-0.121"
           id="path117917" />
        <path
           d="m 162.3483,88.0202 -0.0605,-0.121"
           id="path117919" />
        <path
           d="m 162.2878,87.8992 -0.0604,-0.2419"
           id="path117921" />
        <path
           d="M 162.2274,87.6573 V 87.4759"
           id="path117923" />
        <path
           d="m 162.2274,87.4759 0.0604,-0.2419"
           id="path117925" />
        <path
           d="m 162.2878,87.234 0.0605,-0.1209"
           id="path117927" />
        <path
           d="m 162.3483,87.1131 0.121,-0.121"
           id="path117929" />
        <path
           d="m 162.4693,86.9921 0.1814,-0.0605"
           id="path117931" />
        <path
           d="m 162.6507,86.9316 h 0.1209"
           id="path117933" />
        <path
           d="m 162.7716,86.9316 0.1815,0.0605"
           id="path117935" />
        <path
           d="m 162.9531,86.9921 0.0604,0.0605"
           id="path117937" />
        <path
           d="m 163.4974,87.0526 0.0604,-0.0605"
           id="path117939" />
        <path
           d="m 163.5578,86.9921 0.121,-0.0605"
           id="path117941" />
        <path
           d="m 163.6788,86.9316 h 0.3024"
           id="path117943" />
        <path
           d="m 163.9812,86.9316 0.1209,0.0605"
           id="path117945" />
        <path
           d="m 164.1021,86.9921 0.0605,0.0605"
           id="path117947" />
        <path
           d="m 164.1626,87.0526 0.0605,0.1209"
           id="path117949" />
        <path
           d="m 164.2231,87.1735 v 0.121"
           id="path117951" />
        <path
           d="m 164.2231,87.2945 -0.0605,0.1814"
           id="path117953" />
        <path
           d="m 164.1626,87.4759 -0.7257,0.7257"
           id="path117955" />
        <path
           d="m 163.4369,88.2016 h 0.7862"
           id="path117957" />
        <path
           d="m 164.7069,87.0526 0.0604,-0.0605"
           id="path117959" />
        <path
           d="m 164.7673,86.9921 0.121,-0.0605"
           id="path117961" />
        <path
           d="m 164.8883,86.9316 h 0.3024"
           id="path117963" />
        <path
           d="m 165.1907,86.9316 0.1209,0.0605"
           id="path117965" />
        <path
           d="m 165.3116,86.9921 0.0605,0.0605"
           id="path117967" />
        <path
           d="m 165.3721,87.0526 0.0605,0.1209"
           id="path117969" />
        <path
           d="m 165.4326,87.1735 v 0.121"
           id="path117971" />
        <path
           d="m 165.4326,87.2945 -0.0605,0.1814"
           id="path117973" />
        <path
           d="m 165.3721,87.4759 -0.7257,0.7257"
           id="path117975" />
        <path
           d="m 164.6464,88.2016 h 0.7862"
           id="path117977" />
        <path
           d="m 166.2187,86.9316 h 0.121"
           id="path117979" />
        <path
           d="m 166.3397,86.9316 0.1209,0.0605"
           id="path117981" />
        <path
           d="m 166.4606,86.9921 0.0605,0.0605"
           id="path117983" />
        <path
           d="m 166.5211,87.0526 0.0605,0.1209"
           id="path117985" />
        <path
           d="m 166.5816,87.1735 0.0605,0.2419"
           id="path117987" />
        <path
           d="m 166.6421,87.4154 v 0.3024"
           id="path117989" />
        <path
           d="m 166.6421,87.7178 -0.0605,0.2419"
           id="path117991" />
        <path
           d="m 166.5816,87.9597 -0.0605,0.121"
           id="path117993" />
        <path
           d="m 166.5211,88.0807 -0.0605,0.0605"
           id="path117995" />
        <path
           d="m 166.4606,88.1412 -0.1209,0.0604"
           id="path117997" />
        <path
           d="m 166.3397,88.2016 h -0.121"
           id="path117999" />
        <path
           d="m 166.2187,88.2016 -0.1209,-0.0604"
           id="path118001" />
        <path
           d="m 166.0978,88.1412 -0.0605,-0.0605"
           id="path118003" />
        <path
           d="m 166.0373,88.0807 -0.0605,-0.121"
           id="path118005" />
        <path
           d="m 165.9768,87.9597 -0.0604,-0.2419"
           id="path118007" />
        <path
           d="M 165.9164,87.7178 V 87.4154"
           id="path118009" />
        <path
           d="m 165.9164,87.4154 0.0604,-0.2419"
           id="path118011" />
        <path
           d="m 165.9768,87.1735 0.0605,-0.1209"
           id="path118013" />
        <path
           d="m 166.0373,87.0526 0.0605,-0.0605"
           id="path118015" />
        <path
           d="m 166.0978,86.9921 0.1209,-0.0605"
           id="path118017" />
        <path
           d="m 167.2468,88.2016 h 0.2419"
           id="path118019" />
        <path
           d="m 167.4887,88.2016 0.121,-0.0604"
           id="path118021" />
        <path
           d="m 167.6097,88.1412 0.0604,-0.0605"
           id="path118023" />
        <path
           d="m 167.6701,88.0807 0.121,-0.1815"
           id="path118025" />
        <path
           d="m 167.7911,87.8992 0.0605,-0.2419"
           id="path118027" />
        <path
           d="M 167.8516,87.6573 V 87.1735"
           id="path118029" />
        <path
           d="m 167.8516,87.1735 -0.0605,-0.1209"
           id="path118031" />
        <path
           d="m 167.7911,87.0526 -0.0605,-0.0605"
           id="path118033" />
        <path
           d="m 167.7306,86.9921 -0.1209,-0.0605"
           id="path118035" />
        <path
           d="m 167.6097,86.9316 h -0.2419"
           id="path118037" />
        <path
           d="m 167.3678,86.9316 -0.121,0.0605"
           id="path118039" />
        <path
           d="m 167.2468,86.9921 -0.0605,0.0605"
           id="path118041" />
        <path
           d="m 167.1863,87.0526 -0.0604,0.1209"
           id="path118043" />
        <path
           d="m 167.1259,87.1735 v 0.3024"
           id="path118045" />
        <path
           d="m 167.1259,87.4759 0.0604,0.121"
           id="path118047" />
        <path
           d="m 167.1863,87.5969 0.0605,0.0604"
           id="path118049" />
        <path
           d="m 167.2468,87.6573 0.121,0.0605"
           id="path118051" />
        <path
           d="m 167.3678,87.7178 h 0.2419"
           id="path118053" />
        <path
           d="m 167.6097,87.7178 0.1209,-0.0605"
           id="path118055" />
        <path
           d="m 167.7306,87.6573 0.0605,-0.0604"
           id="path118057" />
        <path
           d="m 167.7911,87.5969 0.0605,-0.121"
           id="path118059" />
      </g>
      <path
         d="m 153.67,77.47 h -2.54"
         id="path118063" />
    </g>
    <g
       style="fill:#cb4b16;fill-opacity:0;stroke:#cb4b16;stroke-width:0.3048;stroke-linecap:round;stroke-linejoin:round;stroke-opacity:1"
       id="g118067" />
    <g
       style="fill:#cb4b16;fill-opacity:0;stroke:#cb4b16;stroke-width:0.1524;stroke-linecap:round;stroke-linejoin:round;stroke-opacity:1"
       id="g118125">
      <text
         x="154.686"
         y="78.105003"
         textLength="4.8599"
         font-size="1.6933px"
         lengthAdjust="spacingAndGlyphs"
         text-anchor="start"
         opacity="0"
         id="text118069">UART</text>
      <g
         class="stroked-text"
         id="g118123">
        <desc
           id="desc118071">UART</desc>
        <path
           d="m 155.0885,76.7795 v 1.0281"
           id="path118073" />
        <path
           d="m 155.0885,77.8076 0.0605,0.121"
           id="path118075" />
        <path
           d="m 155.149,77.9286 0.0605,0.0605"
           id="path118077" />
        <path
           d="m 155.2095,77.9891 0.1209,0.0604"
           id="path118079" />
        <path
           d="m 155.3304,78.0495 h 0.2419"
           id="path118081" />
        <path
           d="m 155.5723,78.0495 0.121,-0.0604"
           id="path118083" />
        <path
           d="m 155.6933,77.9891 0.0605,-0.0605"
           id="path118085" />
        <path
           d="m 155.7538,77.9286 0.0604,-0.121"
           id="path118087" />
        <path
           d="M 155.8142,77.8076 V 76.7795"
           id="path118089" />
        <path
           d="m 156.3586,77.6867 h 0.6047"
           id="path118091" />
        <path
           d="m 156.2376,78.0495 0.4233,-1.27"
           id="path118093" />
        <path
           d="m 156.6609,76.7795 0.4234,1.27"
           id="path118095" />
        <path
           d="M 158.2333,78.0495 157.81,77.4448"
           id="path118097" />
        <path
           d="m 157.5076,78.0495 v -1.27"
           id="path118099" />
        <path
           d="m 157.5076,76.7795 h 0.4838"
           id="path118101" />
        <path
           d="m 157.9914,76.7795 0.121,0.0605"
           id="path118103" />
        <path
           d="m 158.1124,76.84 0.0605,0.0605"
           id="path118105" />
        <path
           d="m 158.1729,76.9005 0.0604,0.1209"
           id="path118107" />
        <path
           d="m 158.2333,77.0214 v 0.1815"
           id="path118109" />
        <path
           d="m 158.2333,77.2029 -0.0604,0.1209"
           id="path118111" />
        <path
           d="m 158.1729,77.3238 -0.0605,0.0605"
           id="path118113" />
        <path
           d="m 158.1124,77.3843 -0.121,0.0605"
           id="path118115" />
        <path
           d="m 157.9914,77.4448 h -0.4838"
           id="path118117" />
        <path
           d="m 158.5962,76.7795 h 0.7257"
           id="path118119" />
        <path
           d="m 158.9591,78.0495 v -1.27"
           id="path118121" />
      </g>
    </g>
  </g>
  <g
     style="fill:#cb4b16;fill-opacity:0;stroke:#cb4b16;stroke-width:0.1524;stroke-linecap:round;stroke-linejoin:round;stroke-opacity:1"
     id="g118369"
     transform="translate(-102.7176,-74.7776)">
    <g
       id="g118129" />
    <g
       style="fill:#586e75;fill-opacity:0;stroke:#586e75;stroke-width:0.1524;stroke-linecap:round;stroke-linejoin:round;stroke-opacity:1"
       id="g118131" />
    <g
       style="fill:#586e75;fill-opacity:0;stroke:#586e75;stroke-width:0.3048;stroke-linecap:round;stroke-linejoin:round;stroke-opacity:1"
       id="g118307">
      <rect
         x="153.67"
         y="102.87"
         width="20.32"
         height="25.4"
         rx="0.000000"
         id="rect118133" />
      <text
         x="163.83"
         y="116.205"
         textLength="9.1873999"
         font-size="1.6933px"
         lengthAdjust="spacingAndGlyphs"
         text-anchor="middle"
         opacity="0"
         id="text118135">TMC2209</text>
      <g
         class="stroked-text"
         id="g118303">
        <desc
           id="desc118137">TMC2209</desc>
        <path
           d="m 159.6874,114.8716 h 0.7257"
           id="path118139" />
        <path
           d="m 160.0503,116.1416 v -1.27"
           id="path118141" />
        <path
           d="m 160.8364,116.1416 v -1.27"
           id="path118143" />
        <path
           d="m 160.8364,114.8716 0.4234,0.9072"
           id="path118145" />
        <path
           d="m 161.2598,115.7788 0.4233,-0.9072"
           id="path118147" />
        <path
           d="m 161.6831,114.8716 v 1.27"
           id="path118149" />
        <path
           d="m 163.0135,116.0207 -0.0604,0.0605"
           id="path118151" />
        <path
           d="m 162.9531,116.0812 -0.1815,0.0604"
           id="path118153" />
        <path
           d="m 162.7716,116.1416 h -0.1209"
           id="path118155" />
        <path
           d="m 162.6507,116.1416 -0.1814,-0.0604"
           id="path118157" />
        <path
           d="m 162.4693,116.0812 -0.121,-0.121"
           id="path118159" />
        <path
           d="m 162.3483,115.9602 -0.0605,-0.121"
           id="path118161" />
        <path
           d="m 162.2878,115.8392 -0.0604,-0.2419"
           id="path118163" />
        <path
           d="m 162.2274,115.5973 v -0.1814"
           id="path118165" />
        <path
           d="m 162.2274,115.4159 0.0604,-0.2419"
           id="path118167" />
        <path
           d="m 162.2878,115.174 0.0605,-0.1209"
           id="path118169" />
        <path
           d="m 162.3483,115.0531 0.121,-0.121"
           id="path118171" />
        <path
           d="m 162.4693,114.9321 0.1814,-0.0605"
           id="path118173" />
        <path
           d="m 162.6507,114.8716 h 0.1209"
           id="path118175" />
        <path
           d="m 162.7716,114.8716 0.1815,0.0605"
           id="path118177" />
        <path
           d="m 162.9531,114.9321 0.0604,0.0605"
           id="path118179" />
        <path
           d="m 163.4974,114.9926 0.0604,-0.0605"
           id="path118181" />
        <path
           d="m 163.5578,114.9321 0.121,-0.0605"
           id="path118183" />
        <path
           d="m 163.6788,114.8716 h 0.3024"
           id="path118185" />
        <path
           d="m 163.9812,114.8716 0.1209,0.0605"
           id="path118187" />
        <path
           d="m 164.1021,114.9321 0.0605,0.0605"
           id="path118189" />
        <path
           d="m 164.1626,114.9926 0.0605,0.1209"
           id="path118191" />
        <path
           d="m 164.2231,115.1135 v 0.121"
           id="path118193" />
        <path
           d="m 164.2231,115.2345 -0.0605,0.1814"
           id="path118195" />
        <path
           d="m 164.1626,115.4159 -0.7257,0.7257"
           id="path118197" />
        <path
           d="m 163.4369,116.1416 h 0.7862"
           id="path118199" />
        <path
           d="m 164.7069,114.9926 0.0604,-0.0605"
           id="path118201" />
        <path
           d="m 164.7673,114.9321 0.121,-0.0605"
           id="path118203" />
        <path
           d="m 164.8883,114.8716 h 0.3024"
           id="path118205" />
        <path
           d="m 165.1907,114.8716 0.1209,0.0605"
           id="path118207" />
        <path
           d="m 165.3116,114.9321 0.0605,0.0605"
           id="path118209" />
        <path
           d="m 165.3721,114.9926 0.0605,0.1209"
           id="path118211" />
        <path
           d="m 165.4326,115.1135 v 0.121"
           id="path118213" />
        <path
           d="m 165.4326,115.2345 -0.0605,0.1814"
           id="path118215" />
        <path
           d="m 165.3721,115.4159 -0.7257,0.7257"
           id="path118217" />
        <path
           d="m 164.6464,116.1416 h 0.7862"
           id="path118219" />
        <path
           d="m 166.2187,114.8716 h 0.121"
           id="path118221" />
        <path
           d="m 166.3397,114.8716 0.1209,0.0605"
           id="path118223" />
        <path
           d="m 166.4606,114.9321 0.0605,0.0605"
           id="path118225" />
        <path
           d="m 166.5211,114.9926 0.0605,0.1209"
           id="path118227" />
        <path
           d="m 166.5816,115.1135 0.0605,0.2419"
           id="path118229" />
        <path
           d="m 166.6421,115.3554 v 0.3024"
           id="path118231" />
        <path
           d="m 166.6421,115.6578 -0.0605,0.2419"
           id="path118233" />
        <path
           d="m 166.5816,115.8997 -0.0605,0.121"
           id="path118235" />
        <path
           d="m 166.5211,116.0207 -0.0605,0.0605"
           id="path118237" />
        <path
           d="m 166.4606,116.0812 -0.1209,0.0604"
           id="path118239" />
        <path
           d="m 166.3397,116.1416 h -0.121"
           id="path118241" />
        <path
           d="m 166.2187,116.1416 -0.1209,-0.0604"
           id="path118243" />
        <path
           d="m 166.0978,116.0812 -0.0605,-0.0605"
           id="path118245" />
        <path
           d="m 166.0373,116.0207 -0.0605,-0.121"
           id="path118247" />
        <path
           d="m 165.9768,115.8997 -0.0604,-0.2419"
           id="path118249" />
        <path
           d="m 165.9164,115.6578 v -0.3024"
           id="path118251" />
        <path
           d="m 165.9164,115.3554 0.0604,-0.2419"
           id="path118253" />
        <path
           d="m 165.9768,115.1135 0.0605,-0.1209"
           id="path118255" />
        <path
           d="m 166.0373,114.9926 0.0605,-0.0605"
           id="path118257" />
        <path
           d="m 166.0978,114.9321 0.1209,-0.0605"
           id="path118259" />
        <path
           d="m 167.2468,116.1416 h 0.2419"
           id="path118261" />
        <path
           d="m 167.4887,116.1416 0.121,-0.0604"
           id="path118263" />
        <path
           d="m 167.6097,116.0812 0.0604,-0.0605"
           id="path118265" />
        <path
           d="m 167.6701,116.0207 0.121,-0.1815"
           id="path118267" />
        <path
           d="m 167.7911,115.8392 0.0605,-0.2419"
           id="path118269" />
        <path
           d="m 167.8516,115.5973 v -0.4838"
           id="path118271" />
        <path
           d="m 167.8516,115.1135 -0.0605,-0.1209"
           id="path118273" />
        <path
           d="m 167.7911,114.9926 -0.0605,-0.0605"
           id="path118275" />
        <path
           d="m 167.7306,114.9321 -0.1209,-0.0605"
           id="path118277" />
        <path
           d="m 167.6097,114.8716 h -0.2419"
           id="path118279" />
        <path
           d="m 167.3678,114.8716 -0.121,0.0605"
           id="path118281" />
        <path
           d="m 167.2468,114.9321 -0.0605,0.0605"
           id="path118283" />
        <path
           d="m 167.1863,114.9926 -0.0604,0.1209"
           id="path118285" />
        <path
           d="m 167.1259,115.1135 v 0.3024"
           id="path118287" />
        <path
           d="m 167.1259,115.4159 0.0604,0.121"
           id="path118289" />
        <path
           d="m 167.1863,115.5369 0.0605,0.0604"
           id="path118291" />
        <path
           d="m 167.2468,115.5973 0.121,0.0605"
           id="path118293" />
        <path
           d="m 167.3678,115.6578 h 0.2419"
           id="path118295" />
        <path
           d="m 167.6097,115.6578 0.1209,-0.0605"
           id="path118297" />
        <path
           d="m 167.7306,115.5973 0.0605,-0.0604"
           id="path118299" />
        <path
           d="m 167.7911,115.5369 0.0605,-0.121"
           id="path118301" />
      </g>
      <path
         d="m 153.67,105.41 h -2.54"
         id="path118305" />
    </g>
    <g
       style="fill:#cb4b16;fill-opacity:0;stroke:#cb4b16;stroke-width:0.3048;stroke-linecap:round;stroke-linejoin:round;stroke-opacity:1"
       id="g118309" />
    <g
       style="fill:#cb4b16;fill-opacity:0;stroke:#cb4b16;stroke-width:0.1524;stroke-linecap:round;stroke-linejoin:round;stroke-opacity:1"
       id="g118367">
      <text
         x="154.686"
         y="106.045"
         textLength="4.8599"
         font-size="1.6933px"
         lengthAdjust="spacingAndGlyphs"
         text-anchor="start"
         opacity="0"
         id="text118311">UART</text>
      <g
         class="stroked-text"
         id="g118365">
        <desc
           id="desc118313">UART</desc>
        <path
           d="m 155.0885,104.7195 v 1.0281"
           id="path118315" />
        <path
           d="m 155.0885,105.7476 0.0605,0.121"
           id="path118317" />
        <path
           d="m 155.149,105.8686 0.0605,0.0605"
           id="path118319" />
        <path
           d="m 155.2095,105.9291 0.1209,0.0604"
           id="path118321" />
        <path
           d="m 155.3304,105.9895 h 0.2419"
           id="path118323" />
        <path
           d="m 155.5723,105.9895 0.121,-0.0604"
           id="path118325" />
        <path
           d="m 155.6933,105.9291 0.0605,-0.0605"
           id="path118327" />
        <path
           d="m 155.7538,105.8686 0.0604,-0.121"
           id="path118329" />
        <path
           d="m 155.8142,105.7476 v -1.0281"
           id="path118331" />
        <path
           d="m 156.3586,105.6267 h 0.6047"
           id="path118333" />
        <path
           d="m 156.2376,105.9895 0.4233,-1.27"
           id="path118335" />
        <path
           d="m 156.6609,104.7195 0.4234,1.27"
           id="path118337" />
        <path
           d="M 158.2333,105.9895 157.81,105.3848"
           id="path118339" />
        <path
           d="m 157.5076,105.9895 v -1.27"
           id="path118341" />
        <path
           d="m 157.5076,104.7195 h 0.4838"
           id="path118343" />
        <path
           d="m 157.9914,104.7195 0.121,0.0605"
           id="path118345" />
        <path
           d="m 158.1124,104.78 0.0605,0.0605"
           id="path118347" />
        <path
           d="m 158.1729,104.8405 0.0604,0.1209"
           id="path118349" />
        <path
           d="m 158.2333,104.9614 v 0.1815"
           id="path118351" />
        <path
           d="m 158.2333,105.1429 -0.0604,0.1209"
           id="path118353" />
        <path
           d="m 158.1729,105.2638 -0.0605,0.0605"
           id="path118355" />
        <path
           d="m 158.1124,105.3243 -0.121,0.0605"
           id="path118357" />
        <path
           d="m 157.9914,105.3848 h -0.4838"
           id="path118359" />
        <path
           d="m 158.5962,104.7195 h 0.7257"
           id="path118361" />
        <path
           d="m 158.9591,105.9895 v -1.27"
           id="path118363" />
      </g>
    </g>
  </g>
  <g
     style="fill:#cb4b16;fill-opacity:0;stroke:#cb4b16;stroke-width:0.1524;stroke-linecap:round;stroke-linejoin:round;stroke-opacity:1"
     id="g118371"
     transform="translate(-102.7176,-74.7776)" />
  <g
     style="fill:#859900;fill-opacity:0;stroke:#859900;stroke-width:0.1524;stroke-linecap:round;stroke-linejoin:round;stroke-opacity:1"
     id="g118373"
     transform="translate(-102.7176,-74.7776)" />
  <g
     style="fill:#859900;fill-opacity:0;stroke:#859900;stroke-width:0.3048;stroke-linecap:round;stroke-linejoin:round;stroke-opacity:1"
     id="g118377"
     transform="translate(-102.7176,-74.7776)">
    <path
       d="m 125.73,77.47 h 25.4"
       id="path118375" />
  </g>
  <g
     style="fill:#859900;fill-opacity:0;stroke:#859900;stroke-width:0.1524;stroke-linecap:round;stroke-linejoin:round;stroke-opacity:1"
     id="g118379"
     transform="translate(-102.7176,-74.7776)" />
  <g
     style="fill:#859900;fill-opacity:0;stroke:#859900;stroke-width:0.3048;stroke-linecap:round;stroke-linejoin:round;stroke-opacity:1"
     id="g118383"
     transform="translate(-102.7176,-74.7776)">
    <path
       d="m 125.73,90.17 h 22.86"
       id="path118381" />
  </g>
  <g
     style="fill:#859900;fill-opacity:0;stroke:#859900;stroke-width:0.1524;stroke-linecap:round;stroke-linejoin:round;stroke-opacity:1"
     id="g118385"
     transform="translate(-102.7176,-74.7776)" />
  <g
     style="fill:#859900;fill-opacity:0;stroke:#859900;stroke-width:0.3048;stroke-linecap:round;stroke-linejoin:round;stroke-opacity:1"
     id="g118389"
     transform="translate(-102.7176,-74.7776)">
    <path
       d="m 148.59,90.17 v 15.24"
       id="path118387" />
  </g>
  <g
     style="fill:#859900;fill-opacity:0;stroke:#859900;stroke-width:0.1524;stroke-linecap:round;stroke-linejoin:round;stroke-opacity:1"
     id="g118391"
     transform="translate(-102.7176,-74.7776)" />
  <g
     style="fill:#859900;fill-opacity:0;stroke:#859900;stroke-width:0.3048;stroke-linecap:round;stroke-linejoin:round;stroke-opacity:1"
     id="g118395"
     transform="translate(-102.7176,-74.7776)">
    <path
       d="m 148.59,105.41 h 2.54"
       id="path118393" />
  </g>
  <g
     style="fill:#859900;fill-opacity:0;stroke:#859900;stroke-width:0.1524;stroke-linecap:round;stroke-linejoin:round;stroke-opacity:1"
     id="g118397"
     transform="translate(-102.7176,-74.7776)" />
  <g
     style="fill:#6c71c4;fill-opacity:0;stroke:#6c71c4;stroke-width:0.1524;stroke-linecap:round;stroke-linejoin:round;stroke-opacity:1"
     id="g118407"
     transform="translate(-102.7176,-74.7776)">
    <path
       d="m 125.1204,79.4004 1.2192,1.2192"
       id="path118399" />
    <path
       d="m 126.3396,79.4004 -1.2192,1.2192"
       id="path118401" />
    <path
       d="m 125.1204,92.1004 1.2192,1.2192"
       id="path118403" />
    <path
       d="m 126.3396,92.1004 -1.2192,1.2192"
       id="path118405" />
  </g>
</svg>
