<?xml version="1.0" standalone="no"?>
 <!DOCTYPE svg PUBLIC "-//W3C//DTD SVG 1.1//EN" 
 "http://www.w3.org/Graphics/SVG/1.1/DTD/svg11.dtd"> 
<svg
  xmlns:svg="http://www.w3.org/2000/svg"
  xmlns="http://www.w3.org/2000/svg"
  xmlns:xlink="http://www.w3.org/1999/xlink"
  version="1.1"
  width="297.0022mm" height="210.0072mm" viewBox="0.0000 0.0000 297.0022 210.0072">
<title>SVG Image created as trinamic_wiring-TMC2209-TMC2209_UNIDIRECTIONAL_SERIAL_ADDRESS.svg date 2023/04/27 15:21:57 </title>
  <desc>Image generated by Eeschema-SVG </desc>
<g style="fill:#000000; fill-opacity:1.0000;stroke:#000000; stroke-opacity:1.0000;
stroke-linecap:round; stroke-linejoin:round;"
 transform="translate(0 0) scale(1 1)">
</g>
<g style="fill:#000000; fill-opacity:0.0; 
stroke:#000000; stroke-width:0.1524; stroke-opacity:1; 
stroke-linecap:round; stroke-linejoin:round;">
</g>
<g style="fill:#000000; fill-opacity:0.0; 
stroke:#000000; stroke-width:0.1588; stroke-opacity:1; 
stroke-linecap:round; stroke-linejoin:round;">
</g>
<g style="fill:#000000; fill-opacity:0.0; 
stroke:#000000; stroke-width:0.1524; stroke-opacity:1; 
stroke-linecap:round; stroke-linejoin:round;">
<g >
</g>
<g style="fill:#840000; fill-opacity:0.0; 
stroke:#840000; stroke-width:0.1524; stroke-opacity:1; 
stroke-linecap:round; stroke-linejoin:round;">
<rect x="77.470000" y="83.820000" width="20.320000" height="25.400000" rx="0.000000" />
<path d="M97.7900 106.6800
L100.3300 106.6800
" />
</g>
<g style="fill:#006464; fill-opacity:0.0; 
stroke:#006464; stroke-width:0.1524; stroke-opacity:1; 
stroke-linecap:round; stroke-linejoin:round;">
<text x="96.7740" y="107.3150"
textLength="2.6065" font-size="1.6933" lengthAdjust="spacingAndGlyphs"
text-anchor="end" opacity="0">RX</text>
<g class="stroked-text"><desc>RX</desc>
<path d="M95.3225 107.2675
L94.8992 106.6628
" />
<path d="M94.5968 107.2675
L94.5968 105.9975
" />
<path d="M94.5968 105.9975
L95.0806 105.9975
" />
<path d="M95.0806 105.9975
L95.2016 106.0580
" />
<path d="M95.2016 106.0580
L95.2621 106.1185
" />
<path d="M95.2621 106.1185
L95.3225 106.2394
" />
<path d="M95.3225 106.2394
L95.3225 106.4209
" />
<path d="M95.3225 106.4209
L95.2621 106.5418
" />
<path d="M95.2621 106.5418
L95.2016 106.6023
" />
<path d="M95.2016 106.6023
L95.0806 106.6628
" />
<path d="M95.0806 106.6628
L94.5968 106.6628
" />
<path d="M95.7459 105.9975
L96.5925 107.2675
" />
<path d="M96.5925 105.9975
L95.7459 107.2675
" />
</g></g>
<g style="fill:#840000; fill-opacity:0.0; 
stroke:#840000; stroke-width:0.1524; stroke-opacity:1; 
stroke-linecap:round; stroke-linejoin:round;">
<path d="M97.7900 87.6300
L100.3300 87.6300
" />
</g>
<g style="fill:#006464; fill-opacity:0.0; 
stroke:#006464; stroke-width:0.1524; stroke-opacity:1; 
stroke-linecap:round; stroke-linejoin:round;">
<text x="96.7740" y="88.2650"
textLength="2.3041" font-size="1.6933" lengthAdjust="spacingAndGlyphs"
text-anchor="end" opacity="0">TX</text>
<g class="stroked-text"><desc>TX</desc>
<path d="M94.7178 86.9475
L95.4435 86.9475
" />
<path d="M95.0807 88.2175
L95.0807 86.9475
" />
<path d="M95.7459 86.9475
L96.5925 88.2175
" />
<path d="M96.5925 86.9475
L95.7459 88.2175
" />
</g><text x="87.6300" y="97.2820"
textLength="17.5661" font-size="2.0320" lengthAdjust="spacingAndGlyphs"
text-anchor="middle" opacity="0">microcontroller</text>
<g class="stroked-text"><desc>microcontroller</desc>
<path d="M79.2479 97.2250
L79.2479 96.2090
" />
<path d="M79.2479 96.3542
L79.3205 96.2816
" />
<path d="M79.3205 96.2816
L79.4656 96.2090
" />
<path d="M79.4656 96.2090
L79.6833 96.2090
" />
<path d="M79.6833 96.2090
L79.8285 96.2816
" />
<path d="M79.8285 96.2816
L79.9011 96.4267
" />
<path d="M79.9011 96.4267
L79.9011 97.2250
" />
<path d="M79.9011 96.4267
L79.9736 96.2816
" />
<path d="M79.9736 96.2816
L80.1188 96.2090
" />
<path d="M80.1188 96.2090
L80.3365 96.2090
" />
<path d="M80.3365 96.2090
L80.4816 96.2816
" />
<path d="M80.4816 96.2816
L80.5542 96.4267
" />
<path d="M80.5542 96.4267
L80.5542 97.2250
" />
<path d="M81.2799 97.2250
L81.2799 96.2090
" />
<path d="M81.2799 95.7010
L81.2073 95.7736
" />
<path d="M81.2073 95.7736
L81.2799 95.8462
" />
<path d="M81.2799 95.8462
L81.3525 95.7736
" />
<path d="M81.3525 95.7736
L81.2799 95.7010
" />
<path d="M81.2799 95.7010
L81.2799 95.8462
" />
<path d="M82.6588 97.1525
L82.5136 97.2250
" />
<path d="M82.5136 97.2250
L82.2233 97.2250
" />
<path d="M82.2233 97.2250
L82.0782 97.1525
" />
<path d="M82.0782 97.1525
L82.0056 97.0799
" />
<path d="M82.0056 97.0799
L81.9330 96.9347
" />
<path d="M81.9330 96.9347
L81.9330 96.4993
" />
<path d="M81.9330 96.4993
L82.0056 96.3542
" />
<path d="M82.0056 96.3542
L82.0782 96.2816
" />
<path d="M82.0782 96.2816
L82.2233 96.2090
" />
<path d="M82.2233 96.2090
L82.5136 96.2090
" />
<path d="M82.5136 96.2090
L82.6588 96.2816
" />
<path d="M83.3119 97.2250
L83.3119 96.2090
" />
<path d="M83.3119 96.4993
L83.3845 96.3542
" />
<path d="M83.3845 96.3542
L83.4571 96.2816
" />
<path d="M83.4571 96.2816
L83.6022 96.2090
" />
<path d="M83.6022 96.2090
L83.7473 96.2090
" />
<path d="M84.4730 97.2250
L84.3279 97.1525
" />
<path d="M84.3279 97.1525
L84.2553 97.0799
" />
<path d="M84.2553 97.0799
L84.1827 96.9347
" />
<path d="M84.1827 96.9347
L84.1827 96.4993
" />
<path d="M84.1827 96.4993
L84.2553 96.3542
" />
<path d="M84.2553 96.3542
L84.3279 96.2816
" />
<path d="M84.3279 96.2816
L84.4730 96.2090
" />
<path d="M84.4730 96.2090
L84.6907 96.2090
" />
<path d="M84.6907 96.2090
L84.8359 96.2816
" />
<path d="M84.8359 96.2816
L84.9085 96.3542
" />
<path d="M84.9085 96.3542
L84.9810 96.4993
" />
<path d="M84.9810 96.4993
L84.9810 96.9347
" />
<path d="M84.9810 96.9347
L84.9085 97.0799
" />
<path d="M84.9085 97.0799
L84.8359 97.1525
" />
<path d="M84.8359 97.1525
L84.6907 97.2250
" />
<path d="M84.6907 97.2250
L84.4730 97.2250
" />
<path d="M86.2874 97.1525
L86.1422 97.2250
" />
<path d="M86.1422 97.2250
L85.8519 97.2250
" />
<path d="M85.8519 97.2250
L85.7068 97.1525
" />
<path d="M85.7068 97.1525
L85.6342 97.0799
" />
<path d="M85.6342 97.0799
L85.5616 96.9347
" />
<path d="M85.5616 96.9347
L85.5616 96.4993
" />
<path d="M85.5616 96.4993
L85.6342 96.3542
" />
<path d="M85.6342 96.3542
L85.7068 96.2816
" />
<path d="M85.7068 96.2816
L85.8519 96.2090
" />
<path d="M85.8519 96.2090
L86.1422 96.2090
" />
<path d="M86.1422 96.2090
L86.2874 96.2816
" />
<path d="M87.1582 97.2250
L87.0131 97.1525
" />
<path d="M87.0131 97.1525
L86.9405 97.0799
" />
<path d="M86.9405 97.0799
L86.8679 96.9347
" />
<path d="M86.8679 96.9347
L86.8679 96.4993
" />
<path d="M86.8679 96.4993
L86.9405 96.3542
" />
<path d="M86.9405 96.3542
L87.0131 96.2816
" />
<path d="M87.0131 96.2816
L87.1582 96.2090
" />
<path d="M87.1582 96.2090
L87.3759 96.2090
" />
<path d="M87.3759 96.2090
L87.5211 96.2816
" />
<path d="M87.5211 96.2816
L87.5937 96.3542
" />
<path d="M87.5937 96.3542
L87.6662 96.4993
" />
<path d="M87.6662 96.4993
L87.6662 96.9347
" />
<path d="M87.6662 96.9347
L87.5937 97.0799
" />
<path d="M87.5937 97.0799
L87.5211 97.1525
" />
<path d="M87.5211 97.1525
L87.3759 97.2250
" />
<path d="M87.3759 97.2250
L87.1582 97.2250
" />
<path d="M88.3194 96.2090
L88.3194 97.2250
" />
<path d="M88.3194 96.3542
L88.3920 96.2816
" />
<path d="M88.3920 96.2816
L88.5371 96.2090
" />
<path d="M88.5371 96.2090
L88.7548 96.2090
" />
<path d="M88.7548 96.2090
L88.9000 96.2816
" />
<path d="M88.9000 96.2816
L88.9726 96.4267
" />
<path d="M88.9726 96.4267
L88.9726 97.2250
" />
<path d="M89.4806 96.2090
L90.0612 96.2090
" />
<path d="M89.6983 95.7010
L89.6983 97.0073
" />
<path d="M89.6983 97.0073
L89.7709 97.1525
" />
<path d="M89.7709 97.1525
L89.9160 97.2250
" />
<path d="M89.9160 97.2250
L90.0612 97.2250
" />
<path d="M90.5692 97.2250
L90.5692 96.2090
" />
<path d="M90.5692 96.4993
L90.6418 96.3542
" />
<path d="M90.6418 96.3542
L90.7144 96.2816
" />
<path d="M90.7144 96.2816
L90.8595 96.2090
" />
<path d="M90.8595 96.2090
L91.0046 96.2090
" />
<path d="M91.7303 97.2250
L91.5852 97.1525
" />
<path d="M91.5852 97.1525
L91.5126 97.0799
" />
<path d="M91.5126 97.0799
L91.4400 96.9347
" />
<path d="M91.4400 96.9347
L91.4400 96.4993
" />
<path d="M91.4400 96.4993
L91.5126 96.3542
" />
<path d="M91.5126 96.3542
L91.5852 96.2816
" />
<path d="M91.5852 96.2816
L91.7303 96.2090
" />
<path d="M91.7303 96.2090
L91.9480 96.2090
" />
<path d="M91.9480 96.2090
L92.0932 96.2816
" />
<path d="M92.0932 96.2816
L92.1658 96.3542
" />
<path d="M92.1658 96.3542
L92.2383 96.4993
" />
<path d="M92.2383 96.4993
L92.2383 96.9347
" />
<path d="M92.2383 96.9347
L92.1658 97.0799
" />
<path d="M92.1658 97.0799
L92.0932 97.1525
" />
<path d="M92.0932 97.1525
L91.9480 97.2250
" />
<path d="M91.9480 97.2250
L91.7303 97.2250
" />
<path d="M93.1092 97.2250
L92.9641 97.1525
" />
<path d="M92.9641 97.1525
L92.8915 97.0073
" />
<path d="M92.8915 97.0073
L92.8915 95.7010
" />
<path d="M93.9075 97.2250
L93.7624 97.1525
" />
<path d="M93.7624 97.1525
L93.6898 97.0073
" />
<path d="M93.6898 97.0073
L93.6898 95.7010
" />
<path d="M95.0687 97.1525
L94.9235 97.2250
" />
<path d="M94.9235 97.2250
L94.6333 97.2250
" />
<path d="M94.6333 97.2250
L94.4881 97.1525
" />
<path d="M94.4881 97.1525
L94.4155 97.0073
" />
<path d="M94.4155 97.0073
L94.4155 96.4267
" />
<path d="M94.4155 96.4267
L94.4881 96.2816
" />
<path d="M94.4881 96.2816
L94.6333 96.2090
" />
<path d="M94.6333 96.2090
L94.9235 96.2090
" />
<path d="M94.9235 96.2090
L95.0687 96.2816
" />
<path d="M95.0687 96.2816
L95.1413 96.4267
" />
<path d="M95.1413 96.4267
L95.1413 96.5719
" />
<path d="M95.1413 96.5719
L94.4155 96.7170
" />
<path d="M95.7944 97.2250
L95.7944 96.2090
" />
<path d="M95.7944 96.4993
L95.8670 96.3542
" />
<path d="M95.8670 96.3542
L95.9396 96.2816
" />
<path d="M95.9396 96.2816
L96.0847 96.2090
" />
<path d="M96.0847 96.2090
L96.2298 96.2090
" />
</g></g>
</g>
<g style="fill:#006464; fill-opacity:0.0; 
stroke:#006464; stroke-width:0.1524; stroke-opacity:1; 
stroke-linecap:round; stroke-linejoin:round;">
<g >
</g>
<g style="fill:#840000; fill-opacity:0.0; 
stroke:#840000; stroke-width:0.1524; stroke-opacity:1; 
stroke-linecap:round; stroke-linejoin:round;">
<rect x="128.270000" y="52.070000" width="20.320000" height="25.400000" rx="0.000000" />
<path d="M138.4300 77.4700
L138.4300 80.0100
" />
</g>
<g style="fill:#006464; fill-opacity:0.0; 
stroke:#006464; stroke-width:0.1524; stroke-opacity:1; 
stroke-linecap:round; stroke-linejoin:round;">
<g transform="rotate(-90.000000 138.4300 76.4540)">
<text x="138.4300" y="77.0890"
textLength="9.6218" font-size="1.6933" lengthAdjust="spacingAndGlyphs"
text-anchor="start" opacity="0">PDN_UART</text>
</g>
<g class="stroked-text"><desc>PDN_UART</desc>
<path d="M139.0175 76.1516
L137.7475 76.1516
" />
<path d="M137.7475 76.1516
L137.7475 75.6678
" />
<path d="M137.7475 75.6678
L137.8080 75.5468
" />
<path d="M137.8080 75.5468
L137.8685 75.4863
" />
<path d="M137.8685 75.4863
L137.9894 75.4259
" />
<path d="M137.9894 75.4259
L138.1709 75.4259
" />
<path d="M138.1709 75.4259
L138.2918 75.4863
" />
<path d="M138.2918 75.4863
L138.3523 75.5468
" />
<path d="M138.3523 75.5468
L138.4128 75.6678
" />
<path d="M138.4128 75.6678
L138.4128 76.1516
" />
<path d="M139.0175 74.8816
L137.7475 74.8816
" />
<path d="M137.7475 74.8816
L137.7475 74.5792
" />
<path d="M137.7475 74.5792
L137.8080 74.3978
" />
<path d="M137.8080 74.3978
L137.9290 74.2768
" />
<path d="M137.9290 74.2768
L138.0499 74.2163
" />
<path d="M138.0499 74.2163
L138.2918 74.1559
" />
<path d="M138.2918 74.1559
L138.4732 74.1559
" />
<path d="M138.4732 74.1559
L138.7151 74.2163
" />
<path d="M138.7151 74.2163
L138.8361 74.2768
" />
<path d="M138.8361 74.2768
L138.9571 74.3978
" />
<path d="M138.9571 74.3978
L139.0175 74.5792
" />
<path d="M139.0175 74.5792
L139.0175 74.8816
" />
<path d="M139.0175 73.6116
L137.7475 73.6116
" />
<path d="M137.7475 73.6116
L139.0175 72.8859
" />
<path d="M139.0175 72.8859
L137.7475 72.8859
" />
<path d="M139.1385 72.5835
L139.1385 71.6158
" />
<path d="M137.7475 71.3135
L138.7756 71.3135
" />
<path d="M138.7756 71.3135
L138.8966 71.2530
" />
<path d="M138.8966 71.2530
L138.9571 71.1925
" />
<path d="M138.9571 71.1925
L139.0175 71.0716
" />
<path d="M139.0175 71.0716
L139.0175 70.8297
" />
<path d="M139.0175 70.8297
L138.9571 70.7087
" />
<path d="M138.9571 70.7087
L138.8966 70.6482
" />
<path d="M138.8966 70.6482
L138.7756 70.5878
" />
<path d="M138.7756 70.5878
L137.7475 70.5878
" />
<path d="M138.6547 70.0434
L138.6547 69.4387
" />
<path d="M139.0175 70.1644
L137.7475 69.7411
" />
<path d="M137.7475 69.7411
L139.0175 69.3177
" />
<path d="M139.0175 68.1687
L138.4128 68.5920
" />
<path d="M139.0175 68.8944
L137.7475 68.8944
" />
<path d="M137.7475 68.8944
L137.7475 68.4106
" />
<path d="M137.7475 68.4106
L137.8080 68.2896
" />
<path d="M137.8080 68.2896
L137.8685 68.2291
" />
<path d="M137.8685 68.2291
L137.9894 68.1687
" />
<path d="M137.9894 68.1687
L138.1709 68.1687
" />
<path d="M138.1709 68.1687
L138.2918 68.2291
" />
<path d="M138.2918 68.2291
L138.3523 68.2896
" />
<path d="M138.3523 68.2896
L138.4128 68.4106
" />
<path d="M138.4128 68.4106
L138.4128 68.8944
" />
<path d="M137.7475 67.8058
L137.7475 67.0801
" />
<path d="M139.0175 67.4429
L137.7475 67.4429
" />
</g></g>
<g style="fill:#840000; fill-opacity:0.0; 
stroke:#840000; stroke-width:0.1524; stroke-opacity:1; 
stroke-linecap:round; stroke-linejoin:round;">
<path d="M133.3500 77.4700
L133.3500 80.0100
" />
</g>
<g style="fill:#006464; fill-opacity:0.0; 
stroke:#006464; stroke-width:0.1524; stroke-opacity:1; 
stroke-linecap:round; stroke-linejoin:round;">
<g transform="rotate(-90.000000 133.3500 76.4540)">
<text x="133.3500" y="77.0890"
textLength="8.5331" font-size="1.6933" lengthAdjust="spacingAndGlyphs"
text-anchor="start" opacity="0">MS2_AD1</text>
</g>
<g class="stroked-text"><desc>MS2_AD1</desc>
<path d="M133.9375 76.1516
L132.6675 76.1516
" />
<path d="M132.6675 76.1516
L133.5747 75.7282
" />
<path d="M133.5747 75.7282
L132.6675 75.3049
" />
<path d="M132.6675 75.3049
L133.9375 75.3049
" />
<path d="M133.8771 74.7606
L133.9375 74.5792
" />
<path d="M133.9375 74.5792
L133.9375 74.2768
" />
<path d="M133.9375 74.2768
L133.8771 74.1559
" />
<path d="M133.8771 74.1559
L133.8166 74.0954
" />
<path d="M133.8166 74.0954
L133.6956 74.0349
" />
<path d="M133.6956 74.0349
L133.5747 74.0349
" />
<path d="M133.5747 74.0349
L133.4537 74.0954
" />
<path d="M133.4537 74.0954
L133.3932 74.1559
" />
<path d="M133.3932 74.1559
L133.3328 74.2768
" />
<path d="M133.3328 74.2768
L133.2723 74.5187
" />
<path d="M133.2723 74.5187
L133.2118 74.6397
" />
<path d="M133.2118 74.6397
L133.1513 74.7002
" />
<path d="M133.1513 74.7002
L133.0304 74.7606
" />
<path d="M133.0304 74.7606
L132.9094 74.7606
" />
<path d="M132.9094 74.7606
L132.7885 74.7002
" />
<path d="M132.7885 74.7002
L132.7280 74.6397
" />
<path d="M132.7280 74.6397
L132.6675 74.5187
" />
<path d="M132.6675 74.5187
L132.6675 74.2164
" />
<path d="M132.6675 74.2164
L132.7280 74.0349
" />
<path d="M132.7885 73.5511
L132.7280 73.4907
" />
<path d="M132.7280 73.4907
L132.6675 73.3697
" />
<path d="M132.6675 73.3697
L132.6675 73.0673
" />
<path d="M132.6675 73.0673
L132.7280 72.9464
" />
<path d="M132.7280 72.9464
L132.7885 72.8859
" />
<path d="M132.7885 72.8859
L132.9094 72.8254
" />
<path d="M132.9094 72.8254
L133.0304 72.8254
" />
<path d="M133.0304 72.8254
L133.2118 72.8859
" />
<path d="M133.2118 72.8859
L133.9375 73.6116
" />
<path d="M133.9375 73.6116
L133.9375 72.8254
" />
<path d="M134.0585 72.5836
L134.0585 71.6159
" />
<path d="M133.5747 71.3740
L133.5747 70.7693
" />
<path d="M133.9375 71.4950
L132.6675 71.0717
" />
<path d="M132.6675 71.0717
L133.9375 70.6483
" />
<path d="M133.9375 70.2250
L132.6675 70.2250
" />
<path d="M132.6675 70.2250
L132.6675 69.9226
" />
<path d="M132.6675 69.9226
L132.7280 69.7412
" />
<path d="M132.7280 69.7412
L132.8490 69.6202
" />
<path d="M132.8490 69.6202
L132.9699 69.5597
" />
<path d="M132.9699 69.5597
L133.2118 69.4993
" />
<path d="M133.2118 69.4993
L133.3932 69.4993
" />
<path d="M133.3932 69.4993
L133.6351 69.5597
" />
<path d="M133.6351 69.5597
L133.7561 69.6202
" />
<path d="M133.7561 69.6202
L133.8771 69.7412
" />
<path d="M133.8771 69.7412
L133.9375 69.9226
" />
<path d="M133.9375 69.9226
L133.9375 70.2250
" />
<path d="M133.9375 68.2897
L133.9375 69.0154
" />
<path d="M133.9375 68.6526
L132.6675 68.6526
" />
<path d="M132.6675 68.6526
L132.8490 68.7735
" />
<path d="M132.8490 68.7735
L132.9699 68.8945
" />
<path d="M132.9699 68.8945
L133.0304 69.0154
" />
</g></g>
<g style="fill:#840000; fill-opacity:0.0; 
stroke:#840000; stroke-width:0.1524; stroke-opacity:1; 
stroke-linecap:round; stroke-linejoin:round;">
<path d="M130.8100 77.4700
L130.8100 80.0100
" />
</g>
<g style="fill:#006464; fill-opacity:0.0; 
stroke:#006464; stroke-width:0.1524; stroke-opacity:1; 
stroke-linecap:round; stroke-linejoin:round;">
<g transform="rotate(-90.000000 130.8100 76.4540)">
<text x="130.8100" y="77.0890"
textLength="8.5331" font-size="1.6933" lengthAdjust="spacingAndGlyphs"
text-anchor="start" opacity="0">MS1_AD0</text>
</g>
<g class="stroked-text"><desc>MS1_AD0</desc>
<path d="M131.3975 76.1516
L130.1275 76.1516
" />
<path d="M130.1275 76.1516
L131.0347 75.7282
" />
<path d="M131.0347 75.7282
L130.1275 75.3049
" />
<path d="M130.1275 75.3049
L131.3975 75.3049
" />
<path d="M131.3371 74.7606
L131.3975 74.5792
" />
<path d="M131.3975 74.5792
L131.3975 74.2768
" />
<path d="M131.3975 74.2768
L131.3371 74.1559
" />
<path d="M131.3371 74.1559
L131.2766 74.0954
" />
<path d="M131.2766 74.0954
L131.1556 74.0349
" />
<path d="M131.1556 74.0349
L131.0347 74.0349
" />
<path d="M131.0347 74.0349
L130.9137 74.0954
" />
<path d="M130.9137 74.0954
L130.8532 74.1559
" />
<path d="M130.8532 74.1559
L130.7928 74.2768
" />
<path d="M130.7928 74.2768
L130.7323 74.5187
" />
<path d="M130.7323 74.5187
L130.6718 74.6397
" />
<path d="M130.6718 74.6397
L130.6113 74.7002
" />
<path d="M130.6113 74.7002
L130.4904 74.7606
" />
<path d="M130.4904 74.7606
L130.3694 74.7606
" />
<path d="M130.3694 74.7606
L130.2485 74.7002
" />
<path d="M130.2485 74.7002
L130.1880 74.6397
" />
<path d="M130.1880 74.6397
L130.1275 74.5187
" />
<path d="M130.1275 74.5187
L130.1275 74.2164
" />
<path d="M130.1275 74.2164
L130.1880 74.0349
" />
<path d="M131.3975 72.8254
L131.3975 73.5511
" />
<path d="M131.3975 73.1883
L130.1275 73.1883
" />
<path d="M130.1275 73.1883
L130.3090 73.3092
" />
<path d="M130.3090 73.3092
L130.4299 73.4302
" />
<path d="M130.4299 73.4302
L130.4904 73.5511
" />
<path d="M131.5185 72.5836
L131.5185 71.6159
" />
<path d="M131.0347 71.3740
L131.0347 70.7693
" />
<path d="M131.3975 71.4950
L130.1275 71.0717
" />
<path d="M130.1275 71.0717
L131.3975 70.6483
" />
<path d="M131.3975 70.2250
L130.1275 70.2250
" />
<path d="M130.1275 70.2250
L130.1275 69.9226
" />
<path d="M130.1275 69.9226
L130.1880 69.7412
" />
<path d="M130.1880 69.7412
L130.3090 69.6202
" />
<path d="M130.3090 69.6202
L130.4299 69.5597
" />
<path d="M130.4299 69.5597
L130.6718 69.4993
" />
<path d="M130.6718 69.4993
L130.8532 69.4993
" />
<path d="M130.8532 69.4993
L131.0951 69.5597
" />
<path d="M131.0951 69.5597
L131.2161 69.6202
" />
<path d="M131.2161 69.6202
L131.3371 69.7412
" />
<path d="M131.3371 69.7412
L131.3975 69.9226
" />
<path d="M131.3975 69.9226
L131.3975 70.2250
" />
<path d="M130.1275 68.7131
L130.1275 68.5921
" />
<path d="M130.1275 68.5921
L130.1880 68.4712
" />
<path d="M130.1880 68.4712
L130.2485 68.4107
" />
<path d="M130.2485 68.4107
L130.3694 68.3502
" />
<path d="M130.3694 68.3502
L130.6113 68.2897
" />
<path d="M130.6113 68.2897
L130.9137 68.2897
" />
<path d="M130.9137 68.2897
L131.1556 68.3502
" />
<path d="M131.1556 68.3502
L131.2766 68.4107
" />
<path d="M131.2766 68.4107
L131.3371 68.4712
" />
<path d="M131.3371 68.4712
L131.3975 68.5921
" />
<path d="M131.3975 68.5921
L131.3975 68.7131
" />
<path d="M131.3975 68.7131
L131.3371 68.8340
" />
<path d="M131.3371 68.8340
L131.2766 68.8945
" />
<path d="M131.2766 68.8945
L131.1556 68.9550
" />
<path d="M131.1556 68.9550
L130.9137 69.0154
" />
<path d="M130.9137 69.0154
L130.6113 69.0154
" />
<path d="M130.6113 69.0154
L130.3694 68.9550
" />
<path d="M130.3694 68.9550
L130.2485 68.8945
" />
<path d="M130.2485 68.8945
L130.1880 68.8340
" />
<path d="M130.1880 68.8340
L130.1275 68.7131
" />
</g><text x="138.4300" y="65.5320"
textLength="10.3086" font-size="2.0320" lengthAdjust="spacingAndGlyphs"
text-anchor="middle" opacity="0">TMC2209</text>
<g class="stroked-text"><desc>TMC2209</desc>
<path d="M133.4589 63.9510
L134.3298 63.9510
" />
<path d="M133.8943 65.4750
L133.8943 63.9510
" />
<path d="M134.8377 65.4750
L134.8377 63.9510
" />
<path d="M134.8377 63.9510
L135.3457 65.0396
" />
<path d="M135.3457 65.0396
L135.8537 63.9510
" />
<path d="M135.8537 63.9510
L135.8537 65.4750
" />
<path d="M137.4503 65.3299
L137.3777 65.4025
" />
<path d="M137.3777 65.4025
L137.1600 65.4750
" />
<path d="M137.1600 65.4750
L137.0148 65.4750
" />
<path d="M137.0148 65.4750
L136.7971 65.4025
" />
<path d="M136.7971 65.4025
L136.6520 65.2573
" />
<path d="M136.6520 65.2573
L136.5794 65.1122
" />
<path d="M136.5794 65.1122
L136.5068 64.8219
" />
<path d="M136.5068 64.8219
L136.5068 64.6042
" />
<path d="M136.5068 64.6042
L136.5794 64.3139
" />
<path d="M136.5794 64.3139
L136.6520 64.1687
" />
<path d="M136.6520 64.1687
L136.7971 64.0236
" />
<path d="M136.7971 64.0236
L137.0148 63.9510
" />
<path d="M137.0148 63.9510
L137.1600 63.9510
" />
<path d="M137.1600 63.9510
L137.3777 64.0236
" />
<path d="M137.3777 64.0236
L137.4503 64.0962
" />
<path d="M138.0308 64.0962
L138.1034 64.0236
" />
<path d="M138.1034 64.0236
L138.2486 63.9510
" />
<path d="M138.2486 63.9510
L138.6114 63.9510
" />
<path d="M138.6114 63.9510
L138.7566 64.0236
" />
<path d="M138.7566 64.0236
L138.8291 64.0962
" />
<path d="M138.8291 64.0962
L138.9017 64.2413
" />
<path d="M138.9017 64.2413
L138.9017 64.3865
" />
<path d="M138.9017 64.3865
L138.8291 64.6042
" />
<path d="M138.8291 64.6042
L137.9583 65.4750
" />
<path d="M137.9583 65.4750
L138.9017 65.4750
" />
<path d="M139.4822 64.0962
L139.5548 64.0236
" />
<path d="M139.5548 64.0236
L139.7000 63.9510
" />
<path d="M139.7000 63.9510
L140.0628 63.9510
" />
<path d="M140.0628 63.9510
L140.2080 64.0236
" />
<path d="M140.2080 64.0236
L140.2805 64.0962
" />
<path d="M140.2805 64.0962
L140.3531 64.2413
" />
<path d="M140.3531 64.2413
L140.3531 64.3865
" />
<path d="M140.3531 64.3865
L140.2805 64.6042
" />
<path d="M140.2805 64.6042
L139.4097 65.4750
" />
<path d="M139.4097 65.4750
L140.3531 65.4750
" />
<path d="M141.2965 63.9510
L141.4416 63.9510
" />
<path d="M141.4416 63.9510
L141.5868 64.0236
" />
<path d="M141.5868 64.0236
L141.6594 64.0962
" />
<path d="M141.6594 64.0962
L141.7319 64.2413
" />
<path d="M141.7319 64.2413
L141.8045 64.5316
" />
<path d="M141.8045 64.5316
L141.8045 64.8945
" />
<path d="M141.8045 64.8945
L141.7319 65.1847
" />
<path d="M141.7319 65.1847
L141.6594 65.3299
" />
<path d="M141.6594 65.3299
L141.5868 65.4025
" />
<path d="M141.5868 65.4025
L141.4416 65.4750
" />
<path d="M141.4416 65.4750
L141.2965 65.4750
" />
<path d="M141.2965 65.4750
L141.1514 65.4025
" />
<path d="M141.1514 65.4025
L141.0788 65.3299
" />
<path d="M141.0788 65.3299
L141.0062 65.1847
" />
<path d="M141.0062 65.1847
L140.9336 64.8945
" />
<path d="M140.9336 64.8945
L140.9336 64.5316
" />
<path d="M140.9336 64.5316
L141.0062 64.2413
" />
<path d="M141.0062 64.2413
L141.0788 64.0962
" />
<path d="M141.0788 64.0962
L141.1514 64.0236
" />
<path d="M141.1514 64.0236
L141.2965 63.9510
" />
<path d="M142.5302 65.4750
L142.8205 65.4750
" />
<path d="M142.8205 65.4750
L142.9656 65.4025
" />
<path d="M142.9656 65.4025
L143.0382 65.3299
" />
<path d="M143.0382 65.3299
L143.1833 65.1122
" />
<path d="M143.1833 65.1122
L143.2559 64.8219
" />
<path d="M143.2559 64.8219
L143.2559 64.2413
" />
<path d="M143.2559 64.2413
L143.1833 64.0962
" />
<path d="M143.1833 64.0962
L143.1108 64.0236
" />
<path d="M143.1108 64.0236
L142.9656 63.9510
" />
<path d="M142.9656 63.9510
L142.6753 63.9510
" />
<path d="M142.6753 63.9510
L142.5302 64.0236
" />
<path d="M142.5302 64.0236
L142.4576 64.0962
" />
<path d="M142.4576 64.0962
L142.3850 64.2413
" />
<path d="M142.3850 64.2413
L142.3850 64.6042
" />
<path d="M142.3850 64.6042
L142.4576 64.7493
" />
<path d="M142.4576 64.7493
L142.5302 64.8219
" />
<path d="M142.5302 64.8219
L142.6753 64.8945
" />
<path d="M142.6753 64.8945
L142.9656 64.8945
" />
<path d="M142.9656 64.8945
L143.1108 64.8219
" />
<path d="M143.1108 64.8219
L143.1833 64.7493
" />
<path d="M143.1833 64.7493
L143.2559 64.6042
" />
</g></g>
</g>
<g style="fill:#006464; fill-opacity:0.0; 
stroke:#006464; stroke-width:0.1524; stroke-opacity:1; 
stroke-linecap:round; stroke-linejoin:round;">
<g >
</g>
<g style="fill:#840000; fill-opacity:0.0; 
stroke:#840000; stroke-width:0.1524; stroke-opacity:1; 
stroke-linecap:round; stroke-linejoin:round;">
<rect x="151.130000" y="52.070000" width="20.320000" height="25.400000" rx="0.000000" />
<path d="M161.2900 77.4700
L161.2900 80.0100
" />
</g>
<g style="fill:#006464; fill-opacity:0.0; 
stroke:#006464; stroke-width:0.1524; stroke-opacity:1; 
stroke-linecap:round; stroke-linejoin:round;">
<g transform="rotate(-90.000000 161.2900 76.4540)">
<text x="161.2900" y="77.0890"
textLength="9.6218" font-size="1.6933" lengthAdjust="spacingAndGlyphs"
text-anchor="start" opacity="0">PDN_UART</text>
</g>
<g class="stroked-text"><desc>PDN_UART</desc>
<path d="M161.8775 76.1516
L160.6075 76.1516
" />
<path d="M160.6075 76.1516
L160.6075 75.6678
" />
<path d="M160.6075 75.6678
L160.6680 75.5468
" />
<path d="M160.6680 75.5468
L160.7285 75.4863
" />
<path d="M160.7285 75.4863
L160.8494 75.4259
" />
<path d="M160.8494 75.4259
L161.0309 75.4259
" />
<path d="M161.0309 75.4259
L161.1518 75.4863
" />
<path d="M161.1518 75.4863
L161.2123 75.5468
" />
<path d="M161.2123 75.5468
L161.2728 75.6678
" />
<path d="M161.2728 75.6678
L161.2728 76.1516
" />
<path d="M161.8775 74.8816
L160.6075 74.8816
" />
<path d="M160.6075 74.8816
L160.6075 74.5792
" />
<path d="M160.6075 74.5792
L160.6680 74.3978
" />
<path d="M160.6680 74.3978
L160.7890 74.2768
" />
<path d="M160.7890 74.2768
L160.9099 74.2163
" />
<path d="M160.9099 74.2163
L161.1518 74.1559
" />
<path d="M161.1518 74.1559
L161.3332 74.1559
" />
<path d="M161.3332 74.1559
L161.5751 74.2163
" />
<path d="M161.5751 74.2163
L161.6961 74.2768
" />
<path d="M161.6961 74.2768
L161.8171 74.3978
" />
<path d="M161.8171 74.3978
L161.8775 74.5792
" />
<path d="M161.8775 74.5792
L161.8775 74.8816
" />
<path d="M161.8775 73.6116
L160.6075 73.6116
" />
<path d="M160.6075 73.6116
L161.8775 72.8859
" />
<path d="M161.8775 72.8859
L160.6075 72.8859
" />
<path d="M161.9985 72.5835
L161.9985 71.6158
" />
<path d="M160.6075 71.3135
L161.6356 71.3135
" />
<path d="M161.6356 71.3135
L161.7566 71.2530
" />
<path d="M161.7566 71.2530
L161.8171 71.1925
" />
<path d="M161.8171 71.1925
L161.8775 71.0716
" />
<path d="M161.8775 71.0716
L161.8775 70.8297
" />
<path d="M161.8775 70.8297
L161.8171 70.7087
" />
<path d="M161.8171 70.7087
L161.7566 70.6482
" />
<path d="M161.7566 70.6482
L161.6356 70.5878
" />
<path d="M161.6356 70.5878
L160.6075 70.5878
" />
<path d="M161.5147 70.0434
L161.5147 69.4387
" />
<path d="M161.8775 70.1644
L160.6075 69.7411
" />
<path d="M160.6075 69.7411
L161.8775 69.3177
" />
<path d="M161.8775 68.1687
L161.2728 68.5920
" />
<path d="M161.8775 68.8944
L160.6075 68.8944
" />
<path d="M160.6075 68.8944
L160.6075 68.4106
" />
<path d="M160.6075 68.4106
L160.6680 68.2896
" />
<path d="M160.6680 68.2896
L160.7285 68.2291
" />
<path d="M160.7285 68.2291
L160.8494 68.1687
" />
<path d="M160.8494 68.1687
L161.0309 68.1687
" />
<path d="M161.0309 68.1687
L161.1518 68.2291
" />
<path d="M161.1518 68.2291
L161.2123 68.2896
" />
<path d="M161.2123 68.2896
L161.2728 68.4106
" />
<path d="M161.2728 68.4106
L161.2728 68.8944
" />
<path d="M160.6075 67.8058
L160.6075 67.0801
" />
<path d="M161.8775 67.4429
L160.6075 67.4429
" />
</g></g>
<g style="fill:#840000; fill-opacity:0.0; 
stroke:#840000; stroke-width:0.1524; stroke-opacity:1; 
stroke-linecap:round; stroke-linejoin:round;">
<path d="M156.2100 77.4700
L156.2100 80.0100
" />
</g>
<g style="fill:#006464; fill-opacity:0.0; 
stroke:#006464; stroke-width:0.1524; stroke-opacity:1; 
stroke-linecap:round; stroke-linejoin:round;">
<g transform="rotate(-90.000000 156.2100 76.4540)">
<text x="156.2100" y="77.0890"
textLength="8.5331" font-size="1.6933" lengthAdjust="spacingAndGlyphs"
text-anchor="start" opacity="0">MS2_AD1</text>
</g>
<g class="stroked-text"><desc>MS2_AD1</desc>
<path d="M156.7975 76.1516
L155.5275 76.1516
" />
<path d="M155.5275 76.1516
L156.4347 75.7282
" />
<path d="M156.4347 75.7282
L155.5275 75.3049
" />
<path d="M155.5275 75.3049
L156.7975 75.3049
" />
<path d="M156.7371 74.7606
L156.7975 74.5792
" />
<path d="M156.7975 74.5792
L156.7975 74.2768
" />
<path d="M156.7975 74.2768
L156.7371 74.1559
" />
<path d="M156.7371 74.1559
L156.6766 74.0954
" />
<path d="M156.6766 74.0954
L156.5556 74.0349
" />
<path d="M156.5556 74.0349
L156.4347 74.0349
" />
<path d="M156.4347 74.0349
L156.3137 74.0954
" />
<path d="M156.3137 74.0954
L156.2532 74.1559
" />
<path d="M156.2532 74.1559
L156.1928 74.2768
" />
<path d="M156.1928 74.2768
L156.1323 74.5187
" />
<path d="M156.1323 74.5187
L156.0718 74.6397
" />
<path d="M156.0718 74.6397
L156.0113 74.7002
" />
<path d="M156.0113 74.7002
L155.8904 74.7606
" />
<path d="M155.8904 74.7606
L155.7694 74.7606
" />
<path d="M155.7694 74.7606
L155.6485 74.7002
" />
<path d="M155.6485 74.7002
L155.5880 74.6397
" />
<path d="M155.5880 74.6397
L155.5275 74.5187
" />
<path d="M155.5275 74.5187
L155.5275 74.2164
" />
<path d="M155.5275 74.2164
L155.5880 74.0349
" />
<path d="M155.6485 73.5511
L155.5880 73.4907
" />
<path d="M155.5880 73.4907
L155.5275 73.3697
" />
<path d="M155.5275 73.3697
L155.5275 73.0673
" />
<path d="M155.5275 73.0673
L155.5880 72.9464
" />
<path d="M155.5880 72.9464
L155.6485 72.8859
" />
<path d="M155.6485 72.8859
L155.7694 72.8254
" />
<path d="M155.7694 72.8254
L155.8904 72.8254
" />
<path d="M155.8904 72.8254
L156.0718 72.8859
" />
<path d="M156.0718 72.8859
L156.7975 73.6116
" />
<path d="M156.7975 73.6116
L156.7975 72.8254
" />
<path d="M156.9185 72.5836
L156.9185 71.6159
" />
<path d="M156.4347 71.3740
L156.4347 70.7693
" />
<path d="M156.7975 71.4950
L155.5275 71.0717
" />
<path d="M155.5275 71.0717
L156.7975 70.6483
" />
<path d="M156.7975 70.2250
L155.5275 70.2250
" />
<path d="M155.5275 70.2250
L155.5275 69.9226
" />
<path d="M155.5275 69.9226
L155.5880 69.7412
" />
<path d="M155.5880 69.7412
L155.7090 69.6202
" />
<path d="M155.7090 69.6202
L155.8299 69.5597
" />
<path d="M155.8299 69.5597
L156.0718 69.4993
" />
<path d="M156.0718 69.4993
L156.2532 69.4993
" />
<path d="M156.2532 69.4993
L156.4951 69.5597
" />
<path d="M156.4951 69.5597
L156.6161 69.6202
" />
<path d="M156.6161 69.6202
L156.7371 69.7412
" />
<path d="M156.7371 69.7412
L156.7975 69.9226
" />
<path d="M156.7975 69.9226
L156.7975 70.2250
" />
<path d="M156.7975 68.2897
L156.7975 69.0154
" />
<path d="M156.7975 68.6526
L155.5275 68.6526
" />
<path d="M155.5275 68.6526
L155.7090 68.7735
" />
<path d="M155.7090 68.7735
L155.8299 68.8945
" />
<path d="M155.8299 68.8945
L155.8904 69.0154
" />
</g></g>
<g style="fill:#840000; fill-opacity:0.0; 
stroke:#840000; stroke-width:0.1524; stroke-opacity:1; 
stroke-linecap:round; stroke-linejoin:round;">
<path d="M153.6700 77.4700
L153.6700 80.0100
" />
</g>
<g style="fill:#006464; fill-opacity:0.0; 
stroke:#006464; stroke-width:0.1524; stroke-opacity:1; 
stroke-linecap:round; stroke-linejoin:round;">
<g transform="rotate(-90.000000 153.6700 76.4540)">
<text x="153.6700" y="77.0890"
textLength="8.5331" font-size="1.6933" lengthAdjust="spacingAndGlyphs"
text-anchor="start" opacity="0">MS1_AD0</text>
</g>
<g class="stroked-text"><desc>MS1_AD0</desc>
<path d="M154.2575 76.1516
L152.9875 76.1516
" />
<path d="M152.9875 76.1516
L153.8947 75.7282
" />
<path d="M153.8947 75.7282
L152.9875 75.3049
" />
<path d="M152.9875 75.3049
L154.2575 75.3049
" />
<path d="M154.1971 74.7606
L154.2575 74.5792
" />
<path d="M154.2575 74.5792
L154.2575 74.2768
" />
<path d="M154.2575 74.2768
L154.1971 74.1559
" />
<path d="M154.1971 74.1559
L154.1366 74.0954
" />
<path d="M154.1366 74.0954
L154.0156 74.0349
" />
<path d="M154.0156 74.0349
L153.8947 74.0349
" />
<path d="M153.8947 74.0349
L153.7737 74.0954
" />
<path d="M153.7737 74.0954
L153.7132 74.1559
" />
<path d="M153.7132 74.1559
L153.6528 74.2768
" />
<path d="M153.6528 74.2768
L153.5923 74.5187
" />
<path d="M153.5923 74.5187
L153.5318 74.6397
" />
<path d="M153.5318 74.6397
L153.4713 74.7002
" />
<path d="M153.4713 74.7002
L153.3504 74.7606
" />
<path d="M153.3504 74.7606
L153.2294 74.7606
" />
<path d="M153.2294 74.7606
L153.1085 74.7002
" />
<path d="M153.1085 74.7002
L153.0480 74.6397
" />
<path d="M153.0480 74.6397
L152.9875 74.5187
" />
<path d="M152.9875 74.5187
L152.9875 74.2164
" />
<path d="M152.9875 74.2164
L153.0480 74.0349
" />
<path d="M154.2575 72.8254
L154.2575 73.5511
" />
<path d="M154.2575 73.1883
L152.9875 73.1883
" />
<path d="M152.9875 73.1883
L153.1690 73.3092
" />
<path d="M153.1690 73.3092
L153.2899 73.4302
" />
<path d="M153.2899 73.4302
L153.3504 73.5511
" />
<path d="M154.3785 72.5836
L154.3785 71.6159
" />
<path d="M153.8947 71.3740
L153.8947 70.7693
" />
<path d="M154.2575 71.4950
L152.9875 71.0717
" />
<path d="M152.9875 71.0717
L154.2575 70.6483
" />
<path d="M154.2575 70.2250
L152.9875 70.2250
" />
<path d="M152.9875 70.2250
L152.9875 69.9226
" />
<path d="M152.9875 69.9226
L153.0480 69.7412
" />
<path d="M153.0480 69.7412
L153.1690 69.6202
" />
<path d="M153.1690 69.6202
L153.2899 69.5597
" />
<path d="M153.2899 69.5597
L153.5318 69.4993
" />
<path d="M153.5318 69.4993
L153.7132 69.4993
" />
<path d="M153.7132 69.4993
L153.9551 69.5597
" />
<path d="M153.9551 69.5597
L154.0761 69.6202
" />
<path d="M154.0761 69.6202
L154.1971 69.7412
" />
<path d="M154.1971 69.7412
L154.2575 69.9226
" />
<path d="M154.2575 69.9226
L154.2575 70.2250
" />
<path d="M152.9875 68.7131
L152.9875 68.5921
" />
<path d="M152.9875 68.5921
L153.0480 68.4712
" />
<path d="M153.0480 68.4712
L153.1085 68.4107
" />
<path d="M153.1085 68.4107
L153.2294 68.3502
" />
<path d="M153.2294 68.3502
L153.4713 68.2897
" />
<path d="M153.4713 68.2897
L153.7737 68.2897
" />
<path d="M153.7737 68.2897
L154.0156 68.3502
" />
<path d="M154.0156 68.3502
L154.1366 68.4107
" />
<path d="M154.1366 68.4107
L154.1971 68.4712
" />
<path d="M154.1971 68.4712
L154.2575 68.5921
" />
<path d="M154.2575 68.5921
L154.2575 68.7131
" />
<path d="M154.2575 68.7131
L154.1971 68.8340
" />
<path d="M154.1971 68.8340
L154.1366 68.8945
" />
<path d="M154.1366 68.8945
L154.0156 68.9550
" />
<path d="M154.0156 68.9550
L153.7737 69.0154
" />
<path d="M153.7737 69.0154
L153.4713 69.0154
" />
<path d="M153.4713 69.0154
L153.2294 68.9550
" />
<path d="M153.2294 68.9550
L153.1085 68.8945
" />
<path d="M153.1085 68.8945
L153.0480 68.8340
" />
<path d="M153.0480 68.8340
L152.9875 68.7131
" />
</g><text x="161.2900" y="65.5320"
textLength="10.3086" font-size="2.0320" lengthAdjust="spacingAndGlyphs"
text-anchor="middle" opacity="0">TMC2209</text>
<g class="stroked-text"><desc>TMC2209</desc>
<path d="M156.3189 63.9510
L157.1898 63.9510
" />
<path d="M156.7543 65.4750
L156.7543 63.9510
" />
<path d="M157.6977 65.4750
L157.6977 63.9510
" />
<path d="M157.6977 63.9510
L158.2057 65.0396
" />
<path d="M158.2057 65.0396
L158.7137 63.9510
" />
<path d="M158.7137 63.9510
L158.7137 65.4750
" />
<path d="M160.3103 65.3299
L160.2377 65.4025
" />
<path d="M160.2377 65.4025
L160.0200 65.4750
" />
<path d="M160.0200 65.4750
L159.8748 65.4750
" />
<path d="M159.8748 65.4750
L159.6571 65.4025
" />
<path d="M159.6571 65.4025
L159.5120 65.2573
" />
<path d="M159.5120 65.2573
L159.4394 65.1122
" />
<path d="M159.4394 65.1122
L159.3668 64.8219
" />
<path d="M159.3668 64.8219
L159.3668 64.6042
" />
<path d="M159.3668 64.6042
L159.4394 64.3139
" />
<path d="M159.4394 64.3139
L159.5120 64.1687
" />
<path d="M159.5120 64.1687
L159.6571 64.0236
" />
<path d="M159.6571 64.0236
L159.8748 63.9510
" />
<path d="M159.8748 63.9510
L160.0200 63.9510
" />
<path d="M160.0200 63.9510
L160.2377 64.0236
" />
<path d="M160.2377 64.0236
L160.3103 64.0962
" />
<path d="M160.8908 64.0962
L160.9634 64.0236
" />
<path d="M160.9634 64.0236
L161.1086 63.9510
" />
<path d="M161.1086 63.9510
L161.4714 63.9510
" />
<path d="M161.4714 63.9510
L161.6166 64.0236
" />
<path d="M161.6166 64.0236
L161.6891 64.0962
" />
<path d="M161.6891 64.0962
L161.7617 64.2413
" />
<path d="M161.7617 64.2413
L161.7617 64.3865
" />
<path d="M161.7617 64.3865
L161.6891 64.6042
" />
<path d="M161.6891 64.6042
L160.8183 65.4750
" />
<path d="M160.8183 65.4750
L161.7617 65.4750
" />
<path d="M162.3422 64.0962
L162.4148 64.0236
" />
<path d="M162.4148 64.0236
L162.5600 63.9510
" />
<path d="M162.5600 63.9510
L162.9228 63.9510
" />
<path d="M162.9228 63.9510
L163.0680 64.0236
" />
<path d="M163.0680 64.0236
L163.1405 64.0962
" />
<path d="M163.1405 64.0962
L163.2131 64.2413
" />
<path d="M163.2131 64.2413
L163.2131 64.3865
" />
<path d="M163.2131 64.3865
L163.1405 64.6042
" />
<path d="M163.1405 64.6042
L162.2697 65.4750
" />
<path d="M162.2697 65.4750
L163.2131 65.4750
" />
<path d="M164.1565 63.9510
L164.3016 63.9510
" />
<path d="M164.3016 63.9510
L164.4468 64.0236
" />
<path d="M164.4468 64.0236
L164.5194 64.0962
" />
<path d="M164.5194 64.0962
L164.5919 64.2413
" />
<path d="M164.5919 64.2413
L164.6645 64.5316
" />
<path d="M164.6645 64.5316
L164.6645 64.8945
" />
<path d="M164.6645 64.8945
L164.5919 65.1847
" />
<path d="M164.5919 65.1847
L164.5194 65.3299
" />
<path d="M164.5194 65.3299
L164.4468 65.4025
" />
<path d="M164.4468 65.4025
L164.3016 65.4750
" />
<path d="M164.3016 65.4750
L164.1565 65.4750
" />
<path d="M164.1565 65.4750
L164.0114 65.4025
" />
<path d="M164.0114 65.4025
L163.9388 65.3299
" />
<path d="M163.9388 65.3299
L163.8662 65.1847
" />
<path d="M163.8662 65.1847
L163.7936 64.8945
" />
<path d="M163.7936 64.8945
L163.7936 64.5316
" />
<path d="M163.7936 64.5316
L163.8662 64.2413
" />
<path d="M163.8662 64.2413
L163.9388 64.0962
" />
<path d="M163.9388 64.0962
L164.0114 64.0236
" />
<path d="M164.0114 64.0236
L164.1565 63.9510
" />
<path d="M165.3902 65.4750
L165.6805 65.4750
" />
<path d="M165.6805 65.4750
L165.8256 65.4025
" />
<path d="M165.8256 65.4025
L165.8982 65.3299
" />
<path d="M165.8982 65.3299
L166.0433 65.1122
" />
<path d="M166.0433 65.1122
L166.1159 64.8219
" />
<path d="M166.1159 64.8219
L166.1159 64.2413
" />
<path d="M166.1159 64.2413
L166.0433 64.0962
" />
<path d="M166.0433 64.0962
L165.9708 64.0236
" />
<path d="M165.9708 64.0236
L165.8256 63.9510
" />
<path d="M165.8256 63.9510
L165.5353 63.9510
" />
<path d="M165.5353 63.9510
L165.3902 64.0236
" />
<path d="M165.3902 64.0236
L165.3176 64.0962
" />
<path d="M165.3176 64.0962
L165.2450 64.2413
" />
<path d="M165.2450 64.2413
L165.2450 64.6042
" />
<path d="M165.2450 64.6042
L165.3176 64.7493
" />
<path d="M165.3176 64.7493
L165.3902 64.8219
" />
<path d="M165.3902 64.8219
L165.5353 64.8945
" />
<path d="M165.5353 64.8945
L165.8256 64.8945
" />
<path d="M165.8256 64.8945
L165.9708 64.8219
" />
<path d="M165.9708 64.8219
L166.0433 64.7493
" />
<path d="M166.0433 64.7493
L166.1159 64.6042
" />
</g></g>
</g>
<g style="fill:#006464; fill-opacity:0.0; 
stroke:#006464; stroke-width:0.1588; stroke-opacity:1; 
stroke-linecap:round; stroke-linejoin:round;">
</g>
<g style="fill:#006464; fill-opacity:0.0; 
stroke:#006464; stroke-width:0.1524; stroke-opacity:1; 
stroke-linecap:round; stroke-linejoin:round;">
</g>
<g style="fill:#0F0F0F; fill-opacity:0.0; 
stroke:#0F0F0F; stroke-width:0.1524; stroke-opacity:1; 
stroke-linecap:round; stroke-linejoin:round;">
<text x="153.6700" y="82.2007"
textLength="7.2633" font-size="1.6933" lengthAdjust="spacingAndGlyphs"
text-anchor="end" opacity="0">+VCCIO</text>
<g class="stroked-text"><desc>+VCCIO</desc>
<path d="M146.8360 81.5614
L147.8037 81.5614
" />
<path d="M147.3198 82.0452
L147.3198 81.0776
" />
<path d="M148.2270 80.7752
L148.6503 82.0452
" />
<path d="M148.6503 82.0452
L149.0737 80.7752
" />
<path d="M150.2227 81.9243
L150.1623 81.9848
" />
<path d="M150.1623 81.9848
L149.9808 82.0452
" />
<path d="M149.9808 82.0452
L149.8599 82.0452
" />
<path d="M149.8599 82.0452
L149.6785 81.9848
" />
<path d="M149.6785 81.9848
L149.5575 81.8638
" />
<path d="M149.5575 81.8638
L149.4970 81.7428
" />
<path d="M149.4970 81.7428
L149.4366 81.5009
" />
<path d="M149.4366 81.5009
L149.4366 81.3195
" />
<path d="M149.4366 81.3195
L149.4970 81.0776
" />
<path d="M149.4970 81.0776
L149.5575 80.9567
" />
<path d="M149.5575 80.9567
L149.6785 80.8357
" />
<path d="M149.6785 80.8357
L149.8599 80.7752
" />
<path d="M149.8599 80.7752
L149.9808 80.7752
" />
<path d="M149.9808 80.7752
L150.1623 80.8357
" />
<path d="M150.1623 80.8357
L150.2227 80.8962
" />
<path d="M151.4927 81.9243
L151.4323 81.9848
" />
<path d="M151.4323 81.9848
L151.2508 82.0452
" />
<path d="M151.2508 82.0452
L151.1299 82.0452
" />
<path d="M151.1299 82.0452
L150.9485 81.9848
" />
<path d="M150.9485 81.9848
L150.8275 81.8638
" />
<path d="M150.8275 81.8638
L150.7670 81.7428
" />
<path d="M150.7670 81.7428
L150.7066 81.5009
" />
<path d="M150.7066 81.5009
L150.7066 81.3195
" />
<path d="M150.7066 81.3195
L150.7670 81.0776
" />
<path d="M150.7670 81.0776
L150.8275 80.9567
" />
<path d="M150.8275 80.9567
L150.9485 80.8357
" />
<path d="M150.9485 80.8357
L151.1299 80.7752
" />
<path d="M151.1299 80.7752
L151.2508 80.7752
" />
<path d="M151.2508 80.7752
L151.4323 80.8357
" />
<path d="M151.4323 80.8357
L151.4927 80.8962
" />
<path d="M152.0370 82.0452
L152.0370 80.7752
" />
<path d="M152.8837 80.7752
L153.1256 80.7752
" />
<path d="M153.1256 80.7752
L153.2466 80.8357
" />
<path d="M153.2466 80.8357
L153.3675 80.9567
" />
<path d="M153.3675 80.9567
L153.4280 81.1986
" />
<path d="M153.4280 81.1986
L153.4280 81.6219
" />
<path d="M153.4280 81.6219
L153.3675 81.8638
" />
<path d="M153.3675 81.8638
L153.2466 81.9848
" />
<path d="M153.2466 81.9848
L153.1256 82.0452
" />
<path d="M153.1256 82.0452
L152.8837 82.0452
" />
<path d="M152.8837 82.0452
L152.7628 81.9848
" />
<path d="M152.7628 81.9848
L152.6418 81.8638
" />
<path d="M152.6418 81.8638
L152.5814 81.6219
" />
<path d="M152.5814 81.6219
L152.5814 81.1986
" />
<path d="M152.5814 81.1986
L152.6418 80.9567
" />
<path d="M152.6418 80.9567
L152.7628 80.8357
" />
<path d="M152.7628 80.8357
L152.8837 80.7752
" />
</g></g>
<g style="fill:#009600; fill-opacity:0.0; 
stroke:#009600; stroke-width:0.1524; stroke-opacity:1; 
stroke-linecap:round; stroke-linejoin:round;">
<path d="M138.4300 87.6300
L161.2900 87.6300
" />
<path d="M161.2900 80.0100
L161.2900 87.6300
" />
<path d="M138.4300 80.0100
L138.4300 87.6300
" />
<path d="M100.3300 87.6300
L138.4300 87.6300
" />
<path d="M153.6700 80.0100
L153.6700 82.5500
" />
</g>
<g style="fill:#000084; fill-opacity:0.0; 
stroke:#000084; stroke-width:0.1524; stroke-opacity:1; 
stroke-linecap:round; stroke-linejoin:round;">
<path d="M132.7404 79.4004
L133.9596 80.6196
" />
<path d="M133.9596 79.4004
L132.7404 80.6196
" />
<path d="M130.2004 79.4004
L131.4196 80.6196
" />
<path d="M131.4196 79.4004
L130.2004 80.6196
" />
<path d="M99.7204 106.0704
L100.9396 107.2896
" />
<path d="M100.9396 106.0704
L99.7204 107.2896
" />
<path d="M155.6004 79.4004
L156.8196 80.6196
" />
<path d="M156.8196 79.4004
L155.6004 80.6196
" />
</g>
<g style="fill:#009600; fill-opacity:0.0; 
stroke:#009600; stroke-width:0.1524; stroke-opacity:1; 
stroke-linecap:round; stroke-linejoin:round;">
</g>
<g style="fill:#009600; fill-opacity:1.0000; 
stroke:#009600; stroke-width:0.1524; stroke-opacity:1; 
stroke-linecap:round; stroke-linejoin:round;">
<circle cx="138.4300" cy="87.6300" r="0.4572" /> 
</g> 
</svg>
